<svg width="54" height="54" viewBox="0 0 54 54" fill="none" xmlns="http://www.w3.org/2000/svg">
<g id="bank-locker 6" clip-path="url(#clip0_795_86356)">
<g id="Group">
<path id="Vector" d="M53.5 27C53.5 41.6355 41.6355 53.5 27 53.5C12.3645 53.5 0.5 41.6355 0.5 27C0.5 12.3645 12.3645 0.5 27 0.5C41.6355 0.5 53.5 12.3645 53.5 27Z" fill="white" stroke="#E9E9E9"/>
<g id="guarantee 1">
<path id="Vector_2" d="M27.0002 43.1449L26.3662 43.4782C26.5767 43.486 26.7878 43.4913 27.0002 43.4913C27.2127 43.4913 27.4237 43.486 27.6342 43.4782L27.0002 43.1449ZM27.0002 9.57275C17.6339 9.57275 10.041 17.1656 10.041 26.532C10.041 31.8261 12.4673 36.5531 16.268 39.6631L18.138 39.3913L19.3576 36.9202L20.5772 39.3913L23.1789 39.7694L25.7807 39.3913L27.0002 36.9203L28.2198 39.3914L30.8216 39.7695L33.4233 39.3914L34.6429 36.9203L35.8624 39.3914L37.484 39.8634C41.4274 36.758 43.9595 31.9407 43.9595 26.532C43.9595 17.1656 36.3666 9.57275 27.0002 9.57275ZM25.0269 41.7112L23.1789 39.9099L21.331 41.7112L21.4784 42.5711C22.5397 42.9363 23.6347 43.1945 24.7473 43.342L25.0269 41.7112ZM32.6695 41.7112L30.8216 39.9099L28.9736 41.7112L29.2533 43.342C30.3658 43.1945 31.4609 42.9362 32.5221 42.5711L32.6695 41.7112Z" fill="#E7BDD5"/>
<path id="Vector_3" d="M18.7133 38.2256L19.3575 36.9202L20.5473 39.3309C20.6004 39.3576 20.6535 39.384 20.7069 39.4103L23.1789 39.7694L25.7807 39.3914L27.0002 36.9202L28.2197 39.3914L30.8215 39.7694L33.2935 39.4103C33.3469 39.384 33.4001 39.3576 33.4532 39.3309L34.6429 36.9202L35.2872 38.2256C38.9448 35.6289 41.3315 31.3591 41.3315 26.5319C41.3315 18.6169 34.9152 12.2007 27.0003 12.2007C19.0854 12.2007 12.6689 18.6169 12.6689 26.5319C12.6689 31.3591 15.0556 35.6288 18.7133 38.2256Z" fill="white"/>
<path id="Vector_4" d="M19.4941 23.6533C18.6702 23.6533 18 24.3235 18 25.1473V32.0038C18 32.8277 18.6702 33.4979 19.4941 33.4979H20.4861C21.3099 33.4979 21.9801 32.8277 21.9801 32.0038V25.1473C21.9801 24.3235 21.3099 23.6533 20.4861 23.6533H19.4941Z" fill="#E7BDD5"/>
<path id="Vector_5" d="M38.5893 40.1852L35.8622 39.3915L34.6426 36.9204L33.423 39.3915L30.8213 39.7696L28.2195 39.3915L26.9999 36.9204L25.7804 39.3915L23.1786 39.7696L20.5769 39.3915L19.3573 36.9204L18.1377 39.3915L15.4106 39.7878L17.384 41.7113L16.9181 44.4274L19.3573 43.145L21.7965 44.4274L21.3307 41.7113L23.1786 39.91L25.0266 41.7113L24.5607 44.4274L26.9999 43.145L29.4392 44.4274L28.9733 41.7113L30.8213 39.91L32.6692 41.7113L32.2034 44.4274L34.6426 43.145L37.0818 44.4274L36.616 41.7113L38.5893 40.1852Z" fill="#E7BDD5"/>
<path id="Vector_6" d="M20.4862 34.6898C21.3244 34.6898 22.0737 34.3039 22.5667 33.7006C23.1976 34.1579 23.9718 34.429 24.809 34.429H34.9531C36.1048 34.429 37.0418 33.4921 37.0418 32.3404C37.0418 31.7561 36.8006 31.2272 36.4127 30.8477C36.8006 30.4682 37.0418 29.9393 37.0418 29.3551C37.0418 28.7709 36.8006 28.242 36.4127 27.8625C36.8006 27.483 37.0418 26.954 37.0418 26.3699C37.0418 25.7857 36.8006 25.2566 36.4127 24.8771C36.8006 24.4978 37.0418 23.9686 37.0418 23.3844C37.0418 22.2327 36.1048 21.2957 34.9531 21.2957H30.241V18.0413C30.241 16.6179 29.0831 15.46 27.6597 15.46C26.2362 15.46 25.0783 16.6179 25.0787 18.063C25.0794 18.0807 25.1427 19.8579 25.0797 20.7611C25.0452 21.2578 23.9744 22.7657 22.6232 23.5221C22.1321 22.8779 21.3572 22.4612 20.4863 22.4612H19.4943C18.013 22.4612 16.8081 23.6661 16.8081 25.1473V32.0038C16.8081 33.485 18.013 34.69 19.4943 34.69H20.4862V34.6898ZM23.1183 24.6099C24.8551 23.6824 26.2019 21.8054 26.269 20.844C26.3363 19.8786 26.2728 18.0949 26.2704 18.0411C26.2704 17.2751 26.8937 16.6519 27.6597 16.6519C28.4257 16.6519 29.0489 17.2752 29.0489 18.0411V22.4877H34.9531C35.4475 22.4877 35.8497 22.8899 35.8497 23.3843C35.8497 23.8788 35.4476 24.281 34.9531 24.281H32.8263C32.748 24.281 32.6705 24.2964 32.5982 24.3263C32.5259 24.3563 32.4602 24.4002 32.4048 24.4555C32.3495 24.5109 32.3056 24.5766 32.2756 24.6489C32.2457 24.7212 32.2303 24.7987 32.2303 24.877C32.2303 24.9553 32.2457 25.0328 32.2756 25.1051C32.3056 25.1774 32.3495 25.2431 32.4048 25.2985C32.4602 25.3538 32.5259 25.3977 32.5982 25.4277C32.6705 25.4576 32.748 25.473 32.8263 25.473H34.9531C35.4475 25.473 35.8497 25.8752 35.8497 26.3698C35.8497 26.8642 35.4476 27.2664 34.9531 27.2664H32.8263C32.4971 27.2664 32.2303 27.5332 32.2303 27.8625C32.2303 28.1918 32.4971 28.4586 32.8263 28.4586H34.9531C35.4475 28.4586 35.8497 28.8607 35.8497 29.3552C35.8497 29.8496 35.4476 30.2518 34.9531 30.2518H32.8263C32.748 30.2518 32.6705 30.2672 32.5982 30.2972C32.5259 30.3271 32.4602 30.371 32.4048 30.4264C32.3495 30.4817 32.3056 30.5474 32.2756 30.6198C32.2457 30.6921 32.2303 30.7696 32.2303 30.8479C32.2303 30.9261 32.2457 31.0036 32.2756 31.076C32.3056 31.1483 32.3495 31.214 32.4048 31.2694C32.4602 31.3247 32.5259 31.3686 32.5982 31.3986C32.6705 31.4285 32.748 31.444 32.8263 31.4439H34.9531C35.4475 31.4439 35.8497 31.8461 35.8497 32.3406C35.8497 32.835 35.4476 33.2372 34.9531 33.2372H24.809C24.1589 33.2372 23.5633 33.0007 23.1026 32.6097C23.1477 32.415 23.1723 32.2124 23.1723 32.0039V25.1475C23.1724 24.9669 23.1543 24.7868 23.1183 24.6099ZM18.0001 32.0036V25.1471C18.0001 24.3233 18.6703 23.6532 19.4942 23.6532H20.4862C20.8211 23.6532 21.1294 23.7652 21.3789 23.952C21.4976 24.041 21.6025 24.1469 21.6903 24.2664C21.7124 24.2965 21.7333 24.3275 21.7532 24.3593C21.7629 24.3748 21.7726 24.3903 21.7817 24.4062C21.8088 24.453 21.8334 24.5012 21.8551 24.5507C21.8612 24.5646 21.8667 24.5789 21.8725 24.5931C21.8844 24.6227 21.8955 24.6527 21.9055 24.6832C21.9088 24.6931 21.9123 24.7028 21.9154 24.7128C21.9269 24.7507 21.9366 24.7894 21.9452 24.8286C21.9474 24.8388 21.9498 24.8489 21.9518 24.8593C21.9599 24.9005 21.9664 24.9423 21.971 24.9847C21.9719 24.9931 21.9726 25.0015 21.9733 25.01C21.9774 25.0553 21.9802 25.1009 21.9802 25.1472V32.0037C21.9802 32.0503 21.9775 32.0961 21.9733 32.1414C21.9719 32.156 21.9699 32.1703 21.9682 32.1847C21.9644 32.2157 21.9597 32.2462 21.9541 32.2764C21.9511 32.2928 21.9481 32.309 21.9445 32.3251C21.9379 32.355 21.9301 32.3844 21.9217 32.4136C21.9177 32.4276 21.9144 32.4418 21.9101 32.4556C21.8979 32.4939 21.8839 32.5314 21.8688 32.5682C21.8606 32.5882 21.8513 32.6075 21.8423 32.6271C21.8337 32.6458 21.8247 32.6645 21.8154 32.6829C21.8045 32.7039 21.7934 32.7246 21.7816 32.745C21.7727 32.7606 21.7631 32.7759 21.7537 32.7911C21.7405 32.8121 21.7277 32.8332 21.7137 32.8534C21.4437 33.2424 20.9945 33.4979 20.4862 33.4979H19.4942C18.6703 33.4977 18.0001 32.8275 18.0001 32.0036Z" fill="#61113F"/>
<path id="Vector_7" d="M44.5555 26.5318C44.5555 16.8518 36.6802 8.97656 27.0002 8.97656C17.3202 8.97656 9.44482 16.8518 9.44482 26.5318C9.44482 31.5815 11.5892 36.1388 15.0137 39.3444C14.9352 39.4142 14.8766 39.5036 14.8438 39.6034C14.8095 39.7091 14.8054 39.8224 14.8321 39.9304C14.8587 40.0384 14.9151 40.1368 14.9947 40.2144L16.7438 41.9191L16.3309 44.3263C16.3122 44.4359 16.3244 44.5486 16.3663 44.6516C16.4082 44.7546 16.4781 44.8438 16.568 44.9092C16.658 44.9746 16.7645 45.0136 16.8754 45.0216C16.9864 45.0296 17.0974 45.0064 17.1958 44.9546L19.3575 43.8182L21.5192 44.9546C21.6176 45.0064 21.7286 45.0295 21.8395 45.0215C21.9505 45.0135 22.0569 44.9746 22.1469 44.9093C22.2369 44.8439 22.3068 44.7547 22.3487 44.6517C22.3906 44.5486 22.4029 44.436 22.3841 44.3263L22.2297 43.4263C22.831 43.5963 23.4411 43.7338 24.0572 43.8381L23.9734 44.3263C23.9588 44.4119 23.963 44.4996 23.9858 44.5833C24.0086 44.6671 24.0494 44.7448 24.1053 44.8112C24.1613 44.8775 24.231 44.9309 24.3097 44.9675C24.3884 45.0041 24.4741 45.0231 24.5609 45.0231C24.6558 45.0231 24.7511 45.0005 24.8382 44.9546L26.5037 44.0791C26.6687 44.084 26.8341 44.0872 27.0001 44.0872C27.1662 44.0872 27.3316 44.084 27.4965 44.0791L29.1617 44.9546C29.1788 45.0545 29.2211 45.1484 29.2846 45.2274C29.3481 45.3064 29.4307 45.3678 29.5246 45.406C29.6184 45.4442 29.7205 45.4579 29.8211 45.4456C29.9217 45.4334 30.0175 45.3958 30.0995 45.3362C30.1815 45.2766 30.247 45.1972 30.2897 45.1053C30.3325 45.0134 30.3511 44.9121 30.3438 44.811C30.3365 44.7099 30.3035 44.6124 30.2481 44.5276C30.1926 44.4428 30.1164 44.3735 30.0267 44.3263L29.9429 43.8382C30.559 43.7338 31.169 43.5963 31.7704 43.4264L31.616 44.3264C31.5972 44.436 31.6095 44.5487 31.6514 44.6517C31.6933 44.7547 31.7632 44.8439 31.8531 44.9093C31.9431 44.9747 32.0496 45.0136 32.1605 45.0217C32.2715 45.0297 32.3825 45.0065 32.4809 44.9547L34.6426 43.8183L36.8043 44.9547C36.9027 45.0064 37.0137 45.0296 37.1246 45.0216C37.2355 45.0136 37.342 44.9747 37.432 44.9093C37.522 44.844 37.5919 44.7547 37.6338 44.6517C37.6757 44.5487 37.688 44.436 37.6692 44.3264L37.2639 41.9634L38.9538 40.6565C39.0517 40.6849 39.1552 40.6878 39.2546 40.6649C39.3539 40.6419 39.4456 40.5938 39.5211 40.5253C39.5965 40.4567 39.6531 40.3699 39.6855 40.2733C39.7178 40.1766 39.7248 40.0732 39.7058 39.9731C39.6868 39.8729 39.6424 39.7793 39.5769 39.7012C39.5114 39.6231 39.427 39.5631 39.3317 39.5269C39.2364 39.4908 39.1334 39.4796 39.0326 39.4946C38.9317 39.5096 38.8364 39.5502 38.7558 39.6126L38.7089 39.599C42.2949 36.3825 44.5555 31.7166 44.5555 26.5318ZM20.9147 41.2843C20.8455 41.3517 20.7937 41.435 20.7639 41.5269C20.734 41.6188 20.7269 41.7166 20.7433 41.8119L21.005 43.3375L19.635 42.6173C19.5494 42.5723 19.4542 42.5488 19.3575 42.5488C19.2609 42.5488 19.1656 42.5723 19.0801 42.6173L17.71 43.3375L17.9718 41.8119C17.9881 41.7166 17.981 41.6188 17.9511 41.5269C17.9213 41.435 17.8695 41.3517 17.8003 41.2843L16.6919 40.2038L18.2237 39.9812C18.3193 39.9673 18.4101 39.9304 18.4882 39.8736C18.5664 39.8168 18.6296 39.7419 18.6724 39.6552L19.3576 38.2669L20.0427 39.6552C20.0855 39.7419 20.1487 39.8168 20.2269 39.8736C20.3051 39.9303 20.3959 39.9673 20.4915 39.9812L22.0233 40.2038L20.9147 41.2843ZM13.2648 26.5318C13.2648 18.9581 19.4265 12.7966 27.0002 12.7966C34.5739 12.7966 40.7355 18.9581 40.7355 26.5318C40.7355 30.8981 38.6862 34.7935 35.5004 37.3109L35.1773 36.6561C35.1281 36.5564 35.0519 36.4724 34.9574 36.4137C34.863 36.355 34.754 36.3239 34.6428 36.3239C34.5315 36.3239 34.4225 36.355 34.3281 36.4137C34.2336 36.4724 34.1574 36.5564 34.1082 36.6561L33.0272 38.8465L30.8214 39.167L28.6155 38.8465L27.5348 36.6563C27.4856 36.5566 27.4094 36.4726 27.315 36.4139C27.2205 36.3552 27.1115 36.3241 27.0003 36.3241C26.8891 36.324 26.7801 36.3551 26.6856 36.4138C26.5912 36.4725 26.515 36.5564 26.4657 36.6561L25.3847 38.8465L23.1789 39.167L20.973 38.8465L19.8921 36.6562C19.8428 36.5565 19.7666 36.4726 19.6721 36.414C19.5777 36.3553 19.4687 36.3242 19.3575 36.3242C19.2463 36.3242 19.1374 36.3553 19.0429 36.414C18.9484 36.4726 18.8723 36.5565 18.8229 36.6562L18.4998 37.3109C15.3141 34.7934 13.2648 30.898 13.2648 26.5318ZM24.2587 42.6634C23.4951 42.5341 22.7418 42.3504 22.0045 42.1136L21.9712 41.9192L23.0026 40.9138C23.1622 40.9583 23.3225 41.0002 23.4836 41.0393L24.3862 41.9192L24.2587 42.6634ZM28.5576 41.2843C28.4883 41.3517 28.4366 41.435 28.4067 41.5269C28.3768 41.6188 28.3697 41.7166 28.386 41.8119L28.6478 43.3375L27.2778 42.6173C27.1922 42.5723 27.0971 42.5488 27.0004 42.5488C26.9038 42.5488 26.8086 42.5723 26.723 42.6173L25.3526 43.3377L25.6144 41.8119C25.6307 41.7166 25.6236 41.6188 25.5937 41.5269C25.5639 41.435 25.5121 41.3517 25.4429 41.2843L24.3344 40.2038L25.8665 39.9812C25.9621 39.9673 26.0529 39.9304 26.1311 39.8736C26.2092 39.8168 26.2724 39.7419 26.3152 39.6552L27.0004 38.267L27.6854 39.6551C27.7281 39.7417 27.7913 39.8167 27.8695 39.8735C27.9477 39.9303 28.0385 39.9673 28.1341 39.9812L29.6662 40.2038L28.5576 41.2843ZM31.9957 42.1136C31.2584 42.3504 30.5051 42.5342 29.7415 42.6634L29.6139 41.9192L30.5165 41.0394C30.6775 41.0002 30.8379 40.9584 30.9976 40.9139L32.029 41.9192L31.9957 42.1136ZM36.2515 41.2398C36.1659 41.3059 36.0999 41.3941 36.0606 41.4949C36.0213 41.5957 36.0102 41.7053 36.0285 41.8119L36.2903 43.3375L34.9202 42.6173C34.8346 42.5723 34.7394 42.5488 34.6428 42.5488C34.5461 42.5488 34.4509 42.5723 34.3653 42.6173L32.9953 43.3375L33.257 41.8119C33.2734 41.7166 33.2663 41.6188 33.2364 41.5269C33.2065 41.435 33.1547 41.3517 33.0855 41.2843L31.9771 40.2038L33.509 39.9812C33.6046 39.9673 33.6954 39.9303 33.7735 39.8735C33.8517 39.8168 33.9149 39.7418 33.9577 39.6552L34.6429 38.2669L35.328 39.6552C35.3646 39.7294 35.4162 39.7951 35.4796 39.8482C35.543 39.9013 35.6167 39.9407 35.6961 39.9638L37.2983 40.43L36.2515 41.2398ZM37.3421 39.2012L36.2808 38.8923L36.0386 38.4016C39.6147 35.6721 41.9275 31.3678 41.9275 26.5319C41.9275 18.3009 35.2312 11.6046 27.0002 11.6046C18.7693 11.6046 12.0728 18.3009 12.0728 26.5319C12.0728 31.3677 14.3856 35.672 17.9617 38.4015L17.742 38.8466L16.4569 39.0334C12.9006 36.0294 10.6369 31.5407 10.6369 26.5319C10.6369 17.5092 17.9776 10.1688 27.0002 10.1688C36.0229 10.1688 43.3633 17.5092 43.3633 26.5319C43.3633 31.6346 41.0143 36.198 37.3421 39.2012Z" fill="#61113F"/>
<path id="Vector_8" d="M20.3261 29.0154C20.6553 29.0154 20.9222 28.7485 20.9222 28.4193C20.9222 28.0901 20.6553 27.8232 20.3261 27.8232C19.9969 27.8232 19.73 28.0901 19.73 28.4193C19.73 28.7485 19.9969 29.0154 20.3261 29.0154Z" fill="white"/>
<path id="Vector_9" d="M20.326 27.2373C20.4043 27.2373 20.4818 27.2219 20.5541 27.1919C20.6264 27.162 20.6922 27.1181 20.7475 27.0627C20.8029 27.0074 20.8468 26.9416 20.8767 26.8693C20.9067 26.797 20.9221 26.7195 20.9221 26.6412V25.2215C20.9221 25.1432 20.9067 25.0657 20.8767 24.9934C20.8468 24.9211 20.8029 24.8554 20.7475 24.8C20.6922 24.7447 20.6264 24.7008 20.5541 24.6708C20.4818 24.6409 20.4043 24.6255 20.326 24.6255C20.2477 24.6255 20.1702 24.6409 20.0979 24.6708C20.0256 24.7008 19.9599 24.7447 19.9045 24.8C19.8492 24.8554 19.8053 24.9211 19.7753 24.9934C19.7454 25.0657 19.73 25.1432 19.73 25.2215V26.6412C19.73 26.7195 19.7454 26.797 19.7753 26.8693C19.8052 26.9416 19.8491 27.0074 19.9045 27.0627C19.9598 27.1181 20.0256 27.162 20.0979 27.1919C20.1702 27.2219 20.2477 27.2373 20.326 27.2373Z" fill="white"/>
</g>
</g>
<g id="Group_2">
<path id="Vector_10" d="M53.5 7.99999C53.5 9.98911 52.7098 11.8968 51.3033 13.3033C49.8968 14.7098 47.9892 15.5 46 15.5C44.0109 15.5 42.1033 14.7098 40.6968 13.3033C39.2902 11.8968 38.5 9.9891 38.5 7.99999C38.5 6.01088 39.2902 4.10322 40.6968 2.6967C42.1033 1.29017 44.0109 0.5 46 0.5C47.9892 0.5 49.8968 1.29017 51.3033 2.6967C52.7098 4.10322 53.5 6.01087 53.5 7.99999Z" fill="#FF4768" stroke="white"/>
<path id="Icon" d="M48.1673 5.50098L43.501 10.1673M43.501 5.50098L48.1673 10.1673" stroke="white" stroke-width="1.5" stroke-linecap="round" stroke-linejoin="round"/>
</g>
</g>
<defs>
<clipPath id="clip0_795_86356">
<rect width="54" height="54" fill="white"/>
</clipPath>
</defs>
</svg>
