<svg width="54" height="54" viewBox="0 0 54 54" fill="none" xmlns="http://www.w3.org/2000/svg">
<g clip-path="url(#clip0_763_85939)">
<path d="M27 54C41.9117 54 54 41.9117 54 27C54 12.0883 41.9117 0 27 0C12.0883 0 0 12.0883 0 27C0 41.9117 12.0883 54 27 54Z" fill="#FFD630"/>
<path fill-rule="evenodd" clip-rule="evenodd" d="M53.9331 25.1124L41.3749 12.5542L12.7495 41.5608L25.1224 53.9339C25.7429 53.9766 26.3686 53.9999 26.9999 53.9999C41.9115 53.9999 53.9999 41.9115 53.9999 26.9999C53.9999 26.3652 53.9763 25.7361 53.9331 25.1124H53.9331Z" fill="#F5BE18"/>
<path fill-rule="evenodd" clip-rule="evenodd" d="M14.7901 11.6733H39.2087C40.9232 11.6733 42.3259 13.0761 42.3259 14.7906V39.2092C42.3259 40.9237 40.9231 42.3264 39.2087 42.3264H14.7901C13.0756 42.3264 11.6729 40.9236 11.6729 39.2092V14.7906C11.6729 13.0761 13.0756 11.6733 14.7901 11.6733Z" fill="#62B1C3"/>
<path fill-rule="evenodd" clip-rule="evenodd" d="M15.7875 13.7065H38.2105C39.3561 13.7065 40.2925 14.6432 40.2925 15.7885V38.2115C40.2925 39.3568 39.3561 40.2934 38.2105 40.2934H15.7875C14.6422 40.2934 13.7056 39.3568 13.7056 38.2115V15.7885C13.7056 14.6432 14.6422 13.7065 15.7875 13.7065Z" fill="#C2E2E9"/>
<path fill-rule="evenodd" clip-rule="evenodd" d="M30.1654 19.5928C34.2561 19.5928 37.5725 22.9091 37.5725 26.9999C37.5725 31.0906 34.2562 34.4069 30.1654 34.4069C26.0747 34.4069 22.7583 31.0906 22.7583 26.9999C22.7583 22.9091 26.0746 19.5928 30.1654 19.5928Z" fill="#8DC6D3"/>
<path fill-rule="evenodd" clip-rule="evenodd" d="M30.1646 20.0508C34.0023 20.0508 37.1135 23.1619 37.1135 26.9996C37.1135 30.8373 34.0023 33.9484 30.1646 33.9484C26.327 33.9484 23.2158 30.8373 23.2158 26.9996C23.2158 23.1619 26.327 20.0508 30.1646 20.0508Z" fill="#62B1C3"/>
<path fill-rule="evenodd" clip-rule="evenodd" d="M30.1651 22.6099C32.5894 22.6099 34.5548 24.5752 34.5548 26.9996C34.5548 29.4239 32.5894 31.3893 30.1651 31.3893C27.7408 31.3893 25.7754 29.4239 25.7754 26.9996C25.7754 24.5752 27.7408 22.6099 30.1651 22.6099Z" fill="#C1EBF5"/>
<path fill-rule="evenodd" clip-rule="evenodd" d="M30.1654 23.7358C31.968 23.7358 33.4295 25.1973 33.4295 26.9999C33.4295 28.8025 31.9681 30.264 30.1654 30.264C28.3628 30.264 26.9014 28.8025 26.9014 26.9999C26.9014 25.1973 28.3628 23.7358 30.1654 23.7358Z" fill="#8DC6D3"/>
<path fill-rule="evenodd" clip-rule="evenodd" d="M30.1644 24.2876C31.6622 24.2876 32.8767 25.5021 32.8767 26.9999C32.8767 28.4976 31.6622 29.7121 30.1644 29.7121C28.6667 29.7121 27.4521 28.4976 27.4521 26.9999C27.4521 25.5021 28.6667 24.2876 30.1644 24.2876Z" fill="#DBF5FC"/>
<path fill-rule="evenodd" clip-rule="evenodd" d="M27.5108 21.1686L27.9178 21L28.4889 22.3784C28.35 22.4285 28.2145 22.4854 28.082 22.5475L27.5108 21.1686V21.1686ZM29.9445 20.5967H30.3851V22.0903C30.3122 22.0868 30.2388 22.0851 30.1649 22.0851C30.091 22.0851 30.0174 22.0868 29.9445 22.0903V20.5967ZM32.4115 20.9997L32.8187 21.1683L32.2476 22.5473C32.115 22.4852 31.9793 22.4285 31.8406 22.3785L32.4115 20.9997L32.4115 20.9997ZM34.5367 22.3161L34.8484 22.6278L33.7922 23.684C33.693 23.5755 33.589 23.4714 33.4805 23.3723L34.5367 22.3161ZM35.9961 24.3458L36.1648 24.7527L34.7863 25.3239C34.7362 25.1852 34.6793 25.0492 34.6172 24.9169L35.9962 24.3458H35.9961ZM36.5681 26.7794V27.22H35.0745C35.0779 27.1471 35.0796 27.0737 35.0796 26.9998C35.0796 26.9259 35.0779 26.8523 35.0745 26.7794H36.5681ZM36.165 29.2465L35.9964 29.6537L34.6174 29.0825C34.6795 28.95 34.7362 28.8142 34.7863 28.6755L36.165 29.2465L36.165 29.2465ZM34.8486 31.3716L34.5369 31.6833L33.4807 30.6272C33.5892 30.528 33.6933 30.4239 33.7925 30.3154L34.8486 31.3716ZM32.819 32.8311L32.412 32.9997L31.8408 31.6213C31.9795 31.5712 32.1155 31.5143 32.2478 31.4522L32.819 32.8311V32.8311ZM30.3853 33.403H29.9447V31.9094C30.0176 31.9129 30.091 31.9146 30.1649 31.9146C30.2388 31.9146 30.3124 31.9129 30.3853 31.9094V33.403ZM27.9182 33L27.511 32.8314L28.0822 31.4524C28.2148 31.5145 28.3505 31.5712 28.4892 31.6212L27.9183 33L27.9182 33ZM25.7931 31.6836L25.4814 31.3719L26.5376 30.3157C26.6368 30.4242 26.7408 30.5283 26.8493 30.6274L25.7931 31.6836ZM24.3336 29.6539L24.165 29.247L25.5435 28.6758C25.5935 28.8145 25.6505 28.9505 25.7126 29.0828L24.3336 29.6539H24.3336ZM23.7617 27.2203V26.7797H25.2553C25.2519 26.8526 25.2501 26.926 25.2501 26.9999C25.2501 27.0738 25.2519 27.1474 25.2553 27.2203H23.7617ZM24.1647 24.7532L24.3334 24.346L25.7124 24.9172C25.6502 25.0497 25.5938 25.1852 25.5435 25.3242L24.1648 24.7532L24.1647 24.7532ZM25.4811 22.6281L25.7929 22.3164L26.849 23.3725C26.7405 23.4717 26.6365 23.5758 26.5373 23.6843L25.4811 22.6281Z" fill="#C1EBF5"/>
<path fill-rule="evenodd" clip-rule="evenodd" d="M12.5601 17.54H15.1361C15.356 17.54 15.535 17.7192 15.535 17.9389V21.7091C15.535 21.928 15.356 22.1075 15.1361 22.1075H12.5601V17.54Z" fill="#A1D3DE"/>
<path fill-rule="evenodd" clip-rule="evenodd" d="M13.4078 18.1665C13.6451 18.1665 13.8373 18.3587 13.8373 18.596C13.8373 18.8331 13.6451 19.0256 13.4078 19.0256C13.1707 19.0256 12.9785 18.8331 12.9785 18.596C12.9785 18.3587 13.1707 18.1665 13.4078 18.1665ZM13.4078 20.622C13.6451 20.622 13.8373 20.8142 13.8373 21.0516C13.8373 21.2887 13.6451 21.4809 13.4078 21.4809C13.1707 21.4809 12.9785 21.2887 12.9785 21.0516C12.9785 20.8142 13.1707 20.622 13.4078 20.622Z" fill="#DBF5FC"/>
<path fill-rule="evenodd" clip-rule="evenodd" d="M12.5601 31.8921H15.1361C15.356 31.8921 15.535 32.0713 15.535 32.2909V36.0611C15.535 36.2801 15.356 36.4595 15.1361 36.4595H12.5601V31.8921Z" fill="#A1D3DE"/>
<path fill-rule="evenodd" clip-rule="evenodd" d="M13.4078 32.5186C13.6451 32.5186 13.8373 32.7107 13.8373 32.9481C13.8373 33.1852 13.6451 33.3776 13.4078 33.3776C13.1707 33.3776 12.9785 33.1852 12.9785 32.9481C12.9785 32.7107 13.1707 32.5186 13.4078 32.5186ZM13.4078 34.9741C13.6451 34.9741 13.8373 35.1663 13.8373 35.4036C13.8373 35.6407 13.6451 35.8329 13.4078 35.8329C13.1707 35.8329 12.9785 35.6407 12.9785 35.4036C12.9785 35.1663 13.1707 34.9741 13.4078 34.9741Z" fill="#DBF5FC"/>
<path d="M53.5 27C53.5 41.6355 41.6355 53.5 27 53.5C12.3645 53.5 0.5 41.6355 0.5 27C0.5 12.3645 12.3645 0.5 27 0.5C41.6355 0.5 53.5 12.3645 53.5 27Z" fill="white" stroke="#E9E9E9"/>
<path d="M22.7605 31.246L22.0846 30.5635L19.3677 33.2869L20.0436 33.9694L20.7261 34.6519L23.443 31.9285L22.7605 31.246Z" fill="#E7BDD5"/>
<path d="M22.078 31.9219L20.0371 33.9628L20.713 34.6453L22.7868 32.5716C22.5505 32.3616 22.3077 32.1516 22.078 31.9219Z" fill="#E7BDD5"/>
<path d="M36.3975 34.304C36.1482 34.4221 35.9053 34.5468 35.656 34.6518C35.9119 34.5403 36.1547 34.4221 36.3975 34.304ZM42.5663 18.6196C42.6779 18.9149 42.7829 19.2037 42.8747 19.5056C42.7829 19.1971 42.6779 18.9084 42.5663 18.6196ZM41.5622 16.5787C41.6869 16.7887 41.8182 16.9921 41.9363 17.2087C41.8182 16.9921 41.6935 16.7887 41.5622 16.5787ZM38.4516 33.0374C38.2482 33.1884 38.0513 33.3459 37.8413 33.4903C38.0447 33.3459 38.2482 33.1884 38.4516 33.0374ZM42.9141 26.5143C43.216 25.4578 43.3866 24.3487 43.3932 23.2003V22.964C43.38 21.8156 43.2094 20.7065 42.9141 19.6499C43.5507 21.8943 43.5507 24.2765 42.9141 26.5143ZM37.4147 33.7462C37.2047 33.8774 36.9947 34.0087 36.7782 34.1203C36.9947 34.0021 37.2047 33.8709 37.4147 33.7462ZM41.3063 30.0187C41.1685 30.2287 41.011 30.4256 40.86 30.629C41.011 30.4256 41.1619 30.2287 41.3063 30.0187ZM41.9363 28.9556C41.8247 29.1721 41.6869 29.3821 41.5622 29.5921C41.6869 29.3821 41.8182 29.1721 41.9363 28.9556ZM38.8257 32.7553C39.4622 32.2303 40.0463 31.6462 40.5713 31.0096C40.3154 31.3246 40.0397 31.6331 39.7444 31.9284C39.4491 32.2237 39.1407 32.4928 38.8257 32.7553ZM42.12 17.5959C42.2382 17.8387 42.3629 18.0815 42.4613 18.3374C42.3563 18.0815 42.2382 17.8387 42.12 17.5959ZM27.3347 35.0587C27.0329 34.9668 26.7375 34.8618 26.4422 34.7437C26.7375 34.8618 27.0329 34.9734 27.3347 35.0587ZM25.051 34.1203C24.8344 34.0021 24.6244 33.8709 24.4079 33.7396C24.6179 33.8709 24.8279 34.0021 25.051 34.1203ZM40.86 15.5418C41.011 15.7387 41.1619 15.9356 41.2997 16.1456C41.1619 15.9421 41.011 15.7453 40.86 15.5418ZM26.1732 34.6453C25.9172 34.5403 25.6744 34.4221 25.425 34.2974C25.6679 34.4221 25.9172 34.5403 26.1732 34.6453ZM39.751 14.249C40.0463 14.5443 40.3154 14.8462 40.5713 15.1612C40.3154 14.8396 40.0397 14.5378 39.751 14.249ZM27.4725 35.0981C28.5685 35.4131 29.7169 35.5903 30.9113 35.5903C32.1057 35.5903 33.2541 35.4131 34.3435 35.0981C32.1057 35.7346 29.7169 35.7346 27.4725 35.0981ZM22.0847 31.9218L39.7444 14.2359C37.5132 11.9981 34.4354 10.6134 31.0294 10.5806H30.7932C23.9485 10.6462 18.4229 16.2112 18.4229 23.0821C18.4229 26.534 19.8207 29.6578 22.0847 31.9218C22.3079 32.1449 22.5507 32.3549 22.7935 32.5649C22.8657 32.624 22.9313 32.6896 23.0035 32.7487C22.6819 32.4928 22.38 32.2171 22.0847 31.9218Z" fill="#61113F"/>
<path d="M35.3801 34.7504C35.472 34.7176 35.5638 34.6847 35.6557 34.6454C35.9051 34.5404 36.1545 34.4222 36.3973 34.2976C36.522 34.2385 36.6532 34.1794 36.7779 34.1138C36.9945 33.9957 37.2045 33.8644 37.4145 33.7397C37.5523 33.6544 37.6967 33.5757 37.8345 33.4838C38.0445 33.346 38.2413 33.1885 38.4448 33.031C38.5695 32.9391 38.7007 32.8472 38.8188 32.7488C39.1338 32.4863 39.4423 32.2107 39.7376 31.9154C40.0329 31.6201 40.3085 31.3116 40.5645 30.9966C40.6629 30.8719 40.7548 30.7407 40.8467 30.616C40.9976 30.4126 41.1551 30.2157 41.2929 30.0057C41.3848 29.8679 41.4635 29.7235 41.5488 29.5791C41.6801 29.3691 41.8113 29.1591 41.9229 28.9426C41.9885 28.8179 42.041 28.6866 42.1067 28.5619C42.2248 28.3191 42.3495 28.0697 42.4479 27.8204C42.4873 27.7285 42.5135 27.6301 42.5529 27.5382C42.6645 27.2429 42.776 26.9476 42.8613 26.6522C42.8745 26.6063 42.8876 26.5538 42.9007 26.5013C43.5373 24.2635 43.5373 21.8813 42.9007 19.6369C42.8876 19.5844 42.8745 19.5385 42.8613 19.486C42.776 19.1907 42.6645 18.8954 42.5529 18.6001C42.5201 18.5082 42.4873 18.4097 42.4479 18.3179C42.3429 18.0685 42.2248 17.8257 42.1067 17.5763C42.041 17.4451 41.9885 17.3204 41.9229 17.1891C41.8113 16.9726 41.6801 16.7691 41.5488 16.5591C41.4635 16.4147 41.3782 16.2704 41.2863 16.126C41.1485 15.9226 40.9976 15.7257 40.8467 15.5222C40.7482 15.391 40.6629 15.2597 40.5579 15.1351C40.302 14.8201 40.0263 14.5182 39.7376 14.2229L39.731 14.2163L22.0845 31.9219C22.3798 32.2172 22.6882 32.4929 23.0032 32.7554C23.1213 32.8538 23.2526 32.9391 23.3707 33.031C23.5742 33.1885 23.7776 33.346 23.9876 33.4838C24.1254 33.5757 24.2632 33.6544 24.4076 33.7397C24.6176 33.871 24.8342 34.0022 25.0507 34.1204C25.1754 34.186 25.3001 34.2385 25.4248 34.2976C25.6742 34.4157 25.917 34.5404 26.1729 34.6454C26.2648 34.6847 26.3567 34.711 26.4485 34.7438C26.7438 34.8554 27.0392 34.9669 27.341 35.0588C27.387 35.0719 27.4329 35.0785 27.4788 35.0916C29.7232 35.7282 32.112 35.7347 34.3563 35.0916C34.4023 35.0785 34.4482 35.0719 34.4942 35.0588C34.7895 34.9735 35.0848 34.8619 35.3801 34.7504Z" fill="#61113F"/>
<path d="M41.477 23.0822C41.477 28.9294 36.7454 33.6609 30.9113 33.6609C25.0773 33.6609 20.3457 28.9228 20.3457 23.0822C20.3457 17.2415 25.0773 12.5034 30.9113 12.5034C36.752 12.5034 41.477 17.235 41.477 23.0822Z" fill="white"/>
<path d="M38.3862 30.5636C42.5074 26.4358 42.5074 19.7223 38.3862 15.6011L23.4434 30.5636C27.558 34.6914 34.2649 34.6914 38.3862 30.5636Z" fill="white"/>
<path d="M39.3114 22.4392C39.1604 22.2685 35.5314 18.272 30.9114 18.272C26.2914 18.272 22.6623 22.2685 22.5114 22.4392L21.9404 23.0823L22.5114 23.7254C22.6623 23.896 26.2914 27.8926 30.9114 27.8926C35.5314 27.8926 39.1604 23.896 39.3114 23.7254L39.8823 23.0823L39.3114 22.4392Z" fill="#E7BDD5"/>
<path d="M27.0132 26.9871C28.1747 27.5121 29.4938 27.8927 30.9113 27.8927C35.5313 27.8927 39.1604 23.8962 39.3113 23.7255L39.8822 23.0824L39.3113 22.4393C39.2063 22.3212 37.4279 20.3655 34.8094 19.1777L27.0132 26.9871Z" fill="#E7BDD5"/>
<path d="M20.7263 33.2867L19.3679 31.9282L10.6069 40.6957L13.3238 43.4192L22.0847 34.6451L20.7263 33.2867Z" fill="#61113F"/>
<path d="M11.959 42.0543L20.7199 33.2803L22.0784 34.6387L13.3174 43.4128L11.959 42.0543Z" fill="#61113F"/>
<path d="M33.7921 23.0823C33.7921 24.677 32.4993 25.9698 30.9112 25.9698C29.3165 25.9698 28.0303 24.677 28.0303 23.0823C28.0303 21.4876 29.3231 20.1948 30.9112 20.1948C32.5059 20.1948 33.7921 21.4876 33.7921 23.0823Z" fill="#61113F"/>
<path d="M28.877 25.1229C29.9991 26.2451 31.8301 26.2451 32.9523 25.1229C34.0745 24.0007 34.0745 22.1698 32.9523 21.041L28.877 25.1229Z" fill="#61113F"/>
<path d="M31.8757 23.0824C31.8757 23.6139 31.4426 24.0471 30.9176 24.0471C30.386 24.0471 29.9595 23.6139 29.9595 23.0824C29.9595 22.5508 30.3926 22.1177 30.9176 22.1177C31.4426 22.1177 31.8757 22.5508 31.8757 23.0824Z" fill="white"/>
<path d="M30.911 24.0471C31.4426 24.0471 31.8691 23.614 31.8691 23.0824C31.8691 22.8199 31.7641 22.5771 31.587 22.3999L30.2285 23.7583C30.4057 23.9355 30.6485 24.0471 30.911 24.0471Z" fill="white"/>
<path d="M53.5 7.99999C53.5 9.98911 52.7098 11.8968 51.3033 13.3033C49.8968 14.7098 47.9892 15.5 46 15.5C44.0109 15.5 42.1033 14.7098 40.6968 13.3033C39.2902 11.8968 38.5 9.9891 38.5 7.99999C38.5 6.01088 39.2902 4.10322 40.6968 2.6967C42.1033 1.29017 44.0109 0.5 46 0.5C47.9892 0.5 49.8968 1.29017 51.3033 2.6967C52.7098 4.10322 53.5 6.01087 53.5 7.99999Z" fill="#FF4768" stroke="white"/>
<path d="M48.1673 5.50098L43.501 10.1673M43.501 5.50098L48.1673 10.1673" stroke="white" stroke-width="1.5" stroke-linecap="round" stroke-linejoin="round"/>
</g>
<defs>
<clipPath id="clip0_763_85939">
<rect width="54" height="54" fill="white"/>
</clipPath>
</defs>
</svg>
