<svg width="54" height="54" viewBox="0 0 54 54" fill="none" xmlns="http://www.w3.org/2000/svg">
<g clip-path="url(#clip0_795_86388)">
<path d="M53.5 27C53.5 41.6355 41.6355 53.5 27 53.5C12.3645 53.5 0.5 41.6355 0.5 27C0.5 12.3645 12.3645 0.5 27 0.5C41.6355 0.5 53.5 12.3645 53.5 27Z" fill="white" stroke="#E9E9E9"/>
<path d="M28.6731 34.6817C28.673 34.8575 28.7077 35.0316 28.7753 35.1939C28.8429 35.3562 28.942 35.5035 29.067 35.6272L29.5243 35.1653C29.5881 35.2285 29.6638 35.2784 29.7471 35.3121C29.8303 35.3458 29.9194 35.3626 30.0092 35.3616V36.0116C30.0103 36.0116 30.0115 36.0116 30.0127 36.0116C30.7394 36.0098 31.3384 35.4248 31.3384 34.6824C31.3384 34.2532 31.1337 33.8707 30.8168 33.6275H42.652V34.3088C42.652 35.7159 41.503 36.8649 40.096 36.8649H13.8975C12.4922 36.8649 11.3482 35.7177 11.3482 34.3088V33.6275H23.1721C22.856 33.8722 22.655 34.2568 22.655 34.6824C22.655 35.426 23.256 36.0116 23.9843 36.0116C24.7236 36.0116 25.3135 35.4218 25.3135 34.6824C25.3135 34.255 25.1118 33.8715 24.7949 33.6275H26.1812C25.865 33.8722 25.6641 34.2568 25.6641 34.6824C25.6641 35.426 26.265 36.0116 26.9933 36.0116C27.7327 36.0116 28.3226 35.4218 28.3226 34.6824C28.3226 34.255 28.1209 33.8715 27.804 33.6275H29.1918C28.875 33.8713 28.6734 34.2546 28.6731 34.6817ZM28.6731 34.6817L29.3231 34.6824H28.6731C28.6731 34.6822 28.6731 34.6819 28.6731 34.6817ZM13.4445 27.1015C13.4438 27.5909 13.6227 28.0635 13.9473 28.4298C14.272 28.7962 14.7198 29.0308 15.2059 29.0889L15.9331 29.176V28.4435V27.3398C15.9331 26.3786 16.711 25.5988 17.6673 25.5988H17.7947C17.8136 25.6058 17.8326 25.6123 17.8518 25.6184L17.8759 25.6304C18.416 25.9079 19.0331 26.0607 19.6779 26.0607C20.3235 26.0607 20.9418 25.9075 21.4898 25.622C21.4929 25.6204 21.4958 25.6189 21.4987 25.6174C21.5171 25.6114 21.5349 25.6052 21.552 25.5988H21.6816C22.638 25.5988 23.4158 26.3786 23.4158 27.3398V28.4435V29.1815L24.1479 29.0883C25.1278 28.9636 25.9045 28.1365 25.9045 27.102V18.1088C25.9045 17.5761 25.6929 17.0653 25.3162 16.6886C24.9395 16.3119 24.4287 16.1003 23.896 16.1003H15.453C14.34 16.1003 13.4445 16.9959 13.4445 18.1088V27.1015ZM13.4445 27.1015C13.4445 27.1013 13.4445 27.1012 13.4445 27.101L14.0945 27.102M13.4445 27.1015V27.102H14.0945M14.0945 27.102V18.1088C14.0945 17.3549 14.699 16.7503 15.453 16.7503H23.896C24.2563 16.7503 24.6018 16.8934 24.8566 17.1482C25.1113 17.403 25.2545 17.7485 25.2545 18.1088V27.102C25.2545 27.5455 25.0424 27.9343 24.7158 28.1799M14.0945 27.102C14.094 27.4324 14.2147 27.7515 14.4338 27.9987C14.4943 28.067 14.5612 28.1285 14.6331 28.1826V28.4435H15.2831L15.3604 27.7981C15.3343 27.795 15.3085 27.7904 15.2831 27.7845V27.3398C15.2831 26.022 16.3496 24.9488 17.6673 24.9488H17.9322C17.9813 24.9761 18.0338 24.9967 18.0884 25.0099L24.7158 28.1799M24.7158 28.1799V28.4435H24.0658L23.9837 27.7987C24.0116 27.7952 24.039 27.7901 24.0658 27.7835M24.7158 28.1799L24.0658 27.7835M24.0658 27.7835V27.3398C24.0658 26.022 22.9994 24.9488 21.6816 24.9488H21.4167M24.0658 27.7835L21.1926 25.0439C21.2022 25.0391 21.211 25.0343 21.2192 25.0298C21.2342 25.0216 21.2473 25.0143 21.2605 25.0099M21.4167 24.9488C21.3624 24.976 21.3148 24.9964 21.2605 25.0099M21.4167 24.9488V25.473V24.9488ZM21.2605 25.0099L21.4116 25.4631L21.3391 25.3244L21.2605 25.0099ZM42.652 15.2016V31.886H11.3482V15.2016C11.3482 13.7869 12.4913 12.6456 13.8975 12.6456H40.096C41.5039 12.6456 42.652 13.7887 42.652 15.2016ZM32.428 41.1688L32.6003 41.2962H32.8145H33.9964C34.0036 41.2962 34.0075 41.2975 34.0096 41.2984C34.0122 41.2995 34.0149 41.3012 34.0174 41.3037C34.0184 41.3047 34.0192 41.3057 34.02 41.3068C34.0214 41.3086 34.0225 41.3105 34.0233 41.3125C34.0245 41.3153 34.0256 41.3193 34.0256 41.3254C34.0256 41.3315 34.0245 41.3355 34.0233 41.3383C34.022 41.3415 34.02 41.3445 34.0174 41.3471C34.0149 41.3496 34.0122 41.3514 34.0096 41.3525C34.0075 41.3534 34.0036 41.3547 33.9964 41.3547H19.9835C19.9775 41.3547 19.9707 41.3528 19.9634 41.3455C19.9562 41.3382 19.9543 41.3314 19.9543 41.3254C19.9543 41.3194 19.9562 41.3126 19.9634 41.3053C19.9707 41.298 19.9775 41.2962 19.9835 41.2962H21.1722H21.3864L21.5586 41.1688C22.5016 40.4716 23.1944 39.9526 23.6486 39.5233H30.338C30.7923 39.9526 31.4851 40.4716 32.428 41.1688ZM25.9813 15.8516H28.019C28.7473 15.8516 29.3482 15.266 29.3482 14.5224C29.3482 13.7898 28.7516 13.1932 28.019 13.1932H25.9813C25.2487 13.1932 24.652 13.7898 24.652 14.5224C24.652 15.266 25.2529 15.8516 25.9813 15.8516ZM39.9675 28.5222C40.3442 28.1456 40.5558 27.6347 40.5558 27.102V18.1088C40.5558 17.5761 40.3442 17.0653 39.9675 16.6886C39.5909 16.3119 39.08 16.1003 38.5473 16.1003H30.1043C28.9913 16.1003 28.0958 16.9959 28.0958 18.1088V27.102C28.0958 28.215 28.9913 29.1105 30.1043 29.1105H38.5473C39.08 29.1105 39.5908 28.8989 39.9675 28.5222Z" fill="#E7BDD5" stroke="#61113F" stroke-width="1.3"/>
<path d="M19.6759 20.0962C18.5823 20.0962 17.6938 20.9765 17.6938 22.0701C17.6938 23.1637 18.583 24.0521 19.6759 24.0521C20.7688 24.0521 21.6498 23.163 21.6498 22.0701C21.6498 20.9772 20.7695 20.0962 19.6759 20.0962ZM36.316 20.3781L33.1616 23.5325L32.3329 22.7038C32.2703 22.6389 32.1953 22.5872 32.1125 22.5516C32.0296 22.516 31.9405 22.4973 31.8503 22.4965C31.7601 22.4957 31.6706 22.5129 31.5872 22.547C31.5037 22.5812 31.4278 22.6316 31.3641 22.6954C31.3003 22.7592 31.2499 22.835 31.2157 22.9185C31.1816 23.002 31.1644 23.0914 31.1651 23.1816C31.1659 23.2718 31.1847 23.3609 31.2203 23.4438C31.2559 23.5267 31.3076 23.6016 31.3725 23.6643L32.4416 24.7341C32.64 24.9317 32.9008 25.0309 33.1616 25.0309C33.4225 25.0309 33.6833 24.9317 33.8816 24.7334L37.2765 21.3385C37.3414 21.2759 37.3931 21.2009 37.4287 21.1181C37.4643 21.0352 37.483 20.946 37.4838 20.8559C37.4846 20.7657 37.4674 20.6762 37.4333 20.5928C37.3991 20.5093 37.3487 20.4334 37.2849 20.3697C37.2211 20.3059 37.1453 20.2554 37.0618 20.2213C36.9783 20.1871 36.8889 20.17 36.7987 20.1707C36.7085 20.1715 36.6194 20.1903 36.5365 20.2259C36.4536 20.2615 36.3787 20.3132 36.316 20.3781Z" fill="#61113F"/>
<path d="M53.5 7.99999C53.5 9.98911 52.7098 11.8968 51.3033 13.3033C49.8968 14.7098 47.9892 15.5 46 15.5C44.0109 15.5 42.1033 14.7098 40.6968 13.3033C39.2902 11.8968 38.5 9.9891 38.5 7.99999C38.5 6.01088 39.2902 4.10322 40.6968 2.6967C42.1033 1.29017 44.0109 0.5 46 0.5C47.9892 0.5 49.8968 1.29017 51.3033 2.6967C52.7098 4.10322 53.5 6.01087 53.5 7.99999Z" fill="#FF4768" stroke="white"/>
<path d="M48.1673 5.50098L43.501 10.1673M43.501 5.50098L48.1673 10.1673" stroke="white" stroke-width="1.5" stroke-linecap="round" stroke-linejoin="round"/>
</g>
<defs>
<clipPath id="clip0_795_86388">
<rect width="54" height="54" fill="white"/>
</clipPath>
</defs>
</svg>
