<svg width="54" height="54" viewBox="0 0 54 54" fill="none" xmlns="http://www.w3.org/2000/svg">
<g id="bank-locker 1" clip-path="url(#clip0_763_84980)">
<g id="Group">
<path id="Vector" d="M53.5 27C53.5 41.6355 41.6355 53.5 27 53.5C12.3645 53.5 0.5 41.6355 0.5 27C0.5 12.3645 12.3645 0.5 27 0.5C41.6355 0.5 53.5 12.3645 53.5 27Z" fill="white" stroke="#E9E9E9"/>
<g id="pay-per-click 1">
<path id="Vector_2" d="M33.5963 35.4131H22.2495V39.2923H33.5963V35.4131Z" fill="#61113F"/>
<path id="Vector_3" d="M33.5961 39.6314H22.2493C22.0616 39.6314 21.9097 39.4795 21.9097 39.2918V35.4134C21.9097 35.2256 22.0616 35.0737 22.2493 35.0737H33.5961C33.7839 35.0737 33.9358 35.2256 33.9358 35.4134V39.2918C33.9358 39.4795 33.7839 39.6314 33.5961 39.6314ZM22.5889 38.9522H33.2565V35.753H22.5889V38.9522Z" fill="#61113F"/>
<path id="Vector_4" d="M36.5598 41.0542V41.267C36.5598 41.5191 36.3588 41.7201 36.1066 41.7201H19.7358C19.4876 41.7201 19.2827 41.5191 19.2827 41.267V41.0542C19.2827 40.081 20.0786 39.293 21.0439 39.293H34.7985C35.7718 39.293 36.5598 40.081 36.5598 41.0542Z" fill="#61113F"/>
<path id="Vector_5" d="M36.1066 42.0596H19.7357C19.2986 42.0596 18.943 41.7041 18.943 41.267V41.054C18.943 39.8959 19.8856 38.9533 21.0438 38.9533H34.7985C35.9567 38.9533 36.8992 39.8959 36.8992 41.054V41.267C36.8992 41.7041 36.5437 42.0596 36.1066 42.0596ZM21.0438 39.6325C20.2597 39.6325 19.6223 40.27 19.6223 41.054V41.267C19.6223 41.3293 19.6733 41.3804 19.7357 41.3804H36.1066C36.1709 41.3804 36.22 41.3313 36.22 41.267V41.054C36.22 40.27 35.5825 39.6325 34.7985 39.6325H21.0438ZM43.3008 14.0105V33.6822C43.3008 34.6395 42.5247 35.4118 41.5711 35.4118H14.2786C13.3212 35.4118 12.5449 34.6395 12.5449 33.6822V14.0105C12.5449 13.053 13.3212 12.2808 14.2786 12.2808H41.5711C42.5247 12.2808 43.3008 13.053 43.3008 14.0105Z" fill="#61113F"/>
<path id="Vector_6" d="M41.5715 35.7515H14.2789C13.136 35.7515 12.2061 34.8235 12.2061 33.6826V14.0103C12.2061 12.8694 13.136 11.9414 14.2789 11.9414H41.5715C42.7124 11.9414 43.641 12.8694 43.641 14.0103V33.6826C43.641 34.8235 42.7124 35.7515 41.5715 35.7515ZM14.2789 12.6207C13.5108 12.6207 12.8853 13.2442 12.8853 14.0103V33.6826C12.8853 34.4487 13.5108 35.0722 14.2789 35.0722H41.5715C42.3383 35.0722 42.9618 34.4487 42.9618 33.6826V14.0103C42.9618 13.2442 42.3383 12.6207 41.5715 12.6207H14.2789Z" fill="#61113F"/>
<path id="Vector_7" d="M41.4549 14.0119V33.6828C41.4549 34.6405 40.6738 35.4149 39.7229 35.4149H12.4376C11.473 35.4149 10.6987 34.6405 10.6987 33.6828V14.0119C10.6987 13.0541 11.473 12.2798 12.4376 12.2798H39.7229C40.6738 12.2798 41.4549 13.0541 41.4549 14.0119Z" fill="white"/>
<path id="Vector_8" d="M39.7235 35.7551H12.4376C11.2913 35.7551 10.3594 34.8258 10.3594 33.6829V14.012C10.3594 12.8697 11.2913 11.9404 12.4376 11.9404H39.7235C40.8657 11.9404 41.795 12.8697 41.795 14.012V33.6829C41.795 34.8258 40.8657 35.7551 39.7235 35.7551ZM12.4376 12.6197C11.6661 12.6197 11.0386 13.2445 11.0386 14.012V33.6829C11.0386 34.451 11.6661 35.0759 12.4376 35.0759H39.7235C40.4909 35.0759 41.1158 34.451 41.1158 33.6829V14.012C41.1158 13.2445 40.4909 12.6197 39.7235 12.6197H12.4376Z" fill="#61113F"/>
<g id="Group_2">
<path id="Vector_9" d="M41.4554 14.0123V16.7565H10.6992V14.0123C10.6992 13.0546 11.4735 12.2803 12.4381 12.2803H39.7234C40.6743 12.2803 41.4554 13.0546 41.4554 14.0123Z" fill="#61113F"/>
<path id="Vector_10" d="M41.4554 17.0958H10.699C10.5113 17.0958 10.3594 16.9439 10.3594 16.7562V14.012C10.3594 12.8697 11.2913 11.9404 12.4376 11.9404H39.7235C40.8657 11.9404 41.795 12.8697 41.795 14.012V16.7562C41.795 16.9439 41.6431 17.0958 41.4554 17.0958ZM11.0386 16.4166H41.1158V14.012C41.1158 13.2445 40.4909 12.6197 39.7235 12.6197H12.4376C11.6661 12.6197 11.0386 13.2445 11.0386 14.012V16.4166Z" fill="#61113F"/>
</g>
<g id="Group_3">
<path id="Vector_11" d="M31.7491 35.4131H20.4023V39.2923H31.7491V35.4131Z" fill="#DDDDDD"/>
</g>
<g id="Group_4">
<path id="Vector_12" d="M31.7495 39.6314H20.4026C20.2149 39.6314 20.063 39.4795 20.063 39.2918V35.4134C20.063 35.2256 20.2149 35.0737 20.4026 35.0737H31.7495C31.9372 35.0737 32.0891 35.2256 32.0891 35.4134V39.2918C32.0891 39.4795 31.9372 39.6314 31.7495 39.6314ZM20.7422 38.9522H31.4098V35.753H20.7422V38.9522Z" fill="#61113F"/>
</g>
<g id="Group_5">
<path id="Vector_13" d="M34.717 41.0527V41.2633C34.717 41.5146 34.5132 41.7184 34.2619 41.7184H17.8921C17.6408 41.7184 17.437 41.5146 17.437 41.2633V41.0527C17.437 40.0814 18.2317 39.2935 19.1962 39.2935H32.951C33.9223 39.2935 34.717 40.0814 34.717 41.0527Z" fill="white"/>
<path id="Vector_14" d="M34.262 42.0578H17.8918C17.4534 42.0578 17.0972 41.7016 17.0972 41.2631V41.0529C17.0972 39.8954 18.0384 38.9541 19.1959 38.9541H32.9506C34.1121 38.9541 35.0567 39.8954 35.0567 41.0529V41.2631C35.0567 41.7016 34.7005 42.0578 34.262 42.0578ZM19.1959 39.6333C18.4132 39.6333 17.7764 40.2701 17.7764 41.0529V41.2631C17.7764 41.3268 17.8282 41.3786 17.8918 41.3786H34.262C34.3257 41.3786 34.3775 41.3268 34.3775 41.2631V41.0529C34.3775 40.2701 33.7374 39.6333 32.9506 39.6333H19.1959Z" fill="#61113F"/>
</g>
<g id="Group_6">
<path id="Vector_15" d="M13.3123 15.2638C13.7235 15.2638 14.0568 14.9305 14.0568 14.5194C14.0568 14.1082 13.7235 13.7749 13.3123 13.7749C12.9012 13.7749 12.5679 14.1082 12.5679 14.5194C12.5679 14.9305 12.9012 15.2638 13.3123 15.2638Z" fill="white"/>
<path id="Vector_16" d="M15.7269 15.2638C16.138 15.2638 16.4713 14.9305 16.4713 14.5194C16.4713 14.1082 16.138 13.7749 15.7269 13.7749C15.3157 13.7749 14.9824 14.1082 14.9824 14.5194C14.9824 14.9305 15.3157 15.2638 15.7269 15.2638Z" fill="white"/>
<path id="Vector_17" d="M18.1419 15.2638C18.5531 15.2638 18.8864 14.9305 18.8864 14.5194C18.8864 14.1082 18.5531 13.7749 18.1419 13.7749C17.7308 13.7749 17.3975 14.1082 17.3975 14.5194C17.3975 14.9305 17.7308 15.2638 18.1419 15.2638Z" fill="white"/>
</g>
<g id="Group_7">
<path id="Vector_18" d="M25.7275 32.2411C29.3464 32.2411 32.2802 29.3074 32.2802 25.6884C32.2802 22.0695 29.3464 19.1357 25.7275 19.1357C22.1085 19.1357 19.1748 22.0695 19.1748 25.6884C19.1748 29.3074 22.1085 32.2411 25.7275 32.2411Z" fill="#E7BDD5"/>
<path id="Vector_19" d="M25.7276 32.5811C21.9267 32.5811 18.835 29.4894 18.835 25.6885C18.835 21.8877 21.9267 18.7959 25.7276 18.7959C29.5284 18.7959 32.6202 21.8877 32.6202 25.6885C32.6202 29.4894 29.5284 32.5811 25.7276 32.5811ZM25.7276 19.4751C22.3015 19.4751 19.5142 22.2624 19.5142 25.6885C19.5142 29.1146 22.3015 31.9019 25.7276 31.9019C29.1537 31.9019 31.9409 29.1146 31.9409 25.6885C31.9409 22.2624 29.1537 19.4751 25.7276 19.4751Z" fill="#61113F"/>
<path id="Vector_20" d="M25.7275 30.5946C28.4371 30.5946 30.6337 28.398 30.6337 25.6884C30.6337 22.9788 28.4371 20.7822 25.7275 20.7822C23.0179 20.7822 20.8213 22.9788 20.8213 25.6884C20.8213 28.398 23.0179 30.5946 25.7275 30.5946Z" fill="white"/>
<path id="Vector_21" d="M22.5342 26.0284H22.1189C21.9312 26.0284 21.7793 25.8765 21.7793 25.6887C21.7793 25.501 21.9312 25.3491 22.1189 25.3491H22.5342C22.7219 25.3491 22.8738 25.501 22.8738 25.6887C22.8738 25.8765 22.7219 26.0284 22.5342 26.0284Z" fill="#61113F"/>
<g id="Group_8">
<path id="Vector_22" d="M29.3359 26.0284H28.9207C28.733 26.0284 28.5811 25.8765 28.5811 25.6887C28.5811 25.501 28.733 25.3491 28.9207 25.3491H29.3359C29.5236 25.3491 29.6755 25.501 29.6755 25.6887C29.6755 25.8765 29.5236 26.0284 29.3359 26.0284Z" fill="#61113F"/>
</g>
<path id="&#226;&#130;&#185;" d="M26.9957 24.2207L26.8436 24.8604H24L24.1543 24.2207H26.9957ZM25.5664 28L24.0664 25.9443L24.0643 25.4023H24.8057C24.9829 25.4023 25.1307 25.369 25.2493 25.3022C25.3693 25.2339 25.46 25.1387 25.5214 25.0166C25.5843 24.8929 25.6157 24.748 25.6157 24.582C25.6157 24.333 25.5514 24.1328 25.4229 23.9814C25.2943 23.8301 25.0886 23.7544 24.8057 23.7544H24L24.1671 23H24.8057C25.1657 23 25.4636 23.0635 25.6993 23.1904C25.9364 23.3158 26.1136 23.4932 26.2307 23.7227C26.3493 23.9521 26.4086 24.2207 26.4086 24.5283C26.4086 24.8001 26.365 25.0426 26.2779 25.2559C26.1907 25.4691 26.0536 25.644 25.8664 25.7808C25.6793 25.9175 25.4343 26.0086 25.1314 26.0542L25.1057 26.064L26.46 27.9561V28H25.5664ZM27 23L26.8436 23.6494L24.5379 23.6396L24.6943 23H27Z" fill="#61113F"/>
</g>
<g id="Group_9">
<path id="Vector_23" d="M37.0129 32.1816L35.4371 33.7575C35.2333 33.9613 34.9073 33.9613 34.7035 33.7575L32.5639 31.6247L32.1971 31.9914C31.8575 32.3311 31.2869 32.1748 31.1647 31.713L30.0439 27.5288C29.9216 27.0737 30.3428 26.6526 30.7978 26.7748L34.9888 27.8956C35.4439 28.0179 35.6001 28.5884 35.2605 28.928L34.8801 29.3084L37.0197 31.448C37.2167 31.6518 37.2167 31.9779 37.0129 32.1816Z" fill="#E7BDD5"/>
<path id="Vector_24" d="M35.0701 34.2483C34.8506 34.2483 34.6304 34.1647 34.4632 33.9976L32.5648 32.1051L32.4374 32.2318C32.1913 32.4779 31.8464 32.5707 31.5114 32.4812C31.1777 32.391 30.925 32.1363 30.8361 31.8L29.7158 27.6164C29.6269 27.2847 29.7191 26.9404 29.9639 26.6957C30.2086 26.4502 30.5515 26.3594 30.8859 26.4463L35.0761 27.5673C35.4091 27.6568 35.6612 27.9089 35.7507 28.2419C35.8403 28.5762 35.7467 28.9218 35.5006 29.1679L35.36 29.3085L37.2598 31.2083C37.5888 31.5479 37.5841 32.0905 37.2531 32.4215L35.6771 33.9976C35.5099 34.1647 35.2897 34.2483 35.0701 34.2483ZM32.5641 31.2852C32.651 31.2852 32.7379 31.3184 32.8036 31.3841L34.9428 33.5167C35.0144 33.5883 35.1252 33.5876 35.1968 33.5173L36.7729 31.9413C36.8445 31.8696 36.8459 31.7568 36.7755 31.6845L34.6396 29.5486C34.507 29.416 34.507 29.2011 34.6396 29.0684L35.0204 28.6876C35.1245 28.5835 35.1066 28.4641 35.0947 28.4177C35.0821 28.3719 35.0383 28.2605 34.9003 28.224L30.7101 27.103C30.5708 27.0632 30.4779 27.1421 30.4441 27.1753C30.4103 27.2098 30.3353 27.3033 30.3718 27.4406L31.4928 31.6255C31.5306 31.7681 31.6421 31.8126 31.6885 31.8252C31.7343 31.8378 31.8523 31.8557 31.9571 31.7515L32.324 31.3847C32.3903 31.3184 32.4772 31.2852 32.5641 31.2852Z" fill="#61113F"/>
</g>
</g>
</g>
<g id="Group_10">
<path id="Vector_25" d="M53.7847 8.28466C53.7847 10.2738 52.9945 12.1814 51.588 13.588C50.1815 14.9945 48.2738 15.7846 46.2847 15.7846C44.2956 15.7846 42.388 14.9945 40.9814 13.588C39.5749 12.1814 38.7847 10.2738 38.7847 8.28466C38.7847 6.29555 39.5749 4.38789 40.9814 2.98136C42.388 1.57484 44.2956 0.784668 46.2847 0.784668C48.2738 0.784668 50.1815 1.57484 51.588 2.98136C52.9945 4.38788 53.7847 6.29554 53.7847 8.28466Z" fill="#07BA64" stroke="white"/>
<path id="Vector_26" d="M49.3777 6.79771L45.3778 10.1313C45.2499 10.2383 45.0866 10.2935 44.92 10.286C44.7535 10.2786 44.5958 10.209 44.478 10.0909L43.1446 8.75752C43.0204 8.6317 42.9511 8.46188 42.9517 8.28512C42.9523 8.10836 43.0228 7.939 43.1477 7.81401C43.2727 7.68902 43.442 7.61855 43.6188 7.61796C43.7956 7.61737 43.9654 7.68672 44.0912 7.81088L44.9912 8.71746L48.5246 5.77094C48.5918 5.71302 48.6698 5.66906 48.7541 5.64162C48.8385 5.61419 48.9274 5.60384 49.0158 5.61117C49.1042 5.61851 49.1902 5.64339 49.2689 5.68435C49.3475 5.72531 49.4173 5.78153 49.4739 5.84973C49.5306 5.91793 49.5732 5.99675 49.599 6.08158C49.6249 6.1664 49.6336 6.25554 49.6247 6.34377C49.6157 6.432 49.5893 6.51757 49.5469 6.59546C49.5045 6.67336 49.447 6.74228 49.3777 6.79771Z" fill="white"/>
</g>
</g>
<defs>
<clipPath id="clip0_763_84980">
<rect width="54" height="54" fill="white"/>
</clipPath>
</defs>
</svg>
