<svg width="54" height="54" viewBox="0 0 54 54" fill="none" xmlns="http://www.w3.org/2000/svg">
<g id="bank-locker 1" clip-path="url(#clip0_795_86321)">
<g id="Group">
<path id="Vector" d="M53.5 27C53.5 41.6355 41.6355 53.5 27 53.5C12.3645 53.5 0.5 41.6355 0.5 27C0.5 12.3645 12.3645 0.5 27 0.5C41.6355 0.5 53.5 12.3645 53.5 27Z" fill="white" stroke="#E9E9E9"/>
<g id="settlement 1" clip-path="url(#clip1_795_86321)">
<path id="Vector_2" d="M15.642 22.8494L17.4214 21.0458C17.67 20.7936 17.9664 20.5932 18.2931 20.4566C18.6199 20.3199 18.9706 20.2497 19.3248 20.2499C19.679 20.2501 20.0297 20.3208 20.3563 20.4578C20.6829 20.5948 20.979 20.7955 21.2273 21.048L22.5649 22.3969C22.991 22.8293 23.2571 23.394 23.3194 23.9979L23.8503 24.5285L25.4733 24.5335C25.8778 24.5352 26.2766 24.6297 26.6389 24.8095C27.1339 24.3404 27.7893 24.0779 28.4712 24.0756C28.5426 24.0756 28.6146 24.0783 28.6865 24.0844L30.2493 24.2187L30.3834 24.0827C30.4336 23.4395 30.7149 22.8361 31.1752 22.384L32.557 21.0277C33.0662 20.5303 33.7498 20.2518 34.4616 20.2518C35.1735 20.2518 35.857 20.5303 36.3662 21.0277L38.4259 23.0549V10.6522C38.4259 10.6522 38.215 9.52723 36.2814 9.52723C34.3478 9.52723 18.3517 9.49207 18.3517 9.49207C18.3517 9.49207 15.5861 8.27331 15.6329 11.0155C15.6655 12.9223 15.6528 19.2004 15.642 22.8494Z" fill="white"/>
<path id="Vector_3" d="M16.3123 10.7C16.306 10.5584 16.3559 10.42 16.4513 10.315C16.5466 10.2101 16.6796 10.1471 16.8212 10.1398H37.1784C37.32 10.1471 37.4529 10.2101 37.5483 10.315C37.6436 10.42 37.6936 10.5584 37.6873 10.7V22.5032L38.8123 23.625V10.7C38.8204 10.2581 38.6529 9.83099 38.3467 9.51232C38.0404 9.19366 37.6202 9.00942 37.1784 9H16.8212C16.3793 9.00942 15.9592 9.19366 15.6529 9.51232C15.3466 9.83099 15.1792 10.2581 15.1873 10.7V23.4994L16.3123 22.3446V10.7Z" fill="#61113F" stroke="#61113F"/>
<path id="Vector_4" d="M42.0021 28.1531L35.5783 21.8306C35.2794 21.5398 34.8788 21.3771 34.4618 21.3771C34.0447 21.3771 33.6441 21.5398 33.3452 21.8306L31.9671 23.1834C31.8192 23.3282 31.7017 23.501 31.6215 23.6918C31.5414 23.8826 31.5001 24.0874 31.5002 24.2944C31.502 24.3736 31.5095 24.4525 31.5227 24.5306L30.8111 25.2506C30.7703 25.2928 30.7206 25.3252 30.6656 25.3457C30.6106 25.3661 30.5518 25.374 30.4933 25.3688L28.5949 25.2056C28.3723 25.1877 28.1484 25.2188 27.939 25.2965C27.7296 25.3742 27.5398 25.4968 27.3827 25.6556L26.7386 26.3081L26.5333 26.1028C26.2518 25.8198 25.8694 25.66 25.4702 25.6584L23.5436 25.6528C23.493 25.6529 23.4429 25.643 23.396 25.6237C23.3492 25.6044 23.3067 25.5761 23.2708 25.5403L22.1993 24.4688C22.2269 24.2367 22.2023 24.0013 22.1274 23.7799C22.0525 23.5586 21.929 23.3567 21.7661 23.1891L20.4246 21.8363C20.2808 21.6902 20.1094 21.5742 19.9204 21.495C19.7314 21.4158 19.5284 21.375 19.3235 21.375C19.1185 21.375 18.9156 21.4158 18.7266 21.495C18.5376 21.5742 18.3662 21.6902 18.2224 21.8363L11.9843 28.1588C11.6937 28.4533 11.5308 28.8503 11.5308 29.2641C11.5308 29.6778 11.6937 30.0749 11.9843 30.3694L13.323 31.7222C13.5161 31.9221 13.7605 32.0649 14.0294 32.1348C14.2984 32.2048 14.5814 32.1992 14.8474 32.1188L17.5755 34.8469L16.7824 35.6288C16.6336 35.7753 16.5155 35.95 16.4349 36.1427C16.3542 36.3353 16.3127 36.5421 16.3127 36.7509C16.3127 36.9598 16.3542 37.1665 16.4349 37.3592C16.5155 37.5518 16.6336 37.7265 16.7824 37.8731C16.7824 37.8731 17.3758 38.4581 17.3786 38.4581C17.6495 38.7219 18.0055 38.8805 18.3827 38.9053C18.4104 39.2816 18.5733 39.6352 18.8411 39.9009L19.4374 40.4859C19.7082 40.7497 20.0642 40.9083 20.4415 40.9331C20.4702 41.3097 20.634 41.6633 20.9027 41.9288L21.4961 42.5138C21.768 42.7776 22.1249 42.9362 22.503 42.9609C22.5307 43.3372 22.6936 43.6908 22.9615 43.9566L23.5549 44.5416C23.8567 44.8355 24.2614 45 24.6827 45C25.104 45 25.5087 44.8355 25.8105 44.5416L26.5418 43.8188L26.8258 44.1028C27.2173 44.4896 27.7436 44.7094 28.294 44.7159C28.7531 44.7187 29.1984 44.5586 29.5506 44.2641C29.9028 43.9695 30.1392 43.5596 30.2177 43.1072C30.4133 43.165 30.6157 43.1962 30.8196 43.2C31.2978 43.2039 31.7603 43.0289 32.1162 42.7095C32.4721 42.39 32.6958 41.949 32.7433 41.4731C32.8835 41.5055 33.027 41.5215 33.1708 41.5209C33.4319 41.5223 33.6905 41.4706 33.931 41.3688C34.1714 41.267 34.3886 41.1174 34.5694 40.929C34.7501 40.7406 34.8907 40.5174 34.9824 40.273C35.0742 40.0285 35.1152 39.768 35.103 39.5072C35.1272 39.5111 35.1517 39.512 35.1761 39.51C35.4326 39.512 35.6868 39.4628 35.9239 39.3653C36.1611 39.2677 36.3763 39.1238 36.5571 38.9419C36.9285 38.5553 37.1316 38.0373 37.1221 37.5013C37.1127 36.9653 36.8913 36.4548 36.5065 36.0816L35.8483 35.4234L39.1052 32.1244C39.2363 32.1607 39.3714 32.1805 39.5074 32.1834C39.9249 32.1839 40.326 32.0203 40.624 31.7278L42.0021 30.375C42.1499 30.2302 42.2673 30.0574 42.3475 29.8666C42.4277 29.6758 42.4689 29.471 42.4689 29.2641C42.4689 29.0571 42.4277 28.8523 42.3475 28.6615C42.2673 28.4708 42.1499 28.2979 42.0021 28.1531ZM14.7236 30.9319C14.6431 31.0103 14.5351 31.0542 14.4227 31.0542C14.3103 31.0542 14.2023 31.0103 14.1218 30.9319L12.783 29.5791C12.7005 29.495 12.6544 29.3819 12.6544 29.2641C12.6544 29.1463 12.7005 29.0332 12.783 28.9491C12.783 28.9491 19.0211 22.6294 19.024 22.6266C19.1038 22.5469 19.2121 22.5021 19.3249 22.5021C19.4377 22.5021 19.546 22.5469 19.6258 22.6266L20.9646 23.9794C21.0471 24.064 21.0933 24.1776 21.0933 24.2958C21.0933 24.414 21.0471 24.5275 20.9646 24.6122L14.7236 30.9319ZM18.8411 37.6566C18.7508 37.7445 18.6297 37.7937 18.5036 37.7937C18.3776 37.7937 18.2565 37.7445 18.1661 37.6566C18.1661 37.6566 17.5755 37.0744 17.5727 37.0716C17.5306 37.0295 17.4972 36.9795 17.4744 36.9245C17.4516 36.8695 17.4398 36.8105 17.4398 36.7509C17.4398 36.6914 17.4516 36.6324 17.4744 36.5774C17.4972 36.5224 17.5306 36.4724 17.5727 36.4303L18.8524 35.1703C18.9424 35.0818 19.0636 35.0321 19.1899 35.0321C19.3162 35.0321 19.4374 35.0818 19.5274 35.1703C19.5274 35.1703 20.1208 35.7525 20.1236 35.7553C20.1658 35.7974 20.1992 35.8474 20.222 35.9024C20.2448 35.9574 20.2565 36.0164 20.2565 36.0759C20.2565 36.1355 20.2448 36.1945 20.222 36.2495C20.1992 36.3045 20.1658 36.3545 20.1236 36.3966L18.8411 37.6566ZM20.9027 39.6844C20.8118 39.7723 20.6903 39.8215 20.5638 39.8215C20.4373 39.8215 20.3158 39.7723 20.2249 39.6844L19.6315 39.0994C19.5893 39.0573 19.5559 39.0073 19.5331 38.9523C19.5103 38.8973 19.4986 38.8383 19.4986 38.7788C19.4986 38.7192 19.5103 38.6602 19.5331 38.6052C19.5559 38.5502 19.5893 38.5002 19.6315 38.4581L20.9111 37.1981C21.0027 37.1114 21.124 37.0631 21.2501 37.0631C21.3761 37.0631 21.4974 37.1114 21.589 37.1981L22.1824 37.7831C22.2245 37.8249 22.2579 37.8747 22.2807 37.9295C22.3035 37.9842 22.3153 38.043 22.3153 38.1023C22.3153 38.1617 22.3035 38.2204 22.2807 38.2752C22.2579 38.33 22.2245 38.3798 22.1824 38.4216L20.9027 39.6844ZM22.9615 41.7122C22.8711 41.8001 22.75 41.8493 22.624 41.8493C22.4979 41.8493 22.3768 41.8001 22.2865 41.7122C22.2865 41.7122 21.693 41.1272 21.6902 41.1272C21.6064 41.0415 21.5594 40.9264 21.5594 40.8066C21.5594 40.6867 21.6064 40.5716 21.6902 40.4859C21.6902 40.4859 22.9699 39.2259 22.9727 39.2259C23.0637 39.1395 23.1842 39.0911 23.3097 39.0906C23.4351 39.0901 23.556 39.1375 23.6477 39.2231C23.6477 39.2231 24.2411 39.8081 24.2411 39.8109C24.3256 39.8957 24.373 40.0105 24.373 40.1302C24.373 40.2498 24.3256 40.3646 24.2411 40.4494L22.9615 41.7122ZM26.3027 42.4772L25.0202 43.74C24.9299 43.8279 24.8088 43.8771 24.6827 43.8771C24.5566 43.8771 24.4356 43.8279 24.3452 43.74L23.7518 43.155C23.709 43.1133 23.6751 43.0634 23.6519 43.0083C23.6287 42.9533 23.6168 42.8941 23.6168 42.8344C23.6168 42.7746 23.6287 42.7155 23.6519 42.6604C23.6751 42.6054 23.709 42.5555 23.7518 42.5138L25.0315 41.2509C25.1218 41.163 25.2429 41.1138 25.369 41.1138C25.495 41.1138 25.6161 41.163 25.7065 41.2509C25.7065 41.2509 26.2999 41.8359 26.3027 41.8388C26.3865 41.9239 26.4335 42.0385 26.4335 42.158C26.4335 42.2774 26.3865 42.3921 26.3027 42.4772ZM35.7611 38.1459C35.584 38.3028 35.3531 38.3851 35.1167 38.3757C34.8803 38.3663 34.6567 38.2658 34.4927 38.0953L30.2177 33.8175C30.1657 33.7649 30.1038 33.723 30.0356 33.6943C29.9674 33.6657 29.8942 33.6508 29.8202 33.6505C29.7462 33.6502 29.6729 33.6645 29.6045 33.6926C29.536 33.7207 29.4738 33.7621 29.4214 33.8143C29.369 33.8665 29.3274 33.9286 29.299 33.9969C29.2707 34.0653 29.2561 34.1386 29.2561 34.2125C29.2562 34.2865 29.2708 34.3598 29.2992 34.4281C29.3277 34.4964 29.3693 34.5584 29.4218 34.6106L33.6799 38.8744C33.8591 39.0366 33.9668 39.2631 33.9795 39.5045C33.9921 39.7459 33.9087 39.9825 33.7474 40.1625C33.5654 40.3186 33.3301 40.3985 33.0906 40.3854C32.8512 40.3723 32.626 40.2673 32.4621 40.0922L28.1674 35.7975C28.0621 35.6925 27.9195 35.6335 27.7708 35.6335C27.6221 35.6335 27.4795 35.6924 27.3741 35.7974C27.2688 35.9023 27.2094 36.0448 27.2089 36.1934C27.2084 36.3421 27.2668 36.485 27.3715 36.5906L31.3315 40.5534C31.5106 40.7151 31.6183 40.9412 31.631 41.1821C31.6436 41.4231 31.5602 41.6592 31.399 41.8388C31.2176 41.996 30.9824 42.0768 30.7427 42.0642C30.503 42.0516 30.2775 41.9466 30.1136 41.7712L25.819 37.4766C25.767 37.4239 25.7051 37.3821 25.6369 37.3534C25.5687 37.3247 25.4955 37.3098 25.4215 37.3095C25.3475 37.3092 25.2742 37.3235 25.2057 37.3517C25.1373 37.3798 25.0751 37.4211 25.0226 37.4734C24.9702 37.5256 24.9286 37.5877 24.9003 37.656C24.8719 37.7243 24.8573 37.7976 24.8574 37.8716C24.8574 37.9456 24.8721 38.0189 24.9005 38.0872C24.9289 38.1555 24.9706 38.2175 25.023 38.2697L28.8424 42.0919C29.0142 42.254 29.1148 42.4776 29.1222 42.7137C29.1296 42.9499 29.0431 43.1793 28.8818 43.3519C28.7077 43.5105 28.4786 43.5949 28.2432 43.587C28.0078 43.5791 27.7848 43.4796 27.6218 43.3097L27.3124 43.0003C27.5084 42.6975 27.5934 42.3361 27.5528 41.9776C27.5123 41.6192 27.3488 41.2858 27.0902 41.0344L26.4968 40.4494C26.2246 40.186 25.8678 40.0275 25.4899 40.0022C25.4621 39.6267 25.2993 39.274 25.0315 39.0094L24.438 38.4216C24.1651 38.1592 23.8088 38.001 23.4311 37.9744C23.4034 37.5989 23.2405 37.2462 22.9727 36.9816L22.3765 36.3938C22.1049 36.131 21.7493 35.9727 21.3724 35.9466C21.3448 35.5705 21.1808 35.2174 20.9111 34.9538L20.3177 34.3688C20.072 34.1288 19.7559 33.974 19.4158 33.9269C19.0756 33.8798 18.7293 33.943 18.4277 34.1072L15.784 31.4606L21.6536 25.515L22.4777 26.3363C22.6169 26.4765 22.7825 26.5878 22.965 26.6636C23.1475 26.7394 23.3432 26.7782 23.5408 26.7778L25.4646 26.7834C25.5154 26.7836 25.5657 26.7939 25.6126 26.8137C25.6594 26.8335 25.7018 26.8624 25.7374 26.8988L25.9455 27.1069L24.0527 29.0222C23.8318 29.2459 23.6837 29.5312 23.628 29.8406C23.628 29.8406 23.0852 32.9372 23.0852 32.9428C23.0507 33.1788 23.0703 33.4195 23.1426 33.6467C23.2149 33.874 23.3379 34.0818 23.5024 34.2544C23.6669 34.4271 23.8686 34.56 24.0921 34.6431C24.3156 34.7263 24.5551 34.7575 24.7924 34.7344L25.6502 34.6191C25.8607 34.5898 26.0629 34.5173 26.244 34.4059C26.425 34.2946 26.581 34.1469 26.7021 33.9722C27.0565 33.4603 27.6274 32.4844 27.6555 31.4325L28.9577 30.1191L35.7105 36.8775C35.7972 36.9574 35.8673 37.0536 35.9168 37.1606C35.9663 37.2677 35.9942 37.3834 35.9989 37.5012C36.0036 37.619 35.985 37.7366 35.9442 37.8473C35.9034 37.9579 35.8412 38.0594 35.7611 38.1459ZM35.0552 34.6275L29.748 29.3175L29.7649 29.3006C29.8172 29.2483 29.8587 29.1861 29.8869 29.1177C29.9151 29.0492 29.9295 28.9759 29.9293 28.9019C29.9291 28.8279 29.9143 28.7546 29.8857 28.6864C29.8571 28.6181 29.8153 28.5561 29.7627 28.5041C29.7101 28.452 29.6477 28.4109 29.5791 28.383C29.5105 28.3551 29.4371 28.3411 29.3631 28.3416C29.2891 28.3422 29.2159 28.3574 29.1478 28.3864C29.0797 28.4153 29.0179 28.4574 28.9661 28.5103L26.6908 30.8109C26.6352 30.8667 26.5921 30.9336 26.5644 31.0074C26.5368 31.0811 26.5252 31.1599 26.5305 31.2384C26.5783 32.0484 26.0805 32.895 25.7768 33.3281C25.7452 33.3751 25.704 33.4148 25.6561 33.4449C25.6081 33.4749 25.5544 33.4945 25.4983 33.5025L24.6433 33.6178C24.58 33.6239 24.5161 33.6153 24.4566 33.5928C24.3971 33.5703 24.3435 33.5344 24.3001 33.488C24.2566 33.4415 24.2244 33.3857 24.2059 33.3248C24.1874 33.264 24.1831 33.1997 24.1933 33.1369L24.7361 30.0347C24.752 29.9518 24.7921 29.8754 24.8514 29.8153L28.1843 26.4459C28.2245 26.4039 28.2738 26.3714 28.3283 26.3509C28.3828 26.3305 28.4413 26.3226 28.4993 26.3278L30.4005 26.4909C30.6228 26.5091 30.8463 26.4781 31.0552 26.4004C31.2642 26.3226 31.4536 26.1999 31.6099 26.0409L32.1049 25.5431L38.149 31.4916L35.0552 34.6275ZM41.2118 29.5734L39.8336 30.9263C39.7459 31.0115 39.6283 31.0591 39.506 31.0591C39.3836 31.0591 39.2661 31.0115 39.1783 30.9263C39.1783 30.9263 32.7799 24.6263 32.7574 24.6066C32.6763 24.5235 32.6308 24.4119 32.6308 24.2958C32.6308 24.1796 32.6763 24.0681 32.7574 23.985L34.1355 22.6322C34.2233 22.547 34.3408 22.4993 34.4632 22.4993C34.5855 22.4993 34.7031 22.547 34.7908 22.6322C34.7908 22.6322 41.1836 28.9238 41.2118 28.9547C41.2929 29.0372 41.3384 29.1483 41.3384 29.2641C41.3384 29.3798 41.2929 29.4909 41.2118 29.5734Z" fill="#61113F" stroke="#61113F"/>
<path id="Vector_5" d="M20.9645 24.612L14.7236 30.9317C14.6431 31.0102 14.5351 31.0541 14.4227 31.0541C14.3102 31.0541 14.2022 31.0102 14.1217 30.9317L12.783 29.5789C12.7005 29.4948 12.6543 29.3817 12.6543 29.2639C12.6543 29.1461 12.7005 29.033 12.783 28.9489C12.783 28.9489 19.0211 22.6292 19.0239 22.6264C19.1038 22.5467 19.212 22.502 19.3248 22.502C19.4377 22.502 19.5459 22.5467 19.6258 22.6264L20.9645 23.9792C21.047 24.0639 21.0932 24.1774 21.0932 24.2956C21.0932 24.4138 21.047 24.5274 20.9645 24.612Z" fill="#E7BDD5"/>
<path id="Vector_6" d="M26.3023 42.4773L25.0198 43.7401C24.9295 43.828 24.8084 43.8772 24.6823 43.8772C24.5563 43.8772 24.4352 43.828 24.3448 43.7401L23.7514 43.1551C23.7087 43.1133 23.6747 43.0635 23.6515 43.0084C23.6283 42.9533 23.6164 42.8942 23.6164 42.8345C23.6164 42.7747 23.6283 42.7156 23.6515 42.6605C23.6747 42.6055 23.7087 42.5556 23.7514 42.5138L25.0311 41.251C25.1214 41.1631 25.2425 41.1139 25.3686 41.1139C25.4947 41.1139 25.6157 41.1631 25.7061 41.251C25.7061 41.251 26.2995 41.836 26.3023 41.8388C26.3862 41.9239 26.4331 42.0386 26.4331 42.1581C26.4331 42.2775 26.3862 42.3922 26.3023 42.4773ZM24.2408 40.4495L22.9611 41.7123C22.8707 41.8002 22.7497 41.8494 22.6236 41.8494C22.4975 41.8494 22.3764 41.8002 22.2861 41.7123C22.2861 41.7123 21.6927 41.1273 21.6898 41.1273C21.606 41.0416 21.5591 40.9265 21.5591 40.8066C21.5591 40.6868 21.606 40.5717 21.6898 40.486C21.6898 40.486 22.9695 39.226 22.9723 39.226C23.0633 39.1396 23.1838 39.0912 23.3093 39.0907C23.4347 39.0901 23.5557 39.1376 23.6473 39.2232C23.6473 39.2232 24.2408 39.8082 24.2408 39.811C24.3252 39.8958 24.3726 40.0106 24.3726 40.1302C24.3726 40.2499 24.3252 40.3647 24.2408 40.4495ZM22.182 38.4216L20.9023 39.6845C20.8114 39.7724 20.6899 39.8216 20.5634 39.8216C20.437 39.8216 20.3154 39.7724 20.2245 39.6845L19.6311 39.0995C19.589 39.0574 19.5555 39.0074 19.5327 38.9524C19.5099 38.8974 19.4982 38.8384 19.4982 38.7788C19.4982 38.7193 19.5099 38.6603 19.5327 38.6053C19.5555 38.5503 19.589 38.5003 19.6311 38.4582L20.9108 37.1982C21.0023 37.1115 21.1236 37.0632 21.2497 37.0632C21.3758 37.0632 21.497 37.1115 21.5886 37.1982L22.182 37.7832C22.2241 37.825 22.2576 37.8748 22.2804 37.9295C22.3032 37.9843 22.3149 38.0431 22.3149 38.1024C22.3149 38.1618 22.3032 38.2205 22.2804 38.2753C22.2576 38.3301 22.2241 38.3798 22.182 38.4216ZM20.1233 36.3966L18.8408 37.6566C18.7504 37.7446 18.6293 37.7938 18.5033 37.7938C18.3772 37.7938 18.2561 37.7446 18.1658 37.6566C18.1658 37.6566 17.5752 37.0745 17.5723 37.0716C17.5302 37.0296 17.4968 36.9796 17.474 36.9246C17.4512 36.8695 17.4395 36.8106 17.4395 36.751C17.4395 36.6915 17.4512 36.6325 17.474 36.5775C17.4968 36.5225 17.5302 36.4725 17.5723 36.4304L18.852 35.1704C18.942 35.0818 19.0633 35.0322 19.1895 35.0322C19.3158 35.0322 19.437 35.0818 19.527 35.1704C19.527 35.1704 20.1205 35.7526 20.1233 35.7554C20.1654 35.7975 20.1988 35.8475 20.2216 35.9025C20.2444 35.9575 20.2562 36.0165 20.2562 36.076C20.2562 36.1356 20.2444 36.1945 20.2216 36.2496C20.1988 36.3046 20.1654 36.3546 20.1233 36.3966Z" fill="white"/>
<path id="Vector_7" d="M41.2118 29.5737L39.8337 30.9265C39.7459 31.0117 39.6284 31.0594 39.506 31.0594C39.3837 31.0594 39.2661 31.0117 39.1784 30.9265C39.1784 30.9265 32.7799 24.6265 32.7574 24.6068C32.6763 24.5237 32.6309 24.4121 32.6309 24.296C32.6309 24.1799 32.6763 24.0683 32.7574 23.9852L34.1355 22.6324C34.2233 22.5472 34.3409 22.4995 34.4632 22.4995C34.5855 22.4995 34.7031 22.5472 34.7909 22.6324C34.7909 22.6324 41.1837 28.924 41.2118 28.9549C41.2929 29.0374 41.3384 29.1485 41.3384 29.2643C41.3384 29.38 41.2929 29.4911 41.2118 29.5737Z" fill="#E7BDD5"/>
<path id="Vector_8" d="M38.1486 31.4914L35.0548 34.6273L29.7476 29.3173L29.7645 29.3005C29.8168 29.2481 29.8583 29.1859 29.8865 29.1175C29.9147 29.0491 29.9292 28.9758 29.9289 28.9017C29.9287 28.8277 29.9139 28.7545 29.8853 28.6862C29.8567 28.6179 29.8149 28.556 29.7623 28.5039C29.7097 28.4519 29.6473 28.4107 29.5787 28.3828C29.5101 28.355 29.4367 28.3409 29.3627 28.3415C29.2887 28.3421 29.2155 28.3573 29.1474 28.3862C29.0793 28.4152 29.0176 28.4573 28.9658 28.5102L26.6904 30.8108C26.6348 30.8665 26.5917 30.9335 26.5641 31.0072C26.5364 31.0809 26.5248 31.1597 26.5301 31.2383C26.5779 32.0483 26.0801 32.8948 25.7764 33.328C25.7448 33.3749 25.7036 33.4147 25.6557 33.4447C25.6077 33.4748 25.554 33.4944 25.4979 33.5023L24.6429 33.6177C24.5796 33.6237 24.5157 33.6152 24.4562 33.5927C24.3967 33.5701 24.3432 33.5343 24.2997 33.4878C24.2562 33.4414 24.224 33.3856 24.2055 33.3247C24.187 33.2638 24.1827 33.1995 24.1929 33.1367L24.7357 30.0345C24.7516 29.9516 24.7917 29.8752 24.8511 29.8152L28.1839 26.4458C28.2241 26.4037 28.2734 26.3712 28.3279 26.3508C28.3824 26.3303 28.4409 26.3224 28.4989 26.3277L30.4001 26.4908C30.6224 26.5089 30.8459 26.478 31.0548 26.4002C31.2638 26.3225 31.4532 26.1998 31.6095 26.0408L32.1045 25.543L38.1486 31.4914Z" fill="white"/>
<path id="Vector_9" d="M35.7609 38.1461C35.5838 38.303 35.3529 38.3853 35.1165 38.3758C34.8801 38.3664 34.6565 38.2659 34.4924 38.0954L30.2174 33.8176C30.1655 33.765 30.1036 33.7231 30.0354 33.6945C29.9671 33.6658 29.8939 33.6509 29.8199 33.6506C29.746 33.6503 29.6726 33.6646 29.6042 33.6927C29.5357 33.7208 29.4735 33.7622 29.4211 33.8144C29.3687 33.8667 29.3271 33.9287 29.2988 33.9971C29.2704 34.0654 29.2558 34.1387 29.2559 34.2127C29.2559 34.2867 29.2706 34.3599 29.299 34.4282C29.3274 34.4966 29.369 34.5586 29.4215 34.6108L33.6796 38.8745C33.8588 39.0367 33.9665 39.2633 33.9792 39.5046C33.9918 39.746 33.9084 39.9826 33.7471 40.1626C33.5651 40.3188 33.3298 40.3986 33.0904 40.3855C32.8509 40.3724 32.6257 40.2674 32.4618 40.0923L28.1671 35.7976C28.0618 35.6926 27.9192 35.6337 27.7705 35.6336C27.6218 35.6336 27.4792 35.6925 27.3739 35.7975C27.2685 35.9025 27.2091 36.0449 27.2086 36.1936C27.2081 36.3423 27.2666 36.4851 27.3712 36.5908L31.3312 40.5536C31.5103 40.7152 31.6181 40.9413 31.6307 41.1823C31.6434 41.4232 31.5599 41.6594 31.3987 41.8389C31.2173 41.9961 30.9821 42.0769 30.7424 42.0643C30.5027 42.0517 30.2773 41.9467 30.1134 41.7714L25.8187 37.4767C25.7667 37.4241 25.7048 37.3822 25.6366 37.3535C25.5684 37.3249 25.4952 37.3099 25.4212 37.3097C25.3472 37.3094 25.2739 37.3237 25.2054 37.3518C25.137 37.3799 25.0748 37.4213 25.0224 37.4735C24.97 37.5257 24.9284 37.5878 24.9 37.6561C24.8717 37.7245 24.8571 37.7977 24.8571 37.8717C24.8571 37.9457 24.8718 38.019 24.9002 38.0873C24.9287 38.1556 24.9703 38.2176 25.0228 38.2698L28.8421 42.092C29.014 42.2541 29.1146 42.4777 29.122 42.7139C29.1293 42.95 29.0429 43.1795 28.8815 43.352C28.7074 43.5106 28.4783 43.595 28.2429 43.5871C28.0076 43.5792 27.7846 43.4797 27.6215 43.3098L27.3121 43.0004C27.5081 42.6976 27.5931 42.3362 27.5526 41.9778C27.5121 41.6193 27.3486 41.286 27.0899 41.0345L26.4965 40.4495C26.2243 40.1861 25.8676 40.0277 25.4896 40.0023C25.4619 39.6268 25.299 39.2741 25.0312 39.0095L24.4378 38.4217C24.1648 38.1594 23.8085 38.0011 23.4309 37.9745C23.4031 37.599 23.2403 37.2463 22.9724 36.9817L22.3762 36.3939C22.1047 36.1312 21.7491 35.9728 21.3721 35.9467C21.3446 35.5706 21.1805 35.2175 20.9109 34.9539L20.3174 34.3689C20.0718 34.129 19.7556 33.9741 19.4155 33.927C19.0753 33.88 18.729 33.9431 18.4274 34.1073L15.7837 31.4608L21.6534 25.5151L22.4774 26.3364C22.6166 26.4767 22.7823 26.5879 22.9648 26.6637C23.1472 26.7395 23.343 26.7783 23.5406 26.7779L25.4643 26.7836C25.5152 26.7837 25.5655 26.794 25.6123 26.8138C25.6592 26.8336 25.7016 26.8625 25.7371 26.8989L25.9453 27.107L24.0524 29.0223C23.8315 29.246 23.6835 29.5313 23.6278 29.8408C23.6278 29.8408 23.0849 32.9373 23.0849 32.9429C23.0504 33.1789 23.07 33.4196 23.1423 33.6469C23.2146 33.8741 23.3377 34.0819 23.5022 34.2546C23.6667 34.4272 23.8683 34.5601 24.0918 34.6433C24.3153 34.7264 24.5548 34.7576 24.7921 34.7345L25.6499 34.6192C25.8605 34.59 26.0627 34.5174 26.2437 34.4061C26.4248 34.2947 26.5808 34.147 26.7018 33.9723C27.0562 33.4604 27.6271 32.4845 27.6553 31.4326L28.9574 30.1192L35.7103 36.8776C35.797 36.9575 35.8671 37.0537 35.9166 37.1608C35.966 37.2678 35.9939 37.3835 35.9986 37.5014C36.0033 37.6192 35.9848 37.7368 35.944 37.8474C35.9032 37.958 35.841 38.0595 35.7609 38.1461Z" fill="white"/>
<path id="Vector_10" opacity="0.3" d="M20.9924 24.5783C20.9856 24.5643 20.976 24.5519 20.9643 24.5417L19.6255 23.1889C19.5456 23.1092 19.4374 23.0645 19.3246 23.0645C19.2117 23.0645 19.1035 23.1092 19.0236 23.1889C19.0208 23.1917 12.7827 29.5114 12.7827 29.5114C12.7725 29.522 12.7631 29.5332 12.7546 29.5452C12.6851 29.4597 12.6496 29.3517 12.6548 29.2417C12.66 29.1317 12.7055 29.0275 12.7827 28.9489C12.7827 28.9489 19.0208 22.6292 19.0236 22.6264C19.1035 22.5467 19.2117 22.502 19.3246 22.502C19.4374 22.502 19.5456 22.5467 19.6255 22.6264L20.9643 23.9792C21.0415 24.0583 21.087 24.163 21.0922 24.2734C21.0974 24.3838 21.0619 24.4923 20.9924 24.5783Z" fill="#F9DBD7"/>
<path id="Vector_11" opacity="0.5" d="M25.9453 27.107L25.6556 27.3995C25.5979 27.3646 25.5318 27.3461 25.4643 27.3461L23.5406 27.3404C23.343 27.3408 23.1472 27.302 22.9648 27.2262C22.7823 27.1504 22.6166 27.0392 22.4774 26.8989L21.6534 26.0776L16.0621 31.7392L15.7837 31.4608L21.6534 25.5151L22.4774 26.3364C22.6166 26.4767 22.7823 26.5879 22.9648 26.6637C23.1472 26.7395 23.343 26.7783 23.5406 26.7779L25.4643 26.7836C25.5152 26.7837 25.5655 26.794 25.6123 26.8138C25.6592 26.8336 25.7016 26.8625 25.7371 26.8989L25.9453 27.107ZM38.1487 31.4917L37.8674 31.7758L32.1046 26.1058L31.6096 26.6036C31.4533 26.7626 31.2639 26.8853 31.055 26.963C30.846 27.0408 30.6225 27.0717 30.4003 27.0536L28.499 26.8904C28.441 26.8852 28.3826 26.8931 28.328 26.9136C28.2735 26.934 28.2243 26.9665 28.184 27.0086L24.8512 30.3779C24.7919 30.438 24.7517 30.5144 24.7359 30.5973L24.2437 33.4098C24.1948 33.3278 24.1769 33.2311 24.1931 33.137L24.7359 30.0348C24.7517 29.9519 24.7919 29.8755 24.8512 29.8154L28.184 26.4461C28.2243 26.404 28.2735 26.3715 28.328 26.3511C28.3826 26.3306 28.441 26.3227 28.499 26.3279L30.4003 26.4911C30.6225 26.5092 30.846 26.4783 31.055 26.4005C31.2639 26.3228 31.4533 26.2001 31.6096 26.0411L32.1046 25.5433L38.1487 31.4917Z" fill="white"/>
<path id="Vector_12" opacity="0.3" d="M41.2342 29.5455C41.2276 29.5355 41.2201 29.5261 41.2117 29.5174C41.1836 29.4865 34.7908 23.1949 34.7908 23.1949C34.703 23.1097 34.5855 23.062 34.4631 23.062C34.3408 23.062 34.2232 23.1097 34.1355 23.1949L32.7573 24.5477C32.7474 24.5567 32.7389 24.5671 32.732 24.5787C32.6622 24.4941 32.6261 24.3867 32.6308 24.2771C32.6354 24.1675 32.6805 24.0635 32.7573 23.9852L34.1355 22.6324C34.2232 22.5472 34.3408 22.4995 34.4631 22.4995C34.5855 22.4995 34.703 22.5472 34.7908 22.6324C34.7908 22.6324 41.1836 28.924 41.2117 28.9549C41.2882 29.033 41.3328 29.1367 41.337 29.2459C41.3412 29.3551 41.3045 29.4619 41.2342 29.5455Z" fill="#F9DBD7"/>
<path id="Vector_13" opacity="0.5" d="M35.7608 38.1459C35.5837 38.3028 35.3528 38.3851 35.1164 38.3756C34.88 38.3662 34.6564 38.2657 34.4924 38.0953L30.2174 33.8174C30.1121 33.7117 29.9692 33.652 29.82 33.6515C29.6708 33.651 29.5275 33.7096 29.4214 33.8146C29.3867 33.8494 29.3573 33.8892 29.3343 33.9328C29.265 33.8148 29.2413 33.6756 29.2675 33.5414C29.2937 33.4072 29.368 33.2871 29.4765 33.2038C29.585 33.1206 29.7202 33.0798 29.8566 33.0892C29.993 33.0986 30.1213 33.1576 30.2174 33.2549L34.4924 37.5328C34.6564 37.7032 34.88 37.8037 35.1164 37.8131C35.3528 37.8226 35.5837 37.7403 35.7608 37.5834C35.8492 37.4977 35.9149 37.3914 35.9521 37.274C36.005 37.4227 36.0152 37.5832 35.9814 37.7373C35.9475 37.8915 35.8711 38.033 35.7608 38.1459ZM33.7471 40.1624C33.565 40.3186 33.3298 40.3984 33.0903 40.3853C32.8508 40.3722 32.6257 40.2672 32.4618 40.0921L28.1671 35.7974C28.0614 35.6921 27.9183 35.6329 27.7691 35.6329C27.6199 35.6329 27.4768 35.6921 27.3711 35.7974C27.3364 35.8312 27.307 35.8701 27.2839 35.9128C27.2154 35.7948 27.1921 35.6559 27.2185 35.522C27.2449 35.3882 27.3192 35.2685 27.4274 35.1855C27.5357 35.1024 27.6704 35.0616 27.8066 35.0707C27.9427 35.0798 28.0709 35.1382 28.1671 35.2349L32.4618 39.5296C32.6257 39.7047 32.8508 39.8097 33.0903 39.8228C33.3298 39.8359 33.565 39.7561 33.7471 39.5999C33.832 39.5142 33.8964 39.4104 33.9355 39.2962C33.987 39.4439 33.9967 39.603 33.9635 39.7559C33.9302 39.9088 33.8553 40.0495 33.7471 40.1624ZM31.3986 41.8387C31.2173 41.9959 30.982 42.0767 30.7424 42.0641C30.5027 42.0515 30.2772 41.9465 30.1133 41.7712L25.8186 37.4765C25.7134 37.3708 25.5705 37.3111 25.4212 37.3106C25.272 37.31 25.1287 37.3687 25.0227 37.4737C24.9879 37.5085 24.9585 37.5483 24.9355 37.5918C24.8663 37.4739 24.8425 37.3347 24.8687 37.2005C24.8949 37.0662 24.9692 36.9462 25.0777 36.8629C25.1862 36.7796 25.3214 36.7389 25.4579 36.7483C25.5943 36.7577 25.7226 36.8166 25.8186 36.914L30.1133 41.2087C30.2772 41.384 30.5027 41.489 30.7424 41.5016C30.982 41.5142 31.2173 41.4334 31.3986 41.2762C31.4855 41.192 31.5502 41.0877 31.5871 40.9725C31.6393 41.1201 31.6493 41.2794 31.616 41.4324C31.5827 41.5854 31.5075 41.7261 31.3986 41.8387ZM28.8814 43.3518C28.7074 43.5104 28.4782 43.5948 28.2429 43.5869C28.0075 43.579 27.7845 43.4795 27.6214 43.3096L27.3121 43.0003C27.3889 42.8814 27.4494 42.7527 27.4921 42.6178L27.6214 42.7471C27.7845 42.917 28.0075 43.0165 28.2429 43.0244C28.4782 43.0323 28.7074 42.9479 28.8814 42.7893C28.9699 42.7009 29.0363 42.593 29.0755 42.4743C29.1284 42.6241 29.1382 42.7857 29.1039 42.9408C29.0696 43.0959 28.9925 43.2383 28.8814 43.3518ZM20.1233 36.3965L18.8408 37.6565C18.7505 37.7444 18.6294 37.7936 18.5033 37.7936C18.3773 37.7936 18.2562 37.7444 18.1658 37.6565C18.1658 37.6565 17.5752 37.0743 17.5724 37.0715C17.4932 36.9932 17.4459 36.8883 17.4397 36.7771C17.4334 36.6659 17.4687 36.5563 17.5386 36.4696C17.5483 36.484 17.5597 36.4972 17.5724 36.509C17.5752 36.5118 18.1658 37.094 18.1658 37.094C18.2562 37.1819 18.3773 37.2311 18.5033 37.2311C18.6294 37.2311 18.7505 37.1819 18.8408 37.094L20.1233 35.834C20.1352 35.8222 20.1455 35.8089 20.1543 35.7946C20.2253 35.8807 20.2615 35.9902 20.2558 36.1016C20.25 36.213 20.2028 36.3182 20.1233 36.3965ZM22.1821 38.4215L20.9024 39.6843C20.8115 39.7723 20.69 39.8214 20.5635 39.8214C20.437 39.8214 20.3155 39.7723 20.2246 39.6843L19.6311 39.0993C19.5522 39.0207 19.5053 38.9156 19.4996 38.8043C19.4939 38.6931 19.5297 38.5837 19.6002 38.4974C19.6089 38.5117 19.6193 38.525 19.6311 38.5368L20.2246 39.1218C20.3155 39.2098 20.437 39.2589 20.5635 39.2589C20.69 39.2589 20.8115 39.2098 20.9024 39.1218L22.1821 37.859C22.1939 37.8481 22.2042 37.8359 22.213 37.8224C22.2833 37.9082 22.3191 38.0172 22.3134 38.128C22.3077 38.2387 22.2608 38.3434 22.1821 38.4215ZM24.2408 40.4493L22.9611 41.7121C22.8708 41.8 22.7497 41.8492 22.6236 41.8492C22.4976 41.8492 22.3765 41.8 22.2861 41.7121C22.2861 41.7121 21.6927 41.1271 21.6899 41.1271C21.6117 41.0481 21.5653 40.9431 21.5596 40.8321C21.5539 40.7211 21.5892 40.6118 21.6589 40.5252C21.6677 40.5396 21.678 40.5528 21.6899 40.5646C21.6927 40.5646 22.2861 41.1496 22.2861 41.1496C22.3765 41.2375 22.4976 41.2867 22.6236 41.2867C22.7497 41.2867 22.8708 41.2375 22.9611 41.1496L24.2408 39.8868C24.2526 39.876 24.263 39.8637 24.2718 39.8503C24.3415 39.9363 24.3769 40.0451 24.3712 40.1557C24.3655 40.2663 24.3191 40.3709 24.2408 40.4493ZM26.3024 42.4771L25.0199 43.7399C24.9295 43.8279 24.8084 43.877 24.6824 43.877C24.5563 43.877 24.4352 43.8279 24.3449 43.7399L23.7514 43.1549C23.671 43.0773 23.6229 42.9722 23.6166 42.8606C23.6104 42.749 23.6465 42.6392 23.7177 42.5531C23.7274 42.5674 23.7387 42.5806 23.7514 42.5924L24.3449 43.1774C24.4352 43.2654 24.5563 43.3145 24.6824 43.3145C24.8084 43.3145 24.9295 43.2654 25.0199 43.1774L26.3024 41.9146C26.3142 41.9038 26.3246 41.8915 26.3333 41.8781C26.4024 41.9644 26.4374 42.0731 26.4317 42.1835C26.426 42.2939 26.38 42.3984 26.3024 42.4771Z" fill="#9FA5AA"/>
<line id="Line 24" x1="21.9375" y1="14.7812" x2="31.2188" y2="14.7812" stroke="#E7BDD5" stroke-width="2"/>
<line id="Line 25" x1="21.9375" y1="18.1562" x2="31.2188" y2="18.1562" stroke="#E7BDD5" stroke-width="2"/>
</g>
</g>
<g id="Group_2">
<path id="Vector_14" d="M53.5 7.99999C53.5 9.98911 52.7098 11.8968 51.3033 13.3033C49.8968 14.7098 47.9892 15.5 46 15.5C44.0109 15.5 42.1033 14.7098 40.6968 13.3033C39.2902 11.8968 38.5 9.9891 38.5 7.99999C38.5 6.01088 39.2902 4.10322 40.6968 2.6967C42.1033 1.29017 44.0109 0.5 46 0.5C47.9892 0.5 49.8968 1.29017 51.3033 2.6967C52.7098 4.10322 53.5 6.01087 53.5 7.99999Z" fill="#FF4768" stroke="white"/>
<path id="Icon" d="M48.1673 5.50098L43.501 10.1673M43.501 5.50098L48.1673 10.1673" stroke="white" stroke-width="1.5" stroke-linecap="round" stroke-linejoin="round"/>
</g>
</g>
<defs>
<clipPath id="clip0_795_86321">
<rect width="54" height="54" fill="white"/>
</clipPath>
<clipPath id="clip1_795_86321">
<rect width="36" height="36" fill="white" transform="translate(9 9)"/>
</clipPath>
</defs>
</svg>
