<svg width="670" height="447" viewBox="0 0 670 447" fill="none" xmlns="http://www.w3.org/2000/svg">
<g id="Group 1261154975">
<path id="Vector" d="M52.1758 279.948C42.3979 249.538 51.0311 213.979 73.6644 191.435C87.4581 177.696 105.586 168.812 118.85 154.561C138.259 133.705 144.776 104.346 157.054 78.6386C167.38 57.0194 182.384 37.3116 202.028 23.593C221.672 9.87434 246.154 2.48923 269.928 5.47761C310.244 10.5454 343.902 43.7657 384.531 44.4134C409.587 44.8126 433.871 32.5209 458.824 34.823C488.078 37.5214 513.666 62.7162 516.814 91.9209C519.177 113.844 510.218 135.99 513.62 157.776C517.123 180.202 532.941 198.343 546.452 216.584C559.962 234.824 572.212 257.083 567.036 279.182C562.972 296.536 548.73 309.895 533.059 318.391C512.118 329.744 487.503 334.185 463.914 330.865C438 327.218 413.654 314.572 387.501 313.626C346.07 312.126 308.69 339.978 267.345 343.043C249.103 344.396 230.88 340.847 212.6 340.189C195.828 339.586 178.969 341.435 162.726 345.662C152.338 348.364 140.944 352.386 130.441 347.988C123.527 345.093 117.391 340.685 110.642 337.472C102.299 333.5 93.9219 330.375 86.2518 325.083C78.8346 319.965 72.1743 313.747 66.5773 306.684C60.2566 298.707 55.2925 289.643 52.1758 279.948Z" fill="#4E2A58"/>
<g id="man-getting-a-loan-from-the-bank 1" clip-path="url(#clip0_2958_1193)">
<g id="8">
<g id="Group" opacity="0.5">
<path id="Vector_2" d="M463.474 89.7852C461.121 89.7852 458.821 90.4835 456.864 91.7919C454.908 93.1002 453.383 94.9599 452.483 97.1356C451.582 99.3113 451.347 101.705 451.806 104.015C452.265 106.325 453.398 108.447 455.062 110.112C456.725 111.777 458.845 112.911 461.153 113.371C463.46 113.83 465.852 113.594 468.026 112.693C470.2 111.792 472.058 110.266 473.365 108.307C474.672 106.349 475.37 104.047 475.37 101.692C475.366 98.5355 474.112 95.509 471.881 93.2769C469.651 91.0447 466.628 89.7889 463.474 89.7852ZM463.474 112.74C461.291 112.74 459.157 112.092 457.341 110.878C455.526 109.664 454.112 107.939 453.276 105.92C452.441 103.901 452.222 101.68 452.648 99.537C453.074 97.394 454.125 95.4255 455.669 93.8805C457.212 92.3355 459.179 91.2833 461.32 90.857C463.461 90.4308 465.681 90.6496 467.697 91.4857C469.714 92.3219 471.438 93.7379 472.651 95.5546C473.864 97.3714 474.511 99.5073 474.511 101.692C474.508 104.621 473.344 107.429 471.275 109.5C469.205 111.571 466.4 112.736 463.474 112.74Z" fill="white"/>
<path id="Vector_3" d="M463.473 107.92C466.91 107.92 469.696 105.132 469.696 101.692C469.696 98.2527 466.91 95.4644 463.473 95.4644C460.037 95.4644 457.251 98.2527 457.251 101.692C457.251 105.132 460.037 107.92 463.473 107.92Z" fill="white"/>
</g>
<g id="Group_2" opacity="0.5">
<path id="Vector_4" d="M211.183 84.417C209.891 84.417 208.628 84.8005 207.554 85.519C206.479 86.2375 205.642 87.2587 205.148 88.4535C204.653 89.6483 204.524 90.9631 204.776 92.2315C205.028 93.4999 205.65 94.665 206.564 95.5794C207.477 96.4939 208.642 97.1167 209.909 97.369C211.176 97.6213 212.49 97.4918 213.683 96.9969C214.877 96.502 215.897 95.6639 216.615 94.5886C217.333 93.5133 217.716 92.2491 217.716 90.9558C217.714 89.2222 217.025 87.5601 215.801 86.3343C214.576 85.1084 212.915 84.4189 211.183 84.417ZM211.183 96.635C210.061 96.635 208.964 96.3019 208.031 95.6779C207.098 95.0538 206.371 94.1669 205.941 93.1291C205.512 92.0914 205.399 90.9495 205.618 89.8479C205.837 88.7462 206.378 87.7343 207.171 86.94C207.965 86.1458 208.976 85.6049 210.076 85.3857C211.177 85.1666 212.318 85.2791 213.355 85.7089C214.392 86.1388 215.278 86.8667 215.901 87.8006C216.525 88.7346 216.857 89.8326 216.857 90.9558C216.856 92.4616 216.258 93.9052 215.194 94.9699C214.13 96.0346 212.688 96.6335 211.183 96.635Z" fill="white"/>
<path id="Vector_5" d="M211.184 87.6421C210.529 87.6418 209.888 87.836 209.343 88.2002C208.798 88.5644 208.373 89.0821 208.123 89.688C207.872 90.2938 207.806 90.9605 207.934 91.6038C208.061 92.247 208.377 92.8378 208.84 93.3016C209.304 93.7653 209.894 94.0811 210.537 94.209C211.179 94.3368 211.845 94.2711 212.451 94.02C213.056 93.7689 213.573 93.3437 213.937 92.7983C214.301 92.2529 214.495 91.6117 214.495 90.9559C214.495 90.5207 214.409 90.0898 214.243 89.6878C214.076 89.2857 213.832 88.9204 213.525 88.6127C213.217 88.305 212.853 88.0609 212.451 87.8943C212.049 87.7278 211.619 87.6421 211.184 87.6421Z" fill="white"/>
</g>
<path id="Vector_6" d="M279.666 408.239C312.18 408.239 338.538 406.04 338.538 403.329C338.538 400.617 312.18 398.419 279.666 398.419C247.152 398.419 220.794 400.617 220.794 403.329C220.794 406.04 247.152 408.239 279.666 408.239Z" fill="#1C0B3A"/>
<path id="Vector_7" d="M432.131 409.75C465.896 409.75 493.268 407.044 493.268 403.707C493.268 400.369 465.896 397.664 432.131 397.664C398.366 397.664 370.994 400.369 370.994 403.707C370.994 407.044 398.366 409.75 432.131 409.75Z" fill="#1C0B3A"/>
<path id="Vector_8" d="M296.135 121.911V121.746C298.328 120.919 299.677 118.35 299.677 115.938C299.677 110.799 295.344 109.264 289.764 109.264H280.564V136.169H290.531C296.377 136.169 301.002 133.716 301.002 128.243C301.002 124.644 298.878 122.624 296.135 121.911ZM286.641 113.958H289.526C292.358 113.958 293.736 114.763 293.736 116.835C293.736 118.793 292.432 120.039 289.484 120.039H286.641V113.958ZM290.036 131.475H286.641V124.528H290.036C293.377 124.528 295.059 125.489 295.059 127.849C295.059 130.296 293.348 131.475 290.036 131.475Z" fill="black"/>
<path id="Vector_9" d="M307.668 125.033V129.761H309.974L311.199 125.033H307.668Z" fill="black"/>
<path id="Vector_10" d="M310.543 109.264L302.098 136.169H308.31L309.97 129.76H307.664V125.032H311.196L311.841 122.542C312.588 119.853 313.307 116.706 313.957 113.865H314.121C314.837 116.671 315.553 119.853 316.304 122.542L316.947 125.032H320.597V129.76H318.164L319.817 136.169H326.25L317.804 109.264H310.543Z" fill="black"/>
<path id="Vector_11" d="M311.199 125.033L309.974 129.761H318.17L316.95 125.033H311.199Z" fill="black"/>
<path id="Vector_12" d="M320.6 125.033H316.95L318.17 129.761H320.6V125.033Z" fill="black"/>
<path id="Vector_13" d="M344.133 118.77C344.133 121.942 344.624 125.711 344.908 128.557H344.744L342.086 122.638L335.072 109.258H328.844V136.169H334.632V126.618C334.632 123.448 334.143 119.844 333.857 116.876H334.021L336.679 122.75L343.693 136.164H349.92V109.264H344.13L344.133 118.77Z" fill="black"/>
<path id="Vector_14" d="M377.201 109.264H370.523L362.51 120.256H362.359V109.264H356.282V136.167H362.359V128.958L365.498 124.802L372.031 136.167H378.694L369.069 120.001L377.201 109.264Z" fill="black"/>
<path id="Vector_15" d="M489.444 293.705H161.517V324.702H489.444V293.705Z" fill="#5E59A8"/>
<path id="Vector_16" d="M515.363 156.49H134.054V166.238H515.363V156.49Z" fill="#C3A1DE"/>
<path id="Vector_17" d="M515.363 324.701H134.054V373.183H515.363V324.701Z" fill="#D9B4F6"/>
<path id="Vector_18" d="M134.499 156.49H514.918L324.708 50.6914L134.499 156.49Z" fill="#D9B4F6"/>
<path id="Vector_19" d="M164.292 149.741H485.126L324.708 60.5142L164.292 149.741Z" fill="#F4E6FF"/>
<path id="Vector_20" d="M206.974 173.24H161.517V317.698H206.974V173.24Z" fill="#D9B4F6"/>
<path id="Vector_21" d="M191.987 173.235H186.493V317.698H191.987V173.235Z" fill="#C3A1DE"/>
<path id="Vector_22" d="M175.51 173.24H161.517V317.698H175.51V173.24Z" fill="#C3A1DE"/>
<path id="Vector_23" opacity="0.1" d="M206.974 173.24H161.517V197.729H206.974V173.24Z" fill="#591D0F"/>
<path id="Vector_24" opacity="0.1" d="M206.974 293.705H161.517V317.698H206.974V293.705Z" fill="#591D0F"/>
<path id="Vector_25" d="M212.712 166.237H155.778V184.233H212.712V166.237Z" fill="#C3A1DE"/>
<path id="Vector_26" d="M212.712 306.701H155.778V324.697H212.712V306.701Z" fill="#C3A1DE"/>
<path id="Vector_27" d="M301.13 173.24H255.673V317.698H301.13V173.24Z" fill="#D9B4F6"/>
<path id="Vector_28" d="M286.143 173.235H280.649V317.698H286.143V173.235Z" fill="#C3A1DE"/>
<path id="Vector_29" d="M269.666 173.24H255.673V317.698H269.666V173.24Z" fill="#C3A1DE"/>
<path id="Vector_30" opacity="0.1" d="M301.13 173.24H255.673V197.729H301.13V173.24Z" fill="#591D0F"/>
<path id="Vector_31" opacity="0.1" d="M301.13 293.705H255.673V317.698H301.13V293.705Z" fill="#591D0F"/>
<path id="Vector_32" d="M306.869 166.237H249.935V184.233H306.869V166.237Z" fill="#C3A1DE"/>
<path id="Vector_33" d="M306.869 306.701H249.935V324.697H306.869V306.701Z" fill="#C3A1DE"/>
<path id="Vector_34" d="M395.288 173.24H349.831V317.698H395.288V173.24Z" fill="#D9B4F6"/>
<path id="Vector_35" d="M380.3 173.235H374.807V317.698H380.3V173.235Z" fill="#C3A1DE"/>
<path id="Vector_36" d="M363.824 173.24H349.831V317.698H363.824V173.24Z" fill="#C3A1DE"/>
<path id="Vector_37" opacity="0.1" d="M395.288 173.24H349.831V197.729H395.288V173.24Z" fill="#591D0F"/>
<path id="Vector_38" opacity="0.1" d="M395.288 293.705H349.831V317.698H395.288V293.705Z" fill="#591D0F"/>
<path id="Vector_39" d="M401.027 166.237H344.093V184.233H401.027V166.237Z" fill="#C3A1DE"/>
<path id="Vector_40" d="M401.027 306.701H344.093V324.697H401.027V306.701Z" fill="#C3A1DE"/>
<path id="Vector_41" d="M489.444 173.24H443.987V317.698H489.444V173.24Z" fill="#D9B4F6"/>
<path id="Vector_42" d="M474.457 173.235H468.963V317.698H474.457V173.235Z" fill="#C3A1DE"/>
<path id="Vector_43" d="M457.981 173.24H443.987V317.698H457.981V173.24Z" fill="#C3A1DE"/>
<path id="Vector_44" opacity="0.1" d="M489.444 173.24H443.987V197.729H489.444V173.24Z" fill="#591D0F"/>
<path id="Vector_45" opacity="0.1" d="M489.444 293.705H443.987V317.698H489.444V293.705Z" fill="#591D0F"/>
<path id="Vector_46" d="M495.183 166.237H438.249V184.233H495.183V166.237Z" fill="#C3A1DE"/>
<path id="Vector_47" d="M495.183 306.701H438.249V324.697H495.183V306.701Z" fill="#F6921E"/>
<path id="Vector_48" opacity="0.4" d="M155.778 348.935H152.782V373.183H155.778V348.935Z" fill="white"/>
<path id="Vector_49" opacity="0.4" d="M184.245 337.193H175.511V373.184H184.245V337.193Z" fill="white"/>
<path id="Vector_50" opacity="0.4" d="M216.459 333.445H212.713V353.69H216.459V333.445Z" fill="white"/>
<path id="Vector_51" opacity="0.4" d="M238.933 324.701H234.438V343.567H238.933V324.701Z" fill="white"/>
<path id="Vector_52" opacity="0.4" d="M331.825 324.701H318.791V373.183H331.825V324.701Z" fill="white"/>
<path id="Vector_53" opacity="0.4" d="M515.363 324.701H504.875V373.183H515.363V324.701Z" fill="white"/>
<g id="&#60;Group&#62;">
<g id="&#60;Group&#62;_2">
<path id="&#60;Path&#62;" d="M443.263 341.239H412.502L417.154 329.849H440.529L443.263 341.239Z" fill="#F9C02F"/>
<path id="&#60;Path&#62;_2" d="M415.766 333.259C415.766 333.259 429.65 339.176 442.948 339.935L443.263 341.239H412.502L415.766 333.259Z" fill="#F9AE19"/>
<path id="&#60;Path&#62;_3" d="M417.154 329.849L451.894 318.459H475.269L440.529 329.849H417.154Z" fill="#F9DB3D"/>
<g id="&#60;Group&#62;_3">
<path id="&#60;Path&#62;_4" d="M472.85 319.247C463.718 320.322 447.128 322.413 431.769 325.049L417.154 329.849H424.268C433.873 328.015 445.095 326.439 454.571 325.236L472.85 319.247Z" fill="#FFE975"/>
<path id="&#60;Path&#62;_5" d="M445.195 320.651L437.337 323.23C449.389 321.339 462.2 319.562 472.421 318.459H462.286C456.99 319.104 451.064 319.863 445.195 320.651Z" fill="#FFE975"/>
</g>
<path id="&#60;Path&#62;_6" d="M443.263 341.239L479.879 329.849L475.27 318.459L440.529 329.849L443.263 341.239Z" fill="#E69705"/>
<g id="&#60;Group&#62;_4">
<path id="&#60;Path&#62;_7" d="M460.125 323.416C457.29 328.402 453.082 335.422 449.947 339.161L461.542 335.551C464.39 330.823 467.539 324.677 469.715 320.278L460.125 323.416Z" fill="#F9C02F"/>
<path id="&#60;Path&#62;_8" d="M475.641 319.39L475.268 318.459L471.618 319.648C469.414 324.147 466.251 330.293 463.517 334.935L470.058 332.901C472.463 328.001 474.367 323.044 475.641 319.39Z" fill="#F9C02F"/>
</g>
<path id="&#60;Path&#62;_9" d="M417.154 329.849C417.154 329.849 438.983 330.522 439.556 330.694C440.114 330.866 443.263 341.239 443.263 341.239L440.529 329.849H417.154Z" fill="#FFEDB8"/>
<path id="&#60;Path&#62;_10" d="M444.465 320.895C444.465 320.895 419.702 329.261 419.216 329.433C418.743 329.605 436.693 328.875 439.871 328.473C443.034 328.072 475.269 318.459 475.269 318.459L440.529 329.849H417.154L444.465 320.895Z" fill="#FFEDB8"/>
</g>
<g id="&#60;Group&#62;_5">
<path id="&#60;Path&#62;_11" d="M475.756 341.239H444.995L449.647 329.849H473.022L475.756 341.239Z" fill="#F9C02F"/>
<path id="&#60;Path&#62;_12" d="M448.259 333.259C448.259 333.259 462.143 339.176 475.441 339.935L475.756 341.239H444.995L448.259 333.259Z" fill="#F9AE19"/>
<path id="&#60;Path&#62;_13" d="M449.647 329.849L484.388 318.459H507.763L473.022 329.849H449.647Z" fill="#F9DB3D"/>
<g id="&#60;Group&#62;_6">
<path id="&#60;Path&#62;_14" d="M505.343 319.247C496.211 320.322 479.621 322.413 464.276 325.049L449.647 329.849H456.762C466.366 328.015 477.603 326.439 487.079 325.236L505.343 319.247Z" fill="#FFE975"/>
<path id="&#60;Path&#62;_15" d="M477.689 320.651L469.845 323.23C481.897 321.339 494.694 319.562 504.914 318.459H494.78C489.498 319.104 483.558 319.863 477.689 320.651Z" fill="#FFE975"/>
</g>
<path id="&#60;Path&#62;_16" d="M475.756 341.239L512.386 329.849L507.763 318.459L473.022 329.849L475.756 341.239Z" fill="#F9AE19"/>
<g id="&#60;Group&#62;_7">
<path id="&#60;Path&#62;_17" d="M492.632 323.416C489.798 328.402 485.59 335.422 482.44 339.161L494.049 335.551C496.883 330.823 500.032 324.677 502.208 320.278L492.632 323.416Z" fill="#F9C02F"/>
<path id="&#60;Path&#62;_18" d="M508.148 319.39L507.762 318.459L504.126 319.648C501.907 324.147 498.758 330.293 496.01 334.935L502.566 332.901C504.956 328.001 506.86 323.044 508.148 319.39Z" fill="#F9C02F"/>
</g>
<path id="&#60;Path&#62;_19" d="M449.647 329.849C449.647 329.849 471.491 330.522 472.049 330.694C472.607 330.866 475.756 341.239 475.756 341.239L473.022 329.849H449.647Z" fill="#FFEDB8"/>
<path id="&#60;Path&#62;_20" d="M476.959 320.895C476.959 320.895 452.195 329.261 451.723 329.433C451.236 329.605 469.186 328.875 472.364 328.473C475.542 328.072 507.763 318.459 507.763 318.459L473.022 329.849H449.647L476.959 320.895Z" fill="#FFEDB8"/>
</g>
<path id="&#60;Path&#62;_21" d="M473.724 329.62L507.762 318.459L509.337 322.342L483.171 329.405L473.724 329.62Z" fill="#E69705"/>
<g id="&#60;Group&#62;_8">
<path id="&#60;Path&#62;_22" d="M494.278 323.172L513.273 316.94L507.032 307.599L492.604 312.341L494.278 323.172Z" fill="#F9AE19"/>
<path id="&#60;Path&#62;_23" d="M431.854 323.172L450.864 316.94L451.322 307.599L436.893 312.341L431.854 323.172Z" fill="#B3B3B3"/>
<path id="&#60;Path&#62;_24" d="M431.854 323.172H494.278L492.603 312.341H436.893L431.854 323.172Z" fill="#E69705"/>
<g id="&#60;Group&#62;_9">
<path id="&#60;Path&#62;_25" d="M457.191 312.341H437.18C439.341 316.224 442.132 319.892 445.067 323.172H466.209C463.145 319.978 460.025 316.353 457.191 312.341Z" fill="#F9AE19"/>
<path id="&#60;Path&#62;_26" d="M470.031 312.341H462.101C464.52 316.181 467.597 319.863 470.804 323.172H479.048C475.985 319.978 472.865 316.353 470.031 312.341Z" fill="#F9AE19"/>
</g>
<path id="&#60;Path&#62;_27" d="M507.031 307.599L492.603 312.341H436.893L451.321 307.599H507.031Z" fill="#F9DB3D"/>
<g id="&#60;Group&#62;_10">
<path id="&#60;Path&#62;_28" d="M457.992 312.341C468.799 310.823 478.748 309.146 487.136 307.599H471.49C461.771 309.175 450.549 310.808 438.096 312.341H457.992Z" fill="#FFE975"/>
<path id="&#60;Path&#62;_29" d="M507.032 307.599H495.28C488.123 308.989 478.962 310.636 468.112 312.341H492.604L507.032 307.599Z" fill="#FFE975"/>
</g>
<path id="&#60;Path&#62;_30" d="M494.278 323.172L493.949 321.052C493.949 321.052 502.924 316.224 507.032 307.599L513.273 316.94L494.278 323.172Z" fill="#F9C02F"/>
<path id="&#60;Path&#62;_31" d="M432.613 321.554L436.893 312.341L440.414 311.181L438.611 312.112L492.088 311.167L507.032 307.599L493.734 313.015L494.278 323.172L492.002 313.402L438.325 312.843L432.613 321.554Z" fill="#FFEDB8"/>
</g>
<g id="&#60;Group&#62;_11">
<path id="&#60;Path&#62;_32" d="M475.269 329.405L494.279 323.173L488.038 313.832L473.595 318.574L475.269 329.405Z" fill="#F9AE19"/>
<path id="&#60;Path&#62;_33" d="M412.86 329.405L431.855 323.173L432.327 313.832L417.885 318.574L412.86 329.405Z" fill="#B3B3B3"/>
<path id="&#60;Path&#62;_34" d="M412.86 329.405H475.27L473.595 318.574H417.885L412.86 329.405Z" fill="#F9C02F"/>
<g id="&#60;Group&#62;_12">
<path id="&#60;Path&#62;_35" d="M438.182 318.574H418.171C420.332 322.456 423.138 326.124 426.072 329.405H447.2C444.137 326.21 441.03 322.585 438.182 318.574Z" fill="#FFCD4D"/>
<path id="&#60;Path&#62;_36" d="M451.022 318.574H443.106C445.526 322.413 448.603 326.095 451.795 329.405H460.04C456.977 326.21 453.871 322.585 451.022 318.574Z" fill="#FFCD4D"/>
</g>
<path id="&#60;Path&#62;_37" d="M488.038 313.832L473.595 318.574H417.885L432.328 313.832H488.038Z" fill="#F9DB3D"/>
<g id="&#60;Group&#62;_13">
<path id="&#60;Path&#62;_38" d="M438.998 318.574C449.791 317.055 459.753 315.379 468.141 313.832H452.482C442.763 315.408 431.555 317.041 419.102 318.574H438.998Z" fill="#FFE975"/>
<path id="&#60;Path&#62;_39" d="M488.038 313.832H476.286C469.129 315.221 459.968 316.869 449.104 318.574H473.595L488.038 313.832Z" fill="#FFE975"/>
</g>
<path id="&#60;Path&#62;_40" d="M475.27 329.405L474.94 327.285C474.94 327.285 483.93 322.456 488.038 313.832L494.279 323.173L475.27 329.405Z" fill="#F9C02F"/>
<path id="&#60;Path&#62;_41" d="M413.604 327.786L417.884 318.574L421.406 317.413L419.616 318.345L473.094 317.399L488.038 313.832L474.74 319.247L475.269 329.405L473.008 319.634L419.33 319.075L413.604 327.786Z" fill="#FFEDB8"/>
</g>
<g id="&#60;Group&#62;_14">
<path id="&#60;Path&#62;_42" d="M443.263 318.216H412.502L417.154 306.826H440.529L443.263 318.216Z" fill="#F9C02F"/>
<path id="&#60;Path&#62;_43" d="M415.766 310.235C415.766 310.235 429.65 316.152 442.948 316.912L443.263 318.215H412.502L415.766 310.235Z" fill="#F9AE19"/>
<path id="&#60;Path&#62;_44" d="M417.154 306.825L451.894 295.436H475.269L440.529 306.825H417.154Z" fill="#F9DB3D"/>
<g id="&#60;Group&#62;_15">
<path id="&#60;Path&#62;_45" d="M472.85 296.224C463.718 297.298 447.128 299.376 431.769 302.026L417.154 306.826H424.268C433.873 304.992 445.095 303.416 454.571 302.212L472.85 296.224Z" fill="#FFE975"/>
<path id="&#60;Path&#62;_46" d="M445.195 297.628L437.337 300.206C449.389 298.315 462.2 296.524 472.421 295.436H462.286C456.99 296.08 451.064 296.84 445.195 297.628Z" fill="#FFE975"/>
</g>
<path id="&#60;Path&#62;_47" d="M443.263 318.215L479.879 306.825L475.27 295.436L440.529 306.825L443.263 318.215Z" fill="#F9AE19"/>
<g id="&#60;Group&#62;_16">
<path id="&#60;Path&#62;_48" d="M460.125 300.392C457.29 305.378 453.082 312.398 449.947 316.138L461.542 312.527C464.39 307.799 467.539 301.653 469.715 297.255L460.125 300.392Z" fill="#F9C02F"/>
<path id="&#60;Path&#62;_49" d="M475.641 296.367L475.268 295.436L471.618 296.625C469.414 301.123 466.251 307.27 463.517 311.912L470.058 309.877C472.463 304.977 474.367 300.02 475.641 296.367Z" fill="#F9C02F"/>
</g>
<path id="&#60;Path&#62;_50" d="M417.154 306.826C417.154 306.826 438.983 307.499 439.556 307.671C440.114 307.843 443.263 318.216 443.263 318.216L440.529 306.826H417.154Z" fill="#FFEDB8"/>
<path id="&#60;Path&#62;_51" d="M444.465 297.871C444.465 297.871 419.702 306.238 419.216 306.41C418.743 306.582 436.693 305.851 439.871 305.45C443.034 305.049 475.269 295.436 475.269 295.436L440.529 306.825H417.154L444.465 297.871Z" fill="#FFEDB8"/>
</g>
<path id="&#60;Path&#62;_52" d="M436.092 318.574L434.703 329.405H431.654L434.989 318.574H436.092Z" fill="#E69705"/>
<path id="&#60;Path&#62;_53" d="M433.1 330.379L431.855 341.239H428.119L431.497 330.322L433.1 330.379Z" fill="#E69705"/>
<g id="&#60;Group&#62;_17">
<path id="&#60;Path&#62;_54" d="M454.925 250.073L436.744 326.673L446.962 341.692L468.948 249L454.925 250.073Z" fill="#F9C02F"/>
<g id="&#60;Group&#62;_18">
<path id="&#60;Path&#62;_55" d="M445.701 288.896L449.631 272.345C452.506 281.77 454.885 291.17 456.829 300.058L452.423 318.678C450.707 309.713 448.493 299.701 445.701 288.896Z" fill="#F9AE19"/>
<path id="&#60;Path&#62;_56" d="M454.926 250.073L468.949 249L459.207 290.02C457.201 281.464 454.802 272.269 451.947 262.639L454.926 250.073Z" fill="#F9AE19"/>
</g>
<path id="&#60;Path&#62;_57" d="M428.595 250.073L410.394 326.673L406.608 341.692L428.616 249L428.595 250.073Z" fill="#F9C02F"/>
<path id="&#60;Path&#62;_58" d="M410.394 326.673H436.744L454.925 250.072H428.595L410.394 326.673Z" fill="#F9DB3D"/>
<g id="&#60;Group&#62;_19">
<path id="&#60;Path&#62;_59" d="M454.926 250.072L436.745 326.673H434.263C435.938 307.108 437.22 280.799 436.29 250.072H454.926Z" fill="#FFE975"/>
<path id="&#60;Path&#62;_60" d="M428.596 250.072H430.209C431.822 278.424 430.56 305.677 428.74 326.673H419.081C420.032 314.106 420.777 299.19 420.922 282.408L428.596 250.072Z" fill="#FFE975"/>
</g>
<path id="&#60;Path&#62;_61" d="M468.949 249H428.616L428.596 250.073H454.926L468.949 249Z" fill="#F9C02F"/>
<path id="&#60;Path&#62;_62" d="M446.962 341.692L436.744 326.673H410.394L406.608 341.692H446.962Z" fill="#E69705"/>
<path id="&#60;Path&#62;_63" d="M444.335 341.691C444.335 341.691 419.163 340.568 408.449 334.438L406.608 341.691H444.335Z" fill="#F9AE19"/>
<path id="&#60;Path&#62;_64" d="M428.595 250.072H454.925L437.779 325.728L446.962 341.691L436.744 326.673H410.394L436.289 324.859L448.906 253.648L428.595 250.072Z" fill="#FFEDB8"/>
</g>
</g>
<path id="Vector_54" d="M391.429 407.216C397.895 407.216 403.137 401.969 403.137 395.498C403.137 389.026 397.895 383.78 391.429 383.78C384.963 383.78 379.722 389.026 379.722 395.498C379.722 401.969 384.963 407.216 391.429 407.216Z" fill="#676096"/>
<path id="Vector_55" d="M391.429 390.106C390.364 390.106 389.323 390.423 388.437 391.015C387.551 391.607 386.861 392.449 386.453 393.435C386.045 394.42 385.939 395.504 386.146 396.549C386.354 397.595 386.867 398.556 387.621 399.31C388.374 400.064 389.334 400.577 390.379 400.785C391.423 400.993 392.506 400.887 393.491 400.479C394.475 400.07 395.316 399.379 395.908 398.493C396.5 397.606 396.816 396.564 396.816 395.498C396.816 394.068 396.248 392.697 395.238 391.686C394.228 390.674 392.858 390.106 391.429 390.106Z" fill="#3B3654"/>
<path id="Vector_56" d="M486.689 407.04C493.071 406.003 497.405 399.984 496.369 393.596C495.333 387.208 489.319 382.87 482.937 383.907C476.555 384.944 472.221 390.963 473.257 397.351C474.293 403.739 480.306 408.077 486.689 407.04Z" fill="#676096"/>
<path id="Vector_57" d="M484.799 400.889C487.773 400.889 490.185 398.475 490.185 395.498C490.185 392.52 487.773 390.106 484.799 390.106C481.824 390.106 479.412 392.52 479.412 395.498C479.412 398.475 481.824 400.889 484.799 400.889Z" fill="#3B3654"/>
<path id="Vector_58" d="M513.723 285.581L387.963 279.613L386.059 273.627C385.967 273.338 385.802 273.078 385.579 272.872L370.591 258.952C370.249 258.635 369.796 258.467 369.33 258.484C368.865 258.502 368.425 258.704 368.108 259.046C367.791 259.388 367.623 259.842 367.641 260.308C367.658 260.774 367.86 261.214 368.202 261.531L382.85 275.141L384.969 281.812L384.995 281.894L406.124 348.346C406.237 348.702 406.46 349.012 406.761 349.232C407.062 349.452 407.425 349.571 407.798 349.571C407.839 349.571 407.882 349.571 407.925 349.571L511.188 342.072C511.616 342.041 512.017 341.854 512.317 341.547C512.617 341.24 512.794 340.834 512.815 340.405L515.392 287.438C515.403 287.207 515.369 286.977 515.291 286.759C515.213 286.541 515.094 286.341 514.938 286.17C514.783 285.999 514.596 285.86 514.387 285.762C514.178 285.663 513.952 285.607 513.721 285.596L513.723 285.581ZM476.332 287.326L477.686 305.287L464.1 305.171L461.296 286.613L476.332 287.326ZM429.649 307.926L443.52 308.043L446.861 326.039L434.009 326.532L429.649 307.926ZM430.91 326.654L417.91 327.152L413.115 307.79L426.516 307.904L430.91 326.654ZM446.622 308.075L461.479 308.201L464.076 325.383L449.935 325.925L446.622 308.075ZM458.193 286.467L461.016 305.145L446.055 305.02L442.476 285.722L458.193 286.467ZM439.346 285.571L442.95 304.991L428.931 304.873L424.24 284.855L439.346 285.571ZM421.078 284.712L425.802 304.854L412.361 304.739L407.235 284.048L421.078 284.712ZM389.096 283.195L404.06 283.911L409.213 304.721L395.901 304.608L389.096 283.195ZM396.873 307.655L409.97 307.767L414.801 327.276L403.251 327.718L396.873 307.655ZM409.051 345.958L404.209 330.73L415.55 330.3L419.246 345.221L409.051 345.958ZM422.326 344.994L418.656 330.177L431.615 329.68L434.987 344.074L422.326 344.994ZM438.062 343.848L434.718 329.554L447.425 329.066L450.001 342.976L438.062 343.848ZM453.059 342.759L450.498 328.946L464.534 328.409L466.554 341.773L453.059 342.759ZM464.558 308.231L477.912 308.344L479.153 324.809L467.129 325.27L464.558 308.231ZM469.598 341.554L467.594 328.293L479.385 327.84L480.358 340.772L469.598 341.554ZM479.396 287.473L493.769 288.154L494.89 305.433L480.74 305.312L479.396 287.473ZM480.971 308.361L495.09 308.48L496.107 324.149L482.201 324.684L480.971 308.361ZM483.394 340.551L482.428 327.723L496.303 327.19L497.104 339.555L483.394 340.551ZM509.386 338.663L500.142 339.335L499.346 327.074L509.968 326.667L509.386 338.663ZM510.117 323.611L499.148 324.032L498.146 308.504L510.852 308.613L510.117 323.611ZM510.995 305.567L497.943 305.457L496.829 288.298L511.799 289.014L510.995 305.567Z" fill="#61113F"/>
<path id="Vector_59" d="M375.887 263.384L368.223 256.616C367.804 256.246 367.255 256.058 366.697 256.093C366.14 256.128 365.619 256.383 365.249 256.803C364.879 257.222 364.691 257.772 364.726 258.33C364.761 258.888 365.016 259.41 365.435 259.78L373.099 266.548C373.518 266.918 374.067 267.106 374.624 267.071C375.182 267.036 375.703 266.781 376.073 266.362C376.443 265.942 376.631 265.393 376.596 264.834C376.561 264.276 376.306 263.755 375.887 263.384ZM513.741 285.23C513.465 285.216 513.188 285.256 512.927 285.349C512.666 285.443 512.426 285.587 512.22 285.773C512.015 285.959 511.849 286.185 511.731 286.436C511.613 286.687 511.546 286.959 511.534 287.236L508.958 340.204C508.944 340.481 508.985 340.758 509.079 341.018C509.172 341.279 509.316 341.519 509.502 341.724C509.688 341.929 509.913 342.096 510.163 342.214C510.414 342.332 510.685 342.4 510.962 342.413H511.066C511.607 342.413 512.127 342.205 512.519 341.831C512.91 341.458 513.144 340.948 513.17 340.407L515.747 287.439C515.76 287.163 515.719 286.886 515.625 286.625C515.531 286.364 515.387 286.124 515.201 285.919C515.015 285.714 514.79 285.547 514.54 285.429C514.289 285.311 514.018 285.243 513.741 285.23ZM512.872 384.837L499.473 379.597L502.45 371.206C502.595 370.77 502.563 370.294 502.361 369.881C502.159 369.468 501.804 369.15 501.371 368.997C500.938 368.843 500.462 368.865 500.045 369.058C499.629 369.251 499.304 369.6 499.141 370.03L496.016 378.835L395.272 377.014V360.355L408.914 349.164C409.092 349.018 409.24 348.838 409.349 348.634C409.458 348.43 409.526 348.207 409.549 347.977C409.572 347.747 409.549 347.515 409.483 347.294C409.416 347.073 409.306 346.867 409.16 346.688C409.014 346.51 408.834 346.361 408.63 346.252C408.427 346.143 408.204 346.075 407.974 346.052C407.745 346.03 407.513 346.052 407.292 346.119C407.071 346.186 406.865 346.296 406.687 346.442L392.404 358.16C392.203 358.325 392.041 358.532 391.93 358.767C391.818 359.002 391.761 359.259 391.761 359.52V378.738C391.761 379.189 391.935 379.623 392.246 379.949C392.557 380.276 392.981 380.47 393.432 380.491L391.077 394.675C390.964 395.357 391.715 395.778 392.133 395.268L404.044 380.679L484.562 382.135L483.99 395.552C483.949 396.486 484.86 396.96 485.348 396.26L495.046 382.324L496.907 382.357L511.6 388.102C511.815 388.188 512.046 388.232 512.278 388.229C512.51 388.226 512.739 388.177 512.953 388.084C513.166 387.992 513.358 387.859 513.52 387.691C513.681 387.524 513.807 387.326 513.892 387.11C513.976 386.893 514.017 386.662 514.011 386.43C514.006 386.198 513.954 385.969 513.86 385.756C513.766 385.544 513.63 385.353 513.461 385.193C513.293 385.033 513.094 384.909 512.877 384.827L512.872 384.837Z" fill="#61113F"/>
<path id="Vector_60" d="M376.746 255.829C376.877 255.432 377.01 255.071 377.138 254.744C377.449 253.942 377.49 253.061 377.255 252.233C377.019 251.406 376.521 250.678 375.835 250.159L369.108 245.061L363.733 248.177C363.733 248.177 359.771 259.505 362.884 261.773C364.745 263.127 367.305 263.876 369.07 264.253C370.266 264.514 371.093 264.604 371.093 264.604L366.846 257.522L369.674 256.389L377.118 263.578L377.886 264.323C377.886 264.323 375.901 258.379 376.746 255.829Z" fill="#F7BAC3"/>
<path id="Vector_61" d="M377.112 263.581C376.434 261.843 374.524 260.323 374.33 259.023C374.078 257.318 370.465 254.725 369.082 255.298C367.699 255.871 366.362 257.005 366.362 260.357C366.362 262.161 367.768 263.453 369.066 264.26C370.261 264.521 371.089 264.611 371.089 264.611L366.842 257.529L369.67 256.396L377.112 263.581Z" fill="#EF8998"/>
<path id="Vector_62" d="M343.069 176.508C342.219 174.525 338.489 173.435 338.489 173.435L333.45 205.97L346.752 230.334L362.32 252.43L370.244 245.065L353.451 213.713C353.451 213.713 343.918 178.488 343.069 176.508Z" fill="#3661AD"/>
<path id="Vector_63" d="M309.019 172.549L303.931 184.961L308.822 199.812C308.822 199.812 318.892 206.236 313.949 201.838C309.006 197.439 318.386 185.075 318.386 185.075L319.586 182.226L320.544 171.022L314.032 168.412L309.019 172.549Z" fill="#EF8998"/>
<path id="Vector_64" d="M340.531 399.041C328.82 398.508 328.82 387.851 328.82 387.851L319.769 387.318L319.236 406.501L354.373 405.968C354.373 405.968 352.237 399.578 340.531 399.041Z" fill="#001833"/>
<g id="Clip path group">
<mask id="mask0_2958_1193" style="mask-type:luminance" maskUnits="userSpaceOnUse" x="319" y="387" width="36" height="20">
<g id="a">
<path id="Vector_65" d="M328.813 387.851C328.813 387.851 328.813 398.508 340.525 399.041C352.236 399.574 354.366 405.968 354.366 405.968L319.229 406.501L319.762 387.318L328.813 387.851Z" fill="white"/>
</g>
</mask>
<g mask="url(#mask0_2958_1193)">
<g id="Group_3">
<path id="Vector_66" d="M358.321 404.048H332.048V404.191H358.321V404.048Z" fill="#F9B21F"/>
<path id="Vector_67" d="M315.965 383.659L314.675 396.194L334.749 391.033L332.171 382.553L315.965 383.659Z" fill="black"/>
</g>
</g>
</g>
<path id="Vector_68" d="M293.152 388.384L284.101 391.05L282.017 393.519L271.3 406.233C271.155 406.406 271.061 406.616 271.029 406.84C270.996 407.063 271.026 407.292 271.114 407.5C271.203 407.707 271.348 407.886 271.532 408.017C271.717 408.147 271.934 408.224 272.159 408.239L287.807 409.157C287.812 409.159 287.817 409.16 287.822 409.16C287.826 409.16 287.831 409.159 287.836 409.157L296.34 405.432L294.44 395.28L293.152 388.384Z" fill="#001833"/>
<path id="Vector_69" d="M284.094 391.05L282.01 393.519L294.434 395.28L293.145 388.384L284.094 391.05Z" fill="#090E14"/>
<g id="Clip path group_2">
<mask id="mask1_2958_1193" style="mask-type:luminance" maskUnits="userSpaceOnUse" x="271" y="388" width="26" height="22">
<g id="b">
<path id="Vector_70" d="M293.141 388.384L296.336 405.433L287.832 409.158C287.823 409.161 287.813 409.161 287.804 409.158L272.153 408.237C271.927 408.223 271.71 408.147 271.525 408.016C271.341 407.886 271.196 407.707 271.107 407.499C271.018 407.291 270.988 407.062 271.021 406.838C271.054 406.615 271.149 406.405 271.294 406.231L284.096 391.045L293.141 388.384Z" fill="white"/>
</g>
</mask>
<g mask="url(#mask1_2958_1193)">
<g id="Group_4">
<path id="Vector_71" d="M287.112 405.523H266.977V405.667H287.112V405.523Z" fill="#E07C7C"/>
</g>
</g>
</g>
<path id="Vector_72" d="M314.425 163.84L301.096 165.071L296.677 207.574L277.33 271.795C288.043 264.23 349.121 271.345 349.121 271.345L324.896 168.198L314.425 163.84Z" fill="#0D0942"/>
<path id="Vector_73" d="M315.223 187.594C315.223 187.594 313.688 215.43 313.735 239.844C313.754 250.363 315.31 269.729 315.698 284.232C315.871 290.869 315.797 296.49 315.223 299.778C313.758 308.096 313.524 319.863 313.89 332.181C314.733 360.021 318.691 390.674 318.691 390.674H330.311C330.311 390.674 332.693 313.787 334.184 306.632C335.676 299.477 333.426 193.807 333.426 193.807L315.223 187.594Z" fill="#426AC4"/>
<path id="Vector_74" d="M315.698 284.232C315.871 290.87 315.797 296.49 315.223 299.778C313.759 308.096 313.524 319.863 313.89 332.181C314.456 318.201 315.349 307.287 315.349 307.287L317.562 300.894L324.682 301.633L317.317 297.701L315.698 284.232Z" fill="#214B87"/>
<path id="Vector_75" d="M291.605 218.239C291.605 218.239 288.693 294.947 285.494 305.995C281.709 319.061 281.966 393.065 281.966 393.065L293.77 392.465C293.77 392.465 304.353 322.422 306.735 311.992C309.116 301.562 317.069 270.666 317.069 270.666L330.791 266.154L334.258 265.008L334.223 219.38L291.605 218.239Z" fill="#426AC4"/>
<g id="Clip path group_3">
<mask id="mask2_2958_1193" style="mask-type:luminance" maskUnits="userSpaceOnUse" x="281" y="218" width="54" height="176">
<g id="c">
<path id="Vector_76" d="M291.605 218.239C291.605 218.239 288.693 294.947 285.494 305.995C281.709 319.061 281.966 393.065 281.966 393.065L293.77 392.465C293.77 392.465 304.353 322.422 306.735 311.992C309.116 301.562 317.069 270.666 317.069 270.666L330.791 266.154L334.258 265.008L334.223 219.38L291.605 218.239Z" fill="white"/>
</g>
</mask>
<g mask="url(#mask2_2958_1193)">
<g id="Group_5">
<path id="Vector_77" d="M306.019 312.939L304.546 342.186L330.082 265.75C329.1 265.75 313.63 269.188 313.63 269.188L306.019 312.939Z" fill="#214B87"/>
</g>
</g>
</g>
<path id="Vector_78" d="M292.874 248.416L334.149 249.528L334.519 243.34C320.725 243.284 306.321 242.503 292.293 239.493C292.722 244.704 292.874 248.416 292.874 248.416Z" fill="#A31414"/>
<path id="Vector_79" d="M318.213 243.284L317.977 248.584L327.872 249.027L328.109 243.727L318.213 243.284Z" fill="#EFEFEF"/>
<path id="Vector_80" d="M301.432 166.466L279.41 172.705C279.41 172.705 285.093 208.878 288.554 221.288C290.574 228.531 293.071 232.424 293.666 239.738C307.693 242.747 320.729 243.284 334.524 243.34L339.097 173.711L318.831 167.025L301.432 166.466Z" fill="white"/>
<g id="Clip path group_4">
<mask id="mask3_2958_1193" style="mask-type:luminance" maskUnits="userSpaceOnUse" x="279" y="166" width="61" height="78">
<g id="d">
<path id="Vector_81" d="M279.41 172.705L301.437 166.466L318.831 167.029L339.1 173.715L334.526 243.344C320.732 243.288 307.689 242.752 293.668 239.742C293.074 232.436 290.577 228.536 288.557 221.292C285.089 208.878 279.41 172.705 279.41 172.705Z" fill="white"/>
</g>
</mask>
<g mask="url(#mask3_2958_1193)">
<g id="Group_6">
<path id="Vector_82" d="M349.325 175.336C347.681 170.854 345.505 165.908 341.038 164.238C339.193 163.547 337.173 163.522 335.203 163.582C331.196 163.699 327.204 164.12 323.261 164.841C325.138 170.934 325.621 177.356 326.094 183.714C326.867 194.138 327.628 204.753 325.274 214.937C322.919 225.12 316.928 234.994 307.474 239.436L292.149 264.332C296.57 266.094 301.514 265.799 306.242 265.269C316.162 264.155 325.958 262.129 335.507 259.217C343.063 256.91 350.565 253.989 356.85 249.199C359.516 247.168 361.973 244.768 363.557 241.814C367.443 234.559 365.373 225.677 363.093 217.768C358.972 203.478 354.448 189.299 349.325 175.336Z" fill="#E0DCDA"/>
</g>
</g>
</g>
<path id="Vector_83" d="M324.145 168.28C324.145 168.28 338.434 242.382 338.434 256.281C338.434 270.181 334.509 277.097 339.093 278.689C343.676 280.281 350.401 276.727 350.401 276.727L339.093 173.717L324.145 168.28Z" fill="#3661AD"/>
<path id="Vector_84" d="M333.121 170.781L324.018 167.798L333.372 219.104L334.149 191.072L330.506 186.592L333.121 170.781Z" fill="#214B87"/>
<path id="Vector_85" d="M305.575 162.705L302.599 166.603L319.015 172.705L321.034 164.864C321.034 164.864 305.575 163 305.575 162.705Z" fill="#BCBCBC"/>
<path id="Vector_86" d="M279.41 172.706L261.881 235.036L269.068 241.122C274.44 238.151 280.333 231.157 285.269 218.477C284.028 231.612 273.531 274.865 275.866 277.195C278.345 279.676 295.851 278.318 299.81 278.318C303.769 278.318 307.902 259.524 309.258 234.278C310.613 209.033 299.434 165.569 299.434 165.569L279.41 172.706Z" fill="#426AC4"/>
<g id="Clip path group_5">
<mask id="mask4_2958_1193" style="mask-type:luminance" maskUnits="userSpaceOnUse" x="261" y="165" width="49" height="114">
<g id="e">
<path id="Vector_87" d="M279.41 172.706L299.43 165.569C299.43 165.569 310.605 209.033 309.254 234.278C307.902 259.524 303.771 278.318 299.806 278.318C295.841 278.318 278.335 279.676 275.862 277.195C273.534 274.865 284.021 231.612 285.265 218.477C280.329 231.157 274.436 238.151 269.064 241.122L261.877 235.036L279.41 172.706Z" fill="white"/>
</g>
</mask>
<g mask="url(#mask4_2958_1193)">
<g id="Group_7">
<path id="Vector_88" d="M277.781 276.564C248.314 274.599 272.379 286.642 272.379 286.642L307.493 291.553L312.404 275.332L310.439 221.75C310.439 221.75 307.247 278.531 277.781 276.564Z" fill="#214B87"/>
<path id="Vector_89" d="M255.436 219.059L254.454 251.008C254.454 251.008 275.325 271.16 278.026 236.753C280.728 202.345 255.943 219.51 255.436 219.059Z" fill="#0D0942"/>
</g>
</g>
</g>
<path id="Vector_90" d="M315.849 174.319L311.716 168.28L309.26 174.402L315.552 178.406L321.587 173.978L319.116 168.376L315.849 174.319Z" fill="#3C1029"/>
<path id="Vector_91" d="M331.489 133.57C330.774 133.308 330.039 133.834 329.342 134.126C328.788 134.349 328.188 134.435 327.594 134.374C327 134.314 326.429 134.111 325.931 133.781C326.964 133.085 327.833 132.171 328.475 131.103C326.615 131.978 324.564 132.363 322.514 132.223C320.976 132.117 319.474 131.716 317.947 131.507C316.419 131.298 314.798 131.296 313.405 131.945C312.012 132.594 310.887 134.03 310.996 135.569L310.7 133.786C308.918 134.684 307.249 135.79 305.728 137.082C305.299 137.451 304.852 137.86 304.658 138.4C304.454 138.973 304.553 139.593 304.666 140.185C305.621 145.148 306.813 150.901 309.038 155.283C309.106 155.417 310.339 154.483 310.478 154.54C310.654 154.588 310.842 154.57 311.006 154.487L313.744 153.5C314.335 153.287 314.948 153.06 315.383 152.608C315.901 152.072 316.089 151.305 316.452 150.654C316.868 149.91 317.516 149.318 318.214 148.83C318.969 148.301 319.828 147.867 320.747 147.808C321.195 147.799 321.644 147.82 322.089 147.87C324.472 147.998 326.824 147.283 328.734 145.851C330.631 144.412 332.043 142.426 332.78 140.161C333.44 138.169 333.526 135.794 332.221 134.155C332.035 133.896 331.782 133.694 331.489 133.57Z" fill="#002E5A"/>
<g id="Clip path group_6">
<mask id="mask5_2958_1193" style="mask-type:luminance" maskUnits="userSpaceOnUse" x="304" y="131" width="30" height="25">
<g id="f">
<path id="Vector_92" d="M310.988 135.569C310.879 134.03 311.999 132.596 313.397 131.945C314.796 131.295 316.403 131.299 317.939 131.507C319.475 131.715 320.968 132.117 322.507 132.223C324.556 132.363 326.608 131.978 328.467 131.103C327.827 132.17 326.961 133.084 325.931 133.781C326.429 134.111 326.999 134.314 327.593 134.374C328.188 134.435 328.788 134.349 329.342 134.126C330.046 133.839 330.773 133.308 331.489 133.57C331.779 133.695 332.029 133.897 332.213 134.153C333.518 135.792 333.433 138.165 332.773 140.159C332.035 142.425 330.623 144.41 328.726 145.85C326.816 147.282 324.464 147.996 322.081 147.868C321.636 147.819 321.187 147.798 320.739 147.807C319.82 147.866 318.961 148.3 318.207 148.828C317.508 149.317 316.86 149.909 316.445 150.652C316.081 151.304 315.894 152.07 315.375 152.606C314.946 153.059 314.328 153.285 313.736 153.499L310.998 154.486C310.835 154.568 310.646 154.587 310.47 154.539C310.327 154.482 309.099 155.416 309.03 155.281C306.803 150.9 305.613 145.146 304.658 140.183C304.545 139.592 304.447 138.964 304.65 138.398C304.844 137.858 305.284 137.45 305.721 137.08C307.242 135.789 308.91 134.683 310.692 133.785L310.988 135.569Z" fill="white"/>
</g>
</mask>
<g mask="url(#mask5_2958_1193)">
<g id="Group_8">
<path id="Vector_93" d="M313.817 138.181C313.499 138.133 313.174 138.095 312.851 138.072C312.855 138.132 312.862 138.193 312.873 138.252L313.817 138.181Z" fill="#001526"/>
<path id="Vector_94" d="M335.555 141.11C334.906 140.353 334.065 139.628 333.068 139.615C332.461 139.615 331.888 139.867 331.313 140.053C328.189 141.056 320.738 135.831 320.055 135.489C318.682 134.802 317.039 135.165 315.564 135.592C314.896 135.785 314.213 135.999 313.668 136.431C313.17 136.827 312.809 137.447 312.851 138.072C313.174 138.095 313.499 138.133 313.817 138.181L312.873 138.252C312.862 138.193 312.855 138.132 312.851 138.072C312.134 138 311.411 138.081 310.728 138.31C309.75 138.669 308.906 139.578 308.923 140.619C308.944 141.828 310.041 142.755 310.314 143.933C309.057 144.381 307.786 144.837 306.668 145.565C305.55 146.293 304.578 147.33 304.193 148.609C303.86 149.718 303.987 150.91 304.193 152.048C304.362 153.02 304.583 153.982 304.853 154.93C304.992 155.478 305.196 156.007 305.46 156.506C306.355 158.082 308.194 158.872 309.972 159.214C311.86 159.576 313.848 159.549 315.672 158.939C317.495 158.329 319.144 157.107 320.096 155.435C320.918 153.993 321.251 152.212 322.5 151.119C323.957 149.846 326.11 149.955 328.045 149.919C329.612 149.889 331.205 149.708 332.648 149.091C333.905 148.55 335.003 147.699 335.84 146.616C336.47 145.8 336.953 144.804 336.88 143.775C336.807 142.747 336.215 141.877 335.555 141.11Z" fill="#001526"/>
</g>
</g>
</g>
<path id="Vector_95" d="M315.711 143.771L314.136 144.11L313.103 148.61C313.103 148.61 311.547 143.514 310.24 143.937C308.933 144.36 306.932 148.556 311.235 149.381L309.208 154.252L307.162 165.701L302.539 165.92C302.539 165.92 304.888 168.499 316.332 169.645C320.019 170.012 323.584 172.489 321.857 167.433L320.757 165.541L321.129 160.086C321.129 160.086 324.135 160.946 325.024 157.449C325.912 153.951 327.171 145.987 327.171 145.987C326.33 145.145 324.374 140.312 323.575 138.844C323.581 138.847 319.39 147.864 315.711 143.771Z" fill="#F7BAC3"/>
<path id="Vector_96" d="M312.155 151.484C311.539 155.739 314.094 160.593 321.014 161.77L321.128 160.095C317.76 159.821 313.191 157.202 312.155 151.484Z" fill="#EA5975"/>
<path id="Vector_97" d="M323.354 150.583L323.716 147.861C323.726 147.785 323.705 147.708 323.659 147.647C323.612 147.587 323.543 147.547 323.467 147.537C323.391 147.527 323.314 147.548 323.254 147.595C323.193 147.641 323.154 147.71 323.144 147.786L322.741 150.828L322.866 150.93C322.965 151.01 323.055 151.1 323.135 151.199C322.787 151.213 322.439 151.186 322.097 151.117C322.06 151.11 322.021 151.109 321.984 151.116C321.947 151.124 321.911 151.138 321.879 151.159C321.848 151.181 321.82 151.208 321.799 151.24C321.778 151.272 321.764 151.307 321.757 151.345C321.75 151.382 321.75 151.421 321.758 151.458C321.766 151.495 321.782 151.531 321.804 151.562C321.825 151.593 321.853 151.62 321.886 151.64C321.918 151.66 321.954 151.674 321.991 151.68C322.303 151.741 322.619 151.774 322.936 151.779C323.131 151.788 323.326 151.757 323.509 151.689C323.578 151.66 323.639 151.613 323.685 151.553C323.731 151.493 323.76 151.422 323.769 151.347C323.806 151.063 323.562 150.776 323.354 150.583Z" fill="#EF8998"/>
<path id="Vector_98" d="M320.894 155.178C322.746 155.732 323.232 153.781 323.232 153.781C323.024 153.781 319.025 152.153 319.025 152.153C319.025 152.153 318.514 154.464 320.894 155.178Z" fill="white"/>
<path id="Vector_99" d="M321.351 147.096C321.034 147.024 320.688 147.362 320.575 147.851C320.462 148.339 320.626 148.796 320.943 148.869C321.259 148.942 321.606 148.604 321.717 148.114C321.829 147.624 321.663 147.169 321.351 147.096ZM325.18 147.828C324.865 147.755 324.517 148.093 324.405 148.583C324.294 149.073 324.457 149.528 324.773 149.602C325.09 149.675 325.436 149.335 325.548 148.847C325.659 148.358 325.502 147.901 325.18 147.828ZM322.782 144.971C321.139 144.038 319.885 144.909 319.833 144.947C319.776 144.992 319.737 145.058 319.727 145.131C319.716 145.204 319.734 145.278 319.776 145.338C319.819 145.398 319.883 145.439 319.955 145.454C320.027 145.468 320.102 145.453 320.164 145.414C320.206 145.385 321.183 144.722 322.499 145.47C322.542 145.494 322.592 145.507 322.642 145.507C322.705 145.507 322.767 145.487 322.817 145.448C322.868 145.41 322.904 145.356 322.92 145.294C322.937 145.233 322.932 145.168 322.908 145.11C322.883 145.051 322.84 145.002 322.785 144.971H322.782ZM327.151 145.884C325.508 144.951 324.254 145.822 324.202 145.859C324.171 145.881 324.145 145.909 324.125 145.941C324.105 145.973 324.092 146.008 324.086 146.045C324.08 146.082 324.081 146.12 324.089 146.157C324.097 146.194 324.113 146.228 324.135 146.259C324.157 146.29 324.184 146.316 324.216 146.336C324.248 146.356 324.283 146.369 324.321 146.376C324.358 146.382 324.396 146.381 324.432 146.372C324.469 146.364 324.504 146.348 324.534 146.326C324.544 146.319 325.536 145.627 326.867 146.382C326.911 146.407 326.96 146.42 327.011 146.42C327.074 146.42 327.136 146.399 327.186 146.361C327.236 146.322 327.273 146.268 327.289 146.207C327.305 146.146 327.301 146.081 327.277 146.022C327.252 145.964 327.209 145.915 327.154 145.884H327.151Z" fill="#440E06"/>
<path id="Vector_100" d="M316.77 148.986C315.616 148.86 314.637 149.174 314.58 149.686C314.523 150.199 315.414 150.718 316.567 150.844C317.719 150.97 318.699 150.656 318.755 150.143C318.811 149.631 317.915 149.112 316.77 148.986Z" fill="#EA5975"/>
<path id="Vector_101" d="M305.574 162.708L301.709 166.476L310.548 176.362L312.091 178.089V168.278C306.812 167.028 305.574 162.708 305.574 162.708Z" fill="white"/>
<path id="Vector_102" d="M312.097 178.092V175.87V168.281L310.554 176.365L312.097 178.092Z" fill="#BCBCBC"/>
<path id="Vector_103" d="M312.063 168.662L313.598 178.409L319.5 177.754L319.524 177.32L320.018 168.181L312.431 168.638L312.063 168.662Z" fill="#61113F"/>
<path id="Vector_104" d="M312.431 168.638L312.063 168.662L313.598 178.409L319.5 177.754L319.524 177.32L315.227 176.288L312.431 168.638Z" fill="#61113F"/>
<path id="Vector_105" d="M313.598 178.409L313.791 182.897L315.932 232.109L321.971 246.132L327.087 235.736L329.083 231.68L319.499 177.754L313.598 178.409Z" fill="#61113F"/>
<path id="Vector_106" d="M313.791 182.897L315.938 232.109L321.977 246.132L327.093 235.737C317.438 227.756 314.587 196.398 313.791 182.897Z" fill="#521036"/>
<path id="Vector_107" d="M319.302 168.281L321.41 177.297L321.5 176.986L322.389 173.89L323.887 168.7L321.038 164.866L319.302 168.281Z" fill="white"/>
<path id="Vector_108" d="M321.366 177.642L322.389 173.89L319.302 168.281L321.366 177.642Z" fill="#BCBCBC"/>
<path id="Vector_109" d="M289.924 169.129L298.786 187.714V192.343L308.565 217.281C306.684 195.382 301.432 164.811 301.432 164.811L289.924 169.129Z" fill="#214B87"/>
<path id="Vector_110" d="M262.421 216.748L252.115 219.114C252.115 219.114 258.823 239.838 262.071 241.113C265.319 242.388 268.731 241.113 268.731 241.113C268.731 241.113 273.324 237.166 272.674 234.206C272.025 231.246 262.421 216.748 262.421 216.748Z" fill="#3661AD"/>
<path id="Vector_111" d="M270.929 164.33C267.637 164.059 266.748 166.682 264.707 166.244H264.682C263.28 166.117 261.869 166.348 260.581 166.917C259.292 167.486 258.17 168.374 257.319 169.496C257.226 169.615 257.145 169.743 257.077 169.879C256.175 171.702 254.357 172.679 254.158 173.823C254.153 173.851 254.154 173.881 254.161 173.909C254.169 173.937 254.181 173.963 254.199 173.986C254.217 174.009 254.24 174.027 254.266 174.041C254.292 174.054 254.32 174.062 254.349 174.063L266.879 174.836C266.914 174.838 266.949 174.831 266.98 174.816C267.012 174.801 267.039 174.778 267.06 174.75C269.838 170.871 270.716 167.361 271.068 164.434C271.069 164.353 271.002 164.337 270.929 164.33Z" fill="#D39C53"/>
<path id="Vector_112" d="M309.95 197.922C300.771 190.527 290.606 181.475 279.557 177.62C276.984 176.699 274.305 176.103 271.584 175.844C271.227 175.812 270.869 175.787 270.512 175.769L262.9 179.667C256.25 189.418 256.55 208.894 262.803 225.227C264.214 228.976 265.994 232.575 268.118 235.972C271.165 245.337 316.465 228.686 315.977 209.292C315.881 205.544 314.083 201.702 309.95 197.922Z" fill="#F4E1C3"/>
<path id="Vector_113" d="M309.951 197.922C300.771 190.527 290.607 181.475 279.558 177.62C283.652 180.299 288.212 182.514 291.835 185.797C298.242 191.598 301.283 201.084 298.849 209.385C296.416 217.686 288.353 224.172 279.713 224.171C276.107 224.171 272.59 223.143 269.132 222.123C267.278 221.579 265.422 221.034 263.566 220.487C264.978 224.237 266.758 227.836 268.883 231.232C271.681 239.829 310.037 226.517 315.976 209.289C315.881 205.544 314.084 201.702 309.951 197.922Z" fill="#EACFA9"/>
<path id="Vector_114" d="M270.986 164.376C268.869 166.983 267.992 166.986 265.732 167.621H265.722C263.407 167.777 261.405 168.356 260.331 170.2L260.323 170.211C257.905 172.446 256.267 173.684 254.259 174.031C254.25 174.032 254.241 174.036 254.234 174.042C254.227 174.049 254.222 174.057 254.22 174.066C254.218 174.076 254.219 174.085 254.222 174.094C254.226 174.103 254.232 174.11 254.24 174.115C257.279 175.869 259.571 177.526 262.344 179.668C263.333 181.184 271.197 176.783 270.205 175.44C270.194 175.429 270.188 175.414 270.188 175.399C270.012 171.712 270.308 168.019 271.07 164.407C271.07 164.398 271.067 164.388 271.061 164.38C271.056 164.372 271.048 164.366 271.039 164.362C271.03 164.359 271.02 164.358 271.011 164.361C271.001 164.363 270.993 164.368 270.986 164.376Z" fill="#F4E1C3"/>
<path id="&#226;&#130;&#185;" d="M285.992 192.793L286.619 195.567L273.862 202.509L273.236 199.735L285.992 192.793ZM288.023 211.312L276.455 206.647L275.403 204.76L278.857 202.881C279.72 202.411 280.377 201.881 280.829 201.29C281.282 200.699 281.526 200.066 281.562 199.391C281.594 198.709 281.411 198.002 281.012 197.269C280.419 196.179 279.623 195.489 278.625 195.2C277.627 194.911 276.437 195.142 275.055 195.894L271.358 197.906L270.66 194.931L273.647 193.306C275.256 192.43 276.722 191.965 278.045 191.909C279.368 191.853 280.533 192.14 281.54 192.769C282.547 193.398 283.373 194.306 284.019 195.494C284.594 196.551 284.904 197.623 284.948 198.708C284.993 199.794 284.701 200.857 284.073 201.896C283.445 202.936 282.406 203.909 280.957 204.815L280.88 204.882L291.485 209.214L291.575 209.379L288.023 211.312ZM283.397 188L284.024 190.799L273.795 196.29L273.199 193.549L283.397 188Z" fill="#FFBD03"/>
<path id="Vector_115" d="M270.425 174.966C270.371 174.999 270.324 175.043 270.288 175.094C270.251 175.146 270.225 175.204 270.212 175.266C270.198 175.328 270.198 175.392 270.21 175.454C270.222 175.517 270.246 175.576 270.282 175.628C270.364 175.733 270.321 175.915 270.153 176.172C269.687 176.889 268.401 177.882 266.878 178.701C265.315 179.541 263.812 180.038 262.958 179.991C262.432 179.966 262.369 179.753 262.342 179.663C262.321 179.603 262.288 179.548 262.244 179.502C262.201 179.455 262.149 179.418 262.091 179.392C262.033 179.367 261.97 179.353 261.907 179.353C261.844 179.352 261.781 179.364 261.722 179.389C261.596 179.425 261.489 179.509 261.422 179.621C261.355 179.734 261.334 179.868 261.362 179.996C261.459 180.324 261.774 180.882 262.802 180.93C264.154 180.995 265.981 180.181 266.973 179.677C267.102 179.611 267.217 179.549 267.315 179.496C269.05 178.565 270.43 177.478 271.008 176.589C271.537 175.774 271.31 175.257 271.127 175.022C271.039 174.925 270.917 174.866 270.787 174.856C270.657 174.845 270.527 174.885 270.425 174.966Z" fill="#D39C53"/>
<path id="Vector_116" d="M267.115 200.992C263.031 201.346 259.829 201.852 259.829 201.852C259.829 201.852 261.993 199.542 263.291 198.892C264.59 198.241 267.132 199.27 268.27 198.13C269.408 196.989 266.393 196.581 264.013 196.581C261.632 196.581 256.727 200.047 256.727 199.181C256.727 198.316 258.459 194.776 259.757 194.776C261.056 194.776 264.807 194.489 264.807 193.837C264.807 193.185 261.416 192.899 258.602 192.899C255.788 192.899 251.75 199.759 251.75 201.13C251.75 202.501 253.914 219.253 253.914 219.253L260.55 218.892C260.55 218.892 258.841 214.229 260.284 211.247C260.648 210.497 259.699 206.866 260.672 206.6C263.181 205.912 268.097 205.073 267.475 204.451C266.645 203.62 260.284 204.386 260.284 204.386C260.284 204.386 265.527 202.822 267.404 202.683C269.839 202.511 271.07 200.648 267.115 200.992Z" fill="#F7BAC3"/>
<g id="Clip path group_7">
<mask id="mask6_2958_1193" style="mask-type:luminance" maskUnits="userSpaceOnUse" x="251" y="192" width="19" height="28">
<g id="g">
<path id="Vector_117" d="M253.914 219.259C253.914 219.259 251.75 202.508 251.75 201.136C251.75 199.763 255.789 192.905 258.602 192.905C261.415 192.905 264.807 193.191 264.807 193.843C264.807 194.495 261.056 194.782 259.757 194.782C258.459 194.782 256.727 198.32 256.727 199.187C256.727 200.054 261.632 196.587 264.013 196.587C266.393 196.587 269.408 196.997 268.27 198.137C267.132 199.277 264.591 198.247 263.291 198.898C261.992 199.548 259.829 201.858 259.829 201.858C259.829 201.858 263.031 201.346 267.115 200.998C271.07 200.654 269.834 202.517 267.401 202.696C265.524 202.839 260.281 204.399 260.281 204.399C260.281 204.399 266.642 203.633 267.473 204.464C268.094 205.084 263.178 205.924 260.669 206.613C259.696 206.879 260.645 210.51 260.281 211.26C258.838 214.242 260.547 218.905 260.547 218.905L253.914 219.259Z" fill="white"/>
</g>
</mask>
<g mask="url(#mask6_2958_1193)">
<g id="Group_9">
<path id="Vector_118" d="M265.567 192.789C265.138 193.575 264.16 193.9 263.264 193.935C262.368 193.969 261.472 193.773 260.577 193.836C259.327 193.922 258.163 194.501 257.338 195.444C256.513 196.388 256.096 197.621 256.177 198.872C256.172 199.046 256.228 199.216 256.334 199.353C256.426 199.431 256.541 199.477 256.662 199.483C256.782 199.49 256.902 199.457 257.001 199.389C257.199 199.25 257.364 199.07 257.485 198.862C257.915 198.24 258.377 197.642 258.869 197.068C259.157 196.697 259.509 196.379 259.907 196.13C260.55 195.769 261.321 195.753 262.054 195.721C262.982 195.683 263.939 195.597 264.758 195.158C265.577 194.72 266.23 193.844 266.135 192.92L265.567 192.789ZM268.415 197.959C268.073 198.103 267.702 198.163 267.332 198.134C266.044 198.104 264.738 197.744 263.467 198.004C262.06 198.29 260.902 199.317 260.082 200.496C259.81 200.888 259.565 201.415 259.821 201.817C260.933 201.044 262.16 200.452 263.457 200.062C263.797 199.952 264.15 199.881 264.506 199.853C265.309 199.813 266.095 200.131 266.898 200.11C267.549 200.076 268.171 199.827 268.666 199.402C269.16 198.977 269.5 198.399 269.631 197.76L269.004 197.094C269.019 197.463 268.748 197.796 268.415 197.959Z" fill="#EF8998"/>
</g>
</g>
</g>
</g>
<g id="Group 1261155150">
<g id="Rectangle 187296" filter="url(#filter0_d_2958_1193)">
<rect x="293.5" y="85" width="55" height="40" rx="8" fill="#F8EFFF"/>
</g>
<g id="Group 1261155146">
<g id="Group 1261154599">
<g id="&#60;Group&#62;_20">
<path id="&#60;Path&#62;_65" d="M305.506 96.6981L310.045 101.33V92.0664L305.506 96.6981Z" fill="url(#paint0_linear_2958_1193)"/>
<path id="&#60;Path&#62;_66" d="M300.166 101.74H309.665L300.166 92.0537V101.74Z" fill="#61113F"/>
<path id="&#60;Path&#62;_67" d="M309.641 91.667H300.574L305.107 96.2926L309.641 91.667Z" fill="url(#paint1_linear_2958_1193)"/>
</g>
<g id="Vault">
<g id="Vector_119">
<path d="M337.445 118.141V111.958H335.764V109.941L337.445 109.937V107.386H340.153V109.931L341.834 109.927V111.958H340.153V118.141H337.445Z" fill="url(#paint2_linear_2958_1193)"/>
<path d="M337.445 118.141V111.958H335.764V109.941L337.445 109.937V107.386H340.153V109.931L341.834 109.927V111.958H340.153V118.141H337.445Z" stroke="url(#paint3_linear_2958_1193)"/>
</g>
<g id="Vector_120">
<path d="M331.252 118.141V106.794H333.96V118.141H331.252Z" fill="url(#paint4_linear_2958_1193)"/>
<path d="M331.252 118.141V106.794H333.96V118.141H331.252Z" stroke="url(#paint5_linear_2958_1193)"/>
</g>
<g id="Vector_121">
<path d="M325.596 118.124C324.88 118.124 324.242 117.984 323.682 117.703C323.132 117.413 322.696 117.013 322.374 116.505C322.063 115.986 321.907 115.4 321.907 114.746L321.945 109.927H324.427L324.389 114.746C324.389 114.954 324.431 115.135 324.514 115.291C324.597 115.447 324.711 115.566 324.856 115.649C325.002 115.732 325.399 115.773 325.596 115.773C325.887 115.773 326.309 115.68 326.485 115.493C326.672 115.306 326.765 115.057 326.765 114.746L326.803 109.927H329.323L329.285 114.746C329.285 115.41 329.129 115.996 328.818 116.505C328.507 117.013 328.071 117.413 327.511 117.703C326.961 117.984 326.322 118.124 325.596 118.124Z" fill="url(#paint6_linear_2958_1193)"/>
<path d="M325.596 118.124C324.88 118.124 324.242 117.984 323.682 117.703C323.132 117.413 322.696 117.013 322.374 116.505C322.063 115.986 321.907 115.4 321.907 114.746L321.945 109.927H324.427L324.389 114.746C324.389 114.954 324.431 115.135 324.514 115.291C324.597 115.447 324.711 115.566 324.856 115.649C325.002 115.732 325.399 115.773 325.596 115.773C325.887 115.773 326.309 115.68 326.485 115.493C326.672 115.306 326.765 115.057 326.765 114.746L326.803 109.927H329.323L329.285 114.746C329.285 115.41 329.129 115.996 328.818 116.505C328.507 117.013 328.071 117.413 327.511 117.703C326.961 117.984 326.322 118.124 325.596 118.124Z" stroke="url(#paint7_linear_2958_1193)"/>
</g>
<g id="Group 1261154602">
<path id="Subtract" fill-rule="evenodd" clip-rule="evenodd" d="M317.069 109.926C316.515 109.682 315.903 109.546 315.259 109.546C312.782 109.546 310.774 111.554 310.774 114.031C310.774 116.508 312.782 118.516 315.259 118.516C315.903 118.516 316.515 118.38 317.069 118.136V118.516H320.46V109.546H317.069V109.926ZM317.445 110.115C317.446 110.115 317.446 110.115 317.446 110.115V109.923H317.445V110.115ZM317.446 117.947V118.139H320.083V118.139H317.445V117.948C317.446 117.948 317.446 117.948 317.446 117.947Z" fill="#61113F"/>
<g id="119_safes_set_e02-ai 1" clip-path="url(#clip1_2958_1193)">
<g id="321353356351_3">
<g id="&#60;Group&#62;_21">
<path id="&#60;Path&#62;_68" d="M318.986 113.851H318.506C318.465 113.141 318.181 112.493 317.736 111.993L318.075 111.654C318.145 111.584 318.145 111.471 318.075 111.401C318.006 111.331 317.893 111.331 317.824 111.401L317.483 111.741C316.983 111.295 316.337 111.011 315.625 110.97V110.491C315.625 110.393 315.545 110.313 315.446 110.313C315.349 110.313 315.269 110.393 315.269 110.491V110.97C314.557 111.011 313.911 111.295 313.411 111.741L313.07 111.401C313.001 111.331 312.888 111.331 312.819 111.401C312.749 111.471 312.749 111.584 312.819 111.654L313.158 111.993C312.713 112.493 312.427 113.141 312.388 113.851H311.908C311.81 113.851 311.73 113.931 311.73 114.03C311.73 114.128 311.81 114.208 311.908 114.208H312.388C312.427 114.919 312.713 115.565 313.158 116.067L312.819 116.406C312.749 116.475 312.749 116.589 312.819 116.658C312.854 116.693 312.899 116.711 312.945 116.711C312.99 116.711 313.036 116.693 313.07 116.658L313.411 116.318C313.911 116.764 314.557 117.049 315.269 117.09V117.568C315.269 117.667 315.349 117.747 315.446 117.747C315.545 117.747 315.625 117.667 315.625 117.568V117.09C316.337 117.049 316.983 116.764 317.483 116.318L317.824 116.658C317.858 116.693 317.903 116.711 317.949 116.711C317.995 116.711 318.04 116.693 318.075 116.658C318.145 116.589 318.145 116.475 318.075 116.406L317.736 116.067C318.181 115.565 318.465 114.919 318.506 114.208H318.986C319.084 114.208 319.163 114.128 319.163 114.03C319.163 113.931 319.084 113.851 318.986 113.851Z" fill="#CFA467"/>
<path id="&#60;Compound Path&#62;" d="M315.447 116.084C314.324 116.084 313.411 115.17 313.411 114.047C313.411 112.925 314.324 112.01 315.447 112.01C316.57 112.01 317.483 112.925 317.483 114.047C317.483 115.17 316.57 116.084 315.447 116.084Z" fill="#61113F"/>
<path id="&#60;Compound Path&#62;_2" d="M315.447 116.084C314.324 116.084 313.411 115.17 313.411 114.047C313.411 112.925 314.324 112.01 315.447 112.01C316.57 112.01 317.483 112.925 317.483 114.047C317.483 115.17 316.57 116.084 315.447 116.084Z" fill="#61113F"/>
<g id="&#60;Group&#62;_22">
<g id="&#60;Group&#62;_23">
<g id="&#60;Group&#62;_24">
<path id="&#60;Compound Path&#62;_3" d="M315.446 111.676C315.348 111.676 315.269 111.595 315.269 111.497C315.269 111.399 315.348 111.319 315.446 111.319C315.545 111.319 315.625 111.399 315.625 111.497C315.625 111.595 315.545 111.676 315.446 111.676Z" fill="#61113F"/>
<path id="&#60;Compound Path&#62;_4" d="M315.446 116.776C315.348 116.776 315.269 116.696 315.269 116.597C315.269 116.499 315.348 116.419 315.446 116.419C315.545 116.419 315.625 116.499 315.625 116.597C315.625 116.696 315.545 116.776 315.446 116.776Z" fill="#61113F"/>
</g>
<g id="&#60;Group&#62;_25">
<path id="&#60;Compound Path&#62;_5" d="M317.819 114.047C317.819 113.949 317.899 113.87 317.998 113.87C318.096 113.87 318.176 113.949 318.176 114.047C318.176 114.146 318.096 114.226 317.998 114.226C317.899 114.226 317.819 114.146 317.819 114.047Z" fill="#61113F"/>
<path id="&#60;Compound Path&#62;_6" d="M312.719 114.047C312.719 113.949 312.798 113.87 312.896 113.87C312.995 113.87 313.075 113.949 313.075 114.047C313.075 114.146 312.995 114.226 312.896 114.226C312.798 114.226 312.719 114.146 312.719 114.047Z" fill="#61113F"/>
</g>
</g>
<g id="&#60;Group&#62;_26">
<g id="&#60;Group&#62;_27">
<path id="&#60;Compound Path&#62;_7" d="M317.125 112.371C317.055 112.3 317.055 112.188 317.125 112.118C317.194 112.049 317.307 112.049 317.377 112.118C317.446 112.188 317.446 112.3 317.377 112.371C317.307 112.439 317.194 112.439 317.125 112.371Z" fill="#61113F"/>
<path id="&#60;Compound Path&#62;_8" d="M313.517 115.977C313.449 115.908 313.449 115.794 313.517 115.725C313.588 115.655 313.7 115.655 313.77 115.725C313.84 115.794 313.84 115.908 313.77 115.977C313.7 116.047 313.588 116.047 313.517 115.977Z" fill="#61113F"/>
</g>
<g id="&#60;Group&#62;_28">
<path id="&#60;Compound Path&#62;_9" d="M317.125 115.725C317.194 115.655 317.307 115.655 317.377 115.725C317.446 115.794 317.446 115.908 317.377 115.977C317.307 116.047 317.194 116.047 317.125 115.977C317.055 115.908 317.055 115.794 317.125 115.725Z" fill="#61113F"/>
<path id="&#60;Compound Path&#62;_10" d="M313.517 112.118C313.588 112.049 313.7 112.049 313.77 112.118C313.84 112.188 313.84 112.3 313.77 112.371C313.7 112.439 313.588 112.439 313.517 112.371C313.449 112.3 313.449 112.188 313.517 112.118Z" fill="#61113F"/>
</g>
</g>
</g>
<g id="&#60;Group&#62;_29">
<path id="&#60;Compound Path&#62;_11" fill-rule="evenodd" clip-rule="evenodd" d="M317.124 114.047C317.124 114.972 316.372 115.725 315.446 115.725C314.522 115.725 313.77 114.972 313.77 114.047C313.77 113.123 314.522 112.37 315.446 112.37C316.372 112.37 317.124 113.123 317.124 114.047ZM314.389 114.866L315.057 114.198C315.014 114.128 314.99 114.047 314.99 113.959C314.99 113.765 315.109 113.601 315.278 113.533V112.719C314.619 112.803 314.108 113.366 314.108 114.047C314.108 114.356 314.213 114.639 314.389 114.866ZM316.265 115.105L315.562 114.401C315.525 114.41 315.486 114.417 315.446 114.417C315.406 114.417 315.369 114.41 315.332 114.401L314.628 115.105C314.854 115.28 315.138 115.387 315.446 115.387C315.756 115.387 316.039 115.28 316.265 115.105ZM316.786 114.047C316.786 113.366 316.275 112.803 315.615 112.719V113.533C315.785 113.601 315.904 113.765 315.904 113.959C315.904 114.047 315.879 114.128 315.836 114.198L316.504 114.866C316.681 114.639 316.786 114.356 316.786 114.047Z" fill="#CFA467"/>
</g>
</g>
</g>
</g>
</g>
</g>
<g id="&#60;Group&#62;_30">
<g id="&#60;Group&#62;_31">
<path id="&#60;Compound Path&#62;_12" d="M325.511 91.667C324.071 91.667 322.827 92.4833 322.169 93.5535C321.493 92.3382 320.285 91.667 318.791 91.667C317.494 91.667 316.48 92.2293 315.894 93.0456V91.7758H312.848V101.904H315.894V96.4015C315.894 95.0773 316.64 94.3517 317.796 94.3517C318.951 94.3517 319.698 95.0773 319.698 96.4015V101.904H322.72V96.4015C322.72 95.0773 323.467 94.3517 324.622 94.3517C325.778 94.3517 326.524 95.0773 326.524 96.4015V101.904H329.547V95.9842C329.547 93.2633 327.964 91.667 325.511 91.667Z" fill="#61113F"/>
<path id="&#60;Compound Path&#62;_13" d="M337.463 91.7754L335.182 98.1062L332.889 91.7754H329.493L333.529 101.559L331.81 105.507C332.802 105.507 333.588 105.507 334.441 105.507C334.753 105.507 334.912 105.507 335.214 105.507L335.988 103.125L336.391 102.169L340.746 91.7754H337.463Z" fill="#61113F"/>
</g>
<g id="Vector_122">
<path d="M304.566 117.952L300.41 106.917H303.383L305.863 114.02L308.379 106.917H311.29L307.087 117.952H304.566Z" fill="url(#paint8_linear_2958_1193)"/>
<path d="M304.566 117.952L300.41 106.917H303.383L305.863 114.02L308.379 106.917H311.29L307.087 117.952H304.566Z" stroke="url(#paint9_linear_2958_1193)"/>
</g>
</g>
</g>
</g>
</g>
</g>
</g>
<defs>
<filter id="filter0_d_2958_1193" x="292.5" y="84" width="57" height="42" filterUnits="userSpaceOnUse" color-interpolation-filters="sRGB">
<feFlood flood-opacity="0" result="BackgroundImageFix"/>
<feColorMatrix in="SourceAlpha" type="matrix" values="0 0 0 0 0 0 0 0 0 0 0 0 0 0 0 0 0 0 127 0" result="hardAlpha"/>
<feOffset/>
<feGaussianBlur stdDeviation="0.5"/>
<feComposite in2="hardAlpha" operator="out"/>
<feColorMatrix type="matrix" values="0 0 0 0 0 0 0 0 0 0 0 0 0 0 0 0 0 0 0.18 0"/>
<feBlend mode="normal" in2="BackgroundImageFix" result="effect1_dropShadow_2958_1193"/>
<feBlend mode="normal" in="SourceGraphic" in2="effect1_dropShadow_2958_1193" result="shape"/>
</filter>
<linearGradient id="paint0_linear_2958_1193" x1="303.186" y1="110.795" x2="291.79" y2="87.7134" gradientUnits="userSpaceOnUse">
<stop stop-color="#BA925C"/>
<stop offset="0.278" stop-color="#927040"/>
<stop offset="0.627" stop-color="#FAC882"/>
<stop offset="1" stop-color="#927040"/>
</linearGradient>
<linearGradient id="paint1_linear_2958_1193" x1="311.351" y1="111.848" x2="299.183" y2="87.2025" gradientUnits="userSpaceOnUse">
<stop stop-color="#BA925C"/>
<stop offset="0.278" stop-color="#927040"/>
<stop offset="0.627" stop-color="#FAC882"/>
<stop offset="1" stop-color="#927040"/>
</linearGradient>
<linearGradient id="paint2_linear_2958_1193" x1="338.799" y1="107.386" x2="338.799" y2="118.141" gradientUnits="userSpaceOnUse">
<stop stop-color="#CFA467"/>
<stop offset="0.565" stop-color="#F0C07C"/>
<stop offset="1" stop-color="#987544"/>
</linearGradient>
<linearGradient id="paint3_linear_2958_1193" x1="338.799" y1="107.386" x2="338.799" y2="118.141" gradientUnits="userSpaceOnUse">
<stop stop-color="#D1A668"/>
<stop offset="0.55" stop-color="#EABB78"/>
<stop offset="0.985" stop-color="#A47F4C"/>
</linearGradient>
<linearGradient id="paint4_linear_2958_1193" x1="332.606" y1="106.794" x2="332.606" y2="118.141" gradientUnits="userSpaceOnUse">
<stop stop-color="#CFA467"/>
<stop offset="0.565" stop-color="#F0C07C"/>
<stop offset="1" stop-color="#987544"/>
</linearGradient>
<linearGradient id="paint5_linear_2958_1193" x1="332.606" y1="106.794" x2="332.606" y2="118.141" gradientUnits="userSpaceOnUse">
<stop stop-color="#D1A668"/>
<stop offset="0.55" stop-color="#EABB78"/>
<stop offset="0.985" stop-color="#A47F4C"/>
</linearGradient>
<linearGradient id="paint6_linear_2958_1193" x1="325.596" y1="110.341" x2="325.596" y2="118.124" gradientUnits="userSpaceOnUse">
<stop stop-color="#CFA467"/>
<stop offset="0.565" stop-color="#F0C07C"/>
<stop offset="1" stop-color="#987544"/>
</linearGradient>
<linearGradient id="paint7_linear_2958_1193" x1="325.596" y1="110.341" x2="325.596" y2="118.124" gradientUnits="userSpaceOnUse">
<stop stop-color="#D1A668"/>
<stop offset="0.55" stop-color="#EABB78"/>
<stop offset="0.985" stop-color="#A47F4C"/>
</linearGradient>
<linearGradient id="paint8_linear_2958_1193" x1="305.85" y1="106.917" x2="305.85" y2="117.952" gradientUnits="userSpaceOnUse">
<stop stop-color="#CFA467"/>
<stop offset="0.565" stop-color="#F0C07C"/>
<stop offset="1" stop-color="#987544"/>
</linearGradient>
<linearGradient id="paint9_linear_2958_1193" x1="305.85" y1="106.917" x2="305.85" y2="117.952" gradientUnits="userSpaceOnUse">
<stop stop-color="#D1A668"/>
<stop offset="0.55" stop-color="#EABB78"/>
<stop offset="0.985" stop-color="#A47F4C"/>
</linearGradient>
<clipPath id="clip0_2958_1193">
<rect width="669.898" height="447" fill="white"/>
</clipPath>
<clipPath id="clip1_2958_1193">
<rect width="8.668" height="8.668" fill="white" transform="translate(311.114 109.696)"/>
</clipPath>
</defs>
</svg>
