<svg width="54" height="54" viewBox="0 0 54 54" fill="none" xmlns="http://www.w3.org/2000/svg">
<path d="M53.5 27C53.5 41.6355 41.6355 53.5 27 53.5C12.3645 53.5 0.5 41.6355 0.5 27C0.5 12.3645 12.3645 0.5 27 0.5C41.6355 0.5 53.5 12.3645 53.5 27Z" fill="white" stroke="#E9E9E9"/>
<path d="M44.0456 24.1593H42.6536C42.249 21.926 41.3704 19.8054 40.0769 17.9405L41.0627 16.9547C41.2755 16.7418 41.395 16.4532 41.395 16.1522C41.395 15.8512 41.2755 15.5625 41.0627 15.3496L38.6507 12.9377C38.5454 12.8323 38.4202 12.7487 38.2825 12.6916C38.1448 12.6346 37.9972 12.6052 37.8482 12.6052C37.6991 12.6052 37.5515 12.6346 37.4138 12.6916C37.2761 12.7487 37.151 12.8323 37.0456 12.9377L36.0598 13.9235C34.1949 12.63 32.0743 11.7513 29.8411 11.3468V9.95472C29.8411 9.80548 29.8118 9.6577 29.7547 9.51981C29.6976 9.38192 29.6139 9.25664 29.5083 9.15111C29.4028 9.04558 29.2775 8.96188 29.1396 8.90478C29.0017 8.84769 28.854 8.81832 28.7047 8.81836H25.2956C25.1464 8.81832 24.9986 8.84769 24.8607 8.90478C24.7228 8.96188 24.5975 9.04558 24.492 9.15111C24.3865 9.25664 24.3028 9.38192 24.2457 9.51981C24.1886 9.6577 24.1592 9.80548 24.1593 9.95472V11.3468C21.926 11.7513 19.8055 12.63 17.9405 13.9235L16.9547 12.9377C16.7385 12.7312 16.4511 12.616 16.1522 12.616C15.8532 12.616 15.5658 12.7312 15.3496 12.9377L12.9377 15.3496C12.7249 15.5625 12.6053 15.8512 12.6053 16.1522C12.6053 16.4532 12.7249 16.7418 12.9377 16.9547L13.9235 17.9405C12.63 19.8054 11.7513 21.926 11.3468 24.1593H9.95472C9.80548 24.1592 9.6577 24.1886 9.51981 24.2457C9.38192 24.3028 9.25664 24.3865 9.15111 24.492C9.04558 24.5975 8.96188 24.7228 8.90478 24.8607C8.84769 24.9986 8.81832 25.1464 8.81836 25.2956V28.7047C8.81832 28.854 8.84769 29.0017 8.90478 29.1396C8.96188 29.2775 9.04558 29.4028 9.15111 29.5083C9.25664 29.6139 9.38192 29.6976 9.51981 29.7547C9.6577 29.8118 9.80548 29.8411 9.95472 29.8411H11.3468C11.7513 32.0743 12.63 34.1949 13.9235 36.0598L12.9377 37.0456C12.7249 37.2585 12.6053 37.5472 12.6053 37.8482C12.6053 38.1492 12.7249 38.4379 12.9377 38.6507L15.3496 41.0627C15.5625 41.2755 15.8512 41.395 16.1522 41.395C16.4532 41.395 16.7418 41.2755 16.9547 41.0627L17.9405 40.0769C19.8055 41.3704 21.926 42.249 24.1593 42.6536V44.0456C24.1592 44.1949 24.1886 44.3427 24.2457 44.4805C24.3028 44.6184 24.3865 44.7437 24.492 44.8492C24.5975 44.9548 24.7228 45.0385 24.8607 45.0956C24.9986 45.1527 25.1464 45.182 25.2956 45.182H28.7047C28.854 45.182 29.0017 45.1527 29.1396 45.0956C29.2775 45.0385 29.4028 44.9548 29.5083 44.8492C29.6139 44.7437 29.6976 44.6184 29.7547 44.4805C29.8118 44.3427 29.8411 44.1949 29.8411 44.0456V42.6536C32.0743 42.249 34.1949 41.3704 36.0598 40.0769L37.0456 41.0627C37.2585 41.2755 37.5472 41.395 37.8482 41.395C38.1492 41.395 38.4379 41.2755 38.6507 41.0627L41.0627 38.6507C41.2755 38.4379 41.395 38.1492 41.395 37.8482C41.395 37.5472 41.2755 37.2585 41.0627 37.0456L40.0769 36.0598C41.3704 34.1949 42.249 32.0743 42.6536 29.8411H44.0456C44.1949 29.8411 44.3427 29.8118 44.4805 29.7547C44.6184 29.6976 44.7437 29.6139 44.8492 29.5083C44.9548 29.4028 45.0385 29.2775 45.0956 29.1396C45.1527 29.0017 45.182 28.854 45.182 28.7047V25.2956C45.182 25.1464 45.1527 24.9986 45.0956 24.8607C45.0385 24.7228 44.9548 24.5975 44.8492 24.492C44.7437 24.3865 44.6184 24.3028 44.4805 24.2457C44.3427 24.1886 44.1949 24.1592 44.0456 24.1593ZM44.0456 28.7047H42.1735C42.037 28.7048 41.9052 28.7538 41.8019 28.843C41.6986 28.9322 41.6309 29.0555 41.611 29.1905C41.2534 31.5781 40.315 33.8414 38.878 35.7814C38.7968 35.891 38.7576 36.0261 38.7675 36.1622C38.7774 36.2982 38.8358 36.4262 38.932 36.5229L40.2587 37.8468L37.8468 40.2587L36.5229 38.932C36.4262 38.8358 36.2982 38.7774 36.1622 38.7675C36.0261 38.7576 35.891 38.7968 35.7814 38.878C33.8414 40.315 31.5781 41.2534 29.1905 41.611C29.0555 41.6309 28.9322 41.6986 28.843 41.8019C28.7538 41.9052 28.7048 42.037 28.7047 42.1735V44.0456H25.2956V42.1735C25.2956 42.037 25.2465 41.9052 25.1573 41.8019C25.0681 41.6986 24.9448 41.6309 24.8098 41.611C22.4222 41.2534 20.159 40.315 18.2189 38.878C18.109 38.7976 17.9741 38.7588 17.8383 38.7687C17.7024 38.7786 17.5745 38.8365 17.4775 38.932L16.1536 40.2587L13.7417 37.8468L15.0684 36.5229C15.1646 36.4262 15.2229 36.2982 15.2328 36.1622C15.2427 36.0261 15.2035 35.891 15.1223 35.7814C13.6854 33.8414 12.7469 31.5781 12.3894 29.1905C12.3695 29.0555 12.3017 28.9322 12.1985 28.843C12.0952 28.7538 11.9633 28.7048 11.8269 28.7047H9.95472V25.2956H11.8269C11.9633 25.2956 12.0952 25.2465 12.1985 25.1573C12.3017 25.0681 12.3695 24.9448 12.3894 24.8098C12.7469 22.4222 13.6854 20.159 15.1223 18.2189C15.2035 18.1093 15.2427 17.9742 15.2328 17.8382C15.2229 17.7021 15.1646 17.5742 15.0684 17.4775L13.7417 16.1536L16.1536 13.7417L17.4775 15.0684C17.5742 15.1646 17.7021 15.2229 17.8382 15.2328C17.9742 15.2427 18.1093 15.2035 18.2189 15.1223C20.159 13.6854 22.4222 12.7469 24.8098 12.3894C24.9448 12.3695 25.0681 12.3017 25.1573 12.1985C25.2465 12.0952 25.2956 11.9633 25.2956 11.8269V9.95472H28.7047V11.8269C28.7048 11.9633 28.7538 12.0952 28.843 12.1985C28.9322 12.3017 29.0555 12.3695 29.1905 12.3894C31.5781 12.7469 33.8414 13.6854 35.7814 15.1223C35.891 15.2035 36.0261 15.2427 36.1622 15.2328C36.2982 15.2229 36.4262 15.1646 36.5229 15.0684L37.8468 13.7417L40.2587 16.1536L38.932 17.4775C38.8358 17.5742 38.7774 17.7021 38.7675 17.8382C38.7576 17.9742 38.7968 18.1093 38.878 18.2189C40.315 20.159 41.2534 22.4222 41.611 24.8098C41.6309 24.9448 41.6986 25.0681 41.8019 25.1573C41.9052 25.2465 42.037 25.2956 42.1735 25.2956H44.0456V28.7047Z" fill="#61113F" stroke="#61113F"/>
<path d="M42.1733 25.2955C42.0369 25.2955 41.905 25.2464 41.8018 25.1572C41.6985 25.068 41.6307 24.9447 41.6108 24.8097C41.2533 22.4221 40.3148 20.1588 38.8779 18.2188C38.7967 18.1092 38.7575 17.9741 38.7674 17.838C38.7773 17.702 38.8357 17.574 38.9319 17.4773L40.2586 16.1535L37.8466 13.7415L36.5228 15.0682C36.4261 15.1644 36.2981 15.2228 36.162 15.2327C36.026 15.2426 35.8909 15.2034 35.7813 15.1222C33.8413 13.6853 31.578 12.7468 29.1904 12.3892C29.0554 12.3693 28.9321 12.3016 28.8429 12.1983C28.7537 12.0951 28.7046 11.9632 28.7046 11.8267V9.95459H25.2955V11.8267C25.2955 11.9632 25.2464 12.0951 25.1572 12.1983C25.068 12.3016 24.9447 12.3693 24.8097 12.3892C22.4221 12.7468 20.1588 13.6853 18.2188 15.1222C18.1092 15.2034 17.9741 15.2426 17.838 15.2327C17.702 15.2228 17.574 15.1644 17.4773 15.0682L16.1535 13.7415L13.7415 16.1535L15.0682 17.4773C15.1644 17.574 15.2228 17.702 15.2327 17.838C15.2426 17.9741 15.2034 18.1092 15.1222 18.2188C13.6853 20.1588 12.7468 22.4221 12.3892 24.8097C12.3693 24.9447 12.3016 25.068 12.1983 25.1572C12.0951 25.2464 11.9632 25.2955 11.8267 25.2955H9.95459V28.7046H11.8267C11.9632 28.7046 12.0951 28.7537 12.1983 28.8429C12.3016 28.9321 12.3693 29.0554 12.3892 29.1904C12.7468 31.578 13.6853 33.8413 15.1222 35.7813C15.2034 35.8909 15.2426 36.026 15.2327 36.162C15.2228 36.2981 15.1644 36.4261 15.0682 36.5228L13.7415 37.8466L16.1535 40.2586L17.4773 38.9319C17.5744 38.8363 17.7023 38.7785 17.8381 38.7686C17.974 38.7587 18.1089 38.7974 18.2188 38.8779C20.1588 40.3148 22.4221 41.2533 24.8097 41.6108C24.9447 41.6307 25.068 41.6985 25.1572 41.8018C25.2464 41.905 25.2955 42.0369 25.2955 42.1733V44.0455H28.7046V42.1733C28.7046 42.0369 28.7537 41.905 28.8429 41.8018C28.9321 41.6985 29.0554 41.6307 29.1904 41.6108C31.578 41.2533 33.8413 40.3148 35.7813 38.8779C35.8909 38.7967 36.026 38.7575 36.162 38.7674C36.2981 38.7773 36.4261 38.8357 36.5228 38.9319L37.8466 40.2586L40.2586 37.8466L38.9319 36.5228C38.8357 36.4261 38.7773 36.2981 38.7674 36.162C38.7575 36.026 38.7967 35.8909 38.8779 35.7813C40.3148 33.8413 41.2533 31.578 41.6108 29.1904C41.6307 29.0554 41.6985 28.9321 41.8018 28.8429C41.905 28.7537 42.0369 28.7046 42.1733 28.7046H44.0455V25.2955H42.1733ZM27 38.9319C24.6402 38.9319 22.3333 38.2321 20.3711 36.921C18.4089 35.6099 16.8796 33.7464 15.9765 31.5662C15.0734 29.3859 14.8371 26.9868 15.2975 24.6723C15.7579 22.3577 16.8943 20.2317 18.563 18.563C20.2317 16.8943 22.3577 15.7579 24.6723 15.2975C26.9868 14.8371 29.3859 15.0734 31.5662 15.9765C33.7464 16.8796 35.6099 18.4089 36.921 20.3711C38.2321 22.3333 38.9319 24.6402 38.9319 27C38.9284 30.1635 37.6702 33.1964 35.4333 35.4333C33.1964 37.6702 30.1635 38.9284 27 38.9319Z" fill="#E7BDD5"/>
<path d="M27.0002 15.0684C24.6403 15.0684 22.3334 15.7681 20.3712 17.0792C18.409 18.3903 16.8797 20.2538 15.9766 22.4341C15.0735 24.6143 14.8372 27.0134 15.2976 29.328C15.758 31.6425 16.8944 33.7686 18.5631 35.4372C20.2318 37.1059 22.3579 38.2423 24.6724 38.7027C26.9869 39.1631 29.386 38.9268 31.5663 38.0237C33.7465 37.1206 35.61 35.5913 36.9211 33.6291C38.2322 31.667 38.932 29.3601 38.932 27.0002C38.9285 23.8367 37.6703 20.8038 35.4334 18.5669C33.1965 16.33 30.1636 15.0718 27.0002 15.0684ZM27.0002 37.7956C24.865 37.7956 22.7779 37.1625 21.0026 35.9763C19.2272 34.7901 17.8436 33.104 17.0265 31.1314C16.2094 29.1588 15.9956 26.9882 16.4122 24.8941C16.8287 22.8 17.8569 20.8764 19.3666 19.3666C20.8764 17.8569 22.8 16.8287 24.8941 16.4122C26.9882 15.9956 29.1588 16.2094 31.1314 17.0265C33.104 17.8436 34.7901 19.2272 35.9763 21.0025C37.1625 22.7778 37.7956 24.865 37.7956 27.0002C37.7921 29.8622 36.6536 32.606 34.6298 34.6298C32.606 36.6536 29.8622 37.7921 27.0002 37.7956Z" fill="#61113F"/>
<path d="M37.7955 27C37.7955 29.1352 37.1624 31.2224 35.9761 32.9977C34.7899 34.773 33.1039 36.1567 31.1313 36.9737C29.1587 37.7908 26.9881 38.0046 24.894 37.5881C22.7998 37.1715 20.8763 36.1434 19.3665 34.6336C17.8567 33.1238 16.8286 31.2002 16.412 29.1061C15.9955 27.012 16.2093 24.8414 17.0263 22.8688C17.8434 20.8962 19.2271 19.2102 21.0024 18.024C22.7777 16.8377 24.8649 16.2046 27 16.2046C29.8621 16.2081 32.6059 17.3466 34.6297 19.3704C36.6535 21.3942 37.792 24.138 37.7955 27Z" fill="white"/>
<path d="M31.5453 26.4318H28.9061C28.81 26.1161 28.6377 25.8288 28.4043 25.5955C28.171 25.3621 27.8838 25.1898 27.568 25.0937V19.6136C27.568 19.4629 27.5082 19.3184 27.4016 19.2118C27.2951 19.1053 27.1505 19.0454 26.9998 19.0454C26.8492 19.0454 26.7046 19.1053 26.5981 19.2118C26.4915 19.3184 26.4317 19.4629 26.4317 19.6136V25.0937C26.1016 25.1921 25.8028 25.3746 25.5645 25.6232C25.3261 25.8718 25.1564 26.178 25.072 26.5119C24.9875 26.8458 24.9912 27.1959 25.0827 27.5279C25.1741 27.8599 25.3502 28.1625 25.5938 28.406C25.8373 28.6496 26.1399 28.8257 26.4719 28.9171C26.8039 29.0086 27.154 29.0123 27.4879 28.9278C27.8218 28.8434 28.128 28.6737 28.3766 28.4353C28.6252 28.197 28.8077 27.8982 28.9061 27.5681H31.5453C31.696 27.5681 31.8405 27.5083 31.9471 27.4017C32.0536 27.2952 32.1135 27.1506 32.1135 27C32.1135 26.8493 32.0536 26.7047 31.9471 26.5982C31.8405 26.4916 31.696 26.4318 31.5453 26.4318ZM26.9998 27.8522C26.8313 27.8522 26.6665 27.8022 26.5263 27.7086C26.3862 27.6149 26.277 27.4818 26.2124 27.3261C26.1479 27.1704 26.1311 26.999 26.1639 26.8337C26.1968 26.6684 26.278 26.5165 26.3972 26.3973C26.5164 26.2781 26.6683 26.1969 26.8336 26.1641C26.9989 26.1312 27.1703 26.1481 27.326 26.2126C27.4817 26.2771 27.6148 26.3863 27.7085 26.5265C27.8021 26.6666 27.8521 26.8314 27.8521 27C27.8514 27.2258 27.7614 27.4422 27.6017 27.6019C27.4421 27.7615 27.2257 27.8516 26.9998 27.8522Z" fill="#61113F"/>
<path d="M27.0002 27.8525C27.4709 27.8525 27.8525 27.4709 27.8525 27.0002C27.8525 26.5295 27.4709 26.1479 27.0002 26.1479C26.5295 26.1479 26.1479 26.5295 26.1479 27.0002C26.1479 27.4709 26.5295 27.8525 27.0002 27.8525Z" fill="white"/>
<path opacity="0.25" d="M44.0455 28.1362V28.7044H42.1733C42.0369 28.7045 41.905 28.7535 41.8018 28.8427C41.6985 28.9319 41.6307 29.0552 41.6108 29.1902C41.2533 31.5778 40.3148 33.8411 38.8779 35.7811C38.8639 35.7983 38.8524 35.8175 38.8438 35.8379C38.7871 35.742 38.7602 35.6315 38.7662 35.5203C38.7723 35.4091 38.8111 35.3021 38.8779 35.2129C40.3148 33.2729 41.2533 31.0096 41.6108 28.622C41.6307 28.487 41.6985 28.3637 41.8018 28.2745C41.905 28.1854 42.0369 28.1363 42.1733 28.1362H44.0455ZM15.1563 35.8379C15.1477 35.8175 15.1362 35.7983 15.1222 35.7811C13.6853 33.8411 12.7468 31.5778 12.3892 29.1902C12.3693 29.0552 12.3016 28.9319 12.1983 28.8427C12.0951 28.7535 11.9632 28.7045 11.8267 28.7044H9.95459V28.1362H11.8267C11.9632 28.1363 12.0951 28.1854 12.1983 28.2745C12.3016 28.3637 12.3693 28.487 12.3892 28.622C12.7468 31.0096 13.6853 33.2729 15.1222 35.2129C15.1889 35.3021 15.2278 35.4091 15.2339 35.5203C15.2399 35.6315 15.2129 35.742 15.1563 35.8379ZM25.2955 41.605V42.1732C25.2955 42.0367 25.2464 41.9048 25.1572 41.8016C25.068 41.6983 24.9447 41.6306 24.8097 41.6107C22.4221 41.2531 20.1588 40.3146 18.2188 38.8777C18.1089 38.7973 17.974 38.7585 17.8381 38.7684C17.7023 38.7783 17.5744 38.8362 17.4773 38.9317L16.1535 40.2584L13.7415 37.8465L14.0256 37.5624L16.1535 39.6902L17.4773 38.3635C17.5744 38.268 17.7023 38.2101 17.8381 38.2002C17.974 38.1903 18.1089 38.2291 18.2188 38.3095C20.1588 39.7465 22.4221 40.6849 24.8097 41.0425C24.9447 41.0624 25.068 41.1301 25.1572 41.2334C25.2464 41.3367 25.2955 41.4685 25.2955 41.605ZM25.2955 43.4771H28.7046V44.0453H25.2955V43.4771ZM40.2586 37.8465L37.8466 40.2584L36.5228 38.9317C36.4261 38.8355 36.2981 38.7771 36.162 38.7672C36.026 38.7573 35.8909 38.7965 35.7813 38.8777C33.8413 40.3146 31.578 41.2531 29.1904 41.6107C29.0554 41.6306 28.9321 41.6983 28.8429 41.8016C28.7537 41.9048 28.7046 42.0367 28.7046 42.1732V41.605C28.7046 41.4685 28.7537 41.3367 28.8429 41.2334C28.9321 41.1301 29.0554 41.0624 29.1904 41.0425C31.578 40.6849 33.8413 39.7465 35.7813 38.3095C35.8909 38.2283 36.026 38.1891 36.162 38.199C36.2981 38.209 36.4261 38.2673 36.5228 38.3635L37.8466 39.6902L39.9745 37.5624L40.2586 37.8465Z" fill="#0F423C"/>
<path opacity="0.5" d="M37.7955 27.0001C37.7955 29.8632 36.6581 32.6091 34.6336 34.6336C32.609 36.6582 29.8632 37.7955 27 37.7955C24.1369 37.7955 21.391 36.6582 19.3665 34.6336C17.342 32.6091 16.2046 29.8632 16.2046 27.0001C16.2046 26.9063 16.2046 26.8154 16.2074 26.7217C16.2838 29.5333 17.4543 32.2042 19.47 34.1659C21.4857 36.1276 24.1874 37.2252 27 37.2252C29.8127 37.2252 32.5144 36.1276 34.5301 34.1659C36.5458 32.2042 37.7163 29.5333 37.7927 26.7217C37.7955 26.8154 37.7955 26.9063 37.7955 27.0001Z" fill="#9FA5AA"/>
<path opacity="0.5" d="M37.7955 27C37.7955 27.0938 37.7955 27.1847 37.7927 27.2785C37.7163 24.4668 36.5458 21.7959 34.5301 19.8342C32.5144 17.8725 29.8127 16.7749 27 16.7749C24.1874 16.7749 21.4857 17.8725 19.47 19.8342C17.4543 21.7959 16.2838 24.4668 16.2074 27.2785C16.2046 27.1847 16.2046 27.0938 16.2046 27C16.2046 24.1369 17.342 21.391 19.3665 19.3665C21.391 17.342 24.1369 16.2046 27 16.2046C29.8632 16.2046 32.609 17.342 34.6336 19.3665C36.6581 21.391 37.7955 24.1369 37.7955 27Z" fill="white"/>
<path d="M53.5 7.99999C53.5 9.98911 52.7098 11.8968 51.3033 13.3033C49.8968 14.7098 47.9892 15.5 46 15.5C44.0109 15.5 42.1033 14.7098 40.6968 13.3033C39.2902 11.8968 38.5 9.9891 38.5 7.99999C38.5 6.01088 39.2902 4.10322 40.6968 2.6967C42.1033 1.29017 44.0109 0.5 46 0.5C47.9892 0.5 49.8968 1.29017 51.3033 2.6967C52.7098 4.10322 53.5 6.01087 53.5 7.99999Z" fill="#FF4768" stroke="white"/>
<path d="M48.1673 5.50098L43.501 10.1673M43.501 5.50098L48.1673 10.1673" stroke="white" stroke-width="1.5" stroke-linecap="round" stroke-linejoin="round"/>
</svg>
