<svg width="54" height="54" viewBox="0 0 54 54" fill="none" xmlns="http://www.w3.org/2000/svg">
<g id="bank-locker 4" clip-path="url(#clip0_763_85034)">
<g id="Group">
<path id="Vector" d="M53.5 27C53.5 41.6355 41.6355 53.5 27 53.5C12.3645 53.5 0.5 41.6355 0.5 27C0.5 12.3645 12.3645 0.5 27 0.5C41.6355 0.5 53.5 12.3645 53.5 27Z" fill="white" stroke="#E9E9E9"/>
<g id="transparency124 1">
<g id="Group 1261154824">
<path id="Vector_2" d="M22.7605 31.246L22.0846 30.5635L19.3677 33.2869L20.0436 33.9694L20.7261 34.6519L23.443 31.9285L22.7605 31.246Z" fill="#E7BDD5"/>
<path id="Vector_3" d="M22.078 31.9219L20.0371 33.9628L20.713 34.6453L22.7868 32.5716C22.5505 32.3616 22.3077 32.1516 22.078 31.9219Z" fill="#E7BDD5"/>
</g>
<path id="Vector_4" d="M36.3975 34.304C36.1482 34.4221 35.9053 34.5468 35.656 34.6518C35.9119 34.5403 36.1547 34.4221 36.3975 34.304ZM42.5663 18.6196C42.6779 18.9149 42.7829 19.2037 42.8747 19.5056C42.7829 19.1971 42.6779 18.9084 42.5663 18.6196ZM41.5622 16.5787C41.6869 16.7887 41.8182 16.9921 41.9363 17.2087C41.8182 16.9921 41.6935 16.7887 41.5622 16.5787ZM38.4516 33.0374C38.2482 33.1884 38.0513 33.3459 37.8413 33.4903C38.0447 33.3459 38.2482 33.1884 38.4516 33.0374ZM42.9141 26.5143C43.216 25.4578 43.3866 24.3487 43.3932 23.2003V22.964C43.38 21.8156 43.2094 20.7065 42.9141 19.6499C43.5507 21.8943 43.5507 24.2765 42.9141 26.5143ZM37.4147 33.7462C37.2047 33.8774 36.9947 34.0087 36.7782 34.1203C36.9947 34.0021 37.2047 33.8709 37.4147 33.7462ZM41.3063 30.0187C41.1685 30.2287 41.011 30.4256 40.86 30.629C41.011 30.4256 41.1619 30.2287 41.3063 30.0187ZM41.9363 28.9556C41.8247 29.1721 41.6869 29.3821 41.5622 29.5921C41.6869 29.3821 41.8182 29.1721 41.9363 28.9556ZM38.8257 32.7553C39.4622 32.2303 40.0463 31.6462 40.5713 31.0096C40.3154 31.3246 40.0397 31.6331 39.7444 31.9284C39.4491 32.2237 39.1407 32.4928 38.8257 32.7553ZM42.12 17.5959C42.2382 17.8387 42.3629 18.0815 42.4613 18.3374C42.3563 18.0815 42.2382 17.8387 42.12 17.5959ZM27.3347 35.0587C27.0329 34.9668 26.7375 34.8618 26.4422 34.7437C26.7375 34.8618 27.0329 34.9734 27.3347 35.0587ZM25.051 34.1203C24.8344 34.0021 24.6244 33.8709 24.4079 33.7396C24.6179 33.8709 24.8279 34.0021 25.051 34.1203ZM40.86 15.5418C41.011 15.7387 41.1619 15.9356 41.2997 16.1456C41.1619 15.9421 41.011 15.7453 40.86 15.5418ZM26.1732 34.6453C25.9172 34.5403 25.6744 34.4221 25.425 34.2974C25.6679 34.4221 25.9172 34.5403 26.1732 34.6453ZM39.751 14.249C40.0463 14.5443 40.3154 14.8462 40.5713 15.1612C40.3154 14.8396 40.0397 14.5378 39.751 14.249ZM27.4725 35.0981C28.5685 35.4131 29.7169 35.5903 30.9113 35.5903C32.1057 35.5903 33.2541 35.4131 34.3435 35.0981C32.1057 35.7346 29.7169 35.7346 27.4725 35.0981ZM22.0847 31.9218L39.7444 14.2359C37.5132 11.9981 34.4354 10.6134 31.0294 10.5806H30.7932C23.9485 10.6462 18.4229 16.2112 18.4229 23.0821C18.4229 26.534 19.8207 29.6578 22.0847 31.9218C22.3079 32.1449 22.5507 32.3549 22.7935 32.5649C22.8657 32.624 22.9313 32.6896 23.0035 32.7487C22.6819 32.4928 22.38 32.2171 22.0847 31.9218Z" fill="#61113F"/>
<path id="Vector_5" d="M35.3801 34.7504C35.472 34.7176 35.5638 34.6847 35.6557 34.6454C35.9051 34.5404 36.1545 34.4222 36.3973 34.2976C36.522 34.2385 36.6532 34.1794 36.7779 34.1138C36.9945 33.9957 37.2045 33.8644 37.4145 33.7397C37.5523 33.6544 37.6967 33.5757 37.8345 33.4838C38.0445 33.346 38.2413 33.1885 38.4448 33.031C38.5695 32.9391 38.7007 32.8472 38.8188 32.7488C39.1338 32.4863 39.4423 32.2107 39.7376 31.9154C40.0329 31.6201 40.3085 31.3116 40.5645 30.9966C40.6629 30.8719 40.7548 30.7407 40.8467 30.616C40.9976 30.4126 41.1551 30.2157 41.2929 30.0057C41.3848 29.8679 41.4635 29.7235 41.5488 29.5791C41.6801 29.3691 41.8113 29.1591 41.9229 28.9426C41.9885 28.8179 42.041 28.6866 42.1067 28.5619C42.2248 28.3191 42.3495 28.0697 42.4479 27.8204C42.4873 27.7285 42.5135 27.6301 42.5529 27.5382C42.6645 27.2429 42.776 26.9476 42.8613 26.6522C42.8745 26.6063 42.8876 26.5538 42.9007 26.5013C43.5373 24.2635 43.5373 21.8813 42.9007 19.6369C42.8876 19.5844 42.8745 19.5385 42.8613 19.486C42.776 19.1907 42.6645 18.8954 42.5529 18.6001C42.5201 18.5082 42.4873 18.4097 42.4479 18.3179C42.3429 18.0685 42.2248 17.8257 42.1067 17.5763C42.041 17.4451 41.9885 17.3204 41.9229 17.1891C41.8113 16.9726 41.6801 16.7691 41.5488 16.5591C41.4635 16.4147 41.3782 16.2704 41.2863 16.126C41.1485 15.9226 40.9976 15.7257 40.8467 15.5222C40.7482 15.391 40.6629 15.2597 40.5579 15.1351C40.302 14.8201 40.0263 14.5182 39.7376 14.2229L39.731 14.2163L22.0845 31.9219C22.3798 32.2172 22.6882 32.4929 23.0032 32.7554C23.1213 32.8538 23.2526 32.9391 23.3707 33.031C23.5742 33.1885 23.7776 33.346 23.9876 33.4838C24.1254 33.5757 24.2632 33.6544 24.4076 33.7397C24.6176 33.871 24.8342 34.0022 25.0507 34.1204C25.1754 34.186 25.3001 34.2385 25.4248 34.2976C25.6742 34.4157 25.917 34.5404 26.1729 34.6454C26.2648 34.6847 26.3567 34.711 26.4485 34.7438C26.7438 34.8554 27.0392 34.9669 27.341 35.0588C27.387 35.0719 27.4329 35.0785 27.4788 35.0916C29.7232 35.7282 32.112 35.7347 34.3563 35.0916C34.4023 35.0785 34.4482 35.0719 34.4942 35.0588C34.7895 34.9735 35.0848 34.8619 35.3801 34.7504Z" fill="#61113F"/>
<path id="Vector_6" d="M41.477 23.0822C41.477 28.9294 36.7454 33.6609 30.9113 33.6609C25.0773 33.6609 20.3457 28.9228 20.3457 23.0822C20.3457 17.2415 25.0773 12.5034 30.9113 12.5034C36.752 12.5034 41.477 17.235 41.477 23.0822Z" fill="white"/>
<path id="Vector_7" d="M38.3862 30.5636C42.5074 26.4358 42.5074 19.7223 38.3862 15.6011L23.4434 30.5636C27.558 34.6914 34.2649 34.6914 38.3862 30.5636Z" fill="white"/>
<path id="Vector_8" d="M39.3114 22.4392C39.1604 22.2685 35.5314 18.272 30.9114 18.272C26.2914 18.272 22.6623 22.2685 22.5114 22.4392L21.9404 23.0823L22.5114 23.7254C22.6623 23.896 26.2914 27.8926 30.9114 27.8926C35.5314 27.8926 39.1604 23.896 39.3114 23.7254L39.8823 23.0823L39.3114 22.4392Z" fill="#E7BDD5"/>
<path id="Vector_9" d="M27.0132 26.9871C28.1747 27.5121 29.4938 27.8927 30.9113 27.8927C35.5313 27.8927 39.1604 23.8962 39.3113 23.7255L39.8822 23.0824L39.3113 22.4393C39.2063 22.3212 37.4279 20.3655 34.8094 19.1777L27.0132 26.9871Z" fill="#E7BDD5"/>
<path id="Vector_10" d="M20.7263 33.2867L19.3679 31.9282L10.6069 40.6957L13.3238 43.4192L22.0847 34.6451L20.7263 33.2867Z" fill="#61113F"/>
<path id="Vector_11" d="M11.959 42.0543L20.7199 33.2803L22.0784 34.6387L13.3174 43.4128L11.959 42.0543Z" fill="#61113F"/>
<path id="Vector_12" d="M33.7921 23.0823C33.7921 24.677 32.4993 25.9698 30.9112 25.9698C29.3165 25.9698 28.0303 24.677 28.0303 23.0823C28.0303 21.4876 29.3231 20.1948 30.9112 20.1948C32.5059 20.1948 33.7921 21.4876 33.7921 23.0823Z" fill="#61113F"/>
<path id="Vector_13" d="M28.877 25.1229C29.9991 26.2451 31.8301 26.2451 32.9523 25.1229C34.0745 24.0007 34.0745 22.1698 32.9523 21.041L28.877 25.1229Z" fill="#61113F"/>
<path id="Vector_14" d="M31.8757 23.0824C31.8757 23.6139 31.4426 24.0471 30.9176 24.0471C30.386 24.0471 29.9595 23.6139 29.9595 23.0824C29.9595 22.5508 30.3926 22.1177 30.9176 22.1177C31.4426 22.1177 31.8757 22.5508 31.8757 23.0824Z" fill="white"/>
<path id="Vector_15" d="M30.911 24.0471C31.4426 24.0471 31.8691 23.614 31.8691 23.0824C31.8691 22.8199 31.7641 22.5771 31.587 22.3999L30.2285 23.7583C30.4057 23.9355 30.6485 24.0471 30.911 24.0471Z" fill="white"/>
</g>
</g>
<g id="Group_2">
<path id="Vector_16" d="M53.7847 8.28466C53.7847 10.2738 52.9945 12.1814 51.588 13.588C50.1815 14.9945 48.2738 15.7846 46.2847 15.7846C44.2956 15.7846 42.388 14.9945 40.9814 13.588C39.5749 12.1814 38.7847 10.2738 38.7847 8.28466C38.7847 6.29555 39.5749 4.38789 40.9814 2.98136C42.388 1.57484 44.2956 0.784668 46.2847 0.784668C48.2738 0.784668 50.1815 1.57484 51.588 2.98136C52.9945 4.38788 53.7847 6.29554 53.7847 8.28466Z" fill="#07BA64" stroke="white"/>
<path id="Vector_17" d="M49.3777 6.79771L45.3778 10.1313C45.2499 10.2383 45.0866 10.2935 44.92 10.286C44.7535 10.2786 44.5958 10.209 44.478 10.0909L43.1446 8.75752C43.0204 8.6317 42.9511 8.46188 42.9517 8.28512C42.9523 8.10836 43.0228 7.939 43.1477 7.81401C43.2727 7.68902 43.442 7.61855 43.6188 7.61796C43.7956 7.61737 43.9654 7.68672 44.0912 7.81088L44.9912 8.71746L48.5246 5.77094C48.5918 5.71302 48.6698 5.66906 48.7541 5.64162C48.8385 5.61419 48.9274 5.60384 49.0158 5.61117C49.1042 5.61851 49.1902 5.64339 49.2689 5.68435C49.3475 5.72531 49.4173 5.78153 49.4739 5.84973C49.5306 5.91793 49.5732 5.99675 49.599 6.08158C49.6249 6.1664 49.6336 6.25554 49.6247 6.34377C49.6157 6.432 49.5893 6.51757 49.5469 6.59546C49.5045 6.67336 49.447 6.74228 49.3777 6.79771Z" fill="white"/>
</g>
</g>
<defs>
<clipPath id="clip0_763_85034">
<rect width="54" height="54" fill="white"/>
</clipPath>
</defs>
</svg>
