<svg width="628" height="438" viewBox="0 0 628 438" fill="none" xmlns="http://www.w3.org/2000/svg">
<g id="blockchain 1">
<g id="Group">
<path id="Vector" d="M453.451 410H205.549C161.881 377.286 134 327.525 134 271.773C134 173.018 221.505 93 329.5 93C437.495 93 525 173.018 525 271.773C525 327.371 497.119 377.133 453.451 410Z" fill="#F4F4FF"/>
<path id="Vector_2" d="M263.457 182.685C263.609 182.685 263.76 182.685 263.911 182.546L292.814 162.032C293.117 161.755 293.268 161.339 292.966 161.062C292.663 160.785 292.209 160.646 291.906 160.923L263.003 181.437C262.701 181.714 262.549 182.13 262.852 182.407C263.003 182.546 263.306 182.685 263.457 182.685ZM187.795 225.93C187.946 225.93 188.097 225.93 188.249 225.792L221.389 205C221.692 204.723 221.843 204.307 221.54 204.03C221.238 203.753 220.784 203.614 220.481 203.892L187.341 224.683C187.038 224.96 186.887 225.376 187.189 225.653C187.341 225.792 187.492 225.93 187.795 225.93ZM221.54 184.625C221.692 184.625 221.994 184.487 222.146 184.348C222.448 184.071 222.297 183.655 221.994 183.378L187.795 159.121C187.492 158.844 187.038 158.983 186.735 159.26C186.433 159.537 186.584 159.953 186.887 160.23L220.935 184.487C221.086 184.625 221.238 184.625 221.54 184.625ZM293.571 225.376C293.874 225.376 294.025 225.237 294.176 225.099C294.479 224.821 294.328 224.405 294.025 224.128L262.701 204.446C262.398 204.169 261.944 204.307 261.641 204.585C261.339 204.862 261.49 205.278 261.793 205.555L293.117 225.237C293.268 225.237 293.42 225.376 293.571 225.376Z" fill="#6075C6"/>
<path id="Vector_3" d="M241.212 275.552C241.364 275.552 241.515 275.552 241.666 275.413L330.192 228.702C330.494 228.564 330.646 228.287 330.646 228.148V157.597C330.646 157.319 330.494 157.181 330.192 157.042L241.515 110.193C241.213 110.054 241.061 110.054 240.759 110.193L152.082 157.042C151.779 157.181 151.628 157.458 151.628 157.597V228.148C151.628 228.425 151.779 228.564 152.082 228.702L240.759 275.552H241.212ZM328.981 227.593L241.061 274.027L153.141 227.593V157.735L241.061 111.302L328.981 157.735V227.593Z" fill="#6075C6"/>
<path id="Vector_4" d="M314.757 144.845V170.764L338.817 162.725V136.667L314.757 144.845Z" fill="#D0DBF7"/>
<path id="Vector_5" d="M314.757 144.845V170.764L290.696 162.725V136.667L314.757 144.845Z" fill="#AEB9E1"/>
<path id="Vector_6" d="M290.696 136.667L314.757 144.845L338.817 136.667L314.757 128.627L290.696 136.667Z" fill="#DD80B5"/>
<path id="Vector_7" d="M167.517 144.845V170.764L191.729 162.725V136.667L167.517 144.845Z" fill="white"/>
<path id="Vector_8" d="M167.517 144.845V170.764L143.456 162.725V136.667L167.517 144.845Z" fill="#AEB9E1"/>
<path id="Vector_9" d="M143.456 136.667L167.517 144.845L191.729 136.667L167.517 128.627L143.456 136.667Z" fill="#DD80B5"/>
<path id="Vector_10" d="M314.757 230.781V256.84L338.817 248.8V222.742L314.757 230.781Z" fill="#D0DBF7"/>
<path id="Vector_11" d="M314.757 230.781V256.84L290.696 248.8V222.742L314.757 230.781Z" fill="#AEB9E1"/>
<path id="Vector_12" d="M290.696 222.742L314.757 230.782L338.817 222.742L314.757 214.703L290.696 222.742Z" fill="#DD80B5"/>
<path id="Vector_13" d="M167.517 230.781V256.84L191.729 248.8V222.742L167.517 230.781Z" fill="white"/>
<path id="Vector_14" d="M167.517 230.781V256.84L143.456 248.8V222.742L167.517 230.781Z" fill="#AEB9E1"/>
<path id="Vector_15" d="M143.456 222.742L167.517 230.782L191.729 222.742L167.517 214.703L143.456 222.742Z" fill="#DD80B5"/>
<path id="Vector_16" d="M241.212 105.619V131.677L265.273 123.638V97.5796L241.212 105.619Z" fill="white"/>
<path id="Vector_17" d="M241.213 105.619V131.677L217.152 123.638V97.5796L241.213 105.619Z" fill="#AEB9E1"/>
<path id="Vector_18" d="M217.152 97.5793L241.212 105.619L265.273 97.5793L241.212 89.54L217.152 97.5793Z" fill="#DD80B5"/>
<path id="Vector_19" d="M241.212 188.922V214.842L265.273 206.802V180.744L241.212 188.922Z" fill="#D0DBF7"/>
<path id="Vector_20" d="M241.213 188.922V214.842L217.152 206.802V180.744L241.213 188.922Z" fill="#AEB9E1"/>
<path id="Vector_21" d="M217.152 180.744L241.212 188.922L265.273 180.744L241.212 172.705L217.152 180.744Z" fill="#DD80B5"/>
<path id="Vector_22" d="M241.212 270.284V296.343L265.273 288.165V262.245L241.212 270.284Z" fill="#D0DBF7"/>
<path id="Vector_23" d="M241.213 270.284V296.343L217.152 288.165V262.245L241.213 270.284Z" fill="#AEB9E1"/>
<path id="Vector_24" d="M217.152 262.245L241.212 270.284L265.273 262.245L241.212 254.067L217.152 262.245Z" fill="#95AAE5"/>
<path id="Vector_25" d="M134.68 394.2C134.68 396.002 136.344 397.526 138.311 397.526H521.316C523.283 397.526 524.948 396.002 524.948 394.2C524.948 392.398 523.283 390.873 521.316 390.873H138.16C136.193 390.873 134.68 392.398 134.68 394.2Z" fill="#C8CBE3"/>
<path id="Vector_26" d="M400.104 378.399L394.354 230.781C394.202 226.623 397.683 223.019 402.374 222.881C406.914 222.742 410.848 225.93 411 230.227L416.75 377.844C416.901 382.002 413.421 385.606 408.73 385.745C404.19 385.883 400.255 382.557 400.104 378.399Z" fill="#FEC6B9"/>
<path id="Vector_27" d="M408.124 385.606C403.887 385.467 400.407 382.279 400.256 378.26L398.742 338.063L398.591 335.43L398.44 331.688L398.288 329.054L398.137 325.45L414.783 326.143L414.934 329.747L415.085 332.381L415.237 336.123L415.388 338.757L416.901 377.844C416.901 382.279 412.967 385.883 408.124 385.606Z" fill="white"/>
<path id="Vector_28" d="M381.491 388.24C381.945 389.487 383.156 390.18 384.518 390.18L414.177 389.21C415.842 389.21 417.204 387.824 417.204 386.299L416.599 371.607L405.703 372.161C402.071 366.062 397.532 370.221 396.17 371.052C392.84 373.131 390.419 376.458 384.518 380.755C380.734 383.25 380.886 386.299 381.491 388.24ZM414.934 332.381L398.288 331.688V329.054L414.783 329.747L414.934 332.381ZM415.085 338.757L398.591 338.202L398.44 335.569L415.085 336.123V338.757Z" fill="#BF3C4F"/>
<path id="Vector_29" d="M502.703 360.934C498.768 363.983 493.775 363.152 491.051 360.241L427.04 294.264C425.376 292.601 424.316 290.66 424.014 288.442L407.671 201.951C406.914 197.793 409.94 193.912 414.48 193.219C414.631 193.219 414.934 193.219 415.085 193.08C419.323 192.665 423.257 195.437 424.014 199.318L440.205 284.839L503.611 350.123C506.486 353.449 506.183 358.162 502.703 360.934Z" fill="#FEC6B9"/>
<path id="Vector_30" d="M502.249 361.35C498.92 363.706 493.926 363.29 491.051 360.379C490.899 360.241 493.774 363.29 452.765 320.876L465.931 311.728C497.255 344.024 503.157 350.122 503.459 350.4C506.637 353.588 506.183 358.577 502.249 361.35Z" fill="white"/>
<path id="Vector_31" d="M483.636 378.814C484.846 379.507 486.36 379.369 487.419 378.537L509.512 360.518C510.723 359.409 510.874 357.746 509.815 356.499L499.071 345.549L491.051 352.34C483.938 349.845 483.333 355.667 482.879 357.053C481.82 360.518 482.274 364.538 480.609 371.33C479.55 375.488 481.82 377.705 483.636 378.814ZM470.47 316.302L457.305 325.45L455.338 323.51L468.503 314.362L470.47 316.302ZM475.162 321.015L461.845 330.302L460.029 328.223L473.194 319.074L475.162 321.015Z" fill="#BF3C4F"/>
<path id="Vector_32" d="M471.378 203.337C458.97 203.337 448.074 186.427 443.081 176.031C441.416 172.705 443.081 168.685 446.712 167.299C450.344 165.774 454.733 167.299 456.246 170.625C460.786 179.912 468.201 189.476 471.53 190.031C475.313 189.476 486.057 179.635 494.077 169.101C496.347 166.051 500.887 165.358 504.216 167.438C507.545 169.517 508.302 173.675 506.032 176.724C499.828 184.763 484.392 203.337 471.378 203.337Z" fill="#FEC6B9"/>
<path id="Vector_33" d="M457.457 172.566L443.989 177.694L434.152 240.068H383.004L380.281 176.724H366.359C366.359 176.724 368.023 162.309 374.833 156.626C382.399 150.25 393.9 146.231 404.039 144.151C411 142.488 418.566 143.736 423.862 144.013C425.981 144.29 430.067 144.844 432.185 145.538C450.798 152.052 451.858 162.725 457.457 172.566Z" fill="#D9B4F6"/>
<path id="Vector_34" d="M366.51 176.725H382.248C382.248 185.734 380.432 210.406 359.246 224.267L350.016 212.485C365.148 202.506 366.51 183.239 366.51 176.725ZM342.601 240.761V238.128H358.338C358.338 239.514 358.338 239.93 358.187 241.316C358.036 245.197 354.555 248.246 350.318 248.246C346.081 248.385 342.449 244.92 342.601 240.761Z" fill="#FEC6B9"/>
<path id="Vector_35" d="M425.981 240.068H372.109L368.175 232.167H425.981C427.645 232.167 429.159 233.138 429.915 234.524C431.277 237.157 429.159 240.068 425.981 240.068Z" fill="#3C3F58"/>
<path id="Vector_36" d="M404.039 240.068H372.109L368.175 232.167H406.157L407.519 234.94C408.881 237.435 406.914 240.068 404.039 240.068Z" fill="#222434"/>
<path id="Vector_37" d="M299.473 187.12L322.474 237.85C323.08 239.236 324.593 240.068 326.106 240.068H399.65C402.525 240.068 404.493 237.296 403.282 234.939L380.281 188.09C379.675 186.843 378.313 186.011 376.951 185.872L303.407 181.991C300.381 181.853 298.262 184.625 299.473 187.12Z" fill="#4C5070"/>
<path id="Vector_38" d="M344.416 213.04C345.324 215.812 348.502 218.168 351.529 218.168C354.555 218.168 356.371 215.95 355.463 213.04C354.555 210.267 351.377 207.911 348.351 207.911C345.324 208.05 343.509 210.267 344.416 213.04Z" fill="#D9B4F6"/>
<path id="Vector_39" d="M347.443 213.039C347.897 214.426 349.41 215.396 350.772 215.396C352.285 215.396 353.042 214.287 352.588 213.039C352.134 211.653 350.621 210.683 349.259 210.683C347.746 210.683 346.989 211.792 347.443 213.039Z" fill="white"/>
<path id="Vector_40" d="M358.338 240.9C358.338 242.286 357.128 243.395 355.614 243.395H345.173C343.66 243.395 342.449 242.286 342.449 240.9V240.207C342.6 236.049 346.686 232.722 351.377 233.276C355.614 233.692 358.49 237.157 358.338 240.9Z" fill="#FEC6B9"/>
<path id="Vector_41" d="M421.744 143.875C420.684 148.864 416.75 154.825 411.151 154.825C406.006 154.825 402.525 149.28 401.466 144.706C407.368 143.32 410.394 142.766 421.744 143.875Z" fill="white"/>
<path id="Vector_42" d="M407.519 148.587C408.578 150.112 409.94 151.359 411.605 151.082C413.875 150.666 415.388 148.726 416.447 146.924C417.809 144.706 418.263 142.073 418.263 139.578V139.162L417.809 133.34L404.795 135.004L405.098 137.914C405.098 140.548 404.644 144.568 407.519 148.587Z" fill="#FEC6B9"/>
<path id="Vector_43" d="M407.519 148.587C408.73 150.25 410.394 151.636 412.361 150.805C410.546 149.696 408.578 147.34 408.124 145.676C407.519 143.736 408.427 141.241 410.394 140.409C411.605 139.855 413.118 139.993 414.48 140.132C415.691 140.132 417.204 140.132 418.263 139.439V139.023L417.809 133.202L404.795 134.865L405.098 137.776C405.098 140.548 404.644 144.567 407.519 148.587Z" fill="#F4B8AB"/>
<path id="Vector_44" d="M445.048 100.906C445.048 100.906 456.548 111.579 463.963 105.341C471.378 99.1041 469.108 83.0256 456.851 75.6794C450.647 71.937 446.107 72.0756 443.08 73.0459C440.357 73.8775 438.389 76.2338 437.633 78.7288C437.027 81.3623 436.725 85.3819 439.146 89.2629C443.232 96.0547 445.048 100.906 445.048 100.906Z" fill="#191919"/>
<path id="Vector_45" d="M432.034 88.8473C432.034 88.8473 429.31 81.0853 437.33 84.1347C445.502 87.3226 447.772 99.7973 445.653 103.678C443.535 107.559 437.936 102.015 437.936 102.015L432.034 88.8473Z" fill="#FF6464"/>
<path id="Vector_46" d="M400.104 106.866C400.104 106.866 402.071 106.589 398.44 107.282C391.327 108.807 375.892 87.7386 399.196 83.719C399.196 83.719 406.46 83.3032 409.638 85.6595C412.967 88.1544 412.21 82.7487 420.079 83.1645C427.948 83.5804 439.146 90.788 440.357 104.649C441.567 118.509 428.402 130.153 419.928 130.707C411.453 131.261 409.032 114.49 403.736 110.747C398.44 106.728 400.104 106.866 400.104 106.866Z" fill="#191919"/>
<path id="Vector_47" d="M424.619 102.569C416.296 104.926 409.335 101.322 401.617 103.401C398.591 104.233 396.321 106.312 395.413 109.084C394.505 112.133 394.051 115.46 394.202 118.786C394.808 130.568 401.92 138.469 411.151 136.805C415.539 135.974 419.625 133.202 422.652 129.182C423.862 127.519 424.922 125.717 425.829 123.638C427.797 123.776 429.613 122.113 429.764 119.618C429.915 117.262 428.553 115.044 426.435 114.905C425.073 114.767 424.77 116.014 423.862 116.43C423.106 116.846 422.198 116.291 422.198 115.598C422.5 112.133 426.737 106.035 424.619 102.569Z" fill="#FEC6B9"/>
<path id="Vector_48" d="M413.572 125.994C413.269 126.964 412.664 128.489 411.756 129.737C410.545 131.4 408.578 132.786 405.854 132.647C404.19 132.647 402.979 132.093 402.071 131.4C400.255 130.014 400.255 127.658 400.255 126.687C400.255 126.41 400.558 126.133 400.861 126.133C402.374 126.271 407.065 126.687 412.967 125.163C413.269 125.301 413.723 125.717 413.572 125.994Z" fill="white"/>
<path id="Vector_49" d="M411.908 115.044C411.908 115.876 412.664 116.569 413.421 116.569C414.329 116.569 415.085 116.014 415.085 115.183C415.085 114.351 414.329 113.658 413.572 113.658C412.664 113.519 411.908 114.212 411.908 115.044ZM399.348 116.153C399.348 116.984 400.104 117.678 400.861 117.678C401.769 117.678 402.525 117.123 402.525 116.291C402.525 115.46 401.769 114.767 401.012 114.767C400.104 114.767 399.348 115.321 399.348 116.153Z" fill="#191919"/>
<path id="Vector_50" d="M438.087 274.304H421.29L419.02 262.522C418.717 260.998 417.355 259.889 415.539 259.889C413.572 259.889 412.059 261.414 412.059 263.215L412.513 274.443H396.018L394.656 240.345H431.58L438.087 274.304Z" fill="#BF3C4F"/>
<path id="Vector_51" d="M469.26 82.4715C455.489 70.1354 447.015 74.7095 446.712 74.8481C445.956 75.2639 444.896 75.1253 444.442 74.4323C443.988 73.7392 441.719 73.6006 442.475 73.1848C442.929 72.9076 455.792 66.2544 471.53 80.3924C472.135 80.9468 472.135 81.9171 471.53 82.4715C470.924 83.0259 469.865 83.0259 469.26 82.4715Z" fill="#191919"/>
<path id="Vector_52" d="M369.99 79.2833V97.7181C369.99 98.5497 369.234 99.1042 368.477 99.1042H348.351C336.396 99.1042 326.711 90.2333 326.711 79.2833C326.711 68.3333 336.396 59.4624 348.351 59.4624C360.306 59.4624 369.99 68.3333 369.99 79.2833Z" fill="white"/>
<path id="Vector_53" d="M362.122 78.313V80.2535C362.122 80.6693 361.819 81.0851 361.365 81.0851L358.944 81.5009C358.641 82.4712 358.187 83.4414 357.582 84.4117L358.944 86.3522C359.246 86.768 359.095 87.1838 358.792 87.4611L357.279 88.8471C356.977 89.1244 356.371 89.263 356.069 88.9857L353.95 87.7383C353.042 88.2927 351.983 88.7085 350.772 88.9857L350.318 91.2035C350.167 91.6193 349.864 91.8965 349.41 91.8965H347.292C346.838 91.8965 346.384 91.6193 346.384 91.2035L345.93 88.9857C344.871 88.7085 343.811 88.2927 342.752 87.7383L340.633 88.9857C340.179 89.263 339.725 89.1244 339.423 88.8471L337.91 87.4611C337.607 87.1838 337.607 86.6294 337.758 86.3522L339.12 84.4117C338.515 83.5801 338.061 82.6098 337.758 81.5009L335.337 81.0851C334.883 80.9465 334.58 80.6693 334.58 80.2535V78.313C334.58 77.8971 334.883 77.4813 335.337 77.4813L337.758 77.0655C338.061 76.0952 338.515 75.125 339.12 74.1547L337.758 72.2142C337.456 71.7984 337.607 71.3826 337.91 71.1054L339.423 69.7193C339.725 69.4421 340.331 69.3035 340.633 69.5807L342.752 70.8281C343.66 70.2737 344.719 69.8579 345.93 69.5807L346.384 67.363C346.535 66.9471 346.838 66.6699 347.292 66.6699H349.41C349.864 66.6699 350.318 66.9471 350.318 67.363L350.772 69.5807C351.831 69.8579 352.891 70.2737 353.95 70.8281L356.069 69.5807C356.523 69.3035 356.977 69.4421 357.279 69.7193L358.792 71.1054C359.095 71.3826 359.095 71.937 358.944 72.2142L357.582 74.1547C358.187 74.9864 358.641 75.9566 358.944 77.0655L361.365 77.4813C361.819 77.6199 362.122 77.8971 362.122 78.313ZM353.042 79.2832C353.042 76.9269 350.924 74.9864 348.351 74.9864C345.778 74.9864 343.66 76.9269 343.66 79.2832C343.66 81.6395 345.778 83.58 348.351 83.58C351.075 83.58 353.042 81.6395 353.042 79.2832Z" fill="#61113F"/>
<path id="Vector_54" d="M209.283 390.873H198.236C195.815 387.408 193.394 383.111 191.275 378.121C190.367 376.181 189.762 374.24 189.005 372.439C190.367 372.023 191.275 370.914 191.275 369.528C191.275 367.865 189.762 366.478 187.946 366.478C187.643 366.478 187.492 366.478 187.189 366.617C185.374 359.409 185.525 354.142 187.795 353.311C191.275 352.063 198.539 361.073 203.987 373.409C207.013 380.062 208.829 386.299 209.283 390.873Z" fill="#2DC168"/>
<path id="Vector_55" d="M213.823 368.973C213.823 377.428 213.066 385.19 211.856 390.873H201.868C200.657 385.19 199.901 377.428 199.901 368.973C199.901 365.508 200.052 362.043 200.203 358.993C201.868 358.855 203.079 357.607 203.079 355.944C203.079 354.558 202.019 353.449 200.657 353.033C201.868 343.608 204.138 337.232 206.559 337.232C208.375 337.232 209.888 340.281 211.099 345.133C209.888 345.548 208.98 346.657 208.98 347.905C208.98 349.568 210.494 350.954 212.158 350.954C213.369 356.083 213.823 362.32 213.823 368.973Z" fill="#0E9D4B"/>
<path id="Vector_56" d="M225.323 370.498H225.021C223.205 370.498 221.692 371.884 221.692 373.547C221.692 374.656 222.297 375.627 223.356 376.181L222.448 378.26C220.33 383.25 217.908 387.547 215.487 391.012H204.592C205.046 386.438 206.862 380.201 209.737 373.686C215.033 361.211 222.297 352.202 225.929 353.588C228.501 354.281 228.199 361.489 225.323 370.498Z" fill="#2DC168"/>
<path id="Vector_57" d="M189.611 282.759C193.242 282.759 196.269 285.531 196.269 288.858C196.269 292.185 193.242 294.957 189.611 294.957C185.979 294.957 182.952 292.185 182.952 288.858C182.952 285.531 185.979 282.759 189.611 282.759ZM189.611 292.323C191.729 292.323 193.394 290.798 193.394 288.858C193.394 286.917 191.729 285.393 189.611 285.393C187.492 285.393 185.827 286.917 185.827 288.858C185.676 290.798 187.492 292.323 189.611 292.323ZM479.096 251.018C482.728 251.018 485.754 253.79 485.754 257.117C485.754 260.443 482.728 263.216 479.096 263.216C475.464 263.216 472.438 260.443 472.438 257.117C472.438 253.79 475.464 251.018 479.096 251.018ZM479.096 260.721C481.214 260.721 482.879 259.196 482.879 257.255C482.879 255.315 481.214 253.79 479.096 253.79C476.977 253.79 475.313 255.315 475.313 257.255C475.313 259.057 476.977 260.721 479.096 260.721ZM312.335 298.976C312.789 298.699 313.395 298.976 313.697 299.392C314.605 301.194 317.026 302.026 319.145 301.055C319.599 300.778 320.204 301.055 320.507 301.471C320.81 301.887 320.507 302.442 320.053 302.719C318.086 303.689 317.178 305.907 318.086 307.709C318.388 308.124 318.086 308.679 317.632 308.956C317.178 309.233 316.572 308.956 316.27 308.54C315.362 306.738 312.941 305.907 310.822 306.877C310.368 307.154 309.763 306.877 309.46 306.461C309.158 306.045 309.46 305.491 309.914 305.214C311.881 304.243 312.789 302.026 311.881 300.224C311.579 299.669 311.881 299.115 312.335 298.976ZM298.565 92.3124C299.17 92.451 299.321 93.0055 299.17 93.4213C298.413 95.3618 299.624 97.4409 301.743 97.9953C302.348 98.1339 302.499 98.6884 302.348 99.1042C302.197 99.52 301.591 99.7972 300.986 99.6586C298.867 99.1042 296.446 100.074 295.69 102.015C295.538 102.431 294.933 102.708 294.328 102.569C293.722 102.431 293.571 101.876 293.722 101.461C294.479 99.52 293.268 97.4409 291.15 96.8865C290.545 96.7479 290.393 96.1934 290.545 95.7776C290.696 95.3618 291.301 95.0846 291.906 95.2232C294.025 95.7776 296.446 94.8074 297.203 92.8669C297.505 92.451 297.959 92.1738 298.565 92.3124ZM472.438 139.578C473.043 139.716 473.194 140.271 473.043 140.686C472.286 142.627 473.497 144.706 475.615 145.261C476.221 145.399 476.372 145.954 476.221 146.369C476.069 146.785 475.464 147.062 474.859 146.924C472.74 146.369 470.319 147.34 469.562 149.28C469.411 149.696 468.806 149.973 468.2 149.835C467.595 149.696 467.444 149.142 467.595 148.726C468.352 146.785 467.141 144.706 465.023 144.152C464.417 144.013 464.266 143.459 464.417 143.043C464.569 142.627 465.174 142.35 465.779 142.488C467.898 143.043 470.319 142.073 471.076 140.132C471.378 139.716 471.984 139.439 472.438 139.578Z" fill="#D9B4F6"/>
<path id="Vector_58" d="M225.172 159.537C225.172 161.616 226.988 163.28 229.258 163.28C231.528 163.28 233.344 161.616 233.344 159.537C233.344 157.458 231.528 155.795 229.258 155.795C226.988 155.934 225.172 157.597 225.172 159.537Z" fill="white"/>
</g>
<g id="Group 1261154827">
<path id="Vector_59" d="M98.698 241.654L82.2036 353.649C80.993 361.827 87.9539 370.837 96.7308 372.5L246.543 400.776C254.26 402.162 260.313 398.697 261.221 392.182L278.321 275.613C279.532 267.435 271.209 258.426 260.919 256.763L111.863 233.199C105.205 232.09 99.606 235.694 98.698 241.654Z" fill="white"/>
<path id="Vector_60" d="M240.641 383.45C240.944 383.45 241.247 383.173 241.398 382.896C241.549 382.48 241.247 382.203 240.793 382.064L236.253 381.233C235.799 381.094 235.496 381.371 235.345 381.787C235.194 382.203 235.496 382.48 235.95 382.619L240.49 383.45H240.641ZM230.2 381.51C230.502 381.51 230.805 381.233 230.956 380.955C231.108 380.539 230.805 380.262 230.351 380.124L225.811 379.292C225.357 379.153 225.055 379.431 224.903 379.846C224.752 380.262 225.055 380.539 225.509 380.678L230.048 381.51H230.2ZM244.727 381.233C245.03 381.233 245.484 380.955 245.484 380.678L246.089 376.52C246.089 376.104 245.786 375.827 245.484 375.688C245.03 375.688 244.727 375.965 244.576 376.243L243.97 380.401C243.97 380.955 244.273 381.233 244.727 381.233ZM219.607 379.431C219.91 379.431 220.212 379.153 220.364 378.876C220.515 378.46 220.212 378.183 219.758 378.045L215.219 377.213C214.765 377.074 214.462 377.351 214.311 377.767C214.159 378.183 214.462 378.46 214.916 378.599L219.456 379.431H219.607ZM209.166 377.49C209.468 377.49 209.771 377.213 209.922 376.936C210.074 376.52 209.771 376.243 209.317 376.104L204.777 375.272C204.323 375.134 204.021 375.411 203.869 375.827C203.718 376.243 204.021 376.52 204.474 376.658L209.014 377.49H209.166ZM198.724 375.55C199.027 375.55 199.329 375.272 199.481 374.995C199.632 374.579 199.329 374.302 198.875 374.164L194.336 373.332C193.882 373.193 193.579 373.47 193.428 373.886C193.276 374.302 193.579 374.579 194.033 374.718L198.573 375.55H198.724ZM188.131 373.47C188.434 373.47 188.737 373.193 188.888 372.916C189.039 372.5 188.737 372.223 188.283 372.084L183.743 371.253C183.289 371.114 182.986 371.391 182.835 371.807C182.684 372.223 182.986 372.5 183.44 372.639L187.98 373.47H188.131ZM246.089 371.53C246.392 371.53 246.846 371.253 246.846 370.976L247.451 366.817C247.451 366.401 247.148 366.124 246.846 365.986C246.392 365.986 246.089 366.263 245.938 366.54L245.332 370.698C245.332 371.114 245.635 371.53 246.089 371.53ZM177.69 371.53C177.993 371.53 178.295 371.253 178.447 370.976C178.598 370.56 178.295 370.283 177.841 370.144L173.301 369.312C172.847 369.174 172.545 369.451 172.394 369.867C172.242 370.283 172.545 370.56 172.999 370.698L177.539 371.53H177.69ZM167.248 369.589C167.551 369.589 167.854 369.312 168.005 369.035C168.156 368.619 167.854 368.342 167.4 368.203L162.86 367.372C162.406 367.233 162.103 367.51 161.952 367.926C161.801 368.342 162.103 368.619 162.557 368.758L167.097 369.589H167.248ZM156.807 367.649C157.11 367.649 157.412 367.372 157.564 367.095C157.715 366.679 157.412 366.401 156.958 366.263L152.419 365.431C151.965 365.293 151.662 365.57 151.511 365.986C151.359 366.402 151.662 366.679 152.116 366.817L156.656 367.649H156.807ZM146.214 365.57C146.517 365.57 146.82 365.293 146.971 365.015C147.122 364.6 146.82 364.322 146.366 364.184L141.826 363.352C141.372 363.214 141.069 363.491 140.918 363.907C140.767 364.322 141.069 364.6 141.523 364.738L146.063 365.57H146.214ZM135.773 363.629C136.075 363.629 136.378 363.352 136.529 363.075C136.681 362.659 136.378 362.382 135.924 362.243L131.384 361.412C130.93 361.273 130.628 361.55 130.476 361.966C130.325 362.382 130.628 362.659 131.082 362.798L135.621 363.629H135.773ZM247.602 361.827C247.905 361.827 248.359 361.55 248.359 361.273L248.964 357.115C248.964 356.699 248.661 356.422 248.359 356.283C247.905 356.283 247.602 356.56 247.451 356.838L246.846 360.996C246.694 361.412 246.997 361.827 247.602 361.827C247.451 361.827 247.451 361.827 247.602 361.827ZM125.331 361.689C125.634 361.689 125.937 361.412 126.088 361.134C126.239 360.719 125.937 360.441 125.483 360.303L120.943 359.471C120.489 359.333 120.186 359.61 120.035 360.026C119.884 360.441 120.186 360.719 120.64 360.857L125.18 361.689H125.331ZM114.739 359.61C115.041 359.61 115.344 359.333 115.495 359.055C115.647 358.639 115.344 358.362 114.89 358.224L110.35 357.392C109.896 357.253 109.594 357.531 109.442 357.946C109.291 358.362 109.594 358.639 110.047 358.778L114.587 359.61H114.739ZM104.297 357.669C104.6 357.669 104.902 357.392 105.054 357.115C105.205 356.699 104.902 356.422 104.448 356.283L101.422 355.729C101.271 355.59 101.119 355.313 101.119 355.174C100.968 354.897 100.817 354.758 100.514 354.758C100.06 354.758 99.7574 355.036 99.606 355.313V355.59C99.7574 356.006 100.06 356.422 100.514 356.838C100.665 356.976 100.817 356.976 100.817 356.976L104.146 357.531C104.146 357.669 104.297 357.669 104.297 357.669ZM248.964 352.125C249.267 352.125 249.721 351.848 249.721 351.57L250.326 347.412C250.326 346.996 250.023 346.719 249.721 346.581C249.267 346.581 248.964 346.858 248.813 347.135L248.208 351.293C248.208 351.709 248.51 352.125 248.964 352.125ZM101.119 350.6C101.422 350.6 101.876 350.323 101.876 350.046L102.481 345.888C102.481 345.472 102.179 345.195 101.876 345.056C101.422 345.056 101.119 345.333 100.968 345.61L100.363 349.769C100.363 350.184 100.665 350.462 101.119 350.6ZM250.326 342.422C250.629 342.422 251.083 342.145 251.083 341.868L251.688 337.71C251.688 337.294 251.385 337.017 251.083 336.878C250.629 336.878 250.326 337.155 250.175 337.433L249.569 341.591C249.569 342.007 249.872 342.422 250.326 342.422ZM102.633 340.898C102.935 340.898 103.389 340.62 103.389 340.343L103.994 336.185C103.994 335.769 103.692 335.492 103.389 335.353C102.935 335.353 102.633 335.631 102.481 335.908L101.876 340.066C101.725 340.482 102.027 340.759 102.633 340.898C102.481 340.898 102.481 340.898 102.633 340.898ZM251.839 332.72C252.142 332.72 252.596 332.443 252.596 332.165L253.201 328.007C253.201 327.591 252.899 327.314 252.596 327.176C252.142 327.176 251.839 327.453 251.688 327.73L251.083 331.888C251.083 332.304 251.234 332.581 251.839 332.72ZM103.994 331.057C104.297 331.057 104.751 330.779 104.751 330.502L105.356 326.344C105.356 325.928 105.054 325.651 104.751 325.512C104.297 325.512 103.994 325.789 103.843 326.067L103.238 330.225C103.238 330.779 103.54 331.057 103.994 331.057ZM253.201 323.017C253.504 323.017 253.958 322.74 253.958 322.463L254.563 318.305C254.563 317.889 254.261 317.612 253.958 317.473C253.504 317.473 253.201 317.75 253.05 318.027L252.445 322.186C252.445 322.601 252.747 322.879 253.201 323.017ZM105.508 321.354C105.81 321.354 106.264 321.077 106.264 320.8L106.87 316.641C106.87 316.226 106.567 315.948 106.264 315.81C105.81 315.81 105.508 316.087 105.356 316.364L104.751 320.522C104.6 320.938 104.902 321.354 105.508 321.354C105.356 321.354 105.356 321.354 105.508 321.354ZM254.714 313.315C255.017 313.315 255.471 313.038 255.471 312.76L256.076 308.602C256.076 308.186 255.774 307.909 255.471 307.77C255.017 307.77 254.714 308.048 254.563 308.325L253.958 312.483C253.807 312.899 254.109 313.176 254.714 313.315C254.563 313.315 254.563 313.315 254.714 313.315ZM106.87 311.651C107.172 311.651 107.626 311.374 107.626 311.097L108.232 306.939C108.232 306.523 107.929 306.246 107.626 306.107C107.172 306.107 106.87 306.384 106.718 306.662L106.113 310.82C106.113 311.236 106.416 311.651 106.87 311.651ZM251.537 306.107C251.839 306.107 252.142 305.83 252.293 305.553C252.445 305.137 252.142 304.86 251.688 304.721L247.148 303.889C246.694 303.751 246.392 304.028 246.24 304.444C246.089 304.86 246.392 305.137 246.846 305.276L251.537 306.107C251.385 306.107 251.385 306.107 251.537 306.107ZM240.944 304.167C241.247 304.167 241.549 303.889 241.701 303.612C241.852 303.196 241.549 302.919 241.095 302.781L236.555 301.949C236.101 301.81 235.799 302.088 235.647 302.503C235.496 302.919 235.799 303.196 236.253 303.335L240.944 304.167ZM230.502 302.365C230.805 302.365 231.108 302.088 231.259 301.81C231.41 301.395 231.108 301.117 230.654 300.979L226.114 300.147C225.66 300.008 225.357 300.286 225.206 300.701C225.055 301.117 225.357 301.395 225.811 301.533L230.502 302.365ZM108.232 301.949C108.534 301.949 108.988 301.672 108.988 301.395L109.594 297.236C109.594 296.82 109.291 296.543 108.988 296.405C108.534 296.405 108.232 296.682 108.08 296.959L107.475 301.117C107.475 301.533 107.778 301.949 108.232 301.949ZM220.061 300.424C220.364 300.424 220.666 300.147 220.818 299.87C220.969 299.454 220.666 299.177 220.212 299.038L215.673 298.207C215.219 298.068 214.916 298.345 214.765 298.761C214.613 299.177 214.916 299.454 215.37 299.593L220.061 300.424C219.91 300.424 219.91 300.424 220.061 300.424ZM209.468 298.484C209.771 298.484 210.074 298.207 210.225 297.929C210.376 297.514 210.074 297.236 209.62 297.098L205.08 296.266C204.626 296.127 204.323 296.405 204.172 296.82C204.021 297.236 204.323 297.514 204.777 297.652L209.468 298.484ZM199.027 296.682C199.329 296.682 199.632 296.405 199.783 296.127C199.935 295.712 199.632 295.434 199.178 295.296L194.638 294.464C194.184 294.326 193.882 294.603 193.73 295.019C193.579 295.434 193.882 295.712 194.336 295.85L199.027 296.682C198.875 296.682 198.875 296.682 199.027 296.682ZM188.434 294.741C188.737 294.741 189.039 294.464 189.191 294.187C189.342 293.771 189.039 293.494 188.585 293.355L184.046 292.524C183.592 292.385 183.289 292.662 183.138 293.078C182.986 293.494 183.289 293.771 183.743 293.91L188.434 294.741ZM177.993 292.939C178.295 292.939 178.598 292.662 178.749 292.385C178.901 291.969 178.598 291.692 178.144 291.553L173.604 290.722C173.15 290.583 172.848 290.86 172.696 291.276C172.545 291.692 172.847 291.969 173.301 292.108L177.993 292.939C177.841 292.939 177.841 292.939 177.993 292.939ZM109.745 292.246C110.048 292.246 110.501 291.969 110.501 291.692L111.107 287.534C111.107 287.118 110.804 286.841 110.501 286.702C110.048 286.702 109.745 286.979 109.594 287.257L108.988 291.415C108.988 291.831 109.291 292.246 109.745 292.246ZM167.4 290.999C167.702 290.999 168.005 290.722 168.156 290.445C168.308 290.029 168.005 289.751 167.551 289.613L163.011 288.781C162.557 288.643 162.255 288.92 162.103 289.336C161.952 289.751 162.255 290.029 162.709 290.167L167.4 290.999ZM156.958 289.058C157.261 289.058 157.564 288.781 157.715 288.504C157.866 288.088 157.564 287.811 157.11 287.672L152.57 286.841C152.116 286.702 151.813 286.979 151.662 287.395C151.511 287.811 151.813 288.088 152.267 288.227L156.958 289.058ZM146.517 287.257C146.82 287.257 147.122 286.979 147.274 286.702C147.425 286.286 147.122 286.009 146.668 285.87L142.128 285.039C141.674 284.9 141.372 285.177 141.221 285.593C141.069 286.009 141.372 286.286 141.826 286.425L146.517 287.257C146.366 287.257 146.366 287.257 146.517 287.257ZM135.924 285.316C136.227 285.316 136.529 285.039 136.681 284.762C136.832 284.346 136.529 284.069 136.075 283.93L131.536 283.098C131.082 282.96 130.779 283.237 130.628 283.653C130.476 284.069 130.779 284.346 131.233 284.484L135.924 285.316ZM125.483 283.514C125.785 283.514 126.088 283.237 126.239 282.96C126.391 282.544 126.088 282.267 125.634 282.128L121.094 281.296C120.64 281.158 120.338 281.435 120.186 281.851C120.035 282.267 120.338 282.544 120.792 282.683L125.483 283.514C125.331 283.514 125.331 283.514 125.483 283.514ZM111.863 281.989C111.863 281.574 112.317 281.296 112.62 281.296L114.739 281.712C115.193 281.851 115.495 281.574 115.647 281.158C115.798 280.742 115.495 280.465 115.041 280.326L113.074 279.91C111.712 279.633 110.501 280.465 110.35 281.712L111.107 281.989H111.863Z" fill="#D0DBF7"/>
<path id="Vector_61" d="M275.9 292.8L95.974 260.505L98.6978 241.516C99.6058 235.555 105.205 231.952 111.863 233.061L260.919 256.762C271.057 258.426 279.38 267.435 278.321 275.613L275.9 292.8Z" fill="#61113F"/>
<path id="Vector_62" d="M249.115 272.702C249.267 275.197 251.688 277.554 254.714 277.97C257.59 278.524 259.86 276.861 259.708 274.366C259.557 271.871 256.984 269.514 254.109 269.099C251.234 268.683 248.964 270.208 249.115 272.702ZM230.654 269.514C230.805 271.871 233.226 274.227 235.95 274.782C238.825 275.336 240.944 273.673 240.793 271.316C240.641 268.96 238.22 266.604 235.345 266.049C232.621 265.633 230.502 267.158 230.654 269.514ZM212.495 266.465C212.646 268.821 214.916 271.178 217.64 271.594C220.364 272.009 222.633 270.485 222.482 268.128C222.331 265.772 220.061 263.416 217.186 263C214.462 262.584 212.343 264.109 212.495 266.465ZM110.35 245.951V251.218L189.039 264.802L188.888 259.119L110.35 245.951Z" fill="white"/>
<path id="Vector_63" d="M207.652 360.857C215.975 362.382 223.995 357.392 225.508 349.907C227.173 342.284 221.725 334.938 213.554 333.551C211.587 333.136 209.468 333.136 207.652 333.551C207.652 329.393 204.474 325.789 199.935 324.958C198.421 324.681 197.059 324.819 195.697 325.096V324.958C197.362 317.334 191.914 309.988 183.743 308.602C175.42 307.077 167.4 312.067 165.886 319.552V319.691C164.827 318.859 163.465 318.305 161.952 318.166C157.412 317.334 152.872 319.691 151.208 323.433C149.543 322.463 147.727 321.77 145.76 321.354C137.437 319.829 129.417 324.819 127.904 332.304C126.239 339.927 131.687 347.274 139.858 348.66" fill="#D9B4F6"/>
<path id="Vector_64" d="M170.275 332.858L173.15 333.412C173.755 333.551 174.058 333.967 173.907 334.521L171.486 346.026C171.334 346.58 171.788 346.996 172.242 347.135L177.993 348.243C178.598 348.382 179.052 347.966 179.203 347.55L181.624 336.046C181.776 335.492 182.23 335.214 182.835 335.353L185.71 335.907C186.618 336.046 187.223 335.214 186.769 334.521L180.868 324.68C180.565 324.126 179.808 323.987 179.354 324.403L169.67 331.472C169.064 331.611 169.367 332.581 170.275 332.858Z" fill="white"/>
</g>
</g>
</svg>
