<svg width="586" height="438" viewBox="0 0 586 438" fill="none" xmlns="http://www.w3.org/2000/svg">
<g id="business-verifying-the-identity-of-its-client 1">
<path id="Vector" d="M528.746 317.09C526.488 320.313 524.036 323.406 521.388 326.37C520.628 327.235 519.825 328.1 519.022 328.943C507.129 341.489 493.911 353.104 479.587 363.637C472.099 369.131 464.329 374.344 456.277 379.211C453.238 381.049 450.178 382.845 447.053 384.597C438.306 389.506 428.735 394.351 418.556 396.904H418.534C416.711 397.358 414.888 397.747 413.043 398.029C410.525 398.439 407.986 398.677 405.403 398.721C404.774 398.742 404.145 398.742 403.515 398.742C397.243 398.721 390.97 397.877 384.698 396.731C384.373 396.666 384.047 396.601 383.721 396.558C383.396 396.493 383.07 396.428 382.745 396.363C382.159 396.255 381.551 396.125 380.965 396.017C380.119 395.844 379.272 395.671 378.426 395.498C373.087 394.395 367.747 393.162 362.473 392.145C362.408 392.124 362.365 392.124 362.3 392.102C362.039 392.059 361.757 391.994 361.497 391.951C361.453 391.951 361.388 391.929 361.345 391.929C360.846 391.842 360.347 391.756 359.847 391.648C359.587 391.604 359.348 391.561 359.088 391.518C359.023 391.518 358.957 391.496 358.914 391.496C357.699 391.28 356.462 391.085 355.246 390.912C355.159 390.891 355.073 390.891 354.986 390.869C354.747 390.826 354.53 390.804 354.291 390.761C353.358 390.631 352.425 390.501 351.513 390.393C351.426 390.372 351.318 390.372 351.231 390.35C351.101 390.328 350.971 390.328 350.862 390.307C350.016 390.199 349.147 390.112 348.301 390.026C348.192 390.004 348.062 390.004 347.954 389.982C347.086 389.896 346.196 389.809 345.328 389.723C344.525 389.658 343.721 389.571 342.897 389.506C342.875 389.506 342.875 389.506 342.875 389.506C342.354 389.463 341.833 389.42 341.312 389.398C339.12 389.247 336.928 389.117 334.758 389.031C334.454 389.009 334.15 389.009 333.868 389.009C333.282 388.987 332.696 388.966 332.11 388.944C330.2 388.879 328.29 388.858 326.38 388.858C325.382 388.858 324.405 388.858 323.428 388.858C320.542 388.879 317.655 388.944 314.769 389.074C295.973 389.831 277.2 392.426 258.6 395.238C256.95 395.476 255.322 395.736 253.673 395.995C253.629 395.995 253.586 396.017 253.543 396.017C251.698 396.298 249.875 396.579 248.03 396.861C247.487 396.947 246.966 397.034 246.424 397.098C246.185 397.142 245.946 397.163 245.729 397.207C244.405 397.401 243.081 397.618 241.757 397.812C241.606 397.834 241.475 397.855 241.323 397.877C241.215 397.899 241.106 397.899 241.02 397.92H240.998C240.846 397.942 240.694 397.964 240.542 397.985C240.499 397.985 240.477 397.985 240.434 398.007C239.153 398.202 237.873 398.396 236.57 398.591C236.028 398.677 235.485 398.764 234.921 398.829C234.66 398.872 234.422 398.894 234.161 398.937C234.031 398.959 233.922 398.98 233.792 399.002C233.185 399.088 232.577 399.175 231.969 399.261C231.752 399.283 231.535 399.326 231.318 399.348C230.45 399.478 229.582 399.586 228.692 399.694C228.366 399.737 228.041 399.781 227.715 399.824C225.176 400.148 222.637 400.429 220.075 400.667C212.197 401.403 204.253 401.684 196.418 401.143C193.749 400.97 191.101 400.689 188.453 400.278C188.258 400.256 188.063 400.213 187.889 400.191C185.979 399.889 184.047 399.543 182.159 399.11C181.182 398.894 180.206 398.677 179.229 398.461C175.93 397.726 172.675 396.969 169.462 396.212C168.356 395.952 167.249 395.671 166.142 395.411C157.482 393.27 149.278 390.977 141.769 388.274C123.537 381.741 109.43 372.938 103.158 358.749C101.617 355.267 100.553 351.46 100.011 347.285C99.2727 341.618 97.1674 332.664 94.1723 324.358C91.5895 317.242 88.3557 310.558 84.7312 306.838C74.3785 296.11 65.0893 285.165 57.6015 273.463C56.6249 271.928 55.6699 270.37 54.7367 268.791C43.429 249.541 37.0481 228.171 38.6325 202.475C38.7193 200.918 38.8495 199.36 39.0015 197.781C42.2353 164.45 70.7974 127.29 114.422 131.378C137.449 133.541 155.377 129.345 172.544 116.065C192.23 100.859 207.401 81.8898 233.228 73.5624C239.956 71.3995 246.923 70.1017 254.02 69.4528C266.087 68.3281 278.502 69.0635 290.613 70.6208C291.589 70.7506 292.566 70.8804 293.543 71.0101C306.521 72.8054 319.392 75.6389 332.37 77.5423C335.062 77.9533 337.775 78.2993 340.509 78.6238C341.703 78.7536 342.897 78.8833 344.112 78.9915C351.73 79.7053 358.914 79.5106 365.99 79.3159C378.86 78.9482 391.274 78.494 404.991 83.1227C405.273 83.2093 405.534 83.3174 405.816 83.4039C412.804 85.8697 419.446 89.0709 425.523 92.921C435.572 99.2801 444.079 107.434 449.939 116.951C461.92 136.375 457.666 151.494 468.192 170.593C468.691 171.501 469.212 172.41 469.798 173.318C479.044 188.308 499.229 194.148 514.855 204.53C516.635 205.719 518.349 206.952 519.999 208.272C521.952 209.851 523.797 211.538 525.49 213.376C526.033 213.982 526.575 214.588 527.096 215.215C553.792 248.005 549.603 287.415 528.746 317.09Z" fill="#F0F7FF"/>
<path id="Vector_2" d="M106.587 141.825L183.852 141.068L185.154 274.588L88.5077 275.518L87.3574 158.632L106.587 141.825Z" fill="white"/>
<path id="Vector_3" d="M186.478 275.864L87.2272 276.838L86.0552 158.026L106.088 140.528L185.133 139.749L186.478 275.864ZM89.8099 274.22L183.852 273.312L182.572 142.409L107.108 143.145L88.703 159.237L89.8099 274.22Z" fill="#61113F"/>
<path id="Vector_4" d="M106.587 141.826L106.761 159.757L87.3574 158.632L106.587 141.826Z" fill="#61113F"/>
<path id="Vector_5" d="M145.115 168.905L103.271 169.313L103.316 173.963L145.161 173.556L145.115 168.905Z" fill="#E2C5F8"/>
<path id="Vector_6" d="M145.115 177.557L103.271 177.965L103.316 182.615L145.161 182.207L145.115 177.557Z" fill="#E2C5F8"/>
<path id="Vector_7" d="M145.115 195.662L103.271 196.07L103.316 200.72L145.161 200.312L145.115 195.662Z" fill="#E2C5F8"/>
<path id="Vector_8" d="M145.115 204.314L103.271 204.722L103.316 209.373L145.161 208.965L145.115 204.314Z" fill="#E2C5F8"/>
<path id="Vector_9" d="M145.115 222.419L103.271 222.827L103.316 227.477L145.161 227.069L145.115 222.419Z" fill="#E2C5F8"/>
<path id="Vector_10" d="M145.115 231.072L103.271 231.479L103.316 236.13L145.161 235.722L145.115 231.072Z" fill="#E2C5F8"/>
<path id="Vector_11" d="M145.115 249.198L103.271 249.606L103.316 254.256L145.161 253.848L145.115 249.198Z" fill="#C4DEF0"/>
<path id="Vector_12" d="M145.115 257.85L103.271 258.258L103.316 262.908L145.161 262.5L145.115 257.85Z" fill="#C4DEF0"/>
<path id="Vector_13" d="M169.549 183.116H151.21V164.839H169.549V183.116ZM152.295 182.057H168.486V165.921H152.295V182.057Z" fill="#61113F"/>
<path id="Vector_14" d="M159.783 175.546L154.465 170.679L155.182 169.901L159.761 174.054L171.112 162.741L171.872 163.498L159.783 175.546Z" fill="#61113F"/>
<path id="Vector_15" d="M169.549 209.872H151.21V191.595H169.549V209.872ZM152.295 208.812H168.486V192.677H152.295V208.812Z" fill="#61113F"/>
<path id="Vector_16" d="M159.783 202.302L154.465 197.457L155.182 196.656L159.761 200.809L171.112 189.497L171.872 190.254L159.783 202.302Z" fill="#61113F"/>
<g id="Group">
<path id="Vector_17" d="M169.549 236.65H151.21V218.373H169.549V236.65ZM152.295 235.568H168.486V219.432H152.295V235.568Z" fill="#F35450"/>
<path id="Vector_18" d="M159.783 229.058L154.465 224.212L155.182 223.412L159.761 227.587L171.112 216.274L171.872 217.031L159.783 229.058Z" fill="#F35450"/>
</g>
<g id="Group_2">
<path id="Vector_19" d="M169.549 263.405H151.21V245.128H169.549V263.405ZM152.295 262.324H168.486V246.188H152.295V262.324Z" fill="#F35450"/>
<path id="Vector_20" d="M159.783 255.835L154.465 250.968L155.182 250.19L159.761 254.343L171.112 243.03L171.872 243.787L159.783 255.835Z" fill="#F35450"/>
</g>
<g id="Group_3">
<path id="Vector_21" d="M458.274 267.991V335.194C458.274 339.542 454.736 343.067 450.374 343.067H335.886C331.524 343.067 327.986 339.542 327.986 335.194V267.991C327.986 263.643 331.524 260.118 335.886 260.118H450.374C454.736 260.096 458.274 263.622 458.274 267.991Z" fill="#D9B4F6"/>
<path id="Vector_22" d="M458.274 309.282H327.986V322.627H458.274V309.282Z" fill="white"/>
<path id="Vector_23" d="M357.503 300.911H342.571C340.14 300.911 338.187 298.965 338.187 296.542V288.539C338.187 286.117 340.14 284.17 342.571 284.17H357.503C359.934 284.17 361.887 286.117 361.887 288.539V296.564C361.887 298.965 359.934 300.911 357.503 300.911Z" fill="white"/>
<path id="Vector_24" d="M352.099 295.288H348.019C347.021 295.288 346.196 294.466 346.196 293.471V291.654C346.196 290.659 347.021 289.837 348.019 289.837H352.099C353.098 289.837 353.922 290.659 353.922 291.654V293.471C353.922 294.466 353.098 295.288 352.099 295.288ZM347.997 290.226C347.216 290.226 346.586 290.854 346.586 291.632V293.449C346.586 294.228 347.216 294.855 347.997 294.855H352.077C352.859 294.855 353.488 294.228 353.488 293.449V291.632C353.488 290.854 352.859 290.226 352.077 290.226H347.997Z" fill="white"/>
<path id="Vector_25" d="M350.254 284.17H349.842V290.01H350.254V284.17Z" fill="#D9B4F6"/>
<path id="Vector_26" d="M350.254 295.071H349.842V300.911H350.254V295.071Z" fill="#D9B4F6"/>
<path id="Vector_27" d="M361.909 292.324H353.727V292.735H361.909V292.324Z" fill="#D9B4F6"/>
<path id="Vector_28" d="M346.391 292.324H338.209V292.735H346.391V292.324Z" fill="#D9B4F6"/>
</g>
<g id="Group_4">
<path id="Vector_29" d="M457.449 173.815V240.154C457.449 244.458 453.955 247.94 449.636 247.94H336.624C332.305 247.94 328.811 244.458 328.811 240.154V173.815C328.811 169.511 332.305 166.029 336.624 166.029H449.636C453.955 166.029 457.449 169.511 457.449 173.815Z" fill="#D9B4F6"/>
<path id="Vector_30" d="M438.219 193.261H427.585C425.154 193.261 423.2 191.314 423.2 188.891V183.917C423.2 181.494 425.154 179.547 427.585 179.547H438.219C440.65 179.547 442.604 181.494 442.604 183.917V188.891C442.604 191.314 440.629 193.261 438.219 193.261Z" fill="white"/>
<path id="Vector_31" d="M434.573 188.654H431.231C430.406 188.654 429.733 187.983 429.733 187.161V185.669C429.733 184.847 430.406 184.176 431.231 184.176H434.573C435.398 184.176 436.071 184.847 436.071 185.669V187.161C436.071 187.983 435.398 188.654 434.573 188.654ZM431.231 184.522C430.601 184.522 430.08 185.041 430.08 185.669V187.161C430.08 187.788 430.601 188.308 431.231 188.308H434.573C435.202 188.308 435.723 187.788 435.723 187.161V185.669C435.723 185.041 435.202 184.522 434.573 184.522H431.231Z" fill="white"/>
<path id="Vector_32" d="M433.076 179.569H432.728V184.349H433.076V179.569Z" fill="#D9B4F6"/>
<path id="Vector_33" d="M433.076 188.48H432.728V193.261H433.076V188.48Z" fill="#D9B4F6"/>
<path id="Vector_34" d="M442.582 186.252H435.897V186.599H442.582V186.252Z" fill="#D9B4F6"/>
<path id="Vector_35" d="M429.885 186.252H423.2V186.599H429.885V186.252Z" fill="#D9B4F6"/>
<path id="Vector_36" d="M339.554 234.006L386.781 234.467L387.316 179.939L340.089 179.478L339.554 234.006Z" fill="white"/>
<path id="Vector_37" d="M347.021 230.074V229.209C347.107 220.168 354.53 212.922 363.602 213.009C372.674 213.095 379.945 220.492 379.858 229.534V230.399L347.021 230.074Z" fill="#D9B4F6"/>
<path id="Vector_38" d="M352.815 198.862C353.141 204.551 358.155 210.802 363.863 210.456C369.571 210.131 373.825 203.361 373.499 197.651C373.174 191.963 368.268 187.615 362.56 187.939C356.852 188.285 352.49 193.174 352.815 198.862Z" fill="#EBECF2"/>
<path id="Vector_39" d="M363.103 219.541C365.642 219.562 367.726 217.529 367.747 214.998L367.812 208.38L358.61 208.293L358.545 214.912C358.545 217.442 360.563 219.519 363.103 219.541ZM373 199.555C373 199.555 373.738 197.76 374.693 199.209C375.648 200.658 374.107 205.265 372.392 203.47L373 199.555ZM353.488 199.555C353.488 199.555 352.75 197.76 351.795 199.209C350.84 200.658 352.381 205.265 354.096 203.47L353.488 199.555Z" fill="#EBECF2"/>
<path id="Vector_40" d="M369.679 192.547C369.679 192.547 360.368 198.214 354.66 194.818L354.074 198.625L354.508 202.41C354.508 202.41 353.467 198.906 352.794 198.862C352.121 198.798 351.448 199.122 351.492 200.03C351.492 200.03 347.78 181.797 368.637 185.841L369.679 192.547ZM368.637 185.841C368.637 185.841 376.69 189.389 374.693 199.209C374.693 199.209 374.454 198.473 373.499 198.819L372.631 201.977C372.631 201.977 373.152 193.217 369.679 192.547L368.637 185.841Z" fill="#D9B4F6"/>
<path id="Vector_41" d="M417.21 180.694H393.119V184.111H417.21V180.694Z" fill="white"/>
<path id="Vector_42" d="M417.21 193.888H393.119V197.306H417.21V193.888Z" fill="white"/>
<path id="Vector_43" d="M448.095 207.083H393.119V210.5H448.095V207.083Z" fill="white"/>
<path id="Vector_44" d="M448.095 224.3H393.119V227.718H448.095V224.3Z" fill="white"/>
</g>
<g id="Group_5">
<path id="Vector_45" d="M227.997 347.156C198.524 348.345 169.007 348.345 139.533 347.156C135.366 346.983 132.002 343.457 132.002 339.326C132.002 300.436 132.002 261.545 132.002 222.634C132.002 218.481 135.366 214.955 139.533 214.804C169.007 213.614 198.524 213.614 227.997 214.804C232.165 214.977 235.529 218.503 235.529 222.634C235.529 261.524 235.529 300.414 235.529 339.326C235.529 343.479 232.165 347.004 227.997 347.156Z" fill="#61113F"/>
<path id="Vector_46" d="M183.765 260.659C171.72 260.659 161.931 270.414 161.931 282.418C161.931 294.423 171.72 304.178 183.765 304.178C195.811 304.178 205.599 294.423 205.599 282.418C205.621 270.414 195.811 260.659 183.765 260.659ZM200.477 292.195C198.459 292.216 196.419 292.216 194.4 292.195C194.357 292.195 194.292 292.173 194.183 292.13C195.03 289.123 195.442 286.052 195.464 282.916C198.046 282.916 200.542 282.916 203.147 282.916C203.06 286.311 202.105 289.469 200.477 292.195ZM189.625 300.847C191.448 298.9 192.664 296.586 193.554 294.076C193.706 293.644 193.901 293.492 194.357 293.514C196.115 293.536 197.873 293.536 199.631 293.536C197.222 296.932 193.706 299.549 189.625 300.847ZM184.308 283.543C184.308 283.045 184.503 282.894 184.916 282.916C186.739 282.937 188.584 282.959 190.407 282.959C191.492 282.959 192.555 282.937 193.641 282.916C193.814 282.916 193.988 282.937 194.248 282.937C194.205 283.781 194.248 284.603 194.118 285.403C193.814 287.458 193.423 289.491 193.076 291.546C192.989 292.043 192.794 292.26 192.208 292.238C189.777 292.195 187.346 292.216 184.916 292.216C184.72 292.216 184.547 292.216 184.265 292.216C184.265 291.935 184.265 291.719 184.265 291.524C184.308 288.864 184.33 286.203 184.308 283.543ZM184.33 281.402C184.33 278.46 184.33 275.54 184.33 272.512C184.829 272.512 185.306 272.512 185.784 272.512C187.954 272.512 190.146 272.512 192.317 272.512C192.599 272.512 192.816 272.512 192.924 272.858C193.727 275.626 194.14 278.46 194.227 281.402C190.928 281.402 187.65 281.402 184.33 281.402ZM203.147 281.445C203.125 281.445 203.103 281.445 203.082 281.445C200.564 281.423 198.046 281.445 195.485 281.445C195.42 278.417 194.986 275.475 194.161 272.555C194.378 272.533 194.552 272.512 194.704 272.512C196.614 272.512 198.524 272.512 200.412 272.512C201.996 275.151 202.973 278.2 203.147 281.445ZM194.031 271.257C193.858 271.257 193.641 270.954 193.554 270.76C192.729 268.554 191.709 266.499 190.19 264.682C189.994 264.444 189.777 264.228 189.582 263.99C193.662 265.266 197.178 267.861 199.587 271.279C197.721 271.279 195.876 271.279 194.031 271.257ZM186.348 263.254C187.498 263.817 188.453 264.66 189.278 265.634C190.667 267.277 191.6 269.138 192.382 271.192C192.23 271.214 192.121 271.257 192.034 271.257C189.625 271.257 187.216 271.257 184.807 271.257C184.46 271.257 184.308 271.171 184.308 270.781C184.33 268.207 184.308 265.634 184.308 263.081C185.002 263.124 185.675 263.168 186.348 263.254ZM183.244 270.803C183.244 271.192 183.093 271.279 182.745 271.279C180.336 271.257 177.927 271.279 175.518 271.279C175.409 271.279 175.323 271.236 175.171 271.214C175.952 269.181 176.885 267.299 178.274 265.655C179.099 264.682 180.054 263.838 181.204 263.276C181.877 263.189 182.55 263.124 183.244 263.103C183.244 265.677 183.244 268.229 183.244 270.803ZM180.77 301.517C178.187 300.003 176.017 296.586 175.149 293.579C177.84 293.579 180.51 293.579 183.201 293.579C183.201 296.326 183.201 299.03 183.201 301.755C182.398 301.712 181.573 301.625 180.77 301.517ZM167.9 293.514C169.658 293.514 171.416 293.536 173.174 293.492C173.63 293.492 173.825 293.622 173.977 294.055C174.867 296.564 176.082 298.878 177.905 300.825C173.847 299.549 170.331 296.932 167.9 293.514ZM177.949 263.968C177.732 264.184 177.536 264.422 177.341 264.66C175.822 266.477 174.802 268.554 173.977 270.738C173.912 270.933 173.673 271.236 173.499 271.236C171.655 271.257 169.832 271.257 167.943 271.257C170.374 267.861 173.868 265.266 177.949 263.968ZM183.244 291.524C183.244 291.719 183.244 291.935 183.244 292.216C182.962 292.216 182.767 292.216 182.593 292.216C180.163 292.216 177.732 292.195 175.301 292.238C174.737 292.238 174.52 292.022 174.433 291.546C174.085 289.491 173.695 287.458 173.391 285.403C173.261 284.603 173.304 283.759 173.261 282.937C173.521 282.916 173.695 282.916 173.868 282.916C174.954 282.916 176.017 282.959 177.102 282.959C178.925 282.959 180.77 282.937 182.593 282.916C183.027 282.916 183.223 283.067 183.201 283.543C183.201 286.203 183.244 288.864 183.244 291.524ZM183.201 281.402C179.88 281.402 176.603 281.402 173.304 281.402C173.391 278.46 173.825 275.626 174.606 272.858C174.715 272.512 174.932 272.512 175.214 272.512C177.384 272.512 179.577 272.512 181.747 272.512C182.224 272.512 182.68 272.512 183.201 272.512C183.201 275.54 183.201 278.46 183.201 281.402ZM172.848 272.512C173.022 272.512 173.174 272.533 173.391 272.555C172.566 275.475 172.154 278.417 172.067 281.445C169.484 281.445 166.988 281.445 164.471 281.445C164.449 281.445 164.427 281.445 164.406 281.445C164.558 278.179 165.534 275.151 167.119 272.512C169.029 272.533 170.938 272.512 172.848 272.512ZM164.384 282.937C166.988 282.937 169.506 282.937 172.067 282.937C172.11 286.074 172.501 289.145 173.348 292.151C173.239 292.195 173.174 292.216 173.131 292.216C171.112 292.216 169.072 292.238 167.053 292.216C165.447 289.469 164.471 286.311 164.384 282.937ZM184.33 293.557C187.021 293.557 189.712 293.557 192.382 293.557C191.514 296.564 189.343 299.981 186.76 301.495C185.957 301.625 185.154 301.69 184.33 301.712C184.33 299.008 184.33 296.304 184.33 293.557Z" fill="white"/>
<g id="Group_6">
<path id="Vector_47" d="M191.318 329.528H176.234C174.823 329.528 173.673 328.381 173.673 326.975V317.653C173.673 316.247 174.823 315.101 176.234 315.101H191.34C192.751 315.101 193.901 316.247 193.901 317.653V326.975C193.879 328.381 192.729 329.528 191.318 329.528ZM176.234 315.555C175.084 315.555 174.151 316.485 174.151 317.631V326.954C174.151 328.1 175.084 329.03 176.234 329.03H191.34C192.49 329.03 193.423 328.1 193.423 326.954V317.631C193.423 316.485 192.49 315.555 191.34 315.555H176.234Z" fill="white"/>
<path id="Vector_48" d="M185.48 324.596H182.072C181.226 324.596 180.553 323.904 180.553 323.082V321.568C180.553 320.724 181.248 320.054 182.072 320.054H185.48C186.326 320.054 186.999 320.746 186.999 321.568V323.082C186.999 323.904 186.326 324.596 185.48 324.596ZM182.072 320.378C181.421 320.378 180.9 320.897 180.9 321.546V323.06C180.9 323.709 181.421 324.228 182.072 324.228H185.48C186.131 324.228 186.652 323.709 186.652 323.06V321.546C186.652 320.897 186.131 320.378 185.48 320.378H182.072Z" fill="white"/>
<path id="Vector_49" d="M183.939 315.338H183.592V320.205H183.939V315.338Z" fill="white"/>
<path id="Vector_50" d="M183.939 324.423H183.592V329.29H183.939V324.423Z" fill="white"/>
<path id="Vector_51" d="M193.64 322.13H186.825V322.476H193.64V322.13Z" fill="white"/>
<path id="Vector_52" d="M180.705 322.13H173.89V322.476H180.705V322.13Z" fill="white"/>
</g>
</g>
<path id="Vector_53" d="M307.498 186.534V187.918H328.485V210.413H329.874V186.534H307.498ZM236.527 210.413H237.916V187.918H257.471V186.534H236.527V210.413ZM328.485 260.248V282.743H307.498V284.127H329.874V260.248H328.485ZM237.916 260.248H236.527V284.127H257.471V282.743H237.916V260.248Z" fill="white"/>
<g id="Group_7">
<path id="Vector_54" d="M264.438 165.293C265.241 165.293 265.827 164.818 265.827 164.125C265.827 163.087 264.069 162.698 262.745 161.941C261.79 161.422 260.9 160.384 260.9 158.934C260.9 156.966 262.506 155.495 264.46 155.495C266.435 155.495 268.041 157.096 268.041 159.064H265.957C265.914 158.242 265.263 157.572 264.438 157.572C263.613 157.572 263.07 157.983 263.07 158.783C263.07 159.67 264.568 160.146 265.805 160.794C266.89 161.378 268.019 162.352 268.019 163.974C268.019 165.921 266.413 167.37 264.438 167.37C262.484 167.37 260.878 165.769 260.878 163.823H262.962C263.005 164.623 263.635 165.293 264.438 165.293ZM274.443 158.999C274.422 158.177 273.749 157.485 272.946 157.485C272.143 157.507 271.47 158.199 271.47 158.999V163.888C271.492 164.839 272.164 165.358 272.946 165.358C273.77 165.337 274.443 164.666 274.443 163.888V162.676H276.527V163.888C276.527 165.834 274.921 167.435 272.946 167.435C270.992 167.435 269.386 165.834 269.386 163.888V158.999C269.386 157.009 270.992 155.409 272.946 155.409C274.921 155.409 276.527 157.009 276.527 158.999V160.167H274.443V158.999ZM280.064 164.407L279.348 167.37H277.265L280.173 155.495H282.994L285.903 167.37H283.819L283.103 164.407H280.064ZM281.584 158.242L280.564 162.482H282.647L281.584 158.242ZM294.259 167.37H292.175L289.202 160.362V167.37H287.118V155.495H289.202L292.175 162.503V155.495H294.259V167.37Z" fill="white"/>
</g>
<path id="Vector_55" d="M288.876 348.735H266.261C263.288 348.735 260.9 346.334 260.9 343.392V342.765C260.9 339.802 263.309 337.422 266.261 337.422H288.876C291.85 337.422 294.237 339.823 294.237 342.765V343.392C294.259 346.334 291.85 348.735 288.876 348.735Z" fill="white"/>
<g id="Group_8">
<path id="Vector_56" d="M329.788 359.917H225.371C218.686 359.917 213.239 354.488 213.239 347.826V146.649C213.239 139.987 218.686 134.558 225.371 134.558H329.788C336.472 134.558 341.92 139.987 341.92 146.649V347.826C341.92 354.488 336.472 359.917 329.788 359.917ZM225.371 136.635C219.837 136.635 215.322 141.134 215.322 146.649V347.826C215.322 353.342 219.837 357.841 225.371 357.841H329.788C335.322 357.841 339.836 353.342 339.836 347.826V146.649C339.836 141.134 335.322 136.635 329.788 136.635H225.371Z" fill="#61113F"/>
<path id="Vector_57" opacity="0.31" d="M323.645 357.841H231.513C222.571 357.841 215.322 350.617 215.322 341.705V152.77C215.322 143.859 222.571 136.635 231.513 136.635H323.645C332.587 136.635 339.836 143.859 339.836 152.77V341.705C339.836 350.617 332.587 357.841 323.645 357.841Z" fill="url(#paint0_linear_763_74221)"/>
<path id="Vector_58" opacity="0.3" d="M325.838 152.186H229.3V174.876H325.838V152.186Z" fill="#F2F2F2"/>
</g>
<g id="Group_9">
<path id="Vector_59" d="M390.992 158.221H348.431V115.783H390.992V158.221ZM350.905 155.733H388.496V118.271H350.905V155.733Z" fill="#61113F"/>
<path id="Vector_60" d="M368.334 140.614L355.962 129.345L357.655 127.528L368.247 137.175L394.617 110.895L396.375 112.647L368.334 140.614Z" fill="#61113F"/>
</g>
<g id="Group_10">
<path id="Vector_61" d="M103.657 244.48C103.657 244.48 107.781 249.152 108.41 255.641L108.453 256.96L104.525 257.112L98.5132 253.5L103.657 244.48Z" fill="#0C3879"/>
<path id="Vector_62" d="M101.378 262.065L101.4 254.3L104.351 256.657L104.091 262L101.378 262.065Z" fill="#E0A990"/>
<path id="Vector_63" d="M104.655 244.718L106.066 248.525L109.235 250.407L107.759 251.034C107.759 251.034 109.582 255.403 106.63 255.728L105.74 258.712L106.283 264.509L104.134 265.72L103.548 261.33L101.269 256.506C101.269 256.485 92.8701 243.961 104.655 244.718Z" fill="#FFAE9E"/>
<path id="Vector_64" d="M106.652 255.749L104.091 255.663L101.139 253.586C101.139 253.586 98.0357 252.483 100.944 255.252L101.487 257.285L100.032 261.935L106.305 264.509L105.762 258.712L106.652 255.749Z" fill="#EAA091"/>
<path id="Vector_65" d="M105.002 384.143L108.084 389.377C106.543 388.901 104.981 387.755 105.002 384.143Z" fill="#E0A990"/>
<path id="Vector_66" d="M111.731 269.419C113.206 266.91 120.195 256.506 120.564 253.716L122.713 251.877L125.643 251.229C125.643 251.25 125.643 251.272 125.643 251.293C125.621 251.618 125.643 251.942 125.664 252.267C125.143 252.44 124.492 252.591 123.624 252.699L124.34 254.884L121.91 256.095C120.89 257.631 115.485 274.199 114.595 276.211C113.51 279.023 109.256 275.8 107.585 275.432L111.731 269.419Z" fill="#FFAE9E"/>
<path id="Vector_67" d="M97.8402 332.621L99.7936 340.84C99.7936 340.84 93.5863 345.642 100.749 384.337L102.941 387.3C103.722 378.757 106.63 341.575 108.171 333.897L97.8402 332.621Z" fill="#F09674"/>
<path id="Vector_68" d="M113.814 331.258L105.154 386.024L103.483 387.235C103.483 387.235 95.0188 354.402 104.178 341.662L102.832 336.384L113.814 331.258Z" fill="#FFA494"/>
<path id="Vector_69" d="M101.335 260.443C104.395 260.183 102.919 260.313 105.871 260.053C105.871 260.053 108.757 263.73 112.317 265.677C115.876 267.645 109.452 273.658 111.731 278.979C114.009 284.3 121.736 295.937 114.791 335.714L98.2526 337.12C98.2526 337.12 96.0388 320.292 94.7583 313.132C93.1956 304.416 97.4712 296.889 99.9455 289.556C102.441 282.224 90.092 269.527 100.77 259.686L101.335 260.443Z" fill="#EF4136"/>
<path id="Vector_70" d="M100.553 383.147C101.595 384.121 104.069 388.166 104.872 389.398C105.741 389.766 108.28 389.853 108.258 391.172L104.134 391.518L102.008 387.365C102.008 388.014 102.094 391.129 102.029 391.713L101.248 391.778C101.031 390.047 100.401 386.349 99.8154 384.726L100.553 383.147Z" fill="#DF3D32"/>
<path id="Vector_71" d="M103.114 382.931C104.156 383.904 106.63 387.949 107.433 389.182C108.302 389.55 110.841 389.636 110.819 390.956L106.696 391.302L104.569 387.149C104.569 387.798 104.655 390.912 104.59 391.496L103.809 391.561C103.592 389.831 102.962 386.132 102.376 384.51L103.114 382.931Z" fill="#EF4136"/>
<path id="Vector_72" d="M101.27 269.57L106.652 290.897L116.571 293.493L116.397 291.373L109.452 290.118C107.846 285.144 105.111 275.064 103.483 270.219L101.27 269.57Z" fill="#E6E7E8"/>
<path id="Vector_73" d="M123.472 288.236L110.993 286.766C110.993 286.766 109.625 273.161 107.672 264.379C105.523 265.006 103.396 265.677 101.226 266.109C102.637 273.831 105.046 284.105 106.109 288.604C106.435 289.967 107.564 290.94 108.909 290.983C112.1 291.113 118.763 291.07 124.232 291.351L123.472 288.236Z" fill="#FFAE9E"/>
<path id="Vector_74" d="M100.705 271.474L109.756 270.695C109.756 270.695 109.908 263.081 106.609 263.363C103.31 263.644 99.6634 264.293 100.705 271.474Z" fill="#F05045"/>
<path id="Vector_75" d="M102.854 336.73L99.7937 313.997C99.7937 313.997 98.0574 309.542 100.987 303.334C100.987 303.334 96.8637 307.919 97.0373 311.423C97.1892 314.927 99.6201 336.86 99.6201 336.86L102.854 336.73Z" fill="#DF3D32"/>
<path id="Vector_76" d="M112.642 235.006C113.424 240.046 123.993 250.688 123.993 250.688C123.993 250.688 130.787 237.126 129.984 232.086C129.202 227.046 124.666 223.629 119.87 224.429C115.095 225.251 111.861 229.966 112.642 235.006Z" fill="#39B54A"/>
<path id="Vector_77" d="M114.075 234.638C114.726 238.834 118.502 241.689 122.496 241.019C126.489 240.348 129.202 236.412 128.551 232.216C127.9 228.02 124.123 225.164 120.13 225.835C116.115 226.484 113.402 230.442 114.075 234.638Z" fill="white"/>
<path id="Vector_78" d="M124.319 261.783L127.119 261.308L124.406 243.939L121.606 244.415L124.319 261.783Z" fill="#39B54A"/>
<path id="Vector_79" d="M101.921 241.906C101.921 241.906 93.4996 239.635 94.3677 252.396L94.5848 257.912L103.31 257.566C103.31 257.566 101.009 248.806 101.812 246.794C102.615 244.783 103.657 244.458 103.657 244.458L101.921 241.906Z" fill="#0C3879"/>
<path id="Vector_80" d="M105.654 245.886L101.248 246.946C101.248 246.946 100.271 242.079 102.181 241.906C106.5 241.517 105.654 245.886 105.654 245.886Z" fill="#1E4F98"/>
<path id="Vector_81" d="M123.06 253.759L124.666 253.391C124.666 253.391 125.578 254.473 123.103 255.121C123.125 255.121 122.235 253.953 123.06 253.759Z" fill="#FFAE9E"/>
<path id="Vector_82" d="M125.274 252.245L125.86 253.283L126.164 251.769L125.382 250.212L125.274 252.245Z" fill="#FFAE9E"/>
<path id="Vector_83" d="M113.098 335.865L103.353 338.439L99.1209 338.028L98.9473 337.098L102.811 336.384L113.098 335.865Z" fill="#E6E7E8"/>
<path id="Vector_84" d="M123.711 228.366L119.24 236.347L118.177 233.492L116.462 235.028L119.327 238.445L125.838 231.005L123.711 228.366Z" fill="#39B54A"/>
<g id="Group_11">
<path id="Vector_85" d="M127.987 288.777L122.778 288.172L122.908 291.287C126.815 291.546 129.68 291.849 129.593 292.173C132.002 295.959 132.653 292.152 132.653 292.152C130.635 288.713 131.524 290.594 127.987 288.777Z" fill="#FFAE9E"/>
<path id="Vector_86" d="M128.638 289.253L133.717 291.07C133.955 292.671 129.202 289.664 128.638 289.253Z" fill="#FFAE9E"/>
</g>
</g>
<g id="Group_12">
<path id="Vector_87" d="M282.951 193.131C282.951 193.131 272.49 202.713 249.658 199.641V237.883C249.658 240.738 250.092 243.571 250.982 246.296C253.13 252.894 258.274 264.184 269.213 268.683C269.213 268.683 280.629 274.653 282.951 277.551C285.273 274.653 296.69 268.683 296.69 268.683C307.628 264.163 312.772 252.872 314.921 246.296C315.811 243.571 316.245 240.738 316.245 237.883V199.62C293.412 202.713 282.951 193.131 282.951 193.131Z" fill="#61113F"/>
<path id="Vector_88" d="M282.951 270.976C281.671 270.089 279.999 269.008 277.786 267.688C274.573 265.785 271.687 264.271 271.557 264.206L271.361 264.098L271.144 264.011C262.029 260.248 257.623 250.298 255.8 244.718C255.084 242.511 254.715 240.219 254.715 237.861V205.179C255.973 205.244 257.232 205.287 258.448 205.287C266.109 205.287 273.033 203.946 279.023 201.307C280.585 200.615 281.888 199.923 282.951 199.295C284.015 199.923 285.317 200.636 286.88 201.307C292.87 203.946 299.793 205.287 307.455 205.287C308.67 205.287 309.929 205.244 311.188 205.179V237.883C311.188 240.24 310.819 242.555 310.102 244.739C308.279 250.32 303.873 260.269 294.758 264.033L294.541 264.119L294.346 264.228C294.215 264.292 291.35 265.807 288.117 267.71C285.903 269.008 284.232 270.089 282.951 270.976Z" fill="#D9B4F6"/>
<path id="Vector_89" d="M299.403 230.42H266.5V251.379H299.403V230.42Z" fill="white"/>
<path id="Vector_90" d="M295.062 242.663H270.862V219.757C270.862 213.117 276.288 207.709 282.951 207.709C289.614 207.709 295.04 213.117 295.04 219.757V242.663H295.062ZM274.4 239.137H291.503V219.757C291.503 215.064 287.661 211.235 282.951 211.235C278.242 211.235 274.4 215.064 274.4 219.757V239.137Z" fill="white"/>
<g id="Group_13">
<path id="Vector_91" d="M284.194 242.155C285.844 241.474 286.628 239.589 285.944 237.944C285.261 236.3 283.369 235.519 281.719 236.2C280.069 236.881 279.286 238.767 279.969 240.411C280.652 242.056 282.544 242.836 284.194 242.155Z" fill="#D9B4F6"/>
<path id="Vector_92" d="M283.233 246.751H282.712C281.888 246.751 281.237 246.08 281.237 245.28V239.938H284.731V245.28C284.709 246.102 284.036 246.751 283.233 246.751Z" fill="#D9B4F6"/>
</g>
</g>
<g id="Group_14" opacity="0.43">
<path id="Vector_93" opacity="0.34" d="M329.614 197.262H234.921V208.704H329.614V197.262Z" fill="white"/>
<path id="Vector_94" opacity="0.34" d="M329.614 228.971H234.921V240.413H329.614V228.971Z" fill="white"/>
<path id="Vector_95" opacity="0.34" d="M329.614 260.659H234.921V272.101H329.614V260.659Z" fill="white"/>
</g>
<g id="Group_15">
<path id="Vector_96" opacity="0.24" d="M448.631 266.428C462.998 252.11 462.997 228.897 448.63 214.579C434.264 200.262 410.971 200.263 396.605 214.58C382.238 228.898 382.239 252.111 396.606 266.429C410.972 280.746 434.265 280.745 448.631 266.428Z" fill="white"/>
<path id="Vector_97" d="M462.072 246.275C461.312 251.358 459.598 256.182 456.972 260.637C454.346 265.093 450.938 268.921 446.858 272.058C442.625 275.302 437.829 277.617 432.62 278.958C427.411 280.299 422.094 280.601 416.82 279.823C411.719 279.066 406.88 277.357 402.409 274.74C397.938 272.123 394.096 268.727 390.949 264.66C387.693 260.443 385.371 255.662 384.026 250.471C382.68 245.28 382.376 239.981 383.157 234.725C383.917 229.642 385.632 224.819 388.258 220.363C390.884 215.907 394.291 212.079 398.372 208.942C402.604 205.698 407.4 203.384 412.609 202.043C417.818 200.702 423.136 200.399 428.41 201.177C433.51 201.934 438.35 203.643 442.821 206.26C447.292 208.878 451.133 212.273 454.28 216.34C457.536 220.558 459.858 225.338 461.204 230.529C462.571 235.72 462.853 241.019 462.072 246.275ZM431.47 274.545C450.309 269.678 461.66 250.45 456.776 231.675C451.893 212.901 432.598 201.588 413.76 206.455C394.921 211.322 383.57 230.55 388.453 249.325C393.336 268.099 412.631 279.412 431.47 274.545Z" fill="#61113F"/>
<path id="Vector_98" d="M513.401 306.34C513.271 305.8 512.945 305.324 512.49 304.956L454.866 260.118C453.738 259.231 452.11 259.447 451.242 260.572C450.352 261.697 450.569 263.319 451.698 264.184L509.321 309.022C510.45 309.909 512.077 309.693 512.945 308.568C513.445 307.919 513.597 307.097 513.401 306.34Z" fill="#61113F"/>
<path id="Vector_99" d="M507.672 273.052L494.91 267.364L493.933 265.763H486.163L484.449 268.662L472.729 272.057L476.809 304.848L472.186 321.395L473.835 321.135L475.138 320.638L504.264 324.055L501.052 300.089L507.672 273.052Z" fill="#EF4136"/>
<path id="Vector_100" d="M504.264 324.055L501.659 344.884C501.312 344.906 500.965 344.928 500.618 344.928C500.357 344.928 500.075 344.928 499.815 344.928C497.015 344.906 494.193 344.517 491.394 343.998C491.35 343.998 491.285 343.976 491.242 343.976L489.332 330.241L488.572 324.855L488.203 322.173C488.203 322.173 489.028 321.697 490.33 321.178C490.352 321.178 490.352 321.157 490.373 321.157C493.651 321.871 497.427 321.87 502.962 322.433C503.591 322.498 503.851 323.428 504.264 324.055Z" fill="#61113F"/>
<path id="Vector_101" d="M490.352 322.433C490.352 323.168 490.33 323.882 490.265 324.574C490.026 327.754 489.288 330.263 489.288 330.263L487.899 344.906C486.185 344.539 485.36 347.329 483.667 346.983C483.19 346.896 481.584 347.978 481.106 347.891C480.563 347.805 479.5 345.642 478.957 345.577C477.785 345.404 478.675 345.079 477.482 344.971L473.445 323.558L473.097 320.897L473.076 320.659H478.154L483.537 321.135C486.272 321.135 486.272 321.135 489.288 321.611C490.873 321.849 490.178 319.578 490.287 321.179C490.33 321.59 490.352 322 490.352 322.433Z" fill="#61113F"/>
<path id="Vector_102" d="M490.352 322.433V310.926L488.182 322.174L490.352 322.433Z" fill="#E6E6E6"/>
<path id="Vector_103" d="M493.412 261.61L493.173 266.131L486.445 265.893L485.881 262.411L486.575 261.61C486.575 261.61 491.437 258.085 493.412 261.61Z" fill="#F2B694"/>
<path id="Vector_104" d="M502.94 322.433H490.352L488.181 322.173L473.097 320.638L473.271 321.935L488.181 323.103L502.94 322.433Z" fill="#E6E6E6"/>
<path id="Vector_105" d="M472.468 320.832L475.376 310.32L476.657 305.432L476.027 321.135L472.468 320.832Z" fill="#E6E6E6"/>
<path id="Vector_106" d="M495.734 267.732L489.918 268.208L484.448 268.662L486.163 265.764L494.15 265.634L495.734 267.732Z" fill="white"/>
<path id="Vector_107" d="M503.635 289.556L505.262 280.363L498.339 299.527L502.506 310.926L501.052 300.09L503.635 289.556Z" fill="#E6E6E6"/>
<path id="Vector_108" d="M472.728 272.058C472.728 272.058 463.678 292.627 466.174 294.401C468.67 296.175 476.201 299.333 476.201 299.333L472.728 272.058Z" fill="#EF4136"/>
<path id="Vector_109" d="M475.268 288.388C475.268 288.215 473.532 290.313 472.989 292.195C472.729 293.082 475.962 293.795 475.962 293.795L475.268 288.388Z" fill="#E6E6E6"/>
<path id="Vector_110" d="M484.275 255.165C484.275 255.165 484.058 256.744 484.08 257.242C484.101 257.739 483.689 260.356 483.689 260.356L484.275 260.486C484.275 260.486 484.904 263.601 485.273 263.709C485.642 263.817 486.641 263.579 486.641 263.579L489.679 259.448L485.903 255.792L484.275 255.165Z" fill="#F2B694"/>
<path id="Vector_111" d="M492.913 265.093L494.215 260.637C494.215 260.637 498.447 253.694 492.804 252.959C492.804 252.959 487.096 247.27 483.559 255.381L484.969 256.138C484.969 256.138 488.529 256.787 487.747 258.864L488.442 264.617L492.913 265.093Z" fill="#2F4A89"/>
<path id="Vector_112" d="M486.098 263.752C486.098 263.752 486.814 263.536 486.901 263.536C486.988 263.536 487.53 262.346 487.53 262.346L487.313 263.752L486.315 265.093L486.098 263.752Z" fill="#DCA587"/>
<path id="Vector_113" d="M487.292 258.063C487.292 258.063 488.008 256.83 488.529 257.479C489.05 258.128 488.898 260.853 488.095 260.334C487.292 259.794 487.292 258.063 487.292 258.063Z" fill="#F2B694"/>
<path id="Vector_114" d="M507.671 273.053C507.671 273.053 514.226 291.395 512.815 295.634C511.383 299.895 501.073 300.09 501.073 300.09L507.671 273.053Z" fill="#EF4136"/>
<path id="Vector_115" d="M503.569 288.388C503.569 288.388 507.324 292.908 505.892 293.557C504.459 294.206 502.701 293.341 502.701 293.341L503.569 288.388ZM476.483 311.229L477.026 304.61L474.552 279.347L478.154 302.62C478.176 302.599 478.089 306.773 476.483 311.229Z" fill="#E6E6E6"/>
<path id="Vector_116" d="M501.66 344.885C501.66 344.885 507.78 355.743 498.339 390.069H494.584L491.22 343.976L501.66 344.885ZM487.921 344.885C487.921 344.885 494.042 355.743 484.601 390.069H480.846L477.482 343.976L487.921 344.885Z" fill="#61113F"/>
<path id="Vector_117" d="M498.448 389.658L499.598 391.193L499.034 394.546H496.928V392.578L495.452 394.113L489.875 392.729L489.245 391.193L494.563 389.658H498.448Z" fill="black"/>
<path id="Vector_118" d="M484.622 389.398L485.772 390.934L485.208 394.287H483.103V392.318L481.627 393.854L476.049 392.491L475.42 390.934L480.737 389.398H484.622Z" fill="black"/>
<path id="Vector_119" d="M489.31 330.241C489.31 330.241 492.088 325.959 491.22 322.952C491.22 322.952 492.674 325.721 490.352 330.977L490.699 340.299L489.31 330.241Z" fill="#E6E6E6"/>
<path id="Vector_120" d="M492.349 321.503L490.482 309.563L489.31 321.611L492.349 321.503Z" fill="white"/>
<g id="Group_16">
<path id="Vector_121" opacity="0.29" d="M405.122 260.082L408.314 263.263L445.577 226.129L442.385 222.948L405.122 260.082Z" fill="white"/>
<path id="Vector_122" opacity="0.29" d="M398.999 252.289L402.191 255.47L439.454 218.336L436.262 215.155L398.999 252.289Z" fill="white"/>
</g>
</g>
<path id="Vector_123" d="M515.025 391.656H69.1553V394.382H515.025V391.656Z" fill="#C8CBE3"/>
</g>
<defs>
<linearGradient id="paint0_linear_763_74221" x1="215.314" y1="247.239" x2="339.831" y2="247.239" gradientUnits="userSpaceOnUse">
<stop stop-color="#4C5070"/>
<stop offset="0.184" stop-color="white" stop-opacity="0"/>
<stop offset="0.827" stop-color="white" stop-opacity="0"/>
<stop offset="1" stop-color="white"/>
</linearGradient>
</defs>
</svg>
