<svg width="520" height="366" viewBox="0 0 520 366" fill="none" xmlns="http://www.w3.org/2000/svg">
<g id="image-uploading 1">
<path id="Vector" d="M480.265 226.79C451.72 199.531 439.474 178.691 449.616 143.758C461.765 101.911 446.241 61.7508 396.821 45.4032C353.675 31.131 330.083 64.6966 289.652 76.9372C216.082 99.2106 205.584 33.7345 138.288 68.1837C90.2027 92.7987 109.776 131.946 101.339 159.619C97.23 173.098 82.4405 187.63 65.4231 191.973C6.99244 206.884 5.26737 290.415 45.4663 328.358L485.942 327.546C509.575 296.635 506.626 251.963 480.265 226.79Z" fill="#F4F4FF"/>
<path id="Vector_2" d="M431.246 80.2212C431.189 79.1252 429.423 78.3254 427.301 78.4352C425.531 78.5267 424.077 79.2232 423.675 80.0878C423.605 80.0733 423.536 80.0588 423.467 80.0432C421.705 79.6486 419.885 79.1141 418.359 78.1237L418.354 78.121C418.502 77.9476 418.65 77.7741 418.794 77.5968C419.808 76.3464 420.712 75.0231 421.563 73.6656C422.317 74.1558 423.259 74.2134 424.134 74.2855C425.136 74.3678 426.144 74.3891 427.149 74.3506C427.925 74.3209 428.698 74.2546 429.466 74.1543C429.474 74.1837 429.484 74.213 429.495 74.2416C429.888 75.2664 431.814 75.481 433.798 74.7208C435.782 73.9603 437.071 72.5135 436.679 71.4884C436.286 70.4636 434.359 70.249 432.376 71.0091C430.821 71.605 429.693 72.6229 429.467 73.5291C428.753 73.6252 428.036 73.6904 427.316 73.722C426.407 73.7624 425.495 73.7533 424.587 73.6945C423.698 73.637 422.664 73.632 421.891 73.1349C422.93 71.4441 423.9 69.7088 424.91 67.9986C424.932 68.0085 424.957 68.0169 424.986 68.0214C426.717 68.3119 428.444 68.1644 430.112 67.6204C430.391 67.5293 430.666 67.4271 430.939 67.3211C431.676 67.9147 433.261 67.946 434.885 67.3238C436.868 66.5632 438.158 65.1165 437.766 64.0913C437.372 63.0662 435.446 62.8519 433.462 63.6121C431.523 64.3555 430.248 65.755 430.559 66.7748C428.874 67.4008 427.116 67.7336 425.244 67.4366C425.796 66.5163 426.362 65.6052 426.961 64.7162C427.913 63.3048 428.953 61.9465 430.121 60.7136C431 61.1311 432.599 60.5733 433.959 59.308C435.515 57.8612 436.17 56.0367 435.422 55.233C434.674 54.4294 432.808 54.9509 431.252 56.3981C429.794 57.7541 429.128 59.4418 429.665 60.3103C427.822 62.2618 426.3 64.5057 424.896 66.8171C424.605 66.0184 424.515 65.1588 424.398 64.3204C424.264 63.3536 424.135 62.3853 424.052 61.4124C423.998 60.7731 423.966 60.1311 423.962 59.4895C424.732 58.9676 425.318 57.5875 425.377 55.9429C425.454 53.8198 424.627 52.0665 423.53 52.0269C422.433 51.9872 421.482 53.6761 421.405 55.7992C421.328 57.9222 422.155 59.6755 423.252 59.7152C423.284 59.7163 423.315 59.711 423.346 59.7094C423.356 60.3198 423.389 60.9302 423.443 61.5397C423.529 62.5153 423.655 63.4867 423.791 64.4565C423.931 65.4603 424.049 66.4683 424.461 67.4042C424.473 67.4302 424.486 67.4519 424.501 67.4713C424.184 68.0039 423.872 68.5388 423.562 69.0733C422.861 70.2844 422.163 71.4994 421.432 72.6938C420.104 70.5311 419.145 68.1678 418.593 65.7074C419.366 65.1542 419.796 63.6087 419.585 61.8607C419.331 59.7514 418.243 58.1479 417.153 58.2787C416.064 58.4098 415.386 60.226 415.639 62.3354C415.887 64.4001 416.937 65.9761 418.003 65.9189C418.577 68.4465 419.567 70.8746 420.945 73.0903C420.988 73.1593 421.045 73.2012 421.107 73.2233C420.625 73.9961 420.127 74.7582 419.601 75.5023C419.023 76.3197 418.407 77.1039 417.757 77.8568C417.745 77.8332 417.731 77.8103 417.712 77.7882C416.508 76.4101 415.507 74.8726 414.744 73.2081C414.544 72.7712 414.351 72.3172 414.173 71.8517C414.766 71.1319 414.921 69.6272 414.491 68.0272C413.938 65.9758 412.631 64.5442 411.571 64.8294C410.512 65.1149 410.1 67.0093 410.653 69.0607C411.205 71.1121 412.512 72.5436 413.572 72.2584C413.601 72.2508 413.629 72.2409 413.657 72.231C413.802 72.6038 413.956 72.9706 414.115 73.3274C414.909 75.1043 415.976 76.7478 417.256 78.2125C417.29 78.2522 417.328 78.2785 417.367 78.2952C416.399 79.3757 415.361 80.3928 414.257 81.347C414.048 81.5281 413.835 81.705 413.621 81.8819C413.61 81.8594 413.596 81.8373 413.578 81.8159C412.897 81.0237 412.288 80.1724 411.759 79.275C412.24 78.5019 412.341 77.1092 411.944 75.6354C411.392 73.584 410.085 72.1525 409.025 72.4376C407.965 72.7232 407.554 74.6175 408.106 76.6689C408.659 78.7203 409.965 80.1519 411.025 79.8667C411.128 79.8389 411.226 79.7954 411.316 79.7378C411.845 80.6185 412.448 81.4557 413.122 82.2402C413.131 82.2513 413.141 82.2589 413.151 82.2677C411.181 83.8586 409.084 85.2859 406.955 86.6572C406.62 86.8726 406.906 87.4265 407.243 87.2096C409.467 85.7773 411.669 84.2745 413.722 82.6001C414.447 83.1194 415.214 83.613 416.019 84.0172C416.009 84.0618 415.999 84.106 415.995 84.1517C415.91 85.2459 417.558 86.2672 419.676 86.4326C421.794 86.5981 423.58 85.8452 423.665 84.751C423.751 83.6569 422.103 82.636 419.985 82.4701C418.35 82.3424 416.916 82.7633 416.306 83.4648C415.579 83.1011 414.883 82.6592 414.218 82.1914C415.545 81.0771 416.802 79.8831 417.955 78.5835C417.976 78.6098 418.001 78.6345 418.034 78.6559C419.669 79.7176 421.645 80.3013 423.541 80.6962C423.551 80.6985 423.562 80.7004 423.572 80.7024C423.711 81.7561 425.44 82.5132 427.508 82.4065C429.629 82.2948 431.303 81.3173 431.246 80.2212ZM427 135.116C422.711 135.074 417.567 132.168 416.154 129.079C415.221 127.05 425.287 135.865 428.174 133.956C431.053 132.052 433.967 126.717 433.967 126.717C430.508 128.484 418.26 125.202 417.78 122.006C417.294 118.767 432.57 127.75 434.368 125.301C436.177 122.855 439.202 114.761 439.202 114.761C435.023 118.355 426.009 118.453 425.091 117.051C423.569 114.726 437.7 116.827 439.181 113.605C440.662 110.385 440.968 104.823 440.968 104.823C440.968 104.823 433.939 110.648 430.696 109.562C427.451 108.489 439.307 107.034 440.566 104.094C441.725 101.377 441.5 96.6165 441.442 96.4102C440.171 98.7541 431.499 104.923 429.257 104.371C425.61 103.481 439.213 101.205 439.589 93.4454C439.828 88.3411 440.294 86.1967 441.159 83.4674C437.222 85.4273 432.36 86.7113 428.896 87.5969C422.328 89.2766 425.797 105.614 423.66 102.289C421.559 99.0198 422.424 89.139 425.788 88.1215C425.788 88.1215 419.078 88.5858 417.143 90.9853C415.908 92.511 420.604 104.961 418.272 105.474C415.933 105.992 412.155 94.0119 415.287 92.5503C415.287 92.5503 406.597 94.2559 407.444 98.6732C408.283 103.096 415.294 113.457 413.259 113.524C411.22 113.585 403.423 99.1803 406.495 96.3569C406.495 96.3569 399.592 100.329 400.844 104.453C402.096 108.578 409.033 112.855 407.915 113.574C406.805 114.287 402.323 112.256 399.7 105.003C399.7 105.003 394.862 108.92 394.823 113.194C394.765 119.458 401.284 125.244 406.766 125.476C405.41 129.699 412.575 137.942 419.757 140.142C422.802 141.069 427 135.116 427 135.116ZM429.481 93.7843C428.892 93.7595 428.449 92.8888 428.491 91.8332C428.534 90.7775 429.045 89.94 429.633 89.9648C430.222 89.9895 430.665 90.8603 430.623 91.9159C430.58 92.9711 430.069 93.8087 429.481 93.7843ZM420.557 94.2513C420.182 94.3119 419.818 93.9101 419.726 93.3543C419.634 92.7984 419.864 92.3002 420.232 92.2445C420.606 92.1839 420.97 92.5861 421.063 93.1416C421.147 93.702 420.924 94.1957 420.557 94.2513ZM400.003 116.307C399.099 114.703 399.095 112.999 399.992 112.497C400.889 111.995 402.34 112.885 403.239 114.481C404.135 116.089 404.147 117.789 403.25 118.291C402.353 118.793 400.901 117.903 400.003 116.307ZM414.881 111.068C414.452 110.103 414.547 109.13 415.091 108.887C415.631 108.656 416.413 109.245 416.835 110.215C417.256 111.184 417.161 112.157 416.621 112.388C416.085 112.627 415.303 112.037 414.881 111.068ZM429.218 112.21C429.333 111.861 429.909 111.734 430.484 111.937C431.067 112.135 431.443 112.571 431.321 112.925C431.203 113.287 430.635 113.409 430.052 113.211C429.469 113.013 429.096 112.564 429.218 112.21ZM414.727 134.958C413.557 133.961 413.067 132.622 413.622 131.968C414.177 131.314 415.575 131.593 416.746 132.589C417.909 133.591 418.407 134.925 417.852 135.579C417.296 136.233 415.898 135.954 414.727 134.958ZM401.783 96.1552C397.761 97.6473 391.919 96.7694 389.496 94.389C387.9 92.8267 400.451 97.4666 402.466 94.6531C404.475 91.8469 405.292 85.8234 405.292 85.8234C402.693 88.709 390.08 90.0158 388.49 87.2016C386.879 84.35 404.356 87.2866 405.161 84.3572C405.978 81.4263 405.913 72.7865 405.913 72.7865C403.293 77.635 394.908 80.9444 393.55 79.9628C391.298 78.3349 405.248 75.2519 405.481 71.714C405.715 68.1766 404.015 62.8725 404.015 62.8725C404.015 62.8725 399.529 70.8235 396.113 70.9668C392.698 71.1228 403.253 65.5305 403.379 62.3346C403.492 59.3835 401.582 55.0165 401.454 54.8449C401.104 57.488 395.205 66.3463 392.914 66.6311C389.191 67.1023 401.083 60.1193 398.665 52.7367C397.065 47.8836 396.735 45.7141 396.568 42.856C393.591 46.0922 389.508 49.0273 386.588 51.0913C381.053 55.005 390.126 69.0268 386.943 66.6848C383.813 64.3814 381.093 54.843 383.872 52.6914C383.872 52.6914 377.77 55.5205 376.82 58.4529C376.211 60.319 385.042 70.2722 383.047 71.5837C381.047 72.9023 373.241 63.0609 375.644 60.5775C375.644 60.5775 368.136 65.2731 370.504 69.0973C372.867 72.9287 383.114 80.1042 381.238 80.8937C379.354 81.6779 366.929 71.0061 368.791 67.2719C368.791 67.2719 363.76 73.4467 366.402 76.8527C369.044 80.2586 377.051 81.777 376.264 82.8475C375.481 83.9104 370.569 83.6134 365.53 77.7745C365.53 77.7745 362.41 83.1609 363.898 87.1665C366.081 93.0386 374.236 96.1163 379.44 94.3756C379.68 98.8044 389.316 103.946 396.811 103.437C399.987 103.216 401.783 96.1552 401.783 96.1552ZM389.344 56.6623C388.785 56.8491 388.061 56.1941 387.723 55.193C387.386 54.1919 387.565 53.227 388.123 53.0402C388.681 52.853 389.406 53.5083 389.743 54.5094C390.081 55.5102 389.902 56.4751 389.344 56.6623ZM381.175 60.2843C380.847 60.4746 380.363 60.2294 380.078 59.743C379.794 59.2569 379.832 58.7091 380.155 58.5257C380.483 58.3355 380.967 58.581 381.251 59.0667C381.53 59.5604 381.498 60.101 381.175 60.2843ZM369.849 88.2244C368.433 87.0495 367.821 85.4586 368.479 84.6694C369.137 83.8803 370.811 84.1933 372.22 85.3633C373.631 86.5455 374.249 88.1291 373.591 88.9183C372.932 89.707 371.259 89.3941 369.849 88.2244ZM381.877 78.0189C381.132 77.2709 380.874 76.3281 381.294 75.9068C381.716 75.4982 382.657 75.7696 383.397 76.5244C384.137 77.2797 384.396 78.2224 383.973 78.6311C383.558 79.0455 382.617 78.7741 381.877 78.0189ZM395.677 73.9675C395.659 73.6004 396.152 73.2763 396.762 73.2603C397.377 73.2371 397.884 73.5104 397.897 73.8852C397.916 74.2649 397.429 74.5817 396.813 74.6049C396.198 74.6278 395.689 74.3419 395.677 73.9675ZM390.263 100.389C388.813 99.876 387.878 98.8002 388.163 97.9912C388.448 97.1822 389.853 96.9432 391.303 97.456C392.747 97.9763 393.688 99.0449 393.402 99.8539C393.117 100.663 391.712 100.902 390.263 100.389ZM103.925 194.565C104.039 193.473 105.844 192.767 107.957 192.987C109.72 193.17 111.137 193.941 111.493 194.826C111.563 194.815 111.632 194.804 111.702 194.792C113.483 194.49 115.329 194.051 116.903 193.142C116.903 193.142 116.906 193.141 116.908 193.139C116.77 192.958 116.631 192.778 116.497 192.593C115.549 191.292 114.716 189.923 113.936 188.523C113.157 188.973 112.214 188.981 111.337 189.008C110.331 189.038 109.324 189.006 108.322 188.916C107.55 188.846 106.781 188.739 106.019 188.599C106.009 188.628 105.998 188.656 105.986 188.685C105.54 189.688 103.605 189.802 101.664 188.939C99.7221 188.076 98.5097 186.564 98.9554 185.561C99.4011 184.558 101.336 184.444 103.277 185.307C104.799 185.983 105.873 187.058 106.052 187.974C106.759 188.108 107.472 188.21 108.189 188.279C109.095 188.367 110.006 188.406 110.916 188.394C111.807 188.383 112.84 188.432 113.637 187.976C112.689 186.233 111.81 184.45 110.891 182.689C110.868 182.698 110.843 182.705 110.814 182.709C109.069 182.909 107.352 182.671 105.715 182.041C105.441 181.935 105.172 181.819 104.905 181.699C104.137 182.253 102.553 182.202 100.964 181.496C99.0225 180.633 97.8102 179.121 98.2558 178.118C98.7015 177.115 100.637 177.001 102.578 177.863C104.476 178.707 105.677 180.171 105.313 181.173C106.963 181.886 108.702 182.31 110.586 182.111C110.083 181.163 109.565 180.224 109.013 179.305C108.136 177.846 107.169 176.435 106.067 175.143C105.166 175.514 103.599 174.874 102.306 173.539C100.828 172.013 100.27 170.157 101.058 169.393C101.846 168.63 103.684 169.248 105.161 170.774C106.546 172.204 107.125 173.925 106.543 174.764C108.282 176.809 109.684 179.129 110.967 181.51C111.298 180.727 111.433 179.874 111.593 179.043C111.778 178.084 111.957 177.123 112.09 176.156C112.178 175.521 112.243 174.881 112.281 174.241C111.539 173.68 111.026 172.271 111.053 170.625C111.087 168.501 112.004 166.794 113.101 166.811C114.199 166.829 115.061 168.565 115.027 170.689C114.993 172.813 114.076 174.521 112.978 174.503C112.947 174.503 112.916 174.496 112.884 174.493C112.843 175.101 112.778 175.709 112.692 176.315C112.555 177.285 112.379 178.248 112.193 179.21C112.001 180.205 111.83 181.206 111.37 182.119C111.357 182.144 111.342 182.165 111.326 182.184C111.616 182.732 111.9 183.283 112.181 183.832C112.819 185.078 113.452 186.328 114.119 187.559C115.558 185.468 116.639 183.158 117.319 180.73C116.576 180.137 116.227 178.571 116.528 176.837C116.891 174.743 118.062 173.199 119.144 173.387C120.225 173.574 120.807 175.423 120.444 177.517C120.088 179.566 118.959 181.085 117.897 180.972C117.192 183.466 116.077 185.839 114.586 187.98C114.539 188.047 114.48 188.086 114.417 188.104C114.858 188.901 115.316 189.688 115.802 190.459C116.337 191.305 116.91 192.12 117.521 192.906C117.534 192.883 117.55 192.861 117.57 192.84C118.844 191.526 119.924 190.043 120.772 188.421C120.994 187.995 121.211 187.551 121.413 187.096C120.859 186.346 120.782 184.835 121.295 183.26C121.954 181.24 123.334 179.878 124.377 180.218C125.421 180.559 125.733 182.472 125.074 184.492C124.416 186.511 123.036 187.873 121.992 187.533C121.963 187.523 121.936 187.512 121.908 187.501C121.744 187.865 121.571 188.223 121.394 188.571C120.509 190.305 119.357 191.89 118.003 193.287C117.967 193.324 117.927 193.349 117.887 193.363C118.798 194.493 119.782 195.562 120.834 196.573C121.034 196.765 121.238 196.952 121.441 197.14C121.454 197.118 121.469 197.097 121.488 197.076C122.209 196.321 122.861 195.503 123.437 194.633C122.997 193.836 122.968 192.44 123.442 190.989C124.1 188.969 125.48 187.608 126.523 187.948C127.567 188.288 127.879 190.201 127.22 192.221C126.562 194.241 125.182 195.603 124.138 195.262C124.037 195.229 123.942 195.18 123.854 195.118C123.28 195.97 122.635 196.775 121.921 197.523C121.911 197.533 121.901 197.541 121.89 197.549C123.775 199.241 125.795 200.775 127.849 202.255C128.172 202.488 127.858 203.026 127.533 202.792C125.387 201.246 123.266 199.63 121.303 197.851C120.551 198.332 119.76 198.785 118.935 199.147C118.942 199.192 118.951 199.236 118.952 199.283C118.98 200.38 117.282 201.314 115.158 201.368C113.034 201.423 111.29 200.578 111.262 199.481C111.233 198.384 112.932 197.45 115.056 197.395C116.695 197.353 118.105 197.848 118.677 198.58C119.423 198.255 120.141 197.85 120.829 197.417C119.562 196.235 118.369 194.977 117.285 193.619C117.263 193.644 117.237 193.668 117.203 193.687C115.515 194.662 113.512 195.142 111.598 195.438C111.587 195.439 111.576 195.441 111.566 195.442C111.373 196.487 109.607 197.153 107.547 196.939C105.433 196.72 103.812 195.656 103.925 194.565ZM115.684 254.192C126.419 252.618 130.136 243.893 128.821 239.657C134.305 239.481 140.883 233.76 140.888 227.496C140.892 223.222 136.094 219.256 136.094 219.256C133.398 226.483 128.896 228.468 127.793 227.744C126.682 227.014 133.662 222.807 134.956 218.695C136.249 214.583 129.386 210.542 129.386 210.542C132.43 213.397 124.488 227.722 122.45 227.641C120.416 227.553 127.531 217.263 128.414 212.849C129.305 208.44 120.634 206.647 120.634 206.647C123.75 208.14 119.851 220.081 117.518 219.54C115.192 219.004 120.012 206.602 118.793 205.064C116.882 202.645 110.178 202.112 110.178 202.112C113.531 203.164 114.297 213.053 112.162 216.301C109.992 219.603 113.625 203.302 107.075 201.557C103.62 200.636 98.7705 199.303 94.8545 197.304C95.6913 200.041 96.1358 202.19 96.323 207.297C96.6215 215.059 110.2 217.473 106.545 218.326C104.297 218.855 95.6875 212.599 94.4401 210.243C94.3795 210.448 94.1073 215.207 95.2384 217.935C96.4675 220.887 108.441 223.056 105.052 223.503C101.731 223.941 94.9136 220.296 94.9136 220.296C94.9136 220.296 95.079 224.224 96.5273 227.46C97.976 230.696 112.128 228.738 110.582 231.047C109.65 232.439 100.638 232.251 96.4953 228.615C96.4953 228.615 99.438 236.739 101.223 239.203C102.995 241.67 118.362 232.842 117.843 236.076C117.331 239.268 105.05 242.426 101.61 240.624C101.61 240.624 104.469 245.988 107.329 247.921C110.196 249.858 120.352 241.145 119.398 243.165C117.954 246.239 112.78 249.093 108.492 249.092C108.492 249.092 112.535 254.653 115.684 254.192ZM105.305 205.858C105.274 204.802 105.725 203.935 106.314 203.917C106.903 203.898 107.405 204.741 107.437 205.797C107.469 206.853 107.017 207.719 106.428 207.738C105.84 207.756 105.337 206.914 105.305 205.858ZM114.852 207.18C114.95 206.625 115.318 206.227 115.692 206.291C116.059 206.351 116.285 206.851 116.187 207.406C116.089 207.961 115.72 208.359 115.346 208.294C114.98 208.235 114.762 207.739 114.852 207.18ZM132.41 232.507C131.519 231.996 131.547 230.296 132.46 228.697C133.374 227.111 134.835 226.235 135.727 226.746C136.618 227.258 136.597 228.962 135.678 230.556C134.763 232.143 133.302 233.018 132.41 232.507ZM119.1 226.47C118.562 226.234 118.476 225.26 118.908 224.295C119.339 223.33 120.127 222.748 120.665 222.985C121.206 223.233 121.291 224.207 120.853 225.168C120.421 226.133 119.633 226.714 119.1 226.47ZM105.661 227.157C105.076 227.349 104.508 227.222 104.395 226.859C104.276 226.504 104.657 226.071 105.242 225.879C105.819 225.682 106.394 225.814 106.505 226.165C106.623 226.52 106.246 226.966 105.661 227.157ZM117.635 249.647C117.087 248.988 117.598 247.659 118.771 246.669C119.952 245.685 121.353 245.42 121.901 246.079C122.45 246.739 121.946 248.073 120.766 249.058C119.585 250.042 118.184 250.307 117.635 249.647Z" fill="#195494"/>
<path id="Vector_3" d="M407.208 85.2354H129.062V260.745H407.208V85.2354Z" fill="#D9B4F6"/>
<path id="Vector_4" d="M292.935 269.827H245.052V325.19H292.935V269.827Z" fill="#3E32B2"/>
<path id="Vector_5" d="M292.935 269.827V325.19H286.469C286.927 319.655 287.443 302.994 278.69 290.222C270.58 278.409 253.16 277.05 245.051 277.15V269.827H292.935Z" fill="#CCCCCC"/>
<path id="Vector_6" d="M317.054 311.903H220.931C213.003 311.903 206.576 318.331 206.576 326.259H331.41C331.41 318.331 324.983 311.903 317.054 311.903Z" fill="#4D4D4D"/>
<path id="Vector_7" d="M317.054 311.903H220.931C213.003 311.903 206.576 318.33 206.576 326.259H331.41C331.41 318.33 324.982 311.903 317.054 311.903ZM407.691 82.2012H130.293C128.012 82.2012 126.161 84.0521 126.161 86.333V268.513C126.161 270.794 128.012 272.645 130.293 272.645H407.691C409.975 272.645 411.823 270.794 411.823 268.513V86.333C411.823 84.0521 409.975 82.2012 407.691 82.2012ZM404.935 252.671C404.935 255.105 402.97 257.077 400.543 257.077H135.773C133.346 257.077 131.377 255.105 131.377 252.671V92.3366C131.377 89.9032 133.346 87.9307 135.773 87.9307H400.543C402.97 87.9307 404.935 89.9028 404.935 92.3366V252.671Z" fill="#61113F"/>
<path id="Vector_8" d="M137.948 266.172H149.14C150.034 266.172 150.759 265.448 150.759 264.553C150.759 263.659 150.034 262.934 149.14 262.934H137.948C137.054 262.934 136.329 263.66 136.329 264.553C136.329 265.448 137.054 266.172 137.948 266.172Z" fill="white"/>
<path id="Vector_9" d="M137.181 263.153C137.054 263.384 136.962 263.637 136.962 263.92C136.962 264.814 137.687 265.539 138.581 265.539H149.773C150.056 265.539 150.309 265.447 150.54 265.319C150.265 265.82 149.752 266.172 149.14 266.172H137.948C137.054 266.172 136.329 265.447 136.329 264.553C136.329 263.942 136.681 263.429 137.181 263.153Z" fill="#DFE2ED"/>
<path id="Vector_10" d="M153.903 266.172H160.341C161.236 266.172 161.96 265.448 161.96 264.553C161.96 263.659 161.236 262.934 160.341 262.934H153.903C153.008 262.934 152.284 263.66 152.284 264.553C152.284 265.448 153.009 266.172 153.903 266.172Z" fill="white"/>
<path id="Vector_11" d="M153.452 263.025C153.228 263.303 153.075 263.641 153.075 264.026C153.075 264.92 153.8 265.645 154.694 265.645H161.133C161.292 265.645 161.437 265.597 161.583 265.553C161.286 265.922 160.851 266.172 160.341 266.172H153.902C153.008 266.172 152.283 265.447 152.283 264.553C152.284 263.818 152.782 263.223 153.452 263.025Z" fill="#DFE2ED"/>
<path id="Vector_12" d="M165.549 266.258H171.988C172.883 266.258 173.607 265.533 173.607 264.639C173.607 263.745 172.883 263.02 171.988 263.02H165.549C164.655 263.02 163.931 263.745 163.931 264.639C163.931 265.533 164.655 266.258 165.549 266.258Z" fill="white"/>
<path id="Vector_13" d="M165.549 263.019H165.792C165.598 263.286 165.461 263.597 165.461 263.953C165.461 264.847 166.185 265.571 167.08 265.571H173.276C172.981 265.977 172.527 266.257 171.988 266.257H165.549C164.655 266.257 163.931 265.533 163.931 264.638C163.931 263.744 164.655 263.019 165.549 263.019Z" fill="#DFE2ED"/>
<path id="Vector_14" d="M180.561 264.553C180.561 263.178 179.447 262.064 178.072 262.064C176.697 262.064 175.582 263.178 175.582 264.553C175.582 265.929 176.697 267.042 178.072 267.042C179.447 267.042 180.561 265.928 180.561 264.553Z" fill="white"/>
<path id="Vector_15" d="M176.729 262.461C176.479 262.849 176.331 263.308 176.331 263.805C176.331 265.179 177.445 266.294 178.82 266.294C179.316 266.294 179.774 266.145 180.162 265.896C179.719 266.584 178.95 267.042 178.071 267.042C176.697 267.042 175.582 265.928 175.582 264.553C175.582 263.673 176.041 262.904 176.729 262.461Z" fill="#DFE2ED"/>
<path id="Vector_16" d="M317.054 311.903H220.932C216.47 311.903 212.484 313.939 209.851 317.131C211.588 316.385 213.501 315.968 215.512 315.968H311.634C318.15 315.968 323.643 320.312 325.397 326.259H331.41C331.41 318.331 324.983 311.903 317.054 311.903Z" fill="#CCCCCC"/>
<path id="Vector_17" d="M364.677 160.94C363.452 160.94 362.287 161.194 361.229 161.65C361.243 161.415 361.25 161.179 361.25 160.94C361.25 154.198 355.785 148.732 349.043 148.732C346.589 148.732 344.305 149.457 342.391 150.703C342.075 141.755 334.723 134.597 325.698 134.597C316.472 134.597 308.993 142.077 308.993 151.302C308.993 151.486 308.997 151.668 309.003 151.851C306.841 149.912 303.986 148.732 300.854 148.732C294.112 148.732 288.646 154.198 288.646 160.94C288.646 161.427 288.676 161.907 288.731 162.379C287.356 161.47 285.707 160.94 283.935 160.94C279.125 160.94 275.225 164.84 275.225 169.65C275.225 174.46 279.125 178.359 283.935 178.359C286.247 178.359 288.349 177.458 289.908 175.987C291.903 180.015 296.054 182.785 300.854 182.785C303.912 182.785 306.708 181.66 308.85 179.801C310.79 181.099 313.122 181.857 315.631 181.857C318.97 181.857 321.995 180.517 324.198 178.345C326.402 180.517 329.427 181.857 332.765 181.857C335.648 181.857 338.297 180.857 340.386 179.185C342.597 181.409 345.658 182.785 349.042 182.785C353.544 182.785 357.476 180.348 359.592 176.721C361.023 177.752 362.778 178.359 364.676 178.359C369.486 178.359 373.386 174.46 373.386 169.65C373.386 164.839 369.487 160.94 364.677 160.94Z" fill="white"/>
<path id="Vector_18" d="M326.45 158.646C326.75 161.016 326.918 164.407 327.207 167.571L321.269 167.574C321.558 164.306 321.845 161.053 322.152 158.646H318.718L324.301 147.522C324.307 147.522 324.312 147.522 324.312 147.522L329.895 158.646H326.45Z" fill="#D9B4F6"/>
<path id="Vector_19" d="M337.905 170.742H310.708V171.878H337.905V170.742Z" fill="white"/>
<path id="Vector_20" d="M367.77 211.383H280.842C279.597 211.383 278.583 210.37 278.583 209.124C278.583 207.879 279.597 206.865 280.842 206.865H367.77C369.016 206.865 370.029 207.879 370.029 209.124C370.029 210.37 369.016 211.383 367.77 211.383ZM280.842 207.367C279.874 207.367 279.086 208.155 279.086 209.124C279.086 210.092 279.874 210.88 280.842 210.88H367.77C368.739 210.88 369.527 210.092 369.527 209.124C369.527 208.155 368.739 207.367 367.77 207.367H280.842Z" fill="white"/>
<path id="Vector_21" d="M308.519 210.877H280.448C279.704 210.877 279.1 210.274 279.1 209.529V208.719C279.1 207.975 279.704 207.371 280.448 207.371H308.519C309.264 207.371 309.867 207.975 309.867 208.719V209.529C309.867 210.274 309.264 210.877 308.519 210.877Z" fill="white"/>
<path id="Vector_22" d="M383.833 233.019H374.296C374.019 233.019 373.794 232.795 373.794 232.517C373.794 232.24 374.019 232.015 374.296 232.015H383.331V228.627C383.331 228.35 383.556 228.125 383.833 228.125C384.111 228.125 384.335 228.35 384.335 228.627V232.517C384.335 232.794 384.111 233.019 383.833 233.019ZM364.153 233.019H354.616C354.339 233.019 354.114 232.795 354.114 232.517C354.114 232.24 354.339 232.015 354.616 232.015H364.153C364.43 232.015 364.655 232.24 364.655 232.517C364.655 232.794 364.43 233.019 364.153 233.019ZM344.473 233.019H334.936C334.658 233.019 334.434 232.795 334.434 232.517C334.434 232.24 334.658 232.015 334.936 232.015H344.473C344.75 232.015 344.975 232.24 344.975 232.517C344.975 232.794 344.75 233.019 344.473 233.019ZM324.793 233.019H315.255C314.978 233.019 314.753 232.795 314.753 232.517C314.753 232.24 314.978 232.015 315.255 232.015H324.793C325.07 232.015 325.295 232.24 325.295 232.517C325.295 232.794 325.07 233.019 324.793 233.019ZM305.113 233.019H295.575C295.298 233.019 295.073 232.795 295.073 232.517C295.073 232.24 295.298 232.015 295.575 232.015H305.113C305.39 232.015 305.615 232.24 305.615 232.517C305.614 232.794 305.39 233.019 305.113 233.019ZM285.432 233.019H275.895C275.618 233.019 275.393 232.795 275.393 232.517C275.393 232.24 275.618 232.015 275.895 232.015H285.432C285.709 232.015 285.934 232.24 285.934 232.517C285.934 232.794 285.709 233.019 285.432 233.019ZM265.752 233.019H264.779C264.502 233.019 264.277 232.795 264.277 232.517V223.952C264.277 223.675 264.502 223.45 264.779 223.45C265.057 223.45 265.282 223.675 265.282 223.952V232.015H265.752C266.029 232.015 266.254 232.24 266.254 232.517C266.254 232.794 266.03 233.019 265.752 233.019ZM383.833 218.987C383.556 218.987 383.331 218.762 383.331 218.485V208.948C383.331 208.67 383.556 208.445 383.833 208.445C384.111 208.445 384.335 208.67 384.335 208.948V218.485C384.335 218.762 384.111 218.987 383.833 218.987ZM264.779 214.311C264.502 214.311 264.277 214.087 264.277 213.809V204.272C264.277 203.995 264.502 203.77 264.779 203.77C265.057 203.77 265.282 203.995 265.282 204.272V213.809C265.282 214.087 265.057 214.311 264.779 214.311ZM383.833 199.307C383.556 199.307 383.331 199.082 383.331 198.805V189.267C383.331 188.99 383.556 188.765 383.833 188.765C384.111 188.765 384.335 188.99 384.335 189.267V198.805C384.335 199.082 384.111 199.307 383.833 199.307ZM264.779 194.631C264.502 194.631 264.277 194.406 264.277 194.129V184.592C264.277 184.315 264.502 184.09 264.779 184.09C265.057 184.09 265.282 184.315 265.282 184.592V194.129C265.282 194.407 265.057 194.631 264.779 194.631ZM383.833 179.626C383.556 179.626 383.331 179.401 383.331 179.124V169.587C383.331 169.31 383.556 169.085 383.833 169.085C384.111 169.085 384.335 169.31 384.335 169.587V179.125C384.335 179.402 384.111 179.626 383.833 179.626ZM264.779 174.951C264.502 174.951 264.277 174.726 264.277 174.449V164.912C264.277 164.635 264.502 164.41 264.779 164.41C265.057 164.41 265.282 164.635 265.282 164.912V174.449C265.282 174.726 265.057 174.951 264.779 174.951ZM383.833 159.946C383.556 159.946 383.331 159.721 383.331 159.444V149.907C383.331 149.63 383.556 149.405 383.833 149.405C384.111 149.405 384.335 149.63 384.335 149.907V159.444C384.335 159.721 384.111 159.946 383.833 159.946ZM264.779 155.271C264.502 155.271 264.277 155.046 264.277 154.768V145.231C264.277 144.954 264.502 144.729 264.779 144.729C265.057 144.729 265.282 144.954 265.282 145.231V154.768C265.282 155.046 265.057 155.271 264.779 155.271ZM383.833 140.266C383.556 140.266 383.331 140.041 383.331 139.764V130.227C383.331 129.949 383.556 129.725 383.833 129.725C384.111 129.725 384.335 129.949 384.335 130.227V139.764C384.335 140.041 384.111 140.266 383.833 140.266ZM264.779 135.591C264.502 135.591 264.277 135.366 264.277 135.088V125.551C264.277 125.274 264.502 125.049 264.779 125.049C265.057 125.049 265.282 125.274 265.282 125.551V135.088C265.282 135.366 265.057 135.591 264.779 135.591ZM383.833 120.586C383.556 120.586 383.331 120.361 383.331 120.084V113.966H380.916C380.638 113.966 380.414 113.741 380.414 113.464C380.414 113.186 380.638 112.961 380.916 112.961H383.833C384.111 112.961 384.335 113.186 384.335 113.464V120.084C384.335 120.361 384.111 120.586 383.833 120.586ZM264.779 115.91C264.502 115.91 264.277 115.685 264.277 115.408V113.464C264.277 113.186 264.502 112.961 264.779 112.961H272.372C272.649 112.961 272.874 113.186 272.874 113.464C272.874 113.741 272.649 113.966 272.372 113.966H265.282V115.408C265.282 115.686 265.057 115.91 264.779 115.91ZM370.773 113.966H361.236C360.959 113.966 360.734 113.741 360.734 113.464C360.734 113.186 360.958 112.961 361.236 112.961H370.773C371.05 112.961 371.275 113.186 371.275 113.464C371.275 113.741 371.05 113.966 370.773 113.966ZM351.093 113.966H341.556C341.279 113.966 341.054 113.741 341.054 113.464C341.054 113.186 341.279 112.961 341.556 112.961H351.093C351.37 112.961 351.595 113.186 351.595 113.464C351.595 113.741 351.37 113.966 351.093 113.966ZM331.413 113.966H321.875C321.598 113.966 321.373 113.741 321.373 113.464C321.373 113.186 321.598 112.961 321.875 112.961H331.413C331.69 112.961 331.915 113.186 331.915 113.464C331.915 113.741 331.69 113.966 331.413 113.966ZM311.733 113.966H302.195C301.918 113.966 301.693 113.741 301.693 113.464C301.693 113.186 301.918 112.961 302.195 112.961H311.733C312.01 112.961 312.235 113.186 312.235 113.464C312.234 113.741 312.01 113.966 311.733 113.966ZM292.052 113.966H282.515C282.238 113.966 282.013 113.741 282.013 113.464C282.013 113.186 282.238 112.961 282.515 112.961H292.052C292.33 112.961 292.554 113.186 292.554 113.464C292.554 113.741 292.33 113.966 292.052 113.966Z" fill="white"/>
<g id="Group 1261154832">
<path id="Vector_23" d="M190.101 147.131H150.601C149.371 147.131 148.369 145.98 148.369 144.565V118.267C148.369 116.852 149.37 115.7 150.601 115.7H190.101C191.332 115.7 192.333 116.852 192.333 118.267V144.565C192.333 145.98 191.332 147.131 190.101 147.131ZM150.601 116.87C149.931 116.87 149.386 117.497 149.386 118.267V144.565C149.386 145.336 149.931 145.962 150.601 145.962H190.101C190.771 145.962 191.316 145.336 191.316 144.565V118.267C191.316 117.497 190.771 116.87 190.101 116.87H150.601Z" fill="white"/>
<path id="Vector_24" d="M154.576 140.669L162.058 128.839C162.458 128.208 163.283 128.231 163.655 128.885L170.029 140.094C170.427 140.794 171.328 140.76 171.685 140.033L173.121 137.112C173.492 136.356 174.439 136.356 174.81 137.112L176.029 139.592C176.431 140.409 177.477 140.326 177.777 139.453L181.128 129.686C181.459 128.719 182.659 128.753 182.949 129.737L186.262 140.968C186.475 141.692 186.007 142.442 185.343 142.442H155.361C154.568 142.441 154.11 141.407 154.576 140.669Z" fill="white"/>
<path id="Vector_25" d="M172.006 128.162C173.568 128.162 174.835 126.706 174.835 124.909C174.835 123.113 173.568 121.656 172.006 121.656C170.443 121.656 169.177 123.113 169.177 124.909C169.177 126.706 170.443 128.162 172.006 128.162Z" fill="white"/>
<path id="Vector_26" d="M163.183 123.513C163.13 123.513 163.079 123.52 163.029 123.531C163.033 123.487 163.035 123.442 163.035 123.397C163.035 122.681 162.53 122.101 161.908 122.101C161.377 122.101 160.932 122.523 160.812 123.092C160.693 122.965 160.534 122.887 160.359 122.887C160.114 122.887 159.9 123.039 159.784 123.264C159.672 123.209 159.549 123.178 159.419 123.178C158.91 123.178 158.497 123.653 158.497 124.239C158.497 124.825 158.909 125.299 159.419 125.299C159.635 125.299 159.834 125.214 159.991 125.071C160.294 125.362 160.798 125.552 161.368 125.552C161.902 125.552 162.378 125.385 162.684 125.125C162.821 125.252 162.994 125.328 163.183 125.328C163.619 125.328 163.973 124.922 163.973 124.421C163.972 123.92 163.619 123.513 163.183 123.513ZM182.831 123.513C182.778 123.513 182.727 123.52 182.677 123.531C182.681 123.487 182.683 123.442 182.683 123.397C182.683 122.681 182.178 122.101 181.556 122.101C181.025 122.101 180.579 122.523 180.46 123.092C180.341 122.965 180.182 122.887 180.006 122.887C179.762 122.887 179.548 123.039 179.432 123.264C179.32 123.209 179.197 123.178 179.067 123.178C178.558 123.178 178.144 123.653 178.144 124.239C178.144 124.825 178.557 125.299 179.067 125.299C179.283 125.299 179.482 125.214 179.639 125.071C179.942 125.362 180.446 125.552 181.016 125.552C181.55 125.552 182.025 125.385 182.332 125.125C182.468 125.252 182.642 125.328 182.831 125.328C183.267 125.328 183.621 124.922 183.621 124.421C183.62 123.92 183.266 123.513 182.831 123.513ZM218.92 188.706H179.42C178.189 188.706 177.188 187.554 177.188 186.139V159.841C177.188 158.426 178.189 157.275 179.42 157.275H218.92C220.15 157.275 221.152 158.426 221.152 159.841V186.139C221.152 187.554 220.151 188.706 218.92 188.706ZM179.42 158.444C178.75 158.444 178.205 159.071 178.205 159.841V186.139C178.205 186.91 178.75 187.536 179.42 187.536H218.92C219.59 187.536 220.134 186.91 220.134 186.139V159.841C220.134 159.071 219.589 158.444 218.92 158.444H179.42Z" fill="white"/>
<path id="Vector_27" d="M183.395 182.244L190.877 170.414C191.276 169.782 192.102 169.806 192.473 170.459L198.847 181.668C199.245 182.368 200.146 182.334 200.504 181.607L201.939 178.686C202.311 177.93 203.257 177.93 203.629 178.686L204.848 181.167C205.249 181.984 206.295 181.9 206.595 181.027L209.946 171.26C210.278 170.294 211.477 170.327 211.768 171.311L215.08 182.542C215.294 183.266 214.826 184.016 214.161 184.016H184.179C183.386 184.015 182.929 182.981 183.395 182.244Z" fill="white"/>
<path id="Vector_28" d="M200.824 169.737C202.387 169.737 203.653 168.28 203.653 166.484C203.653 164.687 202.387 163.23 200.824 163.23C199.262 163.23 197.995 164.687 197.995 166.484C197.995 168.28 199.262 169.737 200.824 169.737Z" fill="white"/>
<path id="Vector_29" d="M192.001 165.089C191.949 165.089 191.897 165.094 191.848 165.106C191.852 165.062 191.854 165.017 191.854 164.972C191.854 164.256 191.349 163.676 190.727 163.676C190.196 163.676 189.75 164.098 189.631 164.667C189.512 164.54 189.353 164.462 189.177 164.462C188.933 164.462 188.719 164.614 188.603 164.84C188.491 164.784 188.368 164.754 188.238 164.754C187.729 164.754 187.315 165.229 187.315 165.814C187.315 166.4 187.728 166.875 188.238 166.875C188.454 166.875 188.653 166.789 188.81 166.646C189.113 166.937 189.617 167.127 190.186 167.127C190.721 167.127 191.196 166.96 191.503 166.7C191.639 166.827 191.813 166.904 192.002 166.904C192.438 166.904 192.791 166.497 192.791 165.996C192.791 165.495 192.437 165.089 192.001 165.089ZM211.649 165.089C211.596 165.089 211.545 165.094 211.495 165.106C211.499 165.062 211.501 165.017 211.501 164.972C211.501 164.256 210.997 163.676 210.374 163.676C209.843 163.676 209.398 164.098 209.279 164.667C209.16 164.54 209 164.462 208.825 164.462C208.58 164.462 208.366 164.614 208.25 164.84C208.138 164.784 208.015 164.754 207.885 164.754C207.376 164.754 206.963 165.229 206.963 165.814C206.963 166.4 207.375 166.875 207.885 166.875C208.101 166.875 208.3 166.789 208.457 166.646C208.76 166.937 209.264 167.127 209.834 167.127C210.368 167.127 210.843 166.96 211.15 166.7C211.286 166.827 211.46 166.904 211.649 166.904C212.085 166.904 212.439 166.497 212.439 165.996C212.439 165.495 212.085 165.089 211.649 165.089ZM190.101 230.28H150.601C149.371 230.28 148.369 229.129 148.369 227.714V201.416C148.369 200.001 149.37 198.849 150.601 198.849H190.101C191.332 198.849 192.333 200.001 192.333 201.416V227.714C192.333 229.129 191.332 230.28 190.101 230.28ZM150.601 200.019C149.931 200.019 149.386 200.646 149.386 201.416V227.714C149.386 228.485 149.931 229.112 150.601 229.112H190.101C190.771 229.112 191.316 228.485 191.316 227.714V201.416C191.316 200.646 190.771 200.019 190.101 200.019H150.601Z" fill="white"/>
<path id="Vector_30" d="M154.576 223.818L162.058 211.988C162.458 211.356 163.283 211.38 163.655 212.034L170.029 223.243C170.427 223.942 171.328 223.909 171.685 223.181L173.121 220.26C173.492 219.505 174.439 219.505 174.81 220.26L176.029 222.741C176.431 223.558 177.477 223.474 177.777 222.601L181.128 212.834C181.459 211.868 182.659 211.901 182.949 212.885L186.262 224.116C186.475 224.84 186.007 225.59 185.343 225.59H155.361C154.568 225.59 154.11 224.556 154.576 223.818Z" fill="white"/>
<path id="Vector_31" d="M172.006 211.311C173.568 211.311 174.835 209.854 174.835 208.058C174.835 206.261 173.568 204.805 172.006 204.805C170.443 204.805 169.177 206.261 169.177 208.058C169.177 209.854 170.443 211.311 172.006 211.311Z" fill="white"/>
<path id="Vector_32" d="M163.183 206.662C163.13 206.662 163.079 206.668 163.029 206.679C163.033 206.635 163.035 206.591 163.035 206.545C163.035 205.829 162.53 205.249 161.908 205.249C161.377 205.249 160.932 205.672 160.812 206.24C160.693 206.113 160.534 206.036 160.359 206.036C160.114 206.036 159.9 206.187 159.784 206.413C159.672 206.358 159.549 206.327 159.419 206.327C158.91 206.327 158.497 206.802 158.497 207.388C158.497 207.974 158.909 208.448 159.419 208.448C159.635 208.448 159.834 208.363 159.991 208.219C160.294 208.51 160.798 208.701 161.368 208.701C161.902 208.701 162.378 208.534 162.684 208.273C162.821 208.401 162.994 208.477 163.183 208.477C163.619 208.477 163.973 208.071 163.973 207.569C163.972 207.068 163.619 206.662 163.183 206.662ZM182.831 206.662C182.778 206.662 182.727 206.668 182.677 206.679C182.681 206.635 182.683 206.591 182.683 206.545C182.683 205.829 182.178 205.249 181.556 205.249C181.025 205.249 180.579 205.672 180.46 206.24C180.341 206.113 180.182 206.036 180.006 206.036C179.762 206.036 179.548 206.187 179.432 206.413C179.32 206.358 179.197 206.327 179.067 206.327C178.558 206.327 178.144 206.802 178.144 207.388C178.144 207.974 178.557 208.448 179.067 208.448C179.283 208.448 179.482 208.363 179.639 208.219C179.942 208.51 180.446 208.701 181.016 208.701C181.55 208.701 182.025 208.534 182.332 208.273C182.468 208.401 182.642 208.477 182.831 208.477C183.267 208.477 183.621 208.071 183.621 207.569C183.62 207.068 183.266 206.662 182.831 206.662ZM247.974 147.131H208.475C207.244 147.131 206.242 145.98 206.242 144.565V118.267C206.242 116.852 207.244 115.7 208.475 115.7H247.974C249.205 115.7 250.206 116.852 250.206 118.267V144.565C250.206 145.98 249.205 147.131 247.974 147.131ZM208.475 116.87C207.804 116.87 207.26 117.497 207.26 118.267V144.565C207.26 145.336 207.804 145.962 208.475 145.962H247.974C248.645 145.962 249.189 145.336 249.189 144.565V118.267C249.189 117.497 248.645 116.87 247.974 116.87H208.475Z" fill="white"/>
<path id="Vector_33" d="M212.449 140.669L219.932 128.839C220.331 128.208 221.156 128.231 221.528 128.885L227.902 140.094C228.3 140.794 229.2 140.76 229.558 140.033L230.994 137.112C231.365 136.356 232.312 136.356 232.683 137.112L233.903 139.592C234.304 140.409 235.35 140.326 235.65 139.453L239.001 129.686C239.332 128.719 240.532 128.753 240.822 129.737L244.135 140.968C244.348 141.692 243.88 142.442 243.216 142.442H213.234C212.441 142.441 211.983 141.407 212.449 140.669Z" fill="white"/>
<path id="Vector_34" d="M229.879 128.162C231.442 128.162 232.709 126.706 232.709 124.909C232.709 123.113 231.442 121.656 229.879 121.656C228.317 121.656 227.05 123.113 227.05 124.909C227.05 126.706 228.317 128.162 229.879 128.162Z" fill="white"/>
<path id="Vector_35" d="M221.056 123.513C221.004 123.513 220.952 123.52 220.903 123.531C220.906 123.487 220.909 123.442 220.909 123.397C220.909 122.681 220.404 122.101 219.781 122.101C219.25 122.101 218.805 122.523 218.686 123.092C218.567 122.965 218.407 122.887 218.232 122.887C217.987 122.887 217.773 123.039 217.658 123.264C217.546 123.209 217.422 123.178 217.293 123.178C216.783 123.178 216.37 123.653 216.37 124.239C216.37 124.825 216.783 125.299 217.293 125.299C217.509 125.299 217.707 125.214 217.865 125.071C218.168 125.362 218.671 125.552 219.241 125.552C219.775 125.552 220.251 125.385 220.558 125.125C220.694 125.252 220.867 125.328 221.057 125.328C221.493 125.328 221.846 124.922 221.846 124.421C221.846 123.92 221.492 123.513 221.056 123.513ZM240.704 123.513C240.652 123.513 240.6 123.52 240.55 123.531C240.554 123.487 240.557 123.442 240.557 123.397C240.557 122.681 240.052 122.101 239.429 122.101C238.898 122.101 238.453 122.523 238.334 123.092C238.215 122.965 238.055 122.887 237.88 122.887C237.635 122.887 237.421 123.039 237.305 123.264C237.193 123.209 237.07 123.178 236.941 123.178C236.431 123.178 236.018 123.653 236.018 124.239C236.018 124.825 236.431 125.299 236.941 125.299C237.157 125.299 237.355 125.214 237.513 125.071C237.816 125.362 238.319 125.552 238.889 125.552C239.423 125.552 239.899 125.385 240.206 125.125C240.342 125.252 240.515 125.328 240.704 125.328C241.141 125.328 241.494 124.922 241.494 124.421C241.494 123.92 241.14 123.513 240.704 123.513ZM247.975 230.28H208.475C207.244 230.28 206.243 229.128 206.243 227.713V201.415C206.243 200 207.244 198.849 208.475 198.849H247.975C249.205 198.849 250.207 200 250.207 201.415V227.713C250.207 229.128 249.206 230.28 247.975 230.28ZM208.475 200.018C207.805 200.018 207.26 200.645 207.26 201.415V227.714C207.26 228.484 207.805 229.111 208.475 229.111H247.975C248.645 229.111 249.19 228.484 249.19 227.714V201.415C249.19 200.645 248.645 200.018 247.975 200.018H208.475Z" fill="white"/>
<path id="Vector_36" d="M212.449 223.818L219.932 211.988C220.331 211.356 221.156 211.38 221.528 212.034L227.902 223.243C228.3 223.942 229.2 223.909 229.558 223.181L230.994 220.26C231.365 219.505 232.312 219.505 232.683 220.26L233.903 222.741C234.304 223.558 235.35 223.474 235.65 222.601L239.001 212.834C239.332 211.868 240.532 211.901 240.822 212.885L244.135 224.116C244.348 224.84 243.88 225.59 243.216 225.59H213.234C212.441 225.59 211.983 224.556 212.449 223.818Z" fill="white"/>
<path id="Vector_37" d="M229.879 211.311C231.442 211.311 232.709 209.854 232.709 208.058C232.709 206.261 231.442 204.805 229.879 204.805C228.317 204.805 227.05 206.261 227.05 208.058C227.05 209.854 228.317 211.311 229.879 211.311Z" fill="white"/>
</g>
<path id="Vector_38" d="M221.056 206.662C221.004 206.662 220.952 206.668 220.903 206.68C220.906 206.636 220.909 206.591 220.909 206.546C220.909 205.83 220.404 205.25 219.781 205.25C219.25 205.25 218.805 205.672 218.686 206.241C218.567 206.114 218.407 206.036 218.232 206.036C217.987 206.036 217.773 206.188 217.658 206.413C217.546 206.358 217.422 206.327 217.293 206.327C216.783 206.327 216.37 206.802 216.37 207.388C216.37 207.974 216.783 208.448 217.293 208.448C217.509 208.448 217.707 208.363 217.865 208.22C218.168 208.511 218.671 208.701 219.241 208.701C219.775 208.701 220.251 208.534 220.558 208.273C220.694 208.401 220.868 208.477 221.057 208.477C221.493 208.477 221.846 208.071 221.846 207.57C221.846 207.069 221.492 206.662 221.056 206.662ZM240.704 206.662C240.652 206.662 240.6 206.668 240.55 206.68C240.554 206.636 240.557 206.591 240.557 206.546C240.557 205.83 240.052 205.25 239.429 205.25C238.898 205.25 238.453 205.672 238.334 206.241C238.215 206.114 238.055 206.036 237.88 206.036C237.635 206.036 237.421 206.188 237.305 206.413C237.193 206.358 237.07 206.327 236.941 206.327C236.431 206.327 236.018 206.802 236.018 207.388C236.018 207.974 236.431 208.448 236.941 208.448C237.157 208.448 237.355 208.363 237.513 208.22C237.816 208.511 238.319 208.701 238.889 208.701C239.423 208.701 239.899 208.534 240.206 208.273C240.342 208.401 240.515 208.477 240.705 208.477C241.141 208.477 241.494 208.071 241.494 207.57C241.494 207.069 241.14 206.662 240.704 206.662Z" fill="#D3D2FF"/>
<path id="Vector_39" d="M64.5195 326.259H59.0282C55.583 324.739 52.1874 322.664 49.3034 320.235C46.8738 318.196 42.0505 311.376 45.6947 307.817C47.101 306.446 49.5664 306.773 51.399 307.469C54.3044 308.57 56.1019 311.412 57.7004 314.076C58.148 314.821 58.5955 315.603 59.0431 316.399C60.8684 319.653 62.6942 323.205 64.5195 326.259ZM85.3549 288.645C84.6516 291.43 83.2879 293.994 82.1297 296.622C80.9651 299.272 79.885 302.064 78.9544 304.927C76.6956 311.86 75.3103 319.248 75.6656 326.259H68.7676C67.1622 321.194 68.3131 316.122 68.2277 310.809C68.1923 308.692 68.2845 306.575 68.4054 304.458C68.4408 303.776 68.4835 303.087 68.5262 302.405C68.9951 294.797 69.6059 286.77 73.9321 280.497C74.7777 279.275 75.8005 278.103 77.1646 277.514C79.7928 276.37 83.0534 277.855 84.5524 280.298C86.0511 282.749 86.0652 285.867 85.3549 288.645Z" fill="#49B5BA"/>
<path id="Vector_40" d="M99.868 298.526C99.4063 299.499 98.7029 300.337 97.9854 301.133C94.6752 304.827 90.8888 308.08 87.7418 311.909C87.1238 312.669 86.5268 313.493 85.9656 314.367C84.4597 316.725 83.2234 319.453 82.5273 322.181C82.3283 322.934 82.1792 323.687 82.0725 324.433C81.9871 325.051 81.9306 325.662 81.9089 326.259H75.0894C74.8268 322.082 75.3666 317.287 76.0059 314.396C76.7588 311.007 77.6967 307.846 78.954 304.926C81.1777 299.733 84.417 295.308 89.4176 291.72C90.5331 290.925 91.7409 290.207 93.0763 289.93C95.2928 289.468 97.7289 290.356 99.1288 292.125C100.529 293.901 100.827 296.48 99.868 298.526Z" fill="#278898"/>
<path id="Vector_41" d="M99.6122 318.686C96.6214 320.207 93.2471 320.768 90.0928 321.897C86.9389 323.034 83.451 323.126 82.2646 326.259H79.3379C80.034 321.734 82.5132 317.471 85.9656 314.367C88.9705 311.66 92.7142 309.828 96.671 309.451C98.0278 309.323 99.4273 309.345 100.706 309.82C101.977 310.296 103.114 311.298 103.483 312.612C104.18 315.12 101.928 317.507 99.6122 318.686Z" fill="#49B5BA"/>
<path id="Vector_42" d="M68.7676 326.259H63.4967C61.9554 323.062 60.4137 319.766 59.0428 316.399C56.3219 309.707 54.2762 302.732 54.3117 295.691C54.3189 294.1 54.4394 292.473 55.0859 291.017C55.7253 289.561 56.9612 288.289 58.5239 287.977C60.2147 287.636 61.9836 288.481 63.1555 289.746C64.3278 291.018 65.017 292.651 65.6137 294.278C66.8214 297.56 67.752 300.977 68.4054 304.457C69.7622 311.647 69.9044 319.106 68.7676 326.259ZM60.9535 326.259H60.1792C60.1011 326.032 60.0088 325.797 59.9093 325.57C58.6943 322.686 56.9898 319.929 55.0074 317.514C53.0612 315.141 50.7594 313.082 48.0884 311.561C47.6908 311.334 48.0461 310.723 48.4438 310.95C49.9851 311.824 51.4273 312.882 52.7345 314.076C55.0928 316.221 57.0462 318.793 58.6447 321.535C59.5117 323.013 60.3641 324.604 60.9535 326.259ZM78.237 287.686C77.0224 291.145 75.9782 294.661 75.1185 298.221C73.5913 304.536 72.6321 310.986 72.2486 317.472C72.071 320.398 72.0142 323.332 72.0851 326.259H71.3676C71.3676 326.138 71.3607 326.017 71.3607 325.897C71.2471 319.39 71.716 312.883 72.7457 306.454C73.7758 300.011 75.3884 293.66 77.5481 287.501C77.7044 287.068 78.3861 287.252 78.237 287.686ZM97.2113 313.678C95.1656 313.927 93.1481 314.517 91.2797 315.397C87.9268 316.982 85.0496 319.482 83.0748 322.629C82.7127 323.211 82.3787 323.815 82.073 324.433C81.7817 325.03 81.5259 325.641 81.2987 326.259H80.5385C81.0501 324.831 81.7177 323.46 82.5274 322.181C83.6993 320.334 85.1628 318.686 86.875 317.315C89.8512 314.943 93.439 313.43 97.2109 312.968C97.6657 312.911 97.6589 313.622 97.2113 313.678Z" fill="#278898"/>
<path id="Vector_43" d="M65.7773 326.259H65.0667C64.854 316.03 62.9215 305.857 59.3696 296.26C59.2133 295.826 59.9025 295.642 60.0588 296.068C61.0889 298.867 61.9909 301.708 62.7511 304.586C64.6123 311.654 65.6279 318.949 65.7773 326.259ZM92.1818 298.249C89.3687 299.25 87.5148 301.872 85.9235 304.258C82.9045 308.769 80.603 313.749 79.0968 318.97C78.4079 321.357 77.8818 323.801 77.5269 326.259H76.8166C76.838 326.067 76.8662 325.882 76.8948 325.691C77.7259 320.164 79.4308 314.772 81.9171 309.764C83.1672 307.242 84.6163 304.82 86.2575 302.532C87.7492 300.451 89.5181 298.44 91.9973 297.567C92.4304 297.41 92.6153 298.1 92.1818 298.249ZM372.891 326.259H368.659C366.003 325.087 363.386 323.488 361.163 321.616C359.29 320.044 355.572 314.787 358.381 312.044C359.465 310.987 361.365 311.239 362.778 311.776C365.017 312.624 366.403 314.815 367.635 316.868C367.98 317.443 368.325 318.045 368.67 318.658C370.077 321.167 371.484 323.904 372.891 326.259ZM388.952 297.266C388.409 299.412 387.358 301.389 386.466 303.415C385.568 305.457 384.735 307.609 384.018 309.816C382.277 315.16 381.209 320.855 381.483 326.259H376.166C374.928 322.355 375.815 318.446 375.75 314.35C375.722 312.718 375.794 311.086 375.887 309.454C375.914 308.929 375.947 308.398 375.98 307.872C376.341 302.007 376.812 295.82 380.147 290.985C380.799 290.043 381.587 289.139 382.638 288.685C384.664 287.803 387.177 288.948 388.333 290.831C389.488 292.721 389.499 295.125 388.952 297.266Z" fill="#72A7E0"/>
<path id="Vector_44" d="M400.139 304.882C399.782 305.632 399.24 306.279 398.688 306.892C396.136 309.739 393.217 312.247 390.792 315.198C390.315 315.784 389.855 316.419 389.422 317.093C388.262 318.911 387.309 321.014 386.772 323.116C386.619 323.696 386.504 324.277 386.422 324.852C386.356 325.328 386.312 325.799 386.296 326.259H381.039C380.837 323.039 381.253 319.343 381.746 317.115C382.326 314.503 383.049 312.066 384.018 309.816C385.732 305.813 388.229 302.402 392.084 299.636C392.944 299.023 393.875 298.47 394.904 298.256C396.612 297.9 398.49 298.585 399.569 299.948C400.648 301.318 400.878 303.305 400.139 304.882Z" fill="#4C5070"/>
<path id="Vector_45" d="M399.941 320.422C397.636 321.594 395.035 322.026 392.604 322.897C390.173 323.773 387.484 323.844 386.57 326.259H384.314C384.851 322.771 386.761 319.485 389.423 317.092C391.739 315.006 394.625 313.594 397.675 313.303C398.72 313.205 399.799 313.221 400.785 313.588C401.765 313.955 402.641 314.727 402.926 315.74C403.462 317.673 401.726 319.513 399.941 320.422Z" fill="#72A7E0"/>
<path id="Vector_46" d="M376.166 326.259H372.103C370.915 323.795 369.727 321.254 368.67 318.659C366.573 313.501 364.996 308.123 365.023 302.697C365.029 301.471 365.122 300.217 365.62 299.094C366.113 297.972 367.066 296.992 368.27 296.75C369.573 296.488 370.937 297.139 371.84 298.114C372.744 299.094 373.275 300.353 373.735 301.608C374.666 304.137 375.383 306.771 375.887 309.454C376.933 314.996 377.042 320.745 376.166 326.259ZM370.143 326.259H369.546C369.486 326.083 369.415 325.903 369.338 325.728C368.402 323.505 367.088 321.38 365.56 319.518C364.06 317.69 362.285 316.102 360.226 314.93C359.92 314.754 360.194 314.284 360.5 314.459C361.688 315.133 362.8 315.948 363.807 316.868C365.625 318.522 367.131 320.504 368.363 322.618C369.032 323.756 369.689 324.983 370.143 326.259ZM383.465 296.526C382.529 299.193 381.724 301.903 381.061 304.646C379.884 309.514 379.145 314.486 378.849 319.485C378.712 321.741 378.668 324.003 378.723 326.259H378.17C378.17 326.166 378.165 326.072 378.165 325.98C378.077 320.964 378.439 315.948 379.233 310.993C380.027 306.026 381.27 301.131 382.934 296.384C383.055 296.05 383.58 296.192 383.465 296.526ZM398.091 316.561C396.514 316.753 394.958 317.208 393.519 317.887C390.934 319.108 388.717 321.035 387.194 323.461C386.915 323.91 386.657 324.376 386.422 324.852C386.197 325.311 386 325.783 385.825 326.259H385.239C385.634 325.158 386.148 324.101 386.773 323.116C387.676 321.692 388.804 320.422 390.124 319.365C392.418 317.536 395.183 316.37 398.091 316.014C398.441 315.97 398.436 316.518 398.091 316.561Z" fill="#4C5070"/>
<path id="Vector_47" d="M373.861 326.259H373.313C373.149 318.374 371.66 310.532 368.922 303.135C368.801 302.801 369.333 302.658 369.453 302.987C370.247 305.144 370.942 307.335 371.528 309.552C372.963 315.001 373.746 320.624 373.861 326.259ZM394.214 304.668C392.046 305.44 390.616 307.461 389.39 309.301C387.063 312.778 385.289 316.616 384.128 320.641C383.597 322.481 383.191 324.364 382.918 326.259H382.37C382.387 326.111 382.409 325.969 382.431 325.821C383.071 321.561 384.385 317.405 386.302 313.544C387.265 311.601 388.383 309.734 389.648 307.97C390.797 306.366 392.161 304.816 394.072 304.143C394.406 304.022 394.548 304.553 394.214 304.668Z" fill="white"/>
<path id="Vector_48" d="M496.824 329.661H20.1959C19.1684 329.661 18.3354 328.828 18.3354 327.801C18.3354 326.774 19.1684 325.941 20.1959 325.941H496.824C497.851 325.941 498.684 326.774 498.684 327.801C498.684 328.828 497.851 329.661 496.824 329.661Z" fill="#3E32B2"/>
<path id="Vector_49" d="M430.063 218.213C430.063 218.213 421.526 208.183 420.14 204.657C418.469 200.405 419.573 189.554 419.573 189.554C417.363 187.556 415.935 183.877 418.196 181.962C419.985 180.448 420.25 184.872 421.383 186.326C421.383 186.326 422.14 181.66 422.656 183.198C423.243 184.954 422.681 189.226 422.681 189.226L426.116 201.781L436.473 213.582L430.063 218.213Z" fill="#F1CCCD"/>
<path id="Vector_50" d="M419.405 187.529L384.422 178.929C383.778 178.771 383.384 178.12 383.542 177.476L389.376 153.745C389.534 153.101 390.185 152.707 390.829 152.865L425.812 161.464C426.456 161.623 426.85 162.273 426.692 162.918L420.858 186.649C420.699 187.293 420.049 187.687 419.405 187.529Z" fill="white"/>
<path id="Vector_51" d="M419.027 188.181L384.505 179.695C383.43 179.43 382.802 178.209 383.106 176.973L388.756 153.989C389.06 152.752 390.182 151.961 391.258 152.225L425.78 160.712C426.855 160.976 427.483 162.197 427.179 163.434L421.53 186.418C421.225 187.654 420.103 188.445 419.027 188.181ZM391.007 153.247C390.421 153.103 389.81 153.533 389.645 154.207L383.995 177.19C383.829 177.864 384.171 178.528 384.756 178.672L419.278 187.159C419.864 187.303 420.475 186.872 420.641 186.199L426.29 163.215C426.456 162.541 426.114 161.877 425.529 161.733L391.007 153.247Z" fill="#D3D2FF"/>
<path id="Vector_52" d="M389.368 174.901L398.448 166.169C398.933 165.703 399.65 165.901 399.834 166.552L402.997 177.718C403.194 178.415 403.988 178.579 404.458 178.02L406.34 175.776C406.827 175.195 407.654 175.398 407.817 176.139L408.349 178.569C408.525 179.369 409.457 179.521 409.906 178.822L414.933 171.006C415.431 170.232 416.472 170.519 416.514 171.442L416.996 181.969C417.027 182.647 416.457 183.202 415.876 183.06L389.673 176.618C388.98 176.448 388.801 175.445 389.368 174.901Z" fill="#D3D2FF"/>
<path id="Vector_53" d="M410.456 165.474C410.842 163.904 410.048 162.359 408.682 162.023C407.317 161.687 405.897 162.688 405.511 164.258C405.125 165.829 405.919 167.374 407.285 167.709C408.65 168.045 410.07 167.044 410.456 165.474Z" fill="#D3D2FF"/>
<path id="Vector_54" d="M400.575 161.756C400.529 161.745 400.483 161.739 400.437 161.739C400.45 161.701 400.462 161.662 400.471 161.623C400.625 160.997 400.308 160.382 399.764 160.248C399.3 160.134 398.82 160.407 398.594 160.879C398.517 160.742 398.394 160.64 398.241 160.603C398.027 160.55 397.808 160.636 397.658 160.809C397.572 160.737 397.471 160.683 397.358 160.656C396.912 160.546 396.45 160.872 396.324 161.384C396.198 161.896 396.457 162.4 396.902 162.51C397.091 162.556 397.283 162.524 397.451 162.433C397.654 162.752 398.053 163.026 398.551 163.149C399.018 163.264 399.469 163.22 399.793 163.058C399.885 163.199 400.02 163.303 400.185 163.344C400.567 163.438 400.963 163.158 401.07 162.72C401.178 162.281 400.956 161.85 400.575 161.756ZM417.747 165.978C417.701 165.966 417.655 165.961 417.609 165.96C417.622 165.922 417.633 165.884 417.643 165.844C417.797 165.219 417.481 164.603 416.936 164.469C416.472 164.355 415.992 164.629 415.765 165.1C415.689 164.964 415.566 164.862 415.413 164.824C415.199 164.771 414.979 164.858 414.83 165.031C414.744 164.958 414.643 164.905 414.529 164.877C414.084 164.767 413.621 165.094 413.496 165.606C413.37 166.118 413.629 166.621 414.074 166.731C414.263 166.778 414.455 166.746 414.623 166.654C414.825 166.973 415.224 167.248 415.723 167.371C416.189 167.485 416.641 167.441 416.965 167.28C417.057 167.42 417.192 167.525 417.357 167.565C417.738 167.659 418.134 167.38 418.242 166.942C418.35 166.502 418.128 166.071 417.747 165.978Z" fill="#D3D2FF"/>
<path id="Vector_55" d="M459.065 312.585L459.361 306.1C457.798 302.526 439.294 299.016 437.324 293.957C437.324 293.957 434.314 293.473 432.117 289.862C430.812 287.733 430.963 287.274 430.912 284.783C430.634 269.876 431.905 256.72 435.819 246.552H447.763C456.996 267.553 447.287 270.468 441.774 286.596C444.107 289.06 449.159 292.348 452.354 294.904C454.784 296.849 457.893 299.378 463.218 302.218C464.297 303.468 463.214 308.102 463.432 308.964C462.012 312.053 459.065 312.585 459.065 312.585Z" fill="#F1CCCD"/>
<path id="Vector_56" d="M463.046 302.092C465.1 302.798 465.321 304.236 466.093 305.326C466.332 305.663 466.338 306.111 466.083 306.435L465.579 307.074C465.5 307.304 465.298 307.47 465.056 307.502L465.027 307.505C464.737 307.544 464.507 307.764 464.456 308.051C463.924 311.051 461.665 316.048 460.014 316.078C458.549 316.105 459.079 311.658 459.079 311.658C461.564 311.637 464.15 306.815 463.046 302.092ZM444.565 286.82C445.205 289.639 450.615 291.815 451.289 293.626C451.611 294.49 448.684 300.765 447.313 300.514C438.792 298.952 431.178 291.314 430.912 284.783C430.702 273.277 431.409 262.806 433.555 253.951C435.651 251.316 439.068 247.066 439.068 247.066L442.014 246.553C442.818 246.748 447.763 246.013 448.092 247.158C458.803 267.112 447.546 272.134 444.565 286.82Z" fill="#C6374B"/>
<path id="Vector_57" d="M440.668 320.581C441.606 322.637 440.663 324.163 439.465 325.618C435.307 326.034 431.561 326.058 429.74 324.246L436.496 321.059C436.369 314.89 435.457 309.091 433.488 303.115C432.427 299.883 431.19 296.651 429.868 293.393C429.17 291.685 428.715 289.875 428.555 288.032C427.31 274.059 427.865 259.834 430.037 246.552H442.014C448.538 260.861 436.703 271.341 437.772 291.23C439.11 295.22 440.352 299.033 440.957 302.964C441.858 308.847 441.644 314.823 440.668 320.581Z" fill="#F1CCCD"/>
<path id="Vector_58" d="M439.791 287.762C441.029 291.454 441.387 298.039 441.675 304.839C441.713 305.735 440.999 306.482 440.103 306.482H435.101C434.41 306.482 433.838 305.973 433.734 305.291C433.167 301.566 431.057 296.322 429.869 293.393C429.17 291.685 428.716 289.875 428.556 288.032C427.31 274.059 427.866 259.834 430.037 246.552L444.605 246.553C454.575 266.868 445.068 267.5 439.791 287.762Z" fill="#D94559"/>
<path id="Vector_59" d="M424.609 226.054C424.609 226.054 408.658 217.337 406.371 212.511C403.38 206.197 402.267 188.776 402.267 188.776C398.725 187.536 396.433 184.586 396.792 182.573C397.213 180.209 399.599 184.132 404.226 184.347C404.226 184.347 406.243 179.479 406.339 182.872C406.433 186.227 405.572 188.303 405.572 188.303C408.531 193.906 410.134 200.125 411.923 207.043C416.439 209.785 420.82 212.587 425.091 215.439L424.609 226.054Z" fill="#F1CCCD"/>
<path id="Vector_60" d="M447.766 246.553C443.302 231.057 445.832 223.636 437.598 215.208C435.808 217.29 433.074 217.431 425.492 215.371L423.835 225.868C427.371 231.289 431.831 234.293 430.036 246.553H447.766V246.553Z" fill="#3E3279"/>
<path id="Vector_61" d="M448.352 247.832C441.248 248.884 435.407 246.409 430.878 246.897C430.399 246.948 429.936 247.032 429.481 247.158C428.538 247.411 427.562 246.687 427.731 245.728C429.246 237.251 428.143 233.085 426.123 230.35L426.106 230.333C424.751 228.498 422.967 227.302 421.292 225.872L425.029 214.433C434.734 218.927 435.163 213.658 436.956 211.571C440.449 215.148 442.503 219.382 444.043 224.256C445.474 228.784 446.467 233.859 447.771 239.482C448.276 241.62 448.824 243.834 449.455 246.132C449.665 246.914 449.152 247.713 448.352 247.832Z" fill="#D9B4F6"/>
<path id="Vector_62" d="M435.021 193.86C433.053 195.311 427.902 199.633 428.91 203.079C429.918 206.525 436.01 207.326 436.01 207.326L442.79 198.625L435.021 193.86Z" fill="#F1CCCD"/>
<path id="Vector_63" d="M436.955 211.573L436.01 207.326L431.371 205.807L430.26 213.791L436.955 211.573Z" fill="#F1CCCD"/>
<path id="Vector_64" d="M430.681 240.11C430.415 243.307 430.879 246.897 430.879 246.897C430.399 246.947 429.936 247.031 429.481 247.158C428.539 247.41 427.562 246.687 427.731 245.727C429.246 237.251 428.143 233.084 426.123 230.349L428.638 232.493C429.777 233.72 430.921 237.22 430.681 240.11Z" fill="#CCCCCC"/>
<path id="Vector_65" d="M441.086 322.163C441.562 324.396 440.209 325.182 439.724 326.465C439.618 326.743 439.36 326.932 439.063 326.947L437.918 327.007C437.679 327.058 437.433 326.969 437.282 326.779L437.263 326.756C437.081 326.527 436.774 326.442 436.501 326.547C433.656 327.636 428.209 328.272 427.333 326.872C426.556 325.631 430.64 323.795 430.64 323.795C431.939 325.914 435.676 325.058 441.086 322.163Z" fill="#D94559"/>
<path id="Vector_66" d="M452.817 226.04C447.502 215.198 453.326 215.288 451.013 206.651C450.106 203.266 447.423 201.77 446.477 198.931C445.53 195.525 445.661 190.663 441.441 189.647C435.769 188.733 433.635 194.385 433.61 199.224C433.594 202.271 430.145 203.752 429.339 206.853C427.555 213.713 433.68 215.063 431.222 221.599C428.571 228.977 435.039 236.431 442.339 236.722C448.309 236.961 455.495 231.504 452.817 226.04ZM141.799 284.94C134.49 287.524 131.252 285.317 132.602 276.634C133.394 271.535 136.962 271.113 138.223 268.094C139.448 265.162 142.544 264.568 142.601 261.392C142.673 257.356 145.069 253.843 148.276 252.257C154.669 249.097 161.131 249.038 161.969 256.512C162.679 260.065 157.753 261.681 159.966 265.055C163.297 269.696 159.897 270.58 164.815 275.034L141.799 284.94Z" fill="#140C68"/>
<path id="Vector_67" d="M143.089 308.219C143.089 308.219 129.984 310.158 130.207 310.028C130.431 309.898 154.193 322.085 154.193 322.085L177.606 311.594L165.997 308.219H143.089Z" fill="#191777"/>
<path id="Vector_68" d="M148.123 326.101C148.056 326.102 147.99 326.102 147.926 326.103C147.886 326.103 147.845 326.103 147.805 326.103C144.471 326.142 142.294 326.059 142.294 326.059C142.294 326.059 142.134 326.095 141.842 326.155C138.991 326.746 123.622 329.674 124.932 323.883C126.079 318.798 135.301 319.43 138.999 319.897C139.014 319.897 139.025 319.899 139.036 319.901C139.959 320.019 140.527 320.123 140.527 320.123C140.527 320.123 142.362 319.334 145.257 318.211C145.377 318.163 145.499 318.114 145.621 318.068C155.16 314.366 175.222 307.349 180.414 311.566C180.414 311.569 180.414 311.569 180.414 311.569C180.471 311.612 180.527 311.661 180.58 311.71C180.584 311.708 180.589 311.712 180.59 311.718C180.646 311.77 180.697 311.824 180.75 311.878C180.795 311.922 180.84 311.972 180.88 312.026C180.897 312.041 180.913 312.062 180.929 312.082C180.986 312.155 181.042 312.23 181.092 312.307C181.092 312.309 181.095 312.31 181.095 312.31C181.149 312.394 181.2 312.479 181.249 312.567C181.294 312.651 181.334 312.737 181.37 312.825C181.454 313.016 181.519 313.219 181.566 313.434C181.612 313.651 181.652 313.863 181.677 314.073C181.725 314.449 181.744 314.813 181.727 315.169C181.31 324.522 158.992 325.957 148.123 326.101Z" fill="#F7C1CE"/>
<path id="Vector_69" d="M148.295 327.191L147.926 326.103L147.766 325.629C147.764 325.626 147.765 325.623 147.765 325.623L145.257 318.211L144.897 317.149C154.445 313.443 175.129 307.16 180.411 311.557L180.413 311.56C180.472 311.607 180.528 311.656 180.581 311.71C180.584 311.708 180.589 311.712 180.59 311.718C180.646 311.77 180.698 311.824 180.75 311.878C180.796 311.922 180.84 311.972 180.88 312.026C180.897 312.042 180.913 312.062 180.929 312.083C180.986 312.155 181.042 312.23 181.093 312.307C181.092 312.31 181.095 312.31 181.095 312.31C181.149 312.394 181.2 312.48 181.249 312.567C181.295 312.652 181.334 312.738 181.37 312.826C181.454 313.016 181.519 313.22 181.566 313.434C181.613 313.651 181.652 313.864 181.677 314.074C181.725 314.449 181.744 314.813 181.728 315.17C181.343 324.638 159.17 327.048 148.295 327.191ZM140.521 320.149C140.521 320.149 123.134 316.752 122.376 324.102C121.562 331.998 142.288 326.086 142.288 326.086C142.288 326.086 134.295 327.835 134.675 323.352C135.041 319.014 140.521 320.149 140.521 320.149Z" fill="#140C68"/>
<path id="Vector_70" d="M183.543 323.237C184.923 329.125 169.248 326.27 166.339 325.692C166.041 325.633 165.878 325.598 165.878 325.598C165.878 325.598 163.607 325.704 160.142 325.69C160.075 325.69 160.007 325.69 159.939 325.69C154.909 325.664 147.469 325.389 140.802 324.199C132.623 322.742 125.603 319.916 125.616 314.498C125.616 314.486 125.617 314.477 125.615 314.469C125.617 314.249 125.63 314.025 125.657 313.796C125.658 313.79 125.658 313.787 125.657 313.784C125.685 313.549 125.725 313.311 125.775 313.068C125.821 312.849 125.885 312.642 125.969 312.447C126.006 312.357 126.045 312.269 126.091 312.182C126.139 312.092 126.191 312.005 126.245 311.92C126.245 311.92 126.248 311.919 126.248 311.916C126.298 311.838 126.355 311.761 126.412 311.686C126.428 311.665 126.444 311.644 126.462 311.629C126.502 311.573 126.547 311.522 126.593 311.477C126.646 311.421 126.698 311.366 126.754 311.312C126.756 311.306 126.761 311.302 126.764 311.304C127.397 310.714 128.283 310.316 129.37 310.074C136.848 308.41 153.82 314.229 162.423 317.486C162.548 317.533 162.673 317.582 162.795 317.629C165.753 318.749 167.628 319.537 167.628 319.537C167.628 319.537 168.207 319.426 169.146 319.298C169.157 319.296 169.169 319.296 169.183 319.293C172.945 318.788 182.329 318.067 183.543 323.237Z" fill="#F7C1CE"/>
<path id="Vector_71" d="M163.153 316.544L162.795 317.629L160.142 325.69L159.776 326.801C155.211 326.779 148.69 326.381 142.569 325.246C142.569 325.246 142.569 325.246 142.566 325.244C133.654 323.593 125.584 320.381 125.616 314.498C125.616 314.487 125.617 314.477 125.616 314.469C125.618 314.249 125.633 314.022 125.657 313.796C125.659 313.79 125.658 313.787 125.658 313.784C125.686 313.549 125.726 313.311 125.775 313.068C125.822 312.849 125.886 312.642 125.97 312.447C126.006 312.357 126.046 312.269 126.091 312.182C126.14 312.092 126.191 312.005 126.246 311.92C126.246 311.92 126.249 311.919 126.248 311.916C126.299 311.838 126.355 311.761 126.413 311.686C126.429 311.665 126.445 311.644 126.462 311.629C126.503 311.573 126.548 311.522 126.594 311.477C126.646 311.421 126.698 311.366 126.755 311.312C126.756 311.306 126.761 311.302 126.765 311.304C127.419 310.675 128.351 310.237 129.499 309.961C137.188 308.084 154.566 313.295 163.153 316.544ZM167.633 319.564C167.633 319.564 185.313 315.959 186.146 323.438C187.041 331.473 165.883 325.626 165.883 325.626C165.883 325.626 173.612 327.089 173.188 322.527C172.778 318.112 167.633 319.564 167.633 319.564Z" fill="#191777"/>
<path id="Vector_72" d="M165.874 290.961C162.583 295.584 165.527 308.237 165.527 308.237H143.428C144.038 307.371 145.759 296.465 141.884 290.453C135.629 280.754 142.368 273.214 142.368 273.214L151.558 271.543L152.145 268.617L152.548 266.602L152.643 266.134H156.776L156.926 267.013L157.25 268.928L157.729 271.754L166.177 273.588C166.177 273.588 173.413 280.37 165.874 290.961Z" fill="#F1CCCD"/>
<path id="Vector_73" d="M165.873 290.964C162.581 295.586 165.529 308.237 165.529 308.237H143.429C143.948 307.5 145.271 299.476 143.259 293.405C142.909 292.342 142.456 291.345 141.882 290.451C135.629 280.754 142.365 273.214 142.365 273.214L151.561 271.54C150.884 276.204 157.53 277.213 157.729 271.752L166.175 273.588C166.175 273.588 173.413 280.367 165.873 290.964Z" fill="#73C0FF"/>
<path id="Vector_74" d="M143.429 308.237C143.948 307.5 145.271 299.476 143.259 293.404C147.617 292.138 146.881 304.234 154.14 308.237H143.429Z" fill="#C4626E"/>
<path id="Vector_75" d="M177.893 300.578C177.663 302.01 176.654 303.563 175.162 305.097C171.344 309.018 163.567 308.843 158.232 310.269L157.675 307.427C157.675 307.427 167.199 304.741 169.247 301.4C169.464 301.043 169.615 300.711 169.676 300.415C170.371 297.086 166.516 292.924 166.516 292.924L166.106 273.596C166.106 273.596 179.053 293.298 177.893 300.578Z" fill="#F1CCCD"/>
<path id="Vector_76" d="M178.02 300.577C177.773 301.924 176.965 303.616 175.621 305.092C175.478 305.247 175.244 305.274 175.068 305.161L173.431 304.098L169.14 301.317C169.358 300.961 169.468 300.604 169.529 300.306C170.224 296.978 164.048 291.829 164.048 291.829L165.532 273.476C167.522 273.387 170.79 277.926 173.502 283.491C173.502 283.491 173.505 283.499 173.51 283.512C176.446 289.532 178.725 296.744 178.02 300.577Z" fill="#73C0FF"/>
<path id="Vector_77" d="M151.196 307.474L151.292 309.365C151.463 309.305 151.449 309.057 151.272 309.021C146.517 308.038 138.704 309.397 134.899 306.166C132.555 304.173 131.275 301.718 130.973 299.827C129.813 292.547 142.441 273.228 142.441 273.228L141.974 292.53C141.974 292.53 138.12 296.693 138.815 300.022C138.935 300.614 139.407 301.345 140.09 302.143C142.941 305.49 151.196 307.474 151.196 307.474Z" fill="#F1CCCD"/>
<path id="Vector_78" d="M138.813 300.022C138.934 300.614 139.741 301.133 140.423 301.93L136.437 305.245L134.835 306.576C132.49 304.582 131.114 302.03 130.598 300.185C129.801 297.346 130.935 292.494 132.848 287.677C132.856 287.65 132.861 287.637 132.861 287.637C135.747 280.368 140.391 273.189 142.817 273.132L144.217 292.718C144.217 292.718 138.118 296.694 138.813 300.022Z" fill="#73C0FF"/>
<path id="Vector_79" d="M169.929 291.184V309.324C169.929 310.3 169.137 311.092 168.161 311.092H140.368C139.391 311.092 138.6 310.3 138.6 309.324V291.184C138.6 290.208 139.391 289.416 140.368 289.416H168.161C169.137 289.416 169.929 290.208 169.929 291.184Z" fill="white"/>
<path id="Vector_80" d="M154.265 303.022C155.793 303.022 157.033 301.783 157.033 300.254C157.033 298.725 155.793 297.486 154.265 297.486C152.736 297.486 151.497 298.725 151.497 300.254C151.497 301.783 152.736 303.022 154.265 303.022Z" fill="#4D4C63"/>
<path id="Vector_81" d="M157.249 268.927C156.694 269.235 156.058 269.778 155.134 269.801C153.805 269.833 152.144 268.617 152.144 268.617L152.547 266.602H153.989L156.481 266.749L156.925 267.012L157.249 268.927ZM169.929 291.184V309.324C169.929 310.299 169.137 311.092 168.161 311.092H140.368C139.391 311.092 138.6 310.3 138.6 309.324C166.709 310.614 169.929 306.491 168.161 289.416C169.137 289.416 169.929 290.208 169.929 291.184Z" fill="#CCCCCC"/>
<path id="Vector_82" d="M136.437 305.245L134.835 306.576C132.49 304.582 131.114 302.03 130.598 300.185C129.801 297.346 130.935 292.494 132.848 287.677C132.656 288.243 130.181 295.193 131.936 299.445C133.491 303.216 135.866 304.698 136.437 305.245Z" fill="#999999"/>
<path id="Vector_83" d="M178.02 300.578C177.773 301.924 176.965 303.616 175.621 305.092C175.478 305.248 175.244 305.274 175.068 305.161L173.431 304.098C174.292 302.606 175.56 301.422 176.157 299.113C177.752 292.931 173.729 284.046 173.51 283.512C176.446 289.532 178.725 296.744 178.02 300.578Z" fill="#CCCCCC"/>
<path id="Vector_84" d="M159.505 263.806C158.781 267.392 156.727 268.933 154.701 268.817C151.983 268.665 149.385 263.515 149.385 263.515C149.385 263.515 147.296 262.397 147.433 261.21C147.627 259.528 149.141 260.69 150.253 260.419C151.836 260.033 155.383 257.582 155.735 254.96C157.113 257.447 157.869 258.041 159.726 259.422C159.842 261.13 159.75 262.588 159.505 263.806Z" fill="#F1CCCD"/>
<path id="Vector_85" d="M204.065 66.068C208.896 62.4211 203.335 60.0727 201.736 55.7087C200.166 51.4245 196.242 52.2235 195.211 49.4112C194.01 46.1345 191.468 44.0328 188.866 43.7091C183.497 43.0412 180.62 47.9922 183.965 51.3639L204.065 66.068Z" fill="#140C68"/>
<path id="Vector_86" d="M195.147 57.4628H191.963C191.897 57.316 191.801 57.1547 191.684 57.0007C190.95 55.9809 189.527 54.8582 189.431 54.0805C189.292 52.9871 188.851 60.5664 188.851 60.5664L185.983 62.882C185.983 62.882 185.528 59.7582 185.829 57.9931C186.129 56.2379 185.102 55.8852 185.146 54.6821C185.19 53.4789 184.107 51.9078 184.276 49.7402C184.407 48.0627 184.807 47.075 186.056 46.8085C187.359 46.5306 188.714 47.0574 188.714 47.0574C188.714 47.0574 190.624 46.6285 192.006 47.4547C193.279 48.2156 194.351 50.5602 193.706 52.5487C193.053 54.5444 193.716 55.5841 194.413 56.3694C194.603 56.5821 194.787 56.7804 194.934 57.0003C195.029 57.1471 195.103 57.2939 195.147 57.4628Z" fill="#140C68"/>
<path id="Vector_87" d="M191.897 62.0457C191.897 62.0457 195.396 77.8931 191.457 81.0741C189.142 82.9433 174.381 82.3272 174.381 82.1187C174.381 81.9101 173.895 78.0178 173.895 78.0178C176.431 77.5546 185.477 76.3495 185.836 76.1756C187.288 75.4734 183.208 61.5184 188.05 57.5098C191.627 55.3474 191.427 58.8635 191.897 62.0457Z" fill="#F46CC3"/>
<path id="Vector_88" d="M281.851 72.4807C281.531 73.9179 276.117 69.8197 273.649 70.326C272.299 70.6054 269.64 72.2985 267.987 72.9561C260.864 75.7784 251.575 81.2959 245.296 82.512C236.845 84.1418 210.866 82.2677 210.866 82.2677L209.294 73.5203C209.294 73.5203 217.727 66.5773 224.455 68.0382C231.182 69.5048 241.268 76.1333 245.72 73.4098C248.636 71.6286 259.408 69.0683 266.608 68.1137C267.94 67.9391 269.151 67.8171 270.163 67.7645C270.163 67.7645 271.314 64.1523 272.606 63.8614C274.329 63.4771 275.453 65.7394 277.63 67.6539C280.15 69.8658 282.27 70.589 281.851 72.4807Z" fill="#F1CCCD"/>
<path id="Vector_89" d="M268.453 73.9957C261.33 76.8183 251.575 81.2959 245.296 82.512C236.845 84.1418 210.866 82.2677 210.866 82.2677L209.294 73.5203C209.294 73.5203 217.727 66.5773 224.455 68.0382C231.182 69.5048 241.268 76.1333 245.72 73.4097C248.636 71.6286 259.324 68.1133 266.523 67.1587L268.453 73.9957Z" fill="#140C68"/>
<path id="Vector_90" d="M244.557 81.4933C237.434 85.02 220.009 81.1353 210.959 82.165C210.604 78.9874 210.585 77.1224 210.434 74.0322C214.275 71.7452 217.693 68.2592 222.721 68.6084C227.75 68.9515 238.883 75.3711 238.848 70.1329C238.778 61.0367 239.488 55.2927 242.736 47.5755C243.219 46.423 243.754 45.2244 244.359 43.9671C244.878 42.8848 242.555 41.6103 242.8 40.4346C242.957 39.6782 244.947 39.1544 246.402 38.3573C248.852 37.0127 252.606 36.6158 253.886 37.4244C255.114 38.1987 249.131 40.5383 247.886 43.2039C247.519 44.1936 247.461 46.5221 247.397 48.2274C247.007 58.29 250.65 78.4731 244.557 81.4933Z" fill="#F1CCCD"/>
<path id="Vector_91" d="M245.351 81.861C238.228 85.3878 216.652 82.6379 210.76 82.2918C210.405 79.1142 209.401 76.5013 209.25 73.411C213.091 71.1236 217.88 68.0066 222.908 68.3559C227.936 68.699 238.882 75.3709 238.848 70.1332C238.778 61.037 238.603 55.293 241.851 47.5757L248.053 48.22C247.663 58.2822 251.445 78.8409 245.351 81.861Z" fill="#191777"/>
<path id="Vector_92" d="M197.885 57.209C193.846 55.3806 191.976 55.9833 191.976 55.9833L188.051 57.5102C185.757 62.8276 185.86 66.7036 189.439 70.0939C193.255 73.7079 194.439 77.9278 199.643 80.3955C204.168 82.5411 210.959 82.2677 210.959 82.2677L209.388 73.5204C209.388 73.5204 202.241 59.1807 197.885 57.209Z" fill="#FF94CF"/>
<path id="Vector_93" d="M202.241 62.3781C202.241 62.3781 205.438 79.9189 201.499 83.0995C199.184 84.9687 184.423 84.3526 184.423 84.1441C184.423 83.9356 183.937 80.0432 183.937 80.0432C186.473 79.58 195.07 78.317 195.429 78.1431C196.88 77.4409 190.945 62.4535 194.176 57.634C196.503 54.1625 201.77 59.1955 202.241 62.3781Z" fill="#F46CC3"/>
<path id="Vector_94" d="M189.993 84.4094H171.639C171.162 84.4094 170.753 84.069 170.667 83.6005L168.256 70.5063C168.144 69.899 168.61 69.3394 169.228 69.3394H187.582C188.058 69.3394 188.467 69.6794 188.553 70.1483L190.965 83.2425C191.076 83.8498 190.61 84.4094 189.993 84.4094Z" fill="#D3D2FF"/>
<path id="Vector_95" d="M191.98 55.9837C190.945 60.364 187.644 60.6721 188.048 57.5098L187.578 55.888L186.653 52.6891L186.529 52.2488L189.266 51.0967L189.992 52.3955L190.873 53.9948L191.98 55.9837Z" fill="#F1CCCD"/>
<path id="Vector_96" d="M190.872 53.9957C190.527 54.3846 190.109 54.81 189.75 55.0815C188.98 55.6609 187.585 55.8885 187.585 55.8885H187.578L186.653 52.6896L187.856 52.1685L189.991 52.3961L190.872 53.9957Z" fill="#CCCCCC"/>
<path id="Vector_97" d="M184.144 49.8445C184.144 49.8445 183.269 55.3342 186.49 55.2648C189.71 55.1954 190.437 51.7624 190.437 51.7624C190.437 51.7624 191.791 50.8166 191.282 49.8898C190.772 48.9631 190.037 50.1445 190.037 50.1445C190.037 50.1445 187.529 50.0118 186.369 47.3413C186.021 48.2574 185.133 49.3291 184.144 49.8445Z" fill="#F1CCCD"/>
<path id="Vector_98" d="M176.939 76.5274C176.939 75.5038 177.769 74.6738 178.793 74.6738C179.816 74.6738 180.646 75.5038 180.646 76.5274C180.646 77.551 179.816 78.3809 178.793 78.3809C177.769 78.3809 176.939 77.551 176.939 76.5274Z" fill="#191777"/>
<path id="Vector_99" d="M282.731 71.532C282.547 71.3139 282.149 70.9064 281.617 70.3868C281.582 70.3532 281.549 70.3205 281.514 70.2858C281.488 70.261 281.461 70.2354 281.435 70.2103C280.922 69.7128 280.303 69.1268 279.632 68.5058C279.616 68.4909 279.601 68.4764 279.585 68.4616C279.234 68.1371 278.871 67.8051 278.502 67.4707C278.463 67.4353 278.424 67.4006 278.385 67.3651C278.028 67.0422 277.668 66.7201 277.309 66.4041C277.264 66.3637 277.218 66.3236 277.172 66.2836C277.021 66.1502 276.87 66.0183 276.72 65.8879C276.691 65.8627 276.662 65.8368 276.633 65.8112C276.464 65.6649 276.297 65.5219 276.133 65.3816C276.085 65.3404 276.037 65.3004 275.99 65.26C275.86 65.1498 275.732 65.0419 275.606 64.9363C275.565 64.902 275.524 64.8673 275.484 64.8338C275.329 64.7049 275.178 64.5806 275.031 64.4613C274.99 64.4285 274.952 64.3976 274.912 64.3656C274.797 64.2722 274.684 64.1826 274.574 64.0961C274.536 64.0656 274.497 64.0347 274.459 64.0054C274.324 63.8998 274.194 63.8006 274.07 63.7084C274.044 63.6885 274.02 63.671 273.994 63.652C273.894 63.578 273.799 63.5094 273.708 63.4461C273.677 63.4244 273.646 63.4022 273.616 63.382C273.51 63.3092 273.41 63.2429 273.319 63.1872C273.307 63.1796 273.297 63.1743 273.285 63.167C273.207 63.1201 273.137 63.0816 273.073 63.0496C273.053 63.0397 273.034 63.0302 273.015 63.0222C272.947 62.9913 272.885 62.9665 272.838 62.9573C272.533 62.8983 272.182 63.2105 271.829 63.7049L271.828 63.7065C270.825 65.1166 269.81 68.0056 269.81 68.0056C270.534 68.9412 270.81 67.7155 271.881 68.4341C272.268 68.6937 272.453 69.0369 272.532 69.3689C272.664 69.9251 273.163 70.3597 273.736 70.4566C273.946 70.492 274.178 70.5423 274.426 70.609C274.538 70.6384 274.652 70.6716 274.77 70.7085C274.984 70.7745 275.208 70.8519 275.44 70.9419C275.548 70.9834 275.657 71.0276 275.768 71.0753C276.029 71.1859 276.299 71.3117 276.574 71.4542C276.691 71.5152 276.809 71.5789 276.928 71.6464C277.229 71.8149 277.535 72.004 277.842 72.2144C277.914 72.2636 277.987 72.3143 278.06 72.3665C278.178 72.4519 278.296 72.5324 278.41 72.6086C278.663 72.7763 278.907 72.922 279.14 73.0474L279.141 73.0478C279.214 73.0874 279.286 73.1252 279.357 73.1606L279.358 73.1602C281.525 74.2433 282.76 73.5419 282.992 72.6532C283.09 72.2731 283.006 71.8576 282.731 71.532Z" fill="#140C68"/>
<path id="Vector_100" d="M254.46 36.3232C254.186 36.34 253.64 36.4132 252.932 36.5253C252.886 36.5325 252.841 36.5394 252.794 36.547C252.76 36.5523 252.724 36.5584 252.69 36.5638C252.01 36.6739 251.199 36.8154 250.332 36.9763C250.311 36.9801 250.291 36.9839 250.27 36.9877C249.818 37.0719 249.351 37.1615 248.879 37.2546C248.83 37.2645 248.78 37.2744 248.73 37.2839C248.275 37.3746 247.817 37.4677 247.366 37.563C247.308 37.5752 247.251 37.5874 247.193 37.5996C247.002 37.64 246.814 37.6808 246.627 37.7216C246.59 37.7296 246.553 37.7376 246.517 37.7456C246.306 37.7917 246.1 37.8382 245.896 37.8847C245.837 37.8985 245.778 37.9118 245.72 37.9255C245.559 37.9625 245.402 37.9995 245.248 38.0361C245.198 38.0479 245.147 38.0597 245.098 38.0715C244.909 38.1173 244.726 38.1623 244.549 38.2072C244.5 38.2194 244.454 38.2316 244.406 38.2438C244.267 38.2797 244.133 38.3148 244.003 38.3498C243.957 38.362 243.91 38.3746 243.866 38.3868C243.706 38.4307 243.554 38.4737 243.412 38.516C243.382 38.5252 243.354 38.534 243.324 38.5427C243.209 38.5778 243.101 38.6117 243 38.6453C242.965 38.6567 242.931 38.6682 242.898 38.6792C242.78 38.7192 242.671 38.7589 242.576 38.7966C242.563 38.802 242.553 38.8069 242.541 38.8119C242.459 38.8454 242.389 38.8775 242.327 38.9083C242.308 38.9179 242.29 38.9274 242.273 38.9369C242.21 38.9716 242.155 39.0055 242.12 39.0372C241.899 39.2392 241.938 39.691 242.118 40.2487L242.118 40.2507C242.631 41.84 244.282 44.2906 244.282 44.2906C245.423 44.27 244.634 43.3497 245.808 42.9345C246.232 42.7851 246.604 42.8396 246.907 42.97C247.413 43.1888 248.038 43.0527 248.443 42.665C248.592 42.5224 248.764 42.3722 248.959 42.2186C249.046 42.1492 249.138 42.0794 249.235 42.0097C249.409 41.8823 249.598 41.7531 249.801 41.6254C249.896 41.5663 249.993 41.5068 250.093 41.4489C250.33 41.3101 250.582 41.1744 250.851 41.0432C250.966 40.988 251.083 40.9331 251.204 40.8797C251.508 40.7443 251.83 40.617 252.17 40.5004C252.25 40.4729 252.331 40.4455 252.413 40.4195C252.548 40.3765 252.678 40.3326 252.803 40.2873C253.079 40.1877 253.332 40.0833 253.563 39.9754L253.564 39.975C253.637 39.9415 253.708 39.9075 253.776 39.8725C255.864 38.8195 256.033 37.4581 255.479 36.7662C255.241 36.4723 254.87 36.298 254.46 36.3232Z" fill="#191777"/>
<path id="Vector_101" d="M102.311 266.916C102.034 266.916 101.809 266.692 101.809 266.414V261.144C101.809 260.867 102.034 260.642 102.311 260.642C102.588 260.642 102.813 260.866 102.813 261.144V266.414C102.813 266.691 102.588 266.916 102.311 266.916ZM102.311 251.235C102.034 251.235 101.809 251.01 101.809 250.733V240.322C101.809 240.045 102.034 239.82 102.311 239.82C102.588 239.82 102.813 240.045 102.813 240.322V250.733C102.813 251.01 102.588 251.235 102.311 251.235ZM102.311 230.413C102.034 230.413 101.809 230.189 101.809 229.911V219.501C101.809 219.224 102.034 218.999 102.311 218.999C102.588 218.999 102.813 219.224 102.813 219.501V229.911C102.813 230.189 102.588 230.413 102.311 230.413ZM102.311 209.592C102.034 209.592 101.809 209.368 101.809 209.09V198.679C101.809 198.402 102.034 198.177 102.311 198.177C102.588 198.177 102.813 198.402 102.813 198.679V209.09C102.813 209.368 102.588 209.592 102.311 209.592ZM102.311 188.771C102.034 188.771 101.809 188.546 101.809 188.269V177.858C101.809 177.581 102.034 177.356 102.311 177.356C102.588 177.356 102.813 177.581 102.813 177.858V188.269C102.813 188.546 102.588 188.771 102.311 188.771ZM102.311 167.95C102.034 167.95 101.809 167.725 101.809 167.448V157.037C101.809 156.76 102.034 156.535 102.311 156.535C102.588 156.535 102.813 156.76 102.813 157.037V167.448C102.813 167.725 102.588 167.95 102.311 167.95ZM102.311 147.128C102.034 147.128 101.809 146.904 101.809 146.626V136.216C101.809 135.939 102.034 135.714 102.311 135.714C102.588 135.714 102.813 135.939 102.813 136.216V146.626C102.813 146.904 102.588 147.128 102.311 147.128ZM102.311 126.307C102.034 126.307 101.809 126.082 101.809 125.805V115.394C101.809 115.117 102.034 114.892 102.311 114.892C102.588 114.892 102.813 115.117 102.813 115.394V125.805C102.813 126.082 102.588 126.307 102.311 126.307ZM102.311 105.486C102.034 105.486 101.809 105.261 101.809 104.984V94.573C101.809 94.2958 102.034 94.0709 102.311 94.0709C102.588 94.0709 102.813 94.2958 102.813 94.573V104.984C102.813 105.261 102.588 105.486 102.311 105.486ZM102.311 84.6644C102.034 84.6644 101.809 84.4395 101.809 84.1623V73.7516C101.809 73.4745 102.034 73.2496 102.311 73.2496C102.588 73.2496 102.813 73.4745 102.813 73.7516V84.1623C102.813 84.4399 102.588 84.6644 102.311 84.6644ZM102.311 63.8431C102.034 63.8431 101.809 63.6181 101.809 63.341V58.0704C101.809 57.7933 102.034 57.5684 102.311 57.5684H107.582C107.859 57.5684 108.084 57.7933 108.084 58.0704C108.084 58.3476 107.859 58.5725 107.582 58.5725H102.813V63.341C102.813 63.6185 102.588 63.8431 102.311 63.8431ZM133.152 58.5725H120.367C120.09 58.5725 119.865 58.3476 119.865 58.0704C119.865 57.7933 120.089 57.5684 120.367 57.5684H133.152C133.429 57.5684 133.654 57.7933 133.654 58.0704C133.654 58.3476 133.429 58.5725 133.152 58.5725ZM151.208 58.5725H145.937C145.66 58.5725 145.435 58.3476 145.435 58.0704C145.435 57.7933 145.66 57.5684 145.937 57.5684H151.208C151.485 57.5684 151.71 57.7933 151.71 58.0704C151.71 58.3476 151.485 58.5725 151.208 58.5725ZM440.338 149.723C440.06 149.723 439.836 149.498 439.836 149.221V138.68C439.836 138.402 440.06 138.178 440.338 138.178C440.615 138.178 440.84 138.402 440.84 138.68V149.221C440.84 149.498 440.615 149.723 440.338 149.723ZM440.338 128.64C440.06 128.64 439.836 128.415 439.836 128.138V117.597C439.836 117.32 440.06 117.095 440.338 117.095C440.615 117.095 440.84 117.32 440.84 117.597V128.138C440.84 128.416 440.615 128.64 440.338 128.64ZM440.338 107.558C440.06 107.558 439.836 107.333 439.836 107.056V96.515C439.836 96.2378 440.06 96.0129 440.338 96.0129C440.615 96.0129 440.84 96.2378 440.84 96.515V107.056C440.84 107.333 440.615 107.558 440.338 107.558ZM440.338 86.4756C440.06 86.4756 439.836 86.2507 439.836 85.9736V75.4325C439.836 75.1553 440.06 74.9304 440.338 74.9304C440.615 74.9304 440.84 75.1553 440.84 75.4325V85.9736C440.84 86.2507 440.615 86.4756 440.338 86.4756ZM440.338 65.3931C440.06 65.3931 439.836 65.1682 439.836 64.8911V58.5725H436.617C436.34 58.5725 436.115 58.3476 436.115 58.0704C436.115 57.7933 436.34 57.5684 436.617 57.5684H440.337C440.615 57.5684 440.84 57.7933 440.84 58.0704V64.8911C440.84 65.1686 440.615 65.3931 440.338 65.3931ZM426.076 58.5725H415.535C415.257 58.5725 415.033 58.3476 415.033 58.0704C415.033 57.7933 415.257 57.5684 415.535 57.5684H426.076C426.354 57.5684 426.578 57.7933 426.578 58.0704C426.578 58.3476 426.354 58.5725 426.076 58.5725ZM404.994 58.5725H394.453C394.175 58.5725 393.951 58.3476 393.951 58.0704C393.951 57.7933 394.175 57.5684 394.453 57.5684H404.994C405.271 57.5684 405.496 57.7933 405.496 58.0704C405.496 58.3476 405.271 58.5725 404.994 58.5725ZM383.911 58.5725H373.37C373.093 58.5725 372.868 58.3476 372.868 58.0704C372.868 57.7933 373.093 57.5684 373.37 57.5684H383.911C384.189 57.5684 384.413 57.7933 384.413 58.0704C384.413 58.3476 384.189 58.5725 383.911 58.5725ZM362.829 58.5725H352.288C352.01 58.5725 351.786 58.3476 351.786 58.0704C351.786 57.7933 352.01 57.5684 352.288 57.5684H362.829C363.106 57.5684 363.331 57.7933 363.331 58.0704C363.331 58.3476 363.106 58.5725 362.829 58.5725ZM341.746 58.5725H331.205C330.928 58.5725 330.703 58.3476 330.703 58.0704C330.703 57.7933 330.928 57.5684 331.205 57.5684H341.746C342.024 57.5684 342.248 57.7933 342.248 58.0704C342.248 58.3476 342.024 58.5725 341.746 58.5725ZM320.664 58.5725H310.123C309.846 58.5725 309.621 58.3476 309.621 58.0704C309.621 57.7933 309.846 57.5684 310.123 57.5684H320.664C320.942 57.5684 321.166 57.7933 321.166 58.0704C321.166 58.3476 320.941 58.5725 320.664 58.5725ZM299.582 58.5725H289.041C288.763 58.5725 288.539 58.3476 288.539 58.0704C288.539 57.7933 288.763 57.5684 289.041 57.5684H299.582C299.859 57.5684 300.084 57.7933 300.084 58.0704C300.084 58.3476 299.859 58.5725 299.582 58.5725Z" fill="#61113F"/>
<path id="Vector_102" d="M151.23 62.2102V53.9165L159.357 58.102L151.23 62.2102Z" fill="#301F89"/>
<path id="Vector_103" d="M436.176 148.538H444.47L440.284 156.665L436.176 148.538Z" fill="#301F89"/>
</g>
</svg>
