<svg width="630" height="444" viewBox="0 0 630 444" fill="none" xmlns="http://www.w3.org/2000/svg">
<path d="M377.2 253.943L371.44 377.9H338.356C343.067 334.679 347.748 270.86 358.795 263.369L358.884 263.322L377.2 253.943Z" fill="#C3A1DE"/>
<path d="M394.928 211.035C404.228 214.886 407.644 220.009 420.424 215.663C439.87 209.048 458.676 178.445 435.303 161.593C434.076 156.351 432.542 154.21 426.15 152.183C419.761 150.159 412.803 152.35 403.823 151.347C394.844 150.343 383.001 139.933 373.917 152.198C364.833 164.461 383.309 176.411 392.44 183.736C401.574 191.061 397.356 201.81 394.928 211.035Z" fill="#30334D"/>
<path d="M454.81 360.909C454.674 366.277 454.788 371.938 455.219 377.903H356.238C355.75 339.833 352.744 271.813 358.88 263.322C359.061 263.074 359.254 262.882 359.447 262.735C363.835 259.33 370.255 256.341 377.195 253.939C380.529 252.789 383.988 251.774 387.402 250.906C387.696 250.827 387.992 250.759 388.286 250.68C389.42 250.387 390.565 250.116 391.688 249.88C392.244 249.756 392.788 249.643 393.333 249.53C393.877 249.406 394.421 249.304 394.954 249.203C395.215 249.146 395.476 249.09 395.737 249.045C396.009 249 396.269 248.943 396.542 248.898H396.553C397.302 248.763 398.027 248.639 398.753 248.515L427.581 249.112H427.592C427.592 249.112 427.593 249.112 427.604 249.112C427.615 249.112 427.626 249.123 427.649 249.123C429.634 249.349 432.764 249.935 436.393 250.792H436.405C444.581 252.721 455.888 256.859 461.581 260.817C465.969 263.873 468.68 267.132 470.154 270.729C476.72 286.719 458.734 309.375 455.32 351.447C455.059 354.493 454.889 357.65 454.81 360.909Z" fill="#D9B4F6"/>
<path d="M436.401 250.769C435.003 261.284 416.752 272.167 405.889 272.7C398.316 269.568 389.919 262.573 387.401 250.896C390.483 250.103 393.577 249.427 396.551 248.893C397.298 248.764 398.031 248.634 398.748 248.518L427.592 249.116C427.592 249.116 429.388 248.983 436.401 250.769Z" fill="white"/>
<path d="M427.593 249.123C423.544 261.103 407.413 264.928 407.413 264.928C407.413 264.928 394.415 258.002 396.634 248.481C396.686 245.998 396.668 242.492 396.627 239.031C396.625 238.877 396.624 238.724 396.622 238.572C396.544 232.629 396.396 226.952 396.396 226.952L414.073 219.79L418.423 218.029L423.15 216.114C423.026 216.607 422.935 217.175 422.875 217.805C422.356 223.367 424.228 233.804 425.764 241.093C426.748 245.749 427.593 249.123 427.593 249.123Z" fill="#FFDBDB"/>
<path d="M425.764 241.093C424.254 236.925 420.545 233.409 416.827 236.331C410.472 241.323 399.17 241.345 396.627 239.031C396.627 239.031 410.179 224.009 414.073 219.79C414.878 218.916 415.369 218.378 415.402 218.335C415.471 218.236 416.767 218.128 418.423 218.029C419.822 217.943 421.481 217.864 422.874 217.805C422.355 223.367 424.228 233.804 425.764 241.093Z" fill="#F5C9C9"/>
<path d="M421.456 221.198C420.961 221.256 420.486 221.25 419.917 221.285L420.202 220.382L423.054 210.585C424.575 208.795 425.844 206.784 427.011 204.601L427.031 204.536C429.107 204.264 432.311 204.201 434.553 206.175C437.545 208.806 437.47 219.894 421.456 221.198Z" fill="#FFDBDB"/>
<path d="M422.554 217.431C422.216 217.436 421.896 217.399 421.51 217.383L421.765 216.795L424.372 210.384C425.523 209.281 426.52 208.014 427.459 206.621L427.478 206.579C428.897 206.539 431.062 206.718 432.437 208.204C434.27 210.185 433.445 217.658 422.554 217.431Z" fill="#F5B3B3"/>
<path d="M427.851 203.686C425.816 224.224 410.835 244.368 388.873 237.773C357.883 228.467 368.349 179.637 376.781 170.04C386.725 178.304 402.487 179.231 422.24 175.127C422.24 175.127 420.688 197.685 427.851 203.686Z" fill="#FFDBDB"/>
<path d="M398.456 223.079C398.119 224.421 397.198 225.492 395.962 226.145C394.635 226.856 392.946 227.083 391.243 226.661C389.414 226.207 387.957 225.1 387.148 223.727C386.499 222.633 386.26 221.368 386.57 220.132C387.271 217.338 390.372 220.732 392.592 221.282C394.446 221.741 399.156 220.284 398.456 223.079Z" fill="white"/>
<path d="M387.104 202.724C386.63 204.612 384.963 205.825 383.381 205.433C381.798 205.041 380.899 203.192 381.372 201.303C381.846 199.415 383.512 198.202 385.095 198.594C386.678 198.986 387.577 200.835 387.104 202.724Z" fill="#FFE0E0"/>
<path d="M386.49 202.572C386.118 204.055 384.808 205.009 383.565 204.701C382.321 204.393 381.615 202.94 381.987 201.456C382.359 199.972 383.669 199.019 384.912 199.327C386.156 199.635 386.862 201.088 386.49 202.572Z" fill="#575B82"/>
<path d="M385.651 202.364C385.417 203.294 384.596 203.892 383.816 203.699C383.036 203.506 382.593 202.595 382.826 201.664C383.059 200.733 383.881 200.135 384.66 200.328C385.441 200.522 385.883 201.433 385.651 202.364Z" fill="#191B36"/>
<path d="M382.948 200.685C383.034 200.341 383.385 200.131 383.732 200.217C384.079 200.303 384.29 200.652 384.203 200.996C384.117 201.341 383.766 201.551 383.419 201.465C383.073 201.379 382.862 201.03 382.948 200.685ZM384.701 200.338C384.74 200.184 384.896 200.09 385.051 200.129C385.206 200.168 385.3 200.323 385.262 200.477C385.224 200.631 385.067 200.725 384.912 200.687C384.756 200.649 384.663 200.492 384.701 200.338Z" fill="white"/>
<path d="M402.543 205.845C402.249 207.77 403.319 209.526 404.932 209.769C406.545 210.012 408.09 208.649 408.383 206.725C408.676 204.8 407.607 203.043 405.994 202.8C404.381 202.557 402.836 203.921 402.543 205.845Z" fill="#FFE0E0"/>
<path d="M403.169 205.939C402.938 207.451 403.779 208.832 405.046 209.023C406.313 209.213 407.528 208.143 407.758 206.631C407.988 205.119 407.148 203.738 405.881 203.547C404.613 203.356 403.399 204.427 403.169 205.939Z" fill="#575B82"/>
<path d="M404.024 206.068C403.879 207.016 404.406 207.882 405.202 208.002C405.997 208.122 406.758 207.45 406.902 206.501C407.047 205.553 406.52 204.687 405.725 204.567C404.93 204.448 404.168 205.12 404.024 206.068Z" fill="#191B36"/>
<path d="M407.168 205.551C407.221 205.2 406.978 204.872 406.625 204.819C406.272 204.766 405.942 205.007 405.888 205.359C405.835 205.71 406.078 206.038 406.431 206.091C406.784 206.145 407.114 205.903 407.168 205.551Z" fill="white"/>
<path d="M387.987 196.49C386.738 194.952 384.548 194.58 382.805 195.461C382.504 195.613 382.427 196.039 382.592 196.311C382.776 196.616 383.146 196.676 383.447 196.523C384.027 196.23 384.742 196.14 385.358 196.272C386.069 196.422 386.649 196.803 387.116 197.377C387.328 197.638 387.782 197.587 387.998 197.367C388.257 197.104 388.199 196.751 387.987 196.49ZM409.198 201.274C407.921 199.76 405.724 199.428 403.997 200.34C403.7 200.497 403.63 200.925 403.8 201.195C403.989 201.496 404.361 201.549 404.659 201.391C405.233 201.088 405.947 200.984 406.566 201.104C407.279 201.243 407.866 201.612 408.344 202.178C408.56 202.434 409.013 202.374 409.225 202.151C409.479 201.883 409.415 201.532 409.198 201.274Z" fill="#30334D"/>
<path d="M395.481 213.678C394.98 213.377 394.414 213.373 393.865 213.226C393.355 213.09 393.109 212.776 393.219 212.245C393.337 211.67 393.608 211.116 393.82 210.572C394.065 209.941 394.31 209.309 394.555 208.679C394.639 208.464 394.449 208.214 394.244 208.162C393.997 208.101 393.808 208.256 393.725 208.471C393.454 209.169 393.183 209.866 392.912 210.563C392.672 211.181 392.35 211.82 392.333 212.496C392.317 213.118 392.676 213.655 393.243 213.906C393.825 214.163 394.519 214.094 395.066 214.422C395.539 214.706 395.952 213.96 395.481 213.678ZM415.588 217.987C415.046 220.15 411.878 221.227 408.512 220.393C405.147 219.559 402.858 217.129 403.4 214.966C403.942 212.803 407.11 211.726 410.476 212.56C413.841 213.394 416.13 215.824 415.588 217.987ZM384.095 210.912C383.654 213.098 380.54 214.32 377.139 213.643C373.738 212.965 371.338 210.643 371.779 208.457C372.219 206.271 375.334 205.048 378.735 205.726C382.135 206.405 384.535 208.726 384.095 210.912Z" fill="#FFC4C4"/>
<path d="M429.172 300.115L424.045 325.761C422.543 333.277 417.08 339.381 409.783 341.698L357.778 358.205L435.334 361.663L429.172 300.115Z" fill="#C3A1DE"/>
<path d="M455.219 377.903H418.339C428.727 374.317 439.24 369.209 439.909 363.052C441.236 350.704 436.133 307.019 436.133 307.019L455.321 351.449C455.06 354.493 454.89 357.651 454.811 360.91C454.675 366.277 454.788 371.938 455.219 377.903Z" fill="#0A7496"/>
<path d="M396.509 214.017C396.51 213.989 396.517 213.962 396.509 213.934C396.5 213.911 396.49 213.888 396.48 213.864C396.454 213.82 396.418 213.786 396.374 213.759C396.328 213.731 396.269 213.715 396.215 213.715C396.187 213.715 396.158 213.718 396.132 213.726C396.119 213.73 396.116 213.732 396.095 213.741C396.088 213.744 396.069 213.751 396.057 213.757C396.057 213.757 396.057 213.757 396.056 213.758C396.046 213.765 396.036 213.773 396.026 213.781C396.014 213.791 396.004 213.796 395.994 213.805C395.975 213.823 395.959 213.846 395.945 213.868C395.93 213.893 395.919 213.921 395.911 213.948C395.911 213.95 395.91 213.953 395.91 213.954C395.907 213.972 395.901 214.015 395.899 214.033C395.899 214.033 395.899 214.034 395.899 214.035C395.899 214.036 395.899 214.037 395.899 214.039C395.898 214.068 395.906 214.102 395.91 214.128C395.911 214.13 395.911 214.132 395.912 214.135C395.912 214.136 395.912 214.137 395.913 214.138C395.917 214.149 395.935 214.189 395.928 214.174C395.927 214.17 395.938 214.198 395.943 214.21C395.944 214.212 395.945 214.213 395.946 214.215C395.947 214.217 395.953 214.224 395.957 214.229C395.955 214.228 395.987 214.269 395.993 214.275L395.995 214.277C396.053 214.332 396.13 214.368 396.212 214.366C396.24 214.366 396.268 214.363 396.296 214.355L396.297 214.355L396.298 214.354C396.321 214.345 396.345 214.335 396.369 214.325C396.37 214.325 396.371 214.324 396.373 214.323C396.407 214.305 396.435 214.28 396.455 214.248C396.482 214.219 396.499 214.186 396.509 214.148C396.521 214.109 396.522 214.07 396.514 214.032C396.514 214.026 396.51 214.022 396.509 214.017ZM398.336 213.168C397.957 213.168 397.956 213.754 398.336 213.754C398.715 213.754 398.716 213.168 398.336 213.168ZM397.295 215.554C397.281 215.504 397.255 215.461 397.219 215.424C397.199 215.409 397.179 215.394 397.159 215.378C397.113 215.352 397.064 215.339 397.011 215.339H396.933C396.892 215.337 396.854 215.346 396.819 215.364C396.783 215.376 396.751 215.396 396.725 215.424C396.696 215.451 396.676 215.482 396.664 215.519C396.645 215.553 396.636 215.591 396.638 215.631C396.642 215.658 396.645 215.684 396.649 215.71C396.663 215.759 396.688 215.803 396.725 215.839C396.745 215.854 396.764 215.869 396.784 215.885C396.83 215.911 396.88 215.925 396.933 215.925H397.011C397.051 215.926 397.089 215.918 397.124 215.9C397.161 215.888 397.193 215.868 397.219 215.839C397.248 215.813 397.268 215.781 397.28 215.745C397.299 215.71 397.308 215.672 397.306 215.631C397.302 215.605 397.298 215.58 397.295 215.554ZM399.712 214.778C399.698 214.729 399.673 214.686 399.636 214.649C399.617 214.634 399.597 214.619 399.577 214.603C399.531 214.576 399.481 214.563 399.428 214.563H399.35C399.309 214.562 399.272 214.57 399.236 214.588C399.2 214.6 399.168 214.62 399.141 214.649C399.113 214.675 399.092 214.707 399.08 214.743C399.062 214.778 399.053 214.816 399.055 214.857C399.058 214.883 399.062 214.908 399.065 214.934C399.079 214.984 399.105 215.027 399.141 215.064C399.161 215.079 399.181 215.094 399.201 215.11C399.247 215.136 399.296 215.149 399.35 215.15H399.428C399.468 215.151 399.506 215.143 399.541 215.124C399.578 215.113 399.609 215.093 399.636 215.064C399.665 215.038 399.685 215.006 399.697 214.97C399.716 214.935 399.724 214.897 399.723 214.857C399.719 214.83 399.715 214.804 399.712 214.778ZM383.979 212.021C383.965 211.972 383.94 211.929 383.903 211.892C383.883 211.877 383.863 211.862 383.843 211.846C383.798 211.82 383.748 211.807 383.695 211.806H383.589C383.549 211.804 383.511 211.813 383.476 211.831C383.439 211.843 383.407 211.863 383.381 211.892C383.352 211.918 383.332 211.95 383.32 211.986C383.301 212.021 383.293 212.059 383.294 212.099C383.297 212.125 383.301 212.152 383.305 212.177C383.319 212.227 383.344 212.27 383.381 212.307C383.4 212.322 383.42 212.337 383.44 212.353C383.486 212.379 383.536 212.392 383.589 212.392H383.694C383.734 212.394 383.772 212.386 383.808 212.367C383.844 212.355 383.876 212.335 383.903 212.307C383.931 212.28 383.952 212.249 383.964 212.213C383.982 212.177 383.99 212.14 383.989 212.099C383.986 212.073 383.982 212.047 383.979 212.021ZM385.592 211.073C385.212 211.073 385.212 211.659 385.592 211.659C385.971 211.659 385.972 211.073 385.592 211.073ZM384.959 213.379C384.58 213.379 384.579 213.965 384.959 213.965C385.339 213.965 385.339 213.379 384.959 213.379ZM382.535 213.379C382.155 213.379 382.155 213.965 382.535 213.965C382.915 213.965 382.915 213.379 382.535 213.379ZM386.162 212.606C385.783 212.606 385.782 213.192 386.162 213.192C386.542 213.192 386.542 212.606 386.162 212.606Z" fill="#F2BBBB"/>
<path d="M468.082 267.005L429.118 295.277L429.655 344.298L331.286 362.124V379.181C331.286 379.181 461.65 385.436 467.101 374.724C476.942 355.381 478.401 286.291 468.082 267.005Z" fill="#D9B4F6"/>
<path d="M468.082 267.005L467.875 267.155C473.688 292.564 467.764 351.116 457.653 368.085C452.516 376.707 361.246 367.704 331.286 364.5V379.181C331.286 379.181 461.65 385.436 467.101 374.724C476.942 355.381 478.401 286.291 468.082 267.005Z" fill="#C3A1DE"/>
<path d="M426.287 377.631L354.746 377.631H233.361L203.714 284.79H325.095L352.619 370.513H426.287V377.631Z" fill="#4C5070"/>
<path d="M352.619 377.631H233.361L203.714 284.79H217.865C240.979 373.708 318.736 360.525 352.619 377.631Z" fill="#303452"/>
<path d="M307.497 229.667H247.395C246.984 229.667 246.652 229.334 246.652 228.923C246.652 228.512 246.984 228.179 247.395 228.179H307.497C307.908 228.179 308.241 228.512 308.241 228.923C308.241 229.334 307.908 229.667 307.497 229.667ZM312.598 217.518H89.3719C84.2372 217.518 80.0596 213.335 80.0596 208.193V58.4272C80.0596 53.2856 84.2372 49.1028 89.3719 49.1028H312.598C317.733 49.1028 321.91 53.2856 321.91 58.4272V208.193C321.91 213.335 317.733 217.518 312.598 217.518ZM89.3719 50.5911C85.0566 50.5911 81.5459 54.1066 81.5459 58.4277V208.194C81.5459 212.515 85.0566 216.03 89.3719 216.03H312.598C316.913 216.03 320.424 212.515 320.424 208.194V58.4272C320.424 54.1061 316.913 50.5906 312.598 50.5906L89.3719 50.5911Z" fill="#61113F"/>
<path d="M80.7991 77.9946L80.792 79.4829L321.156 80.6381L321.164 79.1498L80.7991 77.9946Z" fill="#3A67B3"/>
<path d="M308.83 90.3928H93.5273V205.376H308.83V90.3928Z" fill="#D9B4F6"/>
<path d="M280.75 69.7686C282.575 69.7686 284.054 68.2875 284.054 66.4604C284.054 64.6333 282.575 63.1521 280.75 63.1521C278.925 63.1521 277.446 64.6333 277.446 66.4604C277.446 68.2875 278.925 69.7686 280.75 69.7686Z" fill="#C3A1DE"/>
<path d="M293.139 69.7686C294.963 69.7686 296.443 68.2875 296.443 66.4604C296.443 64.6333 294.963 63.1521 293.139 63.1521C291.314 63.1521 289.835 64.6333 289.835 66.4604C289.835 68.2875 291.314 69.7686 293.139 69.7686Z" fill="#C3A1DE"/>
<path d="M305.526 69.7686C307.351 69.7686 308.83 68.2875 308.83 66.4604C308.83 64.6333 307.351 63.1521 305.526 63.1521C303.702 63.1521 302.223 64.6333 302.223 66.4604C302.223 68.2875 303.702 69.7686 305.526 69.7686Z" fill="#C3A1DE"/>
<path d="M170.106 67.6684H95.0201C94.1957 67.6684 93.5273 66.9992 93.5273 66.1736V64.6474C93.5273 63.8218 94.1957 63.1526 95.0201 63.1526H170.107C170.931 63.1526 171.599 63.8218 171.599 64.6474V66.1736C171.599 66.9992 170.931 67.6684 170.106 67.6684Z" fill="#C3A1DE"/>
<path d="M149.553 135.203C153.841 129.713 152.872 121.782 147.389 117.488C141.906 113.195 133.986 114.165 129.698 119.655C125.41 125.146 126.379 133.077 131.862 137.37C137.345 141.664 145.266 140.694 149.553 135.203Z" fill="white"/>
<path d="M140.199 128.702C142.867 128.275 144.684 125.763 144.258 123.091C143.832 120.419 141.323 118.6 138.655 119.026C135.986 119.453 134.169 121.966 134.595 124.637C135.022 127.309 137.53 129.129 140.199 128.702Z" fill="#C3A1DE"/>
<path d="M143.933 128.784C143.538 128.477 142.988 128.49 142.602 128.808C141.762 129.498 140.687 129.917 139.513 129.92C138.377 129.924 137.331 129.54 136.5 128.892C136.104 128.583 135.544 128.591 135.165 128.92C134.181 129.77 133.584 130.994 133.589 132.583L133.589 132.726C133.592 133.548 134.26 134.212 135.08 134.209L144.223 134.179C145.043 134.176 145.706 133.508 145.703 132.686L145.703 132.543C145.697 130.886 145.022 129.63 143.933 128.784Z" fill="#C3A1DE"/>
<path d="M140.127 180.737C147.401 180.737 153.298 174.832 153.298 167.549C153.298 160.265 147.401 154.36 140.127 154.36C132.854 154.36 126.957 160.265 126.957 167.549C126.957 174.832 132.854 180.737 140.127 180.737Z" fill="white"/>
<path d="M144.617 161.912L144.623 163.637C144.624 163.98 144.347 164.258 144.004 164.259C143.833 164.26 143.677 164.191 143.565 164.079C143.453 163.967 143.383 163.812 143.382 163.641L143.377 162.072C143.374 161.236 142.696 160.562 141.862 160.565L138.346 160.576C137.512 160.579 136.837 161.259 136.84 162.095L136.854 166.3L135.614 166.304L135.6 161.943C135.595 160.508 136.753 159.339 138.188 159.334L142.012 159.322C143.446 159.316 144.613 160.477 144.617 161.912Z" fill="#D9B4F6"/>
<path d="M140.435 170.503L140.545 171.834C140.549 171.89 140.507 171.936 140.453 171.936L139.829 171.939C139.773 171.939 139.731 171.893 139.734 171.837L139.836 170.506C139.663 170.403 139.548 170.21 139.553 169.993C139.56 169.693 139.801 169.444 140.1 169.426C140.435 169.407 140.714 169.674 140.715 170.005C140.716 170.217 140.604 170.401 140.435 170.503Z" fill="#C7CBFF"/>
<path d="M147.338 166.654L132.91 166.703C132.837 166.9 132.798 167.11 132.799 167.33L132.805 169.14C132.817 172.814 136.108 175.783 140.154 175.769C142.178 175.762 144.006 175.011 145.328 173.803C146.651 172.594 147.466 170.928 147.459 169.091L147.453 167.282C147.453 167.061 147.412 166.851 147.338 166.654ZM140.145 173.012C138.792 173.017 137.691 171.921 137.686 170.565C137.682 169.211 138.776 168.108 140.128 168.104C141.483 168.099 142.583 169.194 142.588 170.549C142.592 171.905 141.499 173.007 140.145 173.012ZM147.136 166.265L133.108 166.312C133.485 165.747 134.168 165.367 134.949 165.364L145.291 165.329C146.071 165.327 146.756 165.703 147.136 166.265Z" fill="#C3A1DE"/>
<path d="M140.435 170.503L140.545 171.834C140.549 171.89 140.507 171.936 140.453 171.936L139.829 171.939C139.773 171.939 139.731 171.893 139.734 171.837L139.836 170.506C139.663 170.403 139.548 170.21 139.553 169.993C139.56 169.693 139.801 169.444 140.1 169.426C140.435 169.407 140.714 169.674 140.715 170.005C140.716 170.217 140.604 170.401 140.435 170.503Z" fill="#C7CBFF"/>
<path d="M140.435 170.503L140.545 171.834C140.549 171.89 140.507 171.936 140.453 171.936L139.829 171.939C139.773 171.939 139.731 171.893 139.734 171.837L139.836 170.506C139.663 170.403 139.548 170.21 139.553 169.993C139.56 169.693 139.801 169.444 140.1 169.426C140.435 169.407 140.714 169.674 140.715 170.005C140.716 170.217 140.604 170.401 140.435 170.503Z" fill="#C7CBFF"/>
<path d="M140.435 170.503L140.545 171.834C140.549 171.89 140.507 171.936 140.453 171.936L139.829 171.939C139.773 171.939 139.731 171.893 139.734 171.837L139.836 170.506C139.663 170.403 139.548 170.21 139.553 169.993C139.56 169.693 139.801 169.444 140.1 169.426C140.435 169.407 140.714 169.674 140.715 170.005C140.716 170.217 140.604 170.401 140.435 170.503Z" fill="#559FF5"/>
<path d="M271.739 135.571L171.596 135.905C168.427 135.916 165.85 133.353 165.84 130.18L165.82 124.314C165.81 121.141 168.369 118.561 171.538 118.55L271.681 118.216C274.85 118.205 277.426 120.768 277.437 123.941L277.456 129.807C277.467 132.98 274.907 135.56 271.739 135.571ZM183.626 160.736L172.424 160.773C170.677 160.779 169.265 162.202 169.271 163.952L169.308 175.169C169.314 176.918 170.735 178.332 172.483 178.326L183.685 178.289C185.432 178.283 186.844 176.859 186.838 175.11L186.801 163.893C186.795 162.144 185.373 160.73 183.626 160.736ZM212.518 160.639L201.316 160.677C199.569 160.683 198.157 162.105 198.163 163.855L198.2 175.072C198.206 176.822 199.627 178.235 201.374 178.229L212.576 178.192C214.323 178.186 215.735 176.763 215.729 175.014L215.692 163.797C215.686 162.047 214.265 160.634 212.518 160.639ZM241.41 160.543L230.208 160.58C228.461 160.586 227.049 162.009 227.055 163.759L227.092 174.976C227.098 176.725 228.519 178.139 230.266 178.133L241.468 178.096C243.215 178.09 244.627 176.667 244.621 174.917L244.584 163.7C244.578 161.95 243.157 160.537 241.41 160.543ZM270.302 160.446L259.1 160.484C257.353 160.49 255.941 161.912 255.947 163.662L255.984 174.879C255.99 176.629 257.411 178.042 259.158 178.037L270.36 177.999C272.107 177.993 273.519 176.57 273.513 174.821L273.476 163.604C273.47 161.854 272.049 160.44 270.302 160.446Z" fill="white"/>
<path d="M178.459 164.665L178.912 167.771C178.934 167.926 179.095 168.021 179.242 167.966L182.179 166.873C182.442 166.775 182.638 167.124 182.418 167.298L179.958 169.244C179.835 169.341 179.833 169.528 179.954 169.628L182.368 171.629C182.585 171.808 182.381 172.152 182.12 172.049L179.208 170.888C179.062 170.83 178.9 170.922 178.874 171.077L178.351 174.171C178.303 174.448 177.904 174.444 177.863 174.165L177.411 171.06C177.388 170.904 177.228 170.809 177.081 170.864L174.143 171.958C173.88 172.056 173.684 171.707 173.905 171.532L176.364 169.587C176.487 169.49 176.489 169.303 176.368 169.203L173.954 167.203C173.737 167.023 173.941 166.679 174.202 166.783L177.114 167.944C177.26 168.002 177.422 167.91 177.449 167.755L177.972 164.661C178.019 164.382 178.419 164.387 178.459 164.665ZM206.814 164.571L207.266 167.676C207.289 167.832 207.449 167.927 207.596 167.872L210.534 166.779C210.797 166.68 210.993 167.029 210.772 167.204L208.313 169.149C208.19 169.246 208.188 169.433 208.308 169.533L210.723 171.534C210.939 171.713 210.735 172.057 210.474 171.953L207.562 170.793C207.416 170.735 207.254 170.826 207.228 170.981L206.704 174.075C206.657 174.353 206.258 174.348 206.217 174.07L205.765 170.965C205.742 170.809 205.582 170.714 205.435 170.769L202.497 171.862C202.234 171.96 202.038 171.612 202.259 171.437L204.718 169.492C204.841 169.394 204.843 169.208 204.723 169.108L202.309 167.107C202.092 166.927 202.296 166.583 202.557 166.687L205.469 167.848C205.615 167.906 205.777 167.815 205.804 167.66L206.327 164.565C206.374 164.287 206.774 164.292 206.814 164.571ZM236.136 164.328L236.588 167.433C236.61 167.589 236.771 167.684 236.917 167.629L239.855 166.536C240.119 166.438 240.315 166.787 240.094 166.961L237.635 168.906C237.511 169.004 237.51 169.19 237.63 169.29L240.044 171.291C240.261 171.471 240.057 171.815 239.796 171.711L236.884 170.55C236.738 170.492 236.576 170.584 236.549 170.738L236.026 173.833C235.979 174.11 235.579 174.105 235.539 173.827L235.087 170.722C235.064 170.566 234.904 170.471 234.757 170.526L231.819 171.62C231.556 171.718 231.36 171.369 231.58 171.194L234.04 169.249C234.163 169.152 234.165 168.965 234.045 168.865L231.63 166.864C231.414 166.685 231.618 166.341 231.879 166.445L234.791 167.605C234.937 167.663 235.099 167.572 235.125 167.417L235.649 164.323C235.695 164.045 236.095 164.05 236.136 164.328ZM265.087 164.232L265.54 167.337C265.562 167.492 265.722 167.587 265.869 167.532L268.807 166.439C269.07 166.341 269.266 166.69 269.046 166.865L266.586 168.81C266.463 168.907 266.461 169.094 266.582 169.194L268.996 171.195C269.213 171.374 269.009 171.718 268.748 171.614L265.836 170.454C265.69 170.396 265.527 170.487 265.501 170.642L264.978 173.736C264.931 174.014 264.531 174.009 264.491 173.731L264.038 170.626C264.016 170.47 263.856 170.375 263.709 170.429L260.771 171.523C260.508 171.621 260.312 171.272 260.532 171.098L262.992 169.153C263.115 169.055 263.117 168.869 262.996 168.769L260.582 166.768C260.366 166.588 260.57 166.244 260.831 166.348L263.743 167.509C263.889 167.567 264.051 167.475 264.077 167.321L264.601 164.226C264.647 163.948 265.047 163.953 265.087 164.232ZM173.575 128.028C173.575 126.595 174.735 125.433 176.167 125.433C177.598 125.433 178.758 126.595 178.758 128.028C178.758 129.461 177.598 130.623 176.167 130.623C174.735 130.623 173.575 129.461 173.575 128.028ZM184.246 128.028C184.246 126.595 185.407 125.433 186.838 125.433C188.269 125.433 189.43 126.595 189.43 128.028C189.43 129.461 188.269 130.623 186.838 130.623C185.407 130.623 184.246 129.461 184.246 128.028ZM194.917 128.028C194.917 126.595 196.077 125.433 197.509 125.433C198.94 125.433 200.1 126.595 200.1 128.028C200.1 129.461 198.94 130.623 197.509 130.623C196.077 130.623 194.917 129.461 194.917 128.028ZM205.588 128.028C205.588 126.595 206.749 125.433 208.18 125.433C209.611 125.433 210.772 126.595 210.772 128.028C210.772 129.461 209.611 130.623 208.18 130.623C206.749 130.623 205.588 129.461 205.588 128.028ZM216.259 128.028C216.259 126.595 217.419 125.433 218.851 125.433C220.282 125.433 221.442 126.595 221.442 128.028C221.442 129.461 220.282 130.623 218.851 130.623C217.419 130.623 216.259 129.461 216.259 128.028ZM226.93 128.028C226.93 126.595 228.091 125.433 229.522 125.433C230.953 125.433 232.113 126.595 232.113 128.028C232.113 129.461 230.953 130.623 229.522 130.623C228.091 130.623 226.93 129.461 226.93 128.028ZM237.601 128.028C237.601 126.595 238.761 125.433 240.193 125.433C241.624 125.433 242.784 126.595 242.784 128.028C242.784 129.461 241.624 130.623 240.193 130.623C238.761 130.623 237.601 129.461 237.601 128.028ZM248.272 128.028C248.272 126.595 249.432 125.433 250.864 125.433C252.295 125.433 253.455 126.595 253.455 128.028C253.455 129.461 252.295 130.623 250.864 130.623C249.432 130.623 248.272 129.461 248.272 128.028Z" fill="#C3A1DE"/>
<path d="M135.6 34.8535H89.5879V36.3418H135.6V34.8535Z" fill="#3A67B3"/>
<path d="M166.162 34.8535H146.4V36.3418H166.162V34.8535Z" fill="#3A67B3"/>
<path d="M609.906 377.164H20.0936C18.9648 377.164 18.0498 378.08 18.0498 379.211V379.727C18.0498 380.858 18.9648 381.774 20.0936 381.774H609.905C611.034 381.774 611.95 380.858 611.95 379.727V379.211C611.95 378.08 611.035 377.164 609.906 377.164Z" fill="#C8CBE3"/>
<path d="M141.028 344.489C138.963 343.247 137.158 341.585 135.764 339.615C135.111 338.692 134.494 337.69 134.112 336.616L134.199 336.676C134.492 336.745 136.516 337.195 137.727 336.038C138.712 335.097 138.749 333.487 138.777 332.199C138.787 331.746 138.762 331.366 138.737 331.096C138.38 331.548 137.808 332.166 136.964 332.686C136.296 333.098 135.95 333.144 135.513 333.424C134.948 333.785 134.3 334.493 133.927 336.013C133.644 334.908 133.713 333.774 133.85 332.65C133.985 331.533 134.189 330.41 134.126 329.281C134.079 328.419 133.845 327.618 133.407 326.899C133.946 327.011 135.711 327.282 136.81 326.233C137.794 325.292 137.831 323.682 137.86 322.394C137.87 321.941 137.845 321.561 137.819 321.291C137.462 321.743 136.89 322.361 136.046 322.881C135.378 323.293 135.032 323.34 134.595 323.619C134.019 323.988 133.354 324.719 132.985 326.308C132.208 325.353 131.219 324.536 130.254 323.781C129.779 323.409 129.284 323.068 128.787 322.729C129.476 322.845 131.004 322.971 131.993 322.026C132.978 321.085 133.014 319.475 133.043 318.188C133.053 317.734 133.028 317.355 133.002 317.085C132.645 317.537 132.074 318.155 131.23 318.675C130.561 319.086 130.215 319.133 129.779 319.413C129.181 319.796 128.489 320.566 128.129 322.28C127.874 322.104 127.621 321.926 127.372 321.741C126.288 320.936 125.379 319.934 125.154 318.564L125.335 318.69C125.629 318.759 127.652 319.209 128.864 318.052C129.848 317.11 129.885 315.5 129.914 314.213C129.924 313.76 129.899 313.38 129.873 313.11C129.516 313.562 128.945 314.18 128.101 314.7C127.432 315.111 127.086 315.158 126.649 315.438C126.099 315.79 125.47 316.471 125.092 317.913C125.064 316.939 125.298 315.966 125.587 315.029L125.93 314.931C126.179 314.741 127.874 313.408 127.743 311.67C127.637 310.256 126.368 309.166 125.353 308.294C124.996 307.987 124.675 307.756 124.441 307.599C124.568 308.185 124.687 309.052 124.549 310.074C124.439 310.883 124.248 311.193 124.185 311.729C124.098 312.464 124.261 313.532 125.407 314.957C125.123 315.879 124.896 316.827 124.898 317.792C124.901 318.776 125.193 319.691 125.761 320.468C125.191 320.059 124.09 319.436 122.971 319.751C121.758 320.092 121.03 321.394 120.447 322.434C120.242 322.801 120.098 323.122 120.002 323.354C120.49 323.139 121.225 322.883 122.141 322.825C122.867 322.778 123.17 322.891 123.648 322.852C124.321 322.797 125.25 322.453 126.321 321.127L126.302 321.09C127.031 321.812 127.917 322.357 128.76 322.931C129.389 323.358 129.998 323.815 130.586 324.297L130.536 324.269C130.259 324.232 128.353 324.002 127.342 325.18C126.52 326.137 126.634 327.625 126.725 328.814C126.756 329.233 126.814 329.58 126.863 329.826C127.15 329.377 127.621 328.756 128.351 328.199C128.93 327.759 129.244 327.684 129.621 327.386C130.142 326.974 130.715 326.189 130.885 324.545C131.25 324.854 131.606 325.173 131.953 325.503C132.308 325.841 132.64 326.193 132.927 326.57C132.923 326.586 132.92 326.602 132.917 326.618L133.009 326.682C133.433 327.266 133.747 327.915 133.868 328.675C133.989 329.433 133.95 330.202 133.867 330.966L133.6 330.788C133.327 330.729 131.444 330.352 130.346 331.448C129.452 332.339 129.45 333.83 129.448 335.023C129.448 335.443 129.478 335.794 129.507 336.043C129.829 335.618 130.346 335.035 131.117 334.537C131.728 334.142 132.048 334.092 132.446 333.825C132.912 333.513 133.436 332.937 133.766 331.785C133.751 331.902 133.735 332.018 133.72 332.135C133.574 333.248 133.434 334.385 133.617 335.502C133.668 335.811 133.743 336.113 133.837 336.409C133.836 336.414 133.835 336.418 133.834 336.423L133.843 336.429C134.145 337.374 134.641 338.261 135.175 339.089C136.636 341.357 138.618 343.266 140.927 344.655C141.037 344.72 141.136 344.554 141.028 344.489ZM152.617 345.039C154.713 343.851 156.561 342.236 158.005 340.303C158.682 339.396 159.325 338.412 159.734 337.348L159.646 337.406C159.351 337.468 157.317 337.865 156.136 336.676C155.176 335.71 155.181 334.099 155.185 332.812C155.187 332.358 155.221 331.979 155.255 331.71C155.6 332.171 156.155 332.803 156.985 333.346C157.643 333.774 157.987 333.83 158.417 334.121C158.971 334.497 159.601 335.221 159.935 336.75C160.246 335.653 160.206 334.518 160.099 333.39C159.992 332.271 159.819 331.143 159.91 330.016C159.98 329.154 160.234 328.36 160.691 327.653C160.149 327.75 158.377 327.976 157.307 326.898C156.347 325.932 156.352 324.322 156.356 323.034C156.358 322.58 156.392 322.202 156.426 321.932C156.771 322.394 157.326 323.026 158.157 323.568C158.814 323.997 159.158 324.053 159.588 324.343C160.155 324.727 160.8 325.475 161.128 327.074C161.93 326.139 162.939 325.348 163.923 324.618C164.408 324.259 164.912 323.93 165.417 323.605C164.726 323.703 163.194 323.789 162.23 322.819C161.27 321.853 161.276 320.242 161.28 318.955C161.281 318.501 161.316 318.122 161.349 317.853C161.694 318.314 162.249 318.947 163.08 319.488C163.738 319.917 164.082 319.973 164.512 320.264C165.099 320.662 165.771 321.45 166.086 323.172C166.346 323.003 166.603 322.831 166.858 322.653C167.962 321.876 168.896 320.899 169.156 319.534L168.972 319.656C168.677 319.718 166.642 320.115 165.461 318.926C164.501 317.96 164.507 316.349 164.511 315.062C164.513 314.608 164.547 314.229 164.58 313.96C164.925 314.421 165.481 315.054 166.311 315.595C166.968 316.024 167.312 316.08 167.742 316.371C168.283 316.737 168.895 317.434 169.235 318.885C169.288 317.913 169.079 316.934 168.814 315.989L168.474 315.883C168.23 315.686 166.57 314.31 166.746 312.576C166.888 311.165 168.185 310.108 169.222 309.263C169.587 308.965 169.914 308.743 170.152 308.592C170.009 309.174 169.868 310.038 169.98 311.064C170.069 311.875 170.251 312.19 170.301 312.727C170.369 313.465 170.177 314.528 168.996 315.922C169.255 316.852 169.458 317.805 169.431 318.77C169.402 319.754 169.087 320.661 168.499 321.423C169.079 321.029 170.196 320.435 171.307 320.779C172.511 321.152 173.206 322.471 173.76 323.526C173.956 323.898 174.092 324.223 174.181 324.457C173.699 324.23 172.971 323.955 172.056 323.873C171.333 323.808 171.027 323.912 170.549 323.861C169.879 323.789 168.959 323.42 167.922 322.067L167.942 322.031C167.196 322.733 166.295 323.255 165.437 323.806C164.797 324.218 164.177 324.658 163.576 325.125L163.628 325.098C163.905 325.068 165.816 324.888 166.797 326.092C167.593 327.07 167.441 328.554 167.32 329.74C167.277 330.158 167.21 330.504 167.155 330.749C166.879 330.293 166.425 329.659 165.709 329.084C165.143 328.628 164.83 328.545 164.461 328.238C163.951 327.813 163.398 327.013 163.271 325.365C162.898 325.665 162.533 325.974 162.179 326.296C161.815 326.625 161.474 326.968 161.177 327.338C161.18 327.354 161.183 327.37 161.186 327.386L161.093 327.447C160.654 328.021 160.323 328.661 160.182 329.418C160.042 330.172 160.061 330.942 160.124 331.707L160.396 331.537C160.67 331.485 162.562 331.157 163.632 332.281C164.502 333.195 164.466 334.686 164.437 335.878C164.427 336.298 164.387 336.648 164.351 336.896C164.041 336.462 163.539 335.866 162.781 335.348C162.181 334.938 161.862 334.88 161.471 334.602C161.013 334.277 160.504 333.688 160.204 332.528C160.217 332.645 160.229 332.763 160.241 332.879C160.358 333.996 160.469 335.136 160.256 336.249C160.198 336.555 160.115 336.855 160.013 337.15C160.014 337.154 160.015 337.158 160.016 337.163L160.007 337.169C159.68 338.107 159.162 338.98 158.607 339.794C157.087 342.023 155.056 343.879 152.712 345.208C152.603 345.27 152.508 345.1 152.617 345.039ZM147.844 344.393C146.552 342.356 145.681 340.061 145.315 337.675C145.144 336.556 145.039 335.384 145.178 334.252L145.229 334.345C145.46 334.539 147.068 335.848 148.669 335.356C149.971 334.956 150.723 333.531 151.324 332.394C151.536 331.993 151.683 331.642 151.78 331.389C151.259 331.633 150.472 331.929 149.484 332.016C148.703 332.085 148.373 331.972 147.857 332.027C147.191 332.097 146.295 332.439 145.281 333.631C145.523 332.516 146.092 331.533 146.716 330.589C147.336 329.652 148.02 328.738 148.469 327.7C148.812 326.908 148.961 326.087 148.891 325.248C149.323 325.589 150.78 326.623 152.231 326.177C153.532 325.776 154.285 324.353 154.886 323.215C155.098 322.814 155.245 322.463 155.342 322.21C154.821 322.455 154.034 322.751 153.047 322.838C152.265 322.906 151.935 322.793 151.42 322.848C150.739 322.919 149.818 323.275 148.778 324.531C148.509 323.328 147.991 322.154 147.466 321.047C147.207 320.502 146.916 319.975 146.624 319.449C147.188 319.861 148.498 320.659 149.805 320.257C151.106 319.857 151.858 318.434 152.459 317.295C152.671 316.894 152.818 316.544 152.916 316.291C152.395 316.535 151.608 316.831 150.62 316.918C149.839 316.987 149.508 316.874 148.993 316.928C148.287 317.003 147.324 317.381 146.237 318.753C146.087 318.481 145.941 318.208 145.801 317.93C145.191 316.725 144.826 315.422 145.237 314.096L145.343 314.29C145.574 314.483 147.182 315.793 148.783 315.3C150.084 314.9 150.837 313.477 151.438 312.338C151.65 311.937 151.797 311.586 151.895 311.334C151.374 311.578 150.586 311.874 149.599 311.961C148.818 312.03 148.487 311.917 147.971 311.971C147.322 312.04 146.455 312.366 145.473 313.487C145.882 312.603 146.527 311.838 147.205 311.129L147.555 311.195C147.863 311.137 149.974 310.705 150.634 309.092C151.171 307.78 150.524 306.236 150.006 305.002C149.823 304.567 149.639 304.217 149.5 303.972C149.353 304.553 149.072 305.381 148.491 306.234C148.03 306.908 147.722 307.1 147.426 307.551C147.019 308.169 146.688 309.197 147.076 310.985C146.41 311.682 145.783 312.428 145.354 313.292C144.917 314.174 144.768 315.122 144.929 316.072C144.603 315.451 143.897 314.401 142.755 314.181C141.517 313.942 140.284 314.779 139.299 315.449C138.951 315.685 138.679 315.907 138.49 316.072C139.022 316.099 139.794 316.199 140.64 316.558C141.308 316.842 141.53 317.078 141.975 317.257C142.6 317.51 143.585 317.618 145.136 316.913L145.135 316.871C145.464 317.843 146.013 318.727 146.511 319.618C146.882 320.283 147.223 320.964 147.534 321.659L147.501 321.611C147.27 321.453 145.668 320.394 144.238 320.994C143.075 321.482 142.512 322.863 142.061 323.967C141.902 324.356 141.799 324.693 141.732 324.935C142.19 324.662 142.888 324.317 143.79 324.146C144.505 324.012 144.819 324.085 145.29 323.988C145.94 323.854 146.803 323.409 147.689 322.014C147.878 322.454 148.054 322.899 148.216 323.35C148.382 323.812 148.522 324.275 148.61 324.741C148.6 324.754 148.59 324.766 148.58 324.779L148.634 324.877C148.751 325.59 148.743 326.31 148.511 327.044C148.28 327.777 147.902 328.447 147.486 329.092L147.327 328.814C147.109 328.639 145.594 327.458 144.122 327.946C142.924 328.342 142.256 329.675 141.722 330.74C141.533 331.116 141.403 331.443 141.318 331.68C141.796 331.443 142.519 331.154 143.432 331.054C144.154 330.975 144.462 331.073 144.939 331.013C145.495 330.942 146.22 330.663 147.031 329.78C146.964 329.878 146.898 329.975 146.833 330.072C146.205 331.003 145.572 331.957 145.236 333.038C145.144 333.336 145.076 333.64 145.027 333.948C145.024 333.951 145.021 333.955 145.018 333.958L145.023 333.968C144.871 334.949 144.918 335.964 145.026 336.943C145.319 339.626 146.238 342.221 147.683 344.498C147.748 344.603 147.911 344.498 147.844 344.393Z" fill="#195494"/>
<path d="M143.057 345.174C141.223 342.898 139.86 340.252 139.094 337.429C138.734 336.105 138.448 334.708 138.461 333.325L138.535 333.43C138.84 333.632 140.956 334.988 142.816 334.176C144.329 333.515 145.04 331.698 145.609 330.245C145.809 329.733 145.939 329.29 146.021 328.973C145.427 329.338 144.52 329.803 143.342 330.042C142.411 330.232 141.997 330.141 141.384 330.277C140.591 330.453 139.559 330.988 138.501 332.563C138.64 331.187 139.19 329.925 139.813 328.702C140.432 327.488 141.131 326.294 141.53 324.983C141.834 323.981 141.902 322.972 141.702 321.971C142.27 322.323 144.166 323.369 145.853 322.632C147.365 321.972 148.077 320.154 148.645 318.701C148.846 318.189 148.975 317.747 149.058 317.429C148.464 317.794 147.556 318.259 146.379 318.499C145.447 318.688 145.034 318.598 144.42 318.734C143.61 318.913 142.55 319.467 141.468 321.123C140.981 319.712 140.195 318.368 139.411 317.107C139.025 316.486 138.604 315.891 138.179 315.298C138.914 315.717 140.602 316.498 142.12 315.836C143.633 315.175 144.344 313.358 144.913 311.905C145.113 311.393 145.243 310.95 145.326 310.632C144.731 310.998 143.824 311.462 142.646 311.702C141.715 311.892 141.301 311.801 140.688 311.937C139.848 312.124 138.74 312.712 137.617 314.513C137.4 314.206 137.186 313.897 136.98 313.582C136.081 312.214 135.463 310.695 135.777 309.041L135.931 309.26C136.236 309.462 138.352 310.818 140.213 310.006C141.725 309.346 142.437 307.528 143.005 306.075C143.206 305.563 143.336 305.121 143.418 304.803C142.823 305.168 141.916 305.633 140.738 305.873C139.807 306.062 139.393 305.972 138.78 306.108C138.007 306.279 137.006 306.791 135.977 308.275C136.35 307.155 137.021 306.145 137.741 305.198L138.172 305.23C138.535 305.117 141.019 304.308 141.593 302.275C142.06 300.621 141.07 298.851 140.278 297.435C139.999 296.936 139.729 296.54 139.529 296.264C139.43 296.983 139.205 298.02 138.621 299.127C138.159 300.002 137.814 300.275 137.519 300.858C137.114 301.659 136.855 302.943 137.567 305.042C136.86 305.974 136.206 306.957 135.808 308.058C135.401 309.179 135.352 310.342 135.676 311.464C135.198 310.761 134.204 309.593 132.799 309.484C131.275 309.366 129.905 310.544 128.809 311.485C128.423 311.817 128.125 312.122 127.92 312.346C128.565 312.306 129.508 312.321 130.576 312.637C131.42 312.887 131.719 313.141 132.28 313.297C133.067 313.515 134.269 313.511 136.04 312.449L136.034 312.399C136.563 313.524 137.345 314.514 138.066 315.519C138.604 316.269 139.107 317.042 139.576 317.837L139.53 317.783C139.231 317.626 137.157 316.569 135.516 317.488C134.182 318.235 133.692 319.975 133.301 321.366C133.163 321.857 133.084 322.277 133.037 322.577C133.551 322.185 134.345 321.674 135.408 321.346C136.25 321.085 136.639 321.131 137.192 320.95C137.956 320.699 138.935 320.044 139.812 318.243C140.099 318.747 140.373 319.259 140.629 319.78C140.893 320.313 141.125 320.852 141.294 321.401C141.283 321.418 141.273 321.434 141.263 321.451L141.341 321.562C141.58 322.405 141.668 323.274 141.489 324.189C141.311 325.103 140.947 325.962 140.535 326.796L140.305 326.483C140.019 326.302 138.033 325.088 136.326 325.876C134.938 326.517 134.315 328.214 133.817 329.571C133.641 330.049 133.53 330.461 133.459 330.757C134.002 330.407 134.834 329.959 135.919 329.714C136.778 329.52 137.163 329.596 137.728 329.458C138.389 329.297 139.224 328.86 140.079 327.686C140.013 327.813 139.947 327.939 139.881 328.066C139.252 329.272 138.62 330.508 138.363 331.856C138.293 332.228 138.253 332.604 138.236 332.98C138.233 332.985 138.23 332.99 138.227 332.995L138.235 333.005C138.185 334.207 138.381 335.424 138.644 336.589C139.364 339.779 140.825 342.78 142.876 345.324C142.97 345.439 143.152 345.291 143.057 345.174Z" fill="#72A7E0"/>
<path d="M148.416 342.739C150.559 340.752 152.29 338.332 153.455 335.649C154.002 334.391 154.486 333.05 154.674 331.68L154.586 331.773C154.255 331.929 151.965 332.964 150.241 331.891C148.84 331.019 148.398 329.118 148.045 327.597C147.921 327.062 147.857 326.605 147.82 326.278C148.356 326.726 149.187 327.317 150.317 327.725C151.212 328.047 151.634 328.017 152.221 328.241C152.98 328.529 153.925 329.208 154.744 330.919C154.805 329.538 154.443 328.209 154.003 326.909C153.565 325.618 153.047 324.336 152.841 322.98C152.684 321.945 152.763 320.937 153.105 319.975C152.493 320.241 150.466 321.001 148.903 320.029C147.502 319.157 147.06 317.255 146.707 315.735C146.583 315.2 146.518 314.743 146.482 314.416C147.018 314.864 147.849 315.455 148.979 315.862C149.874 316.185 150.296 316.155 150.883 316.379C151.659 316.674 152.628 317.375 153.459 319.17C154.145 317.843 155.116 316.628 156.074 315.494C156.545 314.935 157.049 314.407 157.555 313.882C156.766 314.19 154.983 314.719 153.576 313.843C152.175 312.971 151.734 311.07 151.381 309.549C151.256 309.013 151.192 308.557 151.156 308.23C151.691 308.678 152.522 309.269 153.652 309.676C154.547 309.999 154.969 309.969 155.556 310.193C156.361 310.499 157.372 311.241 158.223 313.185C158.482 312.913 158.738 312.638 158.988 312.357C160.075 311.133 160.906 309.719 160.833 308.037L160.649 308.232C160.318 308.387 158.028 309.423 156.305 308.35C154.903 307.477 154.462 305.576 154.109 304.056C153.985 303.52 153.92 303.063 153.884 302.737C154.419 303.184 155.25 303.775 156.381 304.183C157.276 304.506 157.698 304.476 158.285 304.699C159.025 304.98 159.941 305.632 160.746 307.249C160.538 306.087 160.02 304.99 159.444 303.95L159.013 303.919C158.67 303.755 156.329 302.594 156.054 300.499C155.831 298.796 157.066 297.187 158.054 295.9C158.403 295.447 158.727 295.094 158.965 294.85C158.959 295.576 159.032 296.635 159.45 297.814C159.78 298.747 160.083 299.067 160.291 299.687C160.576 300.537 160.646 301.846 159.639 303.82C160.204 304.844 160.709 305.912 160.944 307.058C161.184 308.227 161.065 309.384 160.584 310.447C161.158 309.821 162.31 308.809 163.716 308.905C165.241 309.009 166.427 310.372 167.374 311.462C167.709 311.846 167.96 312.191 168.131 312.443C167.498 312.309 166.563 312.187 165.461 312.346C164.589 312.471 164.257 312.679 163.679 312.752C162.869 312.854 161.68 312.676 160.081 311.369L160.095 311.32C159.409 312.357 158.493 313.224 157.634 314.113C156.993 314.777 156.384 315.47 155.805 316.188L155.858 316.142C156.177 316.029 158.382 315.284 159.873 316.43C161.085 317.363 161.318 319.155 161.505 320.589C161.57 321.094 161.588 321.521 161.591 321.825C161.139 321.363 160.427 320.743 159.422 320.264C158.627 319.884 158.236 319.874 157.714 319.614C156.994 319.255 156.12 318.466 155.512 316.557C155.156 317.014 154.811 317.481 154.482 317.959C154.145 318.449 153.837 318.948 153.591 319.468C153.599 319.486 153.606 319.503 153.614 319.522L153.521 319.62C153.162 320.419 152.95 321.266 152.994 322.198C153.038 323.128 153.275 324.031 153.562 324.916L153.835 324.639C154.145 324.502 156.285 323.588 157.86 324.615C159.141 325.45 159.512 327.219 159.81 328.634C159.915 329.132 159.966 329.557 159.992 329.86C159.506 329.434 158.748 328.871 157.709 328.472C156.887 328.155 156.495 328.175 155.956 327.956C155.326 327.701 154.562 327.149 153.885 325.864C153.932 325.999 153.98 326.133 154.026 326.267C154.474 327.552 154.922 328.866 154.981 330.238C154.998 330.616 154.983 330.994 154.945 331.369C154.947 331.374 154.949 331.379 154.951 331.384L154.943 331.394C154.818 332.591 154.449 333.765 154.021 334.88C152.848 337.933 150.969 340.691 148.572 342.911C148.463 343.014 148.305 342.841 148.416 342.739Z" fill="#72A7E0"/>
<path d="M167.197 344.567L166.659 348.831L163.077 377.164H131.535L127.58 348.831L126.987 344.567H167.197Z" fill="#D94559"/>
<path d="M166.41 344.568H127.776C125.183 344.568 123.081 342.852 123.081 340.735C123.081 338.618 125.183 336.902 127.776 336.902H166.41C169.002 336.902 171.104 338.618 171.104 340.735C171.104 342.852 169.002 344.568 166.41 344.568Z" fill="#D94559"/>
<path d="M126.987 344.567L127.793 350.357C146.182 348.877 161.364 360.867 163.077 377.164C164.441 366.282 167.472 343.076 167.197 344.567H126.987Z" fill="#BF3C4F"/>
<path d="M551.507 333.829C547.863 333.829 545.293 338.527 549.521 342.19H575.779V343.842H507.13C506.149 343.842 505.354 343.046 505.354 342.064V333.956C505.354 332.974 506.149 332.177 507.13 332.177H575.779V333.829H551.507V333.829Z" fill="#3A67B3"/>
<path d="M551.231 333.839C551.322 333.833 551.414 333.829 551.506 333.829H575.779V332.177H553.082C552.311 332.531 551.665 333.114 551.231 333.839ZM549.113 341.813H515.943C511.922 341.813 508.663 338.549 508.663 334.523V332.177H507.13C506.149 332.177 505.354 332.974 505.354 333.956V342.064C505.354 343.046 506.149 343.842 507.13 343.842H575.779V342.191H549.521C549.377 342.066 549.242 341.94 549.113 341.813Z" fill="#265199"/>
<path d="M575.779 333.829V342.19H537.622C535.319 342.19 533.445 340.317 533.445 338.011C533.445 335.705 535.319 333.829 537.622 333.829H575.779Z" fill="white"/>
<path d="M533.446 338.012C533.446 340.318 535.32 342.191 537.622 342.191H575.779V343.843H537.622C534.409 343.843 531.796 341.226 531.796 338.012C531.796 334.794 534.409 332.177 537.622 332.177H575.779V333.829H537.622C535.32 333.829 533.446 335.706 533.446 338.012Z" fill="#6692CC"/>
<path d="M519.318 332.177H517.755V343.842H519.318V332.177Z" fill="white"/>
<path d="M515.41 332.177H513.848V343.842H515.41V332.177Z" fill="white"/>
<path d="M522.705 338.636C522.705 336.764 524.221 335.246 526.091 335.246C527.96 335.246 529.476 336.764 529.476 338.636C529.476 340.508 527.96 342.026 526.091 342.026C524.221 342.026 522.705 340.508 522.705 338.636Z" fill="white"/>
<path d="M558.241 335.516H538.788C538.524 335.516 538.31 335.375 538.31 335.202C538.31 335.029 538.524 334.888 538.788 334.888H558.241C558.505 334.888 558.719 335.029 558.719 335.202C558.719 335.375 558.505 335.516 558.241 335.516ZM572.219 341.478H550.145C549.881 341.478 549.667 341.337 549.667 341.164C549.667 340.99 549.881 340.85 550.145 340.85H572.219C572.483 340.85 572.697 340.99 572.697 341.164C572.697 341.337 572.484 341.478 572.219 341.478ZM558.241 338.561H546.129C545.865 338.561 545.651 338.42 545.651 338.247C545.651 338.073 545.865 337.933 546.129 337.933H558.241C558.505 337.933 558.719 338.073 558.719 338.247C558.719 338.42 558.505 338.561 558.241 338.561ZM543.747 338.561H538.569C538.305 338.561 538.091 338.42 538.091 338.247C538.091 338.073 538.305 337.933 538.569 337.933H543.747C544.011 337.933 544.225 338.073 544.225 338.247C544.225 338.42 544.012 338.561 543.747 338.561ZM570.119 338.561H564.941C564.677 338.561 564.463 338.42 564.463 338.247C564.463 338.073 564.676 337.933 564.941 337.933H570.119C570.383 337.933 570.597 338.073 570.597 338.247C570.597 338.42 570.383 338.561 570.119 338.561ZM566.582 335.83H564.941C564.677 335.83 564.463 335.689 564.463 335.516C564.463 335.342 564.677 335.202 564.941 335.202H566.582C566.846 335.202 567.06 335.342 567.06 335.516C567.06 335.689 566.846 335.83 566.582 335.83ZM547.623 341.478H545.982C545.718 341.478 545.503 341.337 545.503 341.164C545.503 340.99 545.717 340.85 545.982 340.85H547.623C547.886 340.85 548.101 340.99 548.101 341.164C548.101 341.337 547.887 341.478 547.623 341.478ZM574.816 338.561H573.175C572.911 338.561 572.697 338.42 572.697 338.247C572.697 338.073 572.911 337.933 573.175 337.933H574.816C575.08 337.933 575.294 338.073 575.294 338.247C575.294 338.42 575.08 338.561 574.816 338.561Z" fill="#E6E8F0"/>
<path d="M565.03 336.821V340.451L566.875 339.168L568.719 340.451V336.821H565.03Z" fill="#3A67B3"/>
<path d="M564.898 343.843H499.226C498.352 343.843 497.644 344.821 497.644 346.028V359.492C497.644 360.699 498.352 361.677 499.226 361.677H564.898C565.772 361.677 566.48 360.699 566.48 359.492V346.028C566.48 344.821 565.772 343.843 564.898 343.843Z" fill="#61113F"/>
<path d="M564.898 343.843H564.073V348.277C564.073 354.196 560.599 358.994 556.312 358.994H497.643V359.492C497.643 360.699 498.351 361.677 499.224 361.677H564.897C565.771 361.677 566.479 360.699 566.479 359.492V346.028C566.48 344.821 565.772 343.843 564.898 343.843Z" fill="#420729"/>
<path d="M511.426 343.843H507.201V361.676H511.426V343.843Z" fill="white"/>
<path d="M518.073 343.843H513.848V361.676H518.073V343.843Z" fill="white"/>
<path d="M522.814 352.76C522.814 350.198 524.885 348.122 527.438 348.122C529.991 348.122 532.061 350.198 532.061 352.76C532.061 355.321 529.991 357.397 527.438 357.397C524.885 357.397 522.814 355.321 522.814 352.76ZM567.543 376.863C567.182 376.734 507.29 377.108 507.032 376.735C505.576 376.056 504.345 374.909 503.556 373.51H503.546V365.846H503.551C504.39 364.359 505.725 363.159 507.298 362.495H567.434C566.013 367.15 566.566 372.172 567.543 376.863Z" fill="white"/>
<path d="M568.462 375.281C568.672 375.49 568.802 375.781 568.802 376.103C568.802 376.744 568.284 377.264 567.641 377.264H509.238C508.169 377.264 507.149 377.049 506.223 376.658C506.126 376.617 506.031 376.575 505.939 376.53C505.842 376.486 505.747 376.439 505.652 376.389C505.575 376.348 505.498 376.307 505.42 376.263C505.339 376.217 505.257 376.17 505.178 376.12C505.11 376.079 505.043 376.036 504.977 375.994C504.907 375.947 504.838 375.901 504.77 375.852C504.71 375.81 504.65 375.767 504.592 375.725C504.53 375.678 504.47 375.632 504.41 375.583C504.356 375.541 504.304 375.498 504.254 375.456C504.198 375.409 504.143 375.363 504.089 375.314C504.043 375.273 503.996 375.231 503.952 375.188C503.9 375.142 503.85 375.093 503.799 375.045C503.778 375.024 503.757 375.002 503.735 374.981C503.714 374.96 503.695 374.94 503.675 374.919C503.629 374.873 503.584 374.826 503.542 374.778C503.501 374.737 503.463 374.694 503.424 374.65C503.384 374.603 503.341 374.557 503.302 374.508C503.265 374.468 503.231 374.425 503.198 374.383C503.159 374.336 503.121 374.288 503.084 374.239C503.051 374.198 503.02 374.156 502.989 374.113C502.954 374.067 502.919 374.02 502.887 373.972C502.856 373.93 502.825 373.887 502.797 373.845C502.765 373.798 502.734 373.749 502.703 373.703C502.675 373.661 502.649 373.62 502.623 373.577C502.594 373.531 502.565 373.483 502.536 373.434C502.512 373.391 502.486 373.349 502.463 373.306C502.459 373.3 502.455 373.294 502.453 373.288C501.819 372.159 501.457 370.858 501.457 369.471C501.457 368.084 501.819 366.782 502.453 365.653C502.455 365.65 502.457 365.645 502.459 365.642C502.482 365.599 502.508 365.557 502.533 365.516C502.56 365.467 502.589 365.419 502.62 365.373C502.645 365.33 502.672 365.289 502.699 365.247C502.728 365.201 502.759 365.152 502.792 365.105C502.821 365.063 502.85 365.02 502.881 364.978C502.914 364.929 502.949 364.883 502.984 364.836C503.015 364.794 503.045 364.751 503.078 364.71C503.115 364.662 503.154 364.614 503.19 364.567C503.225 364.524 503.26 364.482 503.295 364.441C503.335 364.393 503.376 364.346 503.419 364.3C503.455 364.255 503.494 364.213 503.535 364.172C503.577 364.123 503.621 364.077 503.668 364.03C503.709 363.988 503.751 363.945 503.794 363.902C503.842 363.856 503.893 363.807 503.943 363.761C503.987 363.718 504.034 363.676 504.082 363.635C504.136 363.586 504.193 363.538 504.249 363.492C504.299 363.449 504.349 363.406 504.401 363.366C504.462 363.317 504.521 363.271 504.583 363.224C504.641 363.182 504.699 363.139 504.759 363.097C504.827 363.048 504.897 363.002 504.966 362.955C505.032 362.913 505.098 362.87 505.165 362.829C505.245 362.779 505.326 362.733 505.407 362.686C505.484 362.642 505.562 362.599 505.641 362.558C505.734 362.51 505.827 362.463 505.922 362.419C506.014 362.374 506.109 362.332 506.206 362.291C507.139 361.896 508.163 361.677 509.239 361.677H567.642C567.963 361.677 568.253 361.807 568.462 362.018C568.673 362.227 568.803 362.518 568.803 362.839C568.803 363.482 568.285 364.001 567.642 364.001H509.442C509.247 364.001 509.054 364.011 508.864 364.03C508.582 364.057 508.307 364.105 508.038 364.171C507.891 364.208 507.744 364.251 507.601 364.299C507.472 364.342 507.344 364.388 507.218 364.441C507.126 364.479 507.031 364.522 506.94 364.566C506.845 364.611 506.752 364.658 506.66 364.71C506.586 364.749 506.515 364.789 506.443 364.836C506.368 364.88 506.292 364.927 506.219 364.977C506.157 365.018 506.095 365.06 506.035 365.105C505.971 365.152 505.911 365.198 505.849 365.246C505.797 365.287 505.747 365.33 505.697 365.372C505.643 365.419 505.589 365.465 505.536 365.516C505.492 365.556 505.447 365.599 505.402 365.641C505.354 365.688 505.308 365.734 505.263 365.783C505.222 365.825 505.183 365.868 505.147 365.91C505.104 365.957 505.064 366.003 505.027 366.052C504.99 366.093 504.955 366.135 504.924 366.178C504.886 366.225 504.851 366.273 504.816 366.321C504.784 366.364 504.753 366.406 504.723 366.449C504.692 366.496 504.662 366.542 504.632 366.589C504.603 366.631 504.577 366.674 504.553 366.716C504.522 366.762 504.495 366.811 504.468 366.86C504.443 366.902 504.42 366.943 504.401 366.985C504.373 367.032 504.35 367.078 504.327 367.127C504.306 367.169 504.285 367.212 504.267 367.255C504.244 367.301 504.223 367.347 504.203 367.396C504.184 367.439 504.169 367.479 504.153 367.522C504.132 367.57 504.114 367.617 504.099 367.665C504.081 367.706 504.068 367.748 504.055 367.791C504.037 367.837 504.022 367.884 504.01 367.933C503.995 367.975 503.983 368.018 503.971 368.06C503.958 368.107 503.947 368.155 503.935 368.202C503.923 368.242 503.913 368.285 503.905 368.327C503.894 368.374 503.884 368.422 503.876 368.471C503.867 368.512 503.859 368.554 503.853 368.597C503.844 368.643 503.838 368.69 503.832 368.738C503.824 368.781 503.819 368.823 503.814 368.866C503.808 368.913 503.805 368.959 503.801 369.007C503.795 369.05 503.793 369.092 503.791 369.135C503.788 369.182 503.785 369.228 503.785 369.277C503.782 369.318 503.78 369.36 503.782 369.403C503.78 369.426 503.78 369.447 503.78 369.471C503.78 369.496 503.78 369.521 503.782 369.546C503.782 369.589 503.782 369.631 503.785 369.672C503.785 369.721 503.787 369.767 503.791 369.814C503.793 369.856 503.797 369.899 503.803 369.941C503.805 369.99 503.809 370.036 503.817 370.083C503.82 370.125 503.826 370.168 503.834 370.208C503.838 370.257 503.846 370.305 503.856 370.352C503.862 370.394 503.869 370.437 503.879 370.48C503.887 370.527 503.896 370.573 503.908 370.62C503.916 370.662 503.925 370.705 503.937 370.747C503.948 370.796 503.96 370.842 503.974 370.891C503.985 370.933 503.999 370.976 504.013 371.016C504.026 371.065 504.04 371.111 504.059 371.158C504.07 371.2 504.084 371.243 504.101 371.283C504.117 371.332 504.136 371.378 504.155 371.427C504.171 371.469 504.188 371.51 504.208 371.553C504.227 371.601 504.248 371.647 504.271 371.694C504.288 371.737 504.31 371.779 504.331 371.822C504.354 371.87 504.378 371.916 504.405 371.963C504.426 372.006 504.449 372.046 504.473 372.089C504.5 372.138 504.527 372.186 504.558 372.232C504.583 372.275 504.608 372.317 504.637 372.358C504.666 372.407 504.697 372.453 504.73 372.5C504.759 372.542 504.79 372.585 504.823 372.627C504.856 372.676 504.893 372.722 504.929 372.769C504.962 372.811 504.995 372.854 505.032 372.895C505.07 372.943 505.111 372.991 505.155 373.038C505.192 373.082 505.231 373.123 505.271 373.166C505.316 373.212 505.362 373.261 505.408 373.305C505.453 373.349 505.499 373.392 505.544 373.433C505.596 373.483 505.65 373.53 505.706 373.576C505.757 373.619 505.807 373.662 505.859 373.702C505.921 373.751 505.983 373.799 506.047 373.844C506.107 373.888 506.169 373.931 506.231 373.971C506.304 374.022 506.377 374.068 506.455 374.112C506.527 374.157 506.6 374.199 506.675 374.238C506.766 374.291 506.861 374.337 506.956 374.382C507.047 374.426 507.141 374.469 507.236 374.507C507.364 374.56 507.493 374.606 507.625 374.649C507.772 374.699 507.921 374.742 508.074 374.777C508.364 374.848 508.664 374.895 508.969 374.918C509.126 374.934 509.283 374.939 509.443 374.939H567.643C567.963 374.94 568.253 375.07 568.462 375.281Z" fill="#FF9C61"/>
<path d="M538.692 366.948H508.708C508.535 366.948 508.394 366.808 508.394 366.634C508.394 366.461 508.535 366.32 508.708 366.32H538.692C538.865 366.32 539.006 366.461 539.006 366.634C539.006 366.808 538.865 366.948 538.692 366.948ZM559.658 372.91H525.743C525.57 372.91 525.429 372.769 525.429 372.596C525.429 372.423 525.57 372.282 525.743 372.282H559.658C559.832 372.282 559.972 372.423 559.972 372.596C559.972 372.769 559.832 372.91 559.658 372.91ZM538.692 369.993H519.718C519.545 369.993 519.405 369.853 519.405 369.679C519.405 369.506 519.545 369.365 519.718 369.365H538.692C538.865 369.365 539.006 369.506 539.006 369.679C539.006 369.853 538.865 369.993 538.692 369.993ZM516.953 369.993H508.38C508.207 369.993 508.066 369.853 508.066 369.679C508.066 369.506 508.207 369.365 508.38 369.365H516.953C517.127 369.365 517.267 369.506 517.267 369.679C517.267 369.853 517.127 369.993 516.953 369.993ZM556.509 369.993H547.935C547.762 369.993 547.622 369.853 547.622 369.679C547.622 369.506 547.762 369.365 547.935 369.365H556.509C556.682 369.365 556.822 369.506 556.822 369.679C556.822 369.853 556.682 369.993 556.509 369.993ZM551.203 367.262H547.935C547.762 367.262 547.622 367.122 547.622 366.948C547.622 366.775 547.762 366.634 547.935 366.634H551.203C551.376 366.634 551.517 366.775 551.517 366.948C551.517 367.122 551.376 367.262 551.203 367.262ZM522.766 372.91H519.498C519.325 372.91 519.184 372.769 519.184 372.596C519.184 372.423 519.325 372.282 519.498 372.282H522.766C522.939 372.282 523.079 372.423 523.079 372.596C523.079 372.769 522.939 372.91 522.766 372.91ZM563.553 369.993H560.286C560.113 369.993 559.972 369.853 559.972 369.679C559.972 369.506 560.113 369.365 560.286 369.365H563.553C563.727 369.365 563.867 369.506 563.867 369.679C563.867 369.853 563.727 369.993 563.553 369.993Z" fill="#E6E8F0"/>
<path d="M544.649 371.071L542.692 369.957L540.735 371.071V366.32H544.649V371.071Z" fill="#C24E4E"/>
<path d="M502.177 137.054C502.324 137.054 502.324 137.283 502.177 137.283C502.03 137.283 502.029 137.054 502.177 137.054Z" fill="#E85D6F"/>
<path d="M451.018 87.6534C462.128 79.1873 476.619 75.7274 490.531 76.8961C499.522 77.6518 508.493 80.326 515.821 85.5981C523.149 90.8706 528.698 98.9014 529.967 107.847C531.237 116.793 527.816 126.51 520.567 131.892C512.905 137.58 502.503 137.81 493.067 136.413C481.124 134.646 469.584 130.675 457.622 129.04C452.675 128.364 447.448 128.129 442.877 130.142C438.306 132.156 434.676 134.529 433.189 141.195C425.803 112.659 439.908 96.1195 451.018 87.6534Z" fill="#FFBD03"/>
<path d="M471.045 137.241C472.194 137.499 473.257 138.055 474.359 138.466C475.468 138.88 476.593 139.254 477.716 139.628C479.972 140.379 482.222 141.129 484.524 141.726C489.107 142.913 493.821 143.621 498.557 143.698C506.891 143.834 515.262 141.962 522.436 137.627C526.323 135.277 529.889 132.154 532.656 128.541C532.788 128.368 533.082 128.523 532.957 128.718C530.736 132.182 527.978 135.061 524.667 137.501C521.319 139.97 517.574 141.867 513.647 143.224C504.763 146.293 495.259 146.244 486.151 144.185C483.457 143.576 480.768 142.825 478.175 141.869C476.893 141.395 475.638 140.848 474.396 140.278C473.119 139.691 471.708 139.189 470.583 138.339C470.057 137.942 470.343 137.084 471.045 137.241ZM427.593 107.855C428.699 103.237 430.793 98.9046 433.69 95.1468C435.145 93.2594 436.806 91.5333 438.633 90.0043C439.487 89.2902 440.373 88.6103 441.294 87.9859C442.22 87.3583 443.318 86.6396 444.392 86.3172C444.648 86.2405 444.862 86.5901 444.658 86.7747C443.86 87.4971 442.872 88.0734 442.008 88.7204C441.057 89.4322 440.136 90.1759 439.261 90.9806C437.611 92.4999 436.117 94.1876 434.798 96.0025C432.127 99.6793 430.224 103.871 429.249 108.312C429.013 109.39 427.335 108.935 427.593 107.855ZM460.298 134.313C460.789 134.056 461.471 134.143 462.01 134.194C462.55 134.244 463.089 134.33 463.614 134.464C464.123 134.594 464.618 134.768 465.094 134.989C465.602 135.223 466.175 135.479 466.496 135.952C466.764 136.349 466.415 137.032 465.912 136.971C465.717 136.948 465.559 136.93 465.379 136.844C465.27 136.792 465.164 136.731 465.055 136.677C464.863 136.584 464.743 136.53 464.572 136.463C464.133 136.293 463.687 136.139 463.231 136.024C463.01 135.968 462.787 135.921 462.563 135.882C462.319 135.84 462.268 135.834 462.009 135.812C461.782 135.792 461.555 135.782 461.327 135.779C461.051 135.777 460.744 135.833 460.483 135.731C460.191 135.617 459.967 135.415 459.928 135.086C459.893 134.791 460.021 134.458 460.298 134.313Z" fill="#E85D6F"/>
<path d="M449.237 121.713C449.022 121.68 448.791 121.606 448.542 121.493C448.272 121.357 448.068 121.165 447.933 120.916C447.933 120.645 448.056 120.509 448.305 120.509C448.554 120.509 448.87 120.589 449.254 120.746C449.615 120.928 449.92 121.018 450.169 121.018C450.665 121.018 451.123 120.814 451.541 120.407C451.958 120 452.28 119.469 452.507 118.813C452.958 117.523 453.184 116.382 453.184 115.386C453.184 114.278 453.026 113.159 452.71 112.027C452.393 110.896 451.975 109.834 451.456 108.838C451.343 108.589 451.151 108.216 450.88 107.719C450.315 106.588 449.886 105.706 449.593 105.072C449.299 104.439 449.039 103.738 448.814 102.969C448.498 101.951 448.34 100.854 448.34 99.6776C448.34 98.9311 448.458 98.2133 448.695 97.5232C448.933 96.8336 449.31 96.2403 449.83 95.7421C450.394 95.2218 451.027 94.9619 451.727 94.9619C451.999 94.9619 452.326 95.0692 452.71 95.2843C453.094 95.4998 453.286 95.7084 453.286 95.9119C453.286 96.0932 453.218 96.1834 453.083 96.1834C452.947 96.1834 452.766 96.127 452.541 96.0136C452.338 95.9008 452.145 95.8439 451.965 95.8439C451.445 95.8439 450.987 96.0363 450.593 96.4206C450.198 96.8059 449.909 97.2804 449.729 97.8456C449.57 98.3206 449.492 98.8409 449.492 99.4061C449.492 100.288 449.605 101.199 449.83 102.137C450.056 103.076 450.361 103.952 450.745 104.766L451.931 107.243L452.27 107.955C452.744 108.928 453.111 109.731 453.371 110.364C453.631 110.998 453.851 111.71 454.032 112.501C454.28 113.565 454.404 114.583 454.404 115.555C454.404 116.867 454.065 118.201 453.388 119.558C453.049 120.214 452.597 120.745 452.033 121.152C451.468 121.559 450.847 121.763 450.169 121.763C449.762 121.764 449.451 121.747 449.237 121.713ZM459.892 120.678C459.779 120.678 459.689 120.69 459.621 120.712H459.351C458.854 120.712 458.537 120.599 458.402 120.373C458.402 120.215 458.492 120.079 458.673 119.966L458.843 119.796H459.825L459.961 119.66L460.029 119.355L460.062 118.948C460.062 117.569 460.029 116.336 459.961 115.25L459.893 113.995L459.825 111.518C459.825 110.636 459.859 109.313 459.927 107.548L459.995 103.613C459.995 101.894 459.938 100.583 459.825 99.6776C459.622 99.6096 459.283 99.5758 458.808 99.5758L458.436 99.6096C458.3 99.6322 458.153 99.6433 457.995 99.6433C457.566 99.6433 457.352 99.4514 457.352 99.0666C457.352 98.9769 457.453 98.8862 457.656 98.7951C457.86 98.7049 458.029 98.6591 458.165 98.6591C459.023 98.6591 459.881 98.7049 460.74 98.7951C461.259 98.8178 461.778 98.9195 462.298 99.1004C462.705 99.2359 462.908 99.4283 462.908 99.6771C462.908 99.7224 462.874 99.8126 462.806 99.9486L462.027 100.017C461.869 99.8806 461.541 99.8126 461.045 99.8126L460.875 99.9144C460.943 100.118 460.977 100.718 460.977 101.713C460.977 103.205 460.965 104.551 460.943 105.75L460.875 109.787C460.875 110.805 460.921 112.038 461.011 113.485C461.079 115.137 461.113 116.381 461.113 117.217V117.658C461.09 117.817 461.079 118.02 461.079 118.269C461.079 118.789 461.113 119.106 461.181 119.219L461.147 119.287C461.147 119.513 461.395 119.627 461.892 119.627C462.096 119.627 462.265 119.615 462.4 119.593H462.909C463.563 119.593 463.891 119.751 463.891 120.068C463.891 120.271 463.823 120.436 463.688 120.559C463.552 120.684 463.371 120.746 463.146 120.746C462.943 120.746 462.761 120.724 462.604 120.678C462.423 120.656 462.231 120.645 462.028 120.645C461.892 120.645 461.689 120.701 461.418 120.814C461.146 120.95 460.943 121.018 460.808 121.018C460.287 121.018 459.983 120.905 459.892 120.678ZM468.701 120.882C468.204 120.633 467.837 120.152 467.6 119.44C467.363 118.727 467.154 117.591 466.973 116.031C466.702 113.746 466.567 111.971 466.567 110.704C466.567 109.936 466.612 109.054 466.702 108.058L466.906 105.921C467.018 104.224 467.148 102.941 467.295 102.07C467.442 101.2 467.77 100.431 468.278 99.7631C468.786 99.0962 469.571 98.7059 470.632 98.5925C470.745 98.5703 470.926 98.5588 471.175 98.5588C471.874 98.5588 472.225 98.7174 472.225 99.0338C472.225 99.1697 472.152 99.2881 472.005 99.3903C471.857 99.4921 471.705 99.543 471.547 99.543L471.208 99.5088L470.904 99.475C470.519 99.475 470.175 99.5994 469.87 99.8482C469.566 100.098 469.312 100.459 469.108 100.934C468.634 102.065 468.329 103.173 468.193 104.259C468.012 105.684 467.9 106.928 467.854 107.991L467.821 110.604C467.821 111.712 467.854 112.537 467.922 113.08C468.08 113.33 468.187 113.708 468.244 114.217C468.3 114.726 468.351 115.422 468.397 116.304C468.441 117.095 468.543 117.768 468.701 118.322C468.859 118.877 469.142 119.335 469.548 119.696C470 120.081 470.621 120.273 471.412 120.273C472.067 120.273 472.53 119.912 472.801 119.188C473.117 118.419 473.298 117.627 473.343 116.813C473.411 115.795 473.445 114.935 473.445 114.234V112.369C473.219 112.143 472.823 112.029 472.259 112.029H471.988C471.874 112.052 471.751 112.063 471.615 112.063C471.073 112.063 470.802 111.927 470.802 111.656C470.802 111.272 471.073 111.079 471.615 111.079C471.999 111.079 472.315 111.091 472.564 111.113L473.31 111.147C473.738 111.215 474.077 111.294 474.326 111.384C474.597 111.475 474.733 111.599 474.733 111.757C474.733 112.051 474.665 112.47 474.529 113.012C474.416 113.646 474.36 114.076 474.36 114.302C474.36 115.252 474.382 116.112 474.428 116.88C474.45 117.673 474.461 118.542 474.461 119.492C473.309 120.669 472.158 121.257 471.006 121.257C469.966 121.256 469.198 121.131 468.701 120.882ZM486.743 120.95C486.663 120.814 486.59 120.61 486.522 120.339C486.5 120.158 486.455 120 486.387 119.864L486.42 119.762C486.24 118.699 485.855 117.399 485.268 115.86L484.658 114.096C484.613 114.051 484.398 113.474 484.014 112.366L483.743 111.552C481.711 105.264 480.434 101.86 479.915 101.34C479.734 101.95 479.644 102.742 479.644 103.714C479.644 104.235 479.655 104.687 479.678 105.072L479.712 106.395L479.678 107.209C479.655 107.459 479.644 107.73 479.644 108.023C479.644 108.521 479.666 108.951 479.712 109.313L479.779 110.398H479.678C479.678 114.176 479.757 116.257 479.915 116.641V119.695C480.005 119.876 480.05 120.113 480.05 120.407C480.05 120.589 479.988 120.746 479.864 120.882C479.739 121.018 479.587 121.086 479.406 121.086C478.932 121.086 478.695 120.475 478.695 119.254L478.762 118.168C478.808 117.829 478.83 117.456 478.83 117.049C478.83 115.963 478.796 114.334 478.729 112.163C478.661 109.992 478.627 108.363 478.627 107.278C478.627 106.622 478.661 105.616 478.729 104.258C478.797 102.924 478.83 101.929 478.83 101.273V100.832C478.83 99.7234 479.034 98.9991 479.44 98.6601L479.542 98.7623L479.881 98.6943C479.971 98.717 480.072 98.7849 480.185 98.8978C480.276 98.9884 480.321 99.0902 480.321 99.203L480.389 99.4065C480.389 99.4523 480.4 99.5083 480.422 99.5763C480.784 101.183 481.597 103.433 482.862 106.327C484.15 109.381 484.951 111.405 485.267 112.4C485.493 113.192 485.674 113.893 485.809 114.504C486.238 116.427 486.746 117.908 487.334 118.948L487.402 118.846C487.921 113.825 488.181 107.662 488.181 100.356L488.147 99.9491C488.124 99.8362 488.113 99.6891 488.113 99.5078C488.113 99.0328 488.271 98.7956 488.588 98.7956C488.791 98.7956 488.965 98.8973 489.113 99.1008C489.26 99.3043 489.333 99.5305 489.333 99.7793V102.053L489.163 102.324C489.163 104.473 489.039 108.002 488.791 112.909C488.542 117.817 488.305 120.486 488.079 120.916L487.503 121.052V121.085L487.469 121.052L487.13 121.153C486.952 121.153 486.822 121.086 486.743 120.95ZM502.988 121.323C502.536 121.096 502.163 120.803 501.87 120.441C501.576 120.102 501.316 119.683 501.09 119.186C500.864 118.689 500.684 118.191 500.548 117.693C500.322 116.924 500.153 115.963 500.04 114.809L499.972 113.757C499.972 113.532 499.966 113.384 499.955 113.316C499.944 113.248 499.939 113.203 499.939 113.181C499.825 112.073 499.685 109.63 499.515 105.852C499.346 102.076 499.261 99.1351 499.261 97.0316V96.7939V96.5224C499.261 95.9346 499.431 95.6404 499.769 95.6404C500.244 95.6404 500.481 95.9119 500.481 96.4549V96.6926L500.447 96.9641C500.447 99.5878 500.526 102.692 500.684 106.277C500.842 109.862 501 112.446 501.159 114.029C501.272 115.025 501.464 116.043 501.735 117.083C501.915 117.784 502.113 118.372 502.328 118.847C502.542 119.322 502.819 119.718 503.158 120.035C503.564 120.397 503.959 120.577 504.344 120.577C504.728 120.577 505.072 120.487 505.377 120.306C505.682 120.126 505.913 119.888 506.072 119.594C506.23 119.345 506.36 119.023 506.462 118.627C506.563 118.231 506.625 117.852 506.648 117.49C506.67 117.265 506.681 116.891 506.681 116.371V112.503C506.681 110.785 506.636 108.669 506.546 106.159L506.41 101.817L506.342 98.9329C506.275 97.6666 506.241 96.7055 506.241 96.0493C506.241 95.8004 506.309 95.608 506.444 95.4725C506.58 95.337 506.737 95.269 506.918 95.269C507.099 95.269 507.251 95.337 507.376 95.4725C507.5 95.608 507.562 95.8004 507.562 96.0493V98.6277C507.562 99.759 507.573 100.777 507.596 101.681V104.735C507.596 106.929 507.618 108.851 507.663 110.502C507.686 112.176 507.697 114.053 507.697 116.134C507.697 116.699 507.675 117.197 507.629 117.626C507.584 118.056 507.494 118.508 507.358 118.983C507.223 119.526 507.036 119.984 506.799 120.357C506.562 120.731 506.251 121.041 505.868 121.29C505.438 121.539 504.964 121.663 504.445 121.663C503.925 121.663 503.439 121.549 502.988 121.323ZM512.949 121.425C512.7 120 512.576 118.371 512.576 116.539C512.576 115.816 512.61 114.764 512.678 113.384L512.745 110.229C512.587 109.913 512.509 109.652 512.509 109.449C512.734 109.087 512.848 108.047 512.848 106.327C512.848 102.212 512.791 100.017 512.678 99.7456C512.881 99.1804 513.039 98.8973 513.152 98.8973H514.643C514.892 98.8973 515.247 99.0162 515.711 99.2535C516.174 99.4912 516.563 99.7456 516.88 100.017C517.444 100.537 517.727 101.872 517.727 104.02C517.727 105.174 517.693 106.056 517.625 106.667C517.579 107.097 517.507 107.436 517.405 107.685C517.303 107.934 517.151 108.217 516.947 108.533C516.608 109.053 516.033 109.506 515.219 109.89C514.88 110.071 514.406 110.252 513.796 110.433V114.471C513.796 115.036 513.853 116.144 513.965 117.795L514.033 118.881L514.101 121.086C514.101 121.493 513.886 121.697 513.457 121.697L512.949 121.425ZM515.693 108.363C515.851 108.137 515.998 107.832 516.134 107.447C516.27 107.062 516.359 106.689 516.405 106.327C516.54 105.672 516.608 104.914 516.608 104.054V103.138C516.608 102.821 516.597 102.516 516.574 102.222C516.552 101.928 516.507 101.645 516.439 101.374C516.349 101.08 516.23 100.837 516.083 100.644C515.936 100.452 515.739 100.288 515.49 100.152C515.219 100.017 514.892 99.9486 514.508 99.9486C514.237 99.9486 514.045 100.017 513.932 100.152C513.819 100.288 513.763 100.525 513.763 100.865C513.763 101.407 513.796 102.222 513.864 103.307L513.932 105.75C513.932 106.338 513.909 106.87 513.864 107.345L513.796 108.94L514.033 109.279C514.688 109.279 515.241 108.974 515.693 108.363Z" fill="white"/>
<path d="M559.029 235.772H491.869C489.022 235.772 486.714 233.461 486.714 230.61V199.967C486.714 197.117 489.022 194.805 491.869 194.805H559.029C561.876 194.805 564.184 197.117 564.184 199.967V230.61C564.184 233.461 561.876 235.772 559.029 235.772Z" fill="#61113F"/>
<path d="M513.31 204.84H494.215C493.802 204.84 493.467 204.505 493.467 204.091C493.467 203.677 493.802 203.342 494.215 203.342H513.31C513.724 203.342 514.059 203.677 514.059 204.091C514.059 204.505 513.724 204.84 513.31 204.84ZM547.039 204.84H517.453C517.04 204.84 516.705 204.505 516.705 204.091C516.705 203.677 517.04 203.342 517.453 203.342H547.039C547.452 203.342 547.787 203.677 547.787 204.091C547.787 204.505 547.452 204.84 547.039 204.84ZM558.111 204.84H551.903C551.543 204.84 551.252 204.548 551.252 204.188C551.252 203.828 551.543 203.536 551.903 203.536H558.111C558.471 203.536 558.762 203.828 558.762 204.188C558.762 204.548 558.471 204.84 558.111 204.84ZM558.014 212.583H494.215C493.802 212.583 493.467 212.248 493.467 211.834C493.467 211.42 493.802 211.085 494.215 211.085H558.014C558.427 211.085 558.762 211.42 558.762 211.834C558.762 212.248 558.427 212.583 558.014 212.583ZM513.31 227.236H494.215C493.802 227.236 493.467 226.901 493.467 226.487C493.467 226.073 493.802 225.738 494.215 225.738H513.31C513.724 225.738 514.059 226.073 514.059 226.487C514.059 226.901 513.724 227.236 513.31 227.236ZM547.039 227.236H517.453C517.04 227.236 516.705 226.901 516.705 226.487C516.705 226.073 517.04 225.738 517.453 225.738H547.039C547.452 225.738 547.787 226.073 547.787 226.487C547.787 226.901 547.452 227.236 547.039 227.236ZM525.962 219.494H494.215C493.802 219.494 493.467 219.158 493.467 218.744C493.467 218.331 493.802 217.995 494.215 217.995H525.962C526.376 217.995 526.71 218.331 526.71 218.744C526.71 219.158 526.376 219.494 525.962 219.494ZM558.014 219.494H533.57C533.156 219.494 532.821 219.158 532.821 218.744C532.821 218.331 533.156 217.995 533.57 217.995H558.014C558.427 217.995 558.762 218.331 558.762 218.744C558.762 219.158 558.427 219.494 558.014 219.494ZM558.111 227.236H551.903C551.543 227.236 551.252 226.945 551.252 226.584C551.252 226.224 551.543 225.932 551.903 225.932H558.111C558.471 225.932 558.762 226.224 558.762 226.584C558.762 226.944 558.471 227.236 558.111 227.236Z" fill="white"/>
<path d="M357.365 119.143H290.206C287.359 119.143 285.051 116.832 285.051 113.981V83.3382C285.051 80.4874 287.359 78.1763 290.206 78.1763H357.365C360.212 78.1763 362.52 80.4874 362.52 83.3382V113.981C362.52 116.832 360.212 119.143 357.365 119.143Z" fill="#61113F"/>
<path d="M311.646 88.2111H292.551C292.138 88.2111 291.803 87.8758 291.803 87.4619C291.803 87.048 292.138 86.7126 292.551 86.7126H311.646C312.06 86.7126 312.395 87.048 312.395 87.4619C312.395 87.8758 312.059 88.2111 311.646 88.2111ZM345.375 88.2111H315.789C315.376 88.2111 315.041 87.8758 315.041 87.4619C315.041 87.048 315.376 86.7126 315.789 86.7126H345.375C345.788 86.7126 346.123 87.048 346.123 87.4619C346.123 87.8758 345.788 88.2111 345.375 88.2111ZM356.447 88.2111H350.239C349.879 88.2111 349.588 87.9193 349.588 87.559C349.588 87.1987 349.88 86.9069 350.239 86.9069H356.447C356.807 86.9069 357.098 87.1987 357.098 87.559C357.098 87.9193 356.807 88.2111 356.447 88.2111ZM356.35 95.9539H292.551C292.138 95.9539 291.803 95.6185 291.803 95.2046C291.803 94.7907 292.138 94.4554 292.551 94.4554H356.35C356.763 94.4554 357.098 94.7907 357.098 95.2046C357.098 95.6185 356.763 95.9539 356.35 95.9539ZM311.646 110.607H292.551C292.138 110.607 291.803 110.272 291.803 109.858C291.803 109.444 292.138 109.109 292.551 109.109H311.646C312.06 109.109 312.395 109.444 312.395 109.858C312.395 110.271 312.059 110.607 311.646 110.607ZM345.375 110.607H315.789C315.376 110.607 315.041 110.272 315.041 109.858C315.041 109.444 315.376 109.109 315.789 109.109H345.375C345.788 109.109 346.123 109.444 346.123 109.858C346.123 110.271 345.788 110.607 345.375 110.607ZM324.298 102.864H292.551C292.138 102.864 291.803 102.528 291.803 102.115C291.803 101.701 292.138 101.366 292.551 101.366H324.298C324.711 101.366 325.046 101.701 325.046 102.115C325.046 102.529 324.711 102.864 324.298 102.864ZM356.35 102.864H331.906C331.492 102.864 331.157 102.528 331.157 102.115C331.157 101.701 331.492 101.366 331.906 101.366H356.35C356.763 101.366 357.098 101.701 357.098 102.115C357.098 102.529 356.763 102.864 356.35 102.864ZM356.447 110.607H350.239C349.879 110.607 349.588 110.315 349.588 109.955C349.588 109.595 349.88 109.303 350.239 109.303H356.447C356.807 109.303 357.098 109.595 357.098 109.955C357.098 110.315 356.807 110.607 356.447 110.607Z" fill="white"/>
<path d="M105.636 184.6H38.4763C35.6293 184.6 33.3213 182.289 33.3213 179.438V148.796C33.3213 145.945 35.6293 143.634 38.4763 143.634H105.636C108.483 143.634 110.791 145.945 110.791 148.796V179.438C110.791 182.289 108.483 184.6 105.636 184.6Z" fill="#61113F"/>
<path d="M59.9169 153.668H40.8215C40.4081 153.668 40.0732 153.333 40.0732 152.919C40.0732 152.505 40.4081 152.17 40.8215 152.17H59.9169C60.3302 152.17 60.6651 152.505 60.6651 152.919C60.6656 153.333 60.3302 153.668 59.9169 153.668ZM93.6459 153.668H64.0604C63.647 153.668 63.3121 153.333 63.3121 152.919C63.3121 152.505 63.647 152.17 64.0604 152.17H93.6459C94.0593 152.17 94.3941 152.505 94.3941 152.919C94.3941 153.333 94.0593 153.668 93.6459 153.668ZM104.718 153.668H98.5099C98.1501 153.668 97.8587 153.377 97.8587 153.016C97.8587 152.656 98.1506 152.364 98.5099 152.364H104.718C105.078 152.364 105.369 152.656 105.369 153.016C105.369 153.376 105.078 153.668 104.718 153.668ZM104.621 161.411H40.8215C40.4081 161.411 40.0732 161.076 40.0732 160.662C40.0732 160.248 40.4081 159.913 40.8215 159.913H104.621C105.034 159.913 105.369 160.248 105.369 160.662C105.369 161.075 105.034 161.411 104.621 161.411ZM59.9169 176.064H40.8215C40.4081 176.064 40.0732 175.729 40.0732 175.315C40.0732 174.901 40.4081 174.566 40.8215 174.566H59.9169C60.3302 174.566 60.6651 174.901 60.6651 175.315C60.6656 175.729 60.3302 176.064 59.9169 176.064ZM93.6459 176.064H64.0604C63.647 176.064 63.3121 175.729 63.3121 175.315C63.3121 174.901 63.647 174.566 64.0604 174.566H93.6459C94.0593 174.566 94.3941 174.901 94.3941 175.315C94.3941 175.729 94.0593 176.064 93.6459 176.064ZM72.5686 168.321H40.8215C40.4081 168.321 40.0732 167.986 40.0732 167.572C40.0732 167.158 40.4081 166.823 40.8215 166.823H72.5686C72.982 166.823 73.3168 167.158 73.3168 167.572C73.3173 167.986 72.982 168.321 72.5686 168.321ZM104.621 168.321H80.1766C79.7632 168.321 79.4284 167.986 79.4284 167.572C79.4284 167.158 79.7632 166.823 80.1766 166.823H104.621C105.034 166.823 105.369 167.158 105.369 167.572C105.369 167.986 105.034 168.321 104.621 168.321ZM104.718 176.064H98.5099C98.1501 176.064 97.8587 175.772 97.8587 175.412C97.8587 175.052 98.1506 174.76 98.5099 174.76H104.718C105.078 174.76 105.369 175.052 105.369 175.412C105.369 175.772 105.078 176.064 104.718 176.064Z" fill="white"/>
<path d="M144.394 236.478C144.394 232.266 147.804 228.852 152.009 228.852C156.216 228.852 159.625 232.266 159.625 236.478C159.625 240.689 156.216 244.103 152.009 244.103C147.804 244.103 144.394 240.689 144.394 236.478Z" fill="#FFDF99"/>
<path d="M90.5014 371.094L55.9941 276.208L125.568 206.54L127.107 208.081L58.5132 276.767L92.5457 370.349L90.5014 371.094Z" fill="#43455D"/>
<path d="M85.062 368.914L50.5547 274.029L120.129 204.362L121.667 205.902L53.0733 274.589L87.1062 368.17L85.062 368.914Z" fill="#43455D"/>
<path d="M50.1816 275.943C50.1816 272.935 52.6171 270.496 55.6212 270.496C58.6257 270.496 61.0607 272.935 61.0607 275.943C61.0607 278.951 58.6257 281.39 55.6212 281.39C52.6171 281.39 50.1816 278.951 50.1816 275.943ZM130.757 226.067L119.042 213.174C116.211 210.06 116.438 205.237 119.55 202.402C122.661 199.567 127.477 199.795 130.307 202.91L142.023 215.802L130.757 226.067Z" fill="#43455D"/>
<path d="M165.845 221.717L136.203 248.726L125.527 236.977C118.079 228.781 118.677 216.091 126.862 208.632C135.047 201.174 147.72 201.772 155.169 209.968L165.845 221.717Z" fill="#D94559"/>
<path d="M103.111 377.164H74.1797C74.1797 369.164 80.6561 362.678 88.6457 362.678C96.6348 362.678 103.111 369.164 103.111 377.164Z" fill="#43455D"/>
<path d="M495.736 409.146H366.189C365.135 409.146 364.281 408.291 364.281 407.236V406.754C364.281 405.699 365.135 404.844 366.189 404.844H495.736C496.79 404.844 497.644 405.699 497.644 406.754V407.236C497.644 408.291 496.79 409.146 495.736 409.146ZM569.718 408.762H519.481C518.521 408.762 517.744 407.983 517.744 407.022V406.583C517.744 405.622 518.521 404.843 519.481 404.843H569.718C570.678 404.843 571.456 405.622 571.456 406.583V407.022C571.455 407.983 570.677 408.762 569.718 408.762ZM168.936 273.45H119.177C118.831 273.45 118.551 273.169 118.551 272.823V272.239C118.551 271.893 118.831 271.613 119.177 271.613H168.936C169.281 271.613 169.562 271.893 169.562 272.239V272.823C169.561 273.169 169.281 273.45 168.936 273.45ZM169.612 280.273H139.501C139.155 280.273 138.875 279.992 138.875 279.646V279.063C138.875 278.717 139.155 278.436 139.501 278.436H169.612C169.958 278.436 170.238 278.717 170.238 279.063V279.646C170.238 279.993 169.958 280.273 169.612 280.273ZM133.129 280.273H123.048C122.702 280.273 122.422 279.992 122.422 279.646V279.063C122.422 278.717 122.702 278.436 123.048 278.436H133.129C133.474 278.436 133.754 278.717 133.754 279.063V279.646C133.754 279.993 133.474 280.273 133.129 280.273ZM418.552 46.6093H368.793C368.447 46.6093 368.167 46.3285 368.167 45.9826V45.3989C368.167 45.053 368.447 44.7722 368.793 44.7722H418.552C418.898 44.7722 419.178 45.053 419.178 45.3989V45.9826C419.178 46.3285 418.898 46.6093 418.552 46.6093ZM419.228 53.433H389.117C388.771 53.433 388.491 53.1523 388.491 52.8063V52.2226C388.491 51.8767 388.771 51.5959 389.117 51.5959H419.228C419.574 51.5959 419.854 51.8767 419.854 52.2226V52.8063C419.854 53.1523 419.574 53.433 419.228 53.433ZM382.745 53.433H372.664C372.318 53.433 372.038 53.1523 372.038 52.8063V52.2226C372.038 51.8767 372.318 51.5959 372.664 51.5959H382.745C383.09 51.5959 383.371 51.8767 383.371 52.2226V52.8063C383.371 53.1523 383.09 53.433 382.745 53.433ZM575.773 275.943H526.013C525.668 275.943 525.388 275.662 525.388 275.316V274.733C525.388 274.387 525.668 274.106 526.013 274.106H575.773C576.118 274.106 576.399 274.387 576.399 274.733V275.316C576.399 275.662 576.118 275.943 575.773 275.943ZM576.449 282.766H546.338C545.992 282.766 545.712 282.486 545.712 282.14V281.556C545.712 281.21 545.992 280.929 546.338 280.929H576.449C576.795 280.929 577.075 281.21 577.075 281.556V282.14C577.075 282.486 576.795 282.766 576.449 282.766ZM539.966 282.766H529.885C529.539 282.766 529.259 282.486 529.259 282.14V281.556C529.259 281.21 529.539 280.929 529.885 280.929H539.966C540.311 280.929 540.592 281.21 540.592 281.556V282.14C540.592 282.486 540.311 282.766 539.966 282.766Z" fill="#C8CBE3"/>
</svg>
