<svg width="42" height="50" viewBox="0 0 42 50" fill="none" xmlns="http://www.w3.org/2000/svg">
<g id="Group">
<path id="Vector" d="M11.3751 22.2756C13.6647 27.3285 18.5668 29.528 20.9999 29.528C22.5998 29.528 25.267 28.5763 27.5572 26.4887C26.7198 26.5471 25.8248 26.5767 24.8684 26.5767C24.644 26.5767 24.4085 26.5747 24.1569 26.5707C23.6748 26.942 23.0776 27.1514 22.4578 27.1514H20.42C18.8843 27.1514 17.635 25.9021 17.635 24.3664C17.635 22.8307 18.8843 21.5813 20.42 21.5813H22.4578C23.194 21.5813 23.8825 21.8683 24.3932 22.3632C24.5628 22.3651 24.7301 22.3659 24.8942 22.3659C27.5249 22.3659 29.2585 22.1246 30.3926 21.8336C30.2455 21.4756 30.1653 21.084 30.1653 20.6751V13.6137C30.1653 12.8792 30.438 12.1751 30.9094 11.6311C30.6578 9.67275 30.2012 8.17767 29.5198 7.0748C28.1156 4.80209 25.4083 3.74365 20.9999 3.74365C17.3429 3.74365 14.8175 4.50281 13.2796 6.06445C12.0875 7.27505 11.3967 9.00244 11.0737 11.6113C11.5557 12.1573 11.8345 12.8686 11.8345 13.6137V20.6751C11.8347 21.2626 11.6658 21.8109 11.3751 22.2756Z" fill="#61113F"/>
<path id="Vector_2" d="M6.36447 22.3422H8.80904C9.72931 22.3422 10.476 21.5958 10.476 20.6751V13.6138C10.476 12.9987 10.1419 12.4627 9.64631 12.1739C10.1922 6.39182 12.4234 2.38506 20.9999 2.38506C25.9251 2.38506 28.9996 3.64851 30.6755 6.36084C31.6507 7.9392 32.1198 9.97783 32.3389 12.1826C31.8512 12.4735 31.5238 13.0047 31.5238 13.6137V20.675C31.5238 21.4688 32.0791 22.1316 32.8221 22.2997C31.7445 23.0045 29.5135 23.7244 24.8941 23.7244C24.5199 23.7244 24.1299 23.7196 23.7237 23.7099C23.4859 23.2527 23.0088 22.9398 22.4578 22.9398H20.4201C19.6324 22.9398 18.9936 23.5785 18.9936 24.3663C18.9936 25.1541 19.6324 25.7928 20.4201 25.7928H22.4578C22.9338 25.7928 23.3544 25.5587 23.6134 25.2005C24.0424 25.2113 24.4625 25.2181 24.8684 25.2181C30.0754 25.218 33.3855 24.3292 34.7261 22.5658C34.7832 22.4908 34.8352 22.4161 34.8826 22.3422H35.6357C36.5561 22.3422 37.3026 21.5958 37.3026 20.6751V13.6138C37.3026 12.6933 36.5562 11.9469 35.6357 11.9469H34.7162C34.4575 9.28307 33.8841 7.01539 32.7046 5.1069C30.5815 1.67047 26.7526 0 20.9998 0C15.2466 0 11.4181 1.67047 9.29485 5.10704C8.1155 7.01552 7.54233 9.28293 7.28353 11.947H6.36434C5.44365 11.947 4.69727 12.6933 4.69727 13.614V20.6753C4.69727 21.5958 5.44379 22.3422 6.36447 22.3422Z" fill="#61113F"/>
<path id="Vector_3" d="M41.1536 43.1066C40.5993 39.6604 39.4582 35.2212 37.1698 33.6439C35.6093 32.5678 30.1616 29.6571 27.8353 28.4143L27.7864 28.3883C27.5202 28.246 27.1953 28.2746 26.958 28.4608C25.7376 29.4187 24.4016 30.064 22.9872 30.3788C22.7373 30.4344 22.532 30.6122 22.4411 30.8516L20.9998 34.6502L19.5585 30.8516C19.4677 30.6121 19.2624 30.4344 19.0124 30.3788C17.598 30.064 16.2618 29.4187 15.0412 28.4608C14.804 28.2744 14.4791 28.2459 14.2129 28.3883C11.9127 29.6172 6.39438 32.589 4.8364 33.6393C2.20096 35.4148 1.05 41.8373 0.846087 43.1067C0.825844 43.2327 0.837528 43.3615 0.88005 43.4816C0.974333 43.7478 3.39173 50.0003 20.9997 50.0003C38.6074 50.0003 41.025 43.7478 41.1194 43.4817C41.1621 43.3613 41.1738 43.2324 41.1536 43.1066ZM32.955 39.1492H25.9811V37.6804H32.955V39.1492Z" fill="#61113F"/>
</g>
</svg>
