<svg width="216" height="153" viewBox="0 0 216 153" fill="none" xmlns="http://www.w3.org/2000/svg">
<path id="Vector 335" d="M4.08122 152.395C4.29925 152.902 4.88735 153.137 5.39478 152.919L13.6638 149.366C14.1712 149.148 14.4058 148.56 14.1878 148.052C13.9697 147.545 13.3816 147.31 12.8742 147.528L5.524 150.686L2.36578 143.336C2.14775 142.829 1.55965 142.594 1.05222 142.812C0.544795 143.03 0.310193 143.618 0.528223 144.126L4.08122 152.395ZM5.92882 152.371C6.17794 151.746 6.42919 151.124 6.68253 150.505L4.8314 149.748C4.57586 150.372 4.32245 151 4.07118 151.629L5.92882 152.371ZM8.22758 146.819C8.75085 145.601 9.28233 144.393 9.8218 143.195L7.99814 142.373C7.45391 143.582 6.91776 144.801 6.38991 146.03L8.22758 146.819ZM11.469 139.62C12.0411 138.406 12.6215 137.203 13.2099 136.011L11.4164 135.126C10.8227 136.329 10.2372 137.543 9.65997 138.767L11.469 139.62ZM14.9992 132.465C15.6036 131.293 16.2158 130.132 16.8356 128.981L15.0747 128.033C14.4493 129.194 13.8316 130.366 13.2218 131.548L14.9992 132.465ZM18.76 125.484C19.4129 124.323 20.0735 123.172 20.7418 122.033L19.0165 121.021C18.3421 122.171 17.6754 123.332 17.0167 124.504L18.76 125.484ZM22.7691 118.645C23.4626 117.51 24.1636 116.386 24.872 115.272L23.1845 114.199C22.4696 115.323 21.7622 116.457 21.0623 117.603L22.7691 118.645ZM27.0414 111.93C27.7719 110.827 28.5096 109.735 29.2542 108.653L27.607 107.519C26.8555 108.61 26.111 109.713 25.3739 110.826L27.0414 111.93ZM31.5335 105.407C32.3099 104.323 33.0934 103.249 33.8837 102.187L32.279 100.993C31.4815 102.065 30.6908 103.148 29.9072 104.243L31.5335 105.407ZM36.2745 99.0332C37.0851 97.9839 37.9023 96.9458 38.7258 95.9187L37.1655 94.6676C36.3344 95.704 35.5097 96.7516 34.6917 97.8106L36.2745 99.0332ZM41.248 92.8311C42.0951 91.8131 42.9484 90.8064 43.8076 89.8108L42.2935 88.5041C41.4265 89.5088 40.5655 90.5246 39.7107 91.5518L41.248 92.8311ZM46.4247 86.8327C47.3137 85.8392 48.2085 84.8572 49.1089 83.8864L47.6425 82.5263C46.7341 83.5058 45.8312 84.4967 44.9343 85.4991L46.4247 86.8327ZM51.8265 81.008C52.7463 80.0509 53.6714 79.1051 54.6016 78.1706L53.1842 76.7597C52.2457 77.7024 51.3124 78.6566 50.3844 79.6222L51.8265 81.008ZM57.4364 75.3723C58.3862 74.451 59.3409 73.541 60.3001 72.6422L58.9326 71.1828C57.965 72.0894 57.002 73.0073 56.0439 73.9367L57.4364 75.3723ZM63.2246 69.9488C64.2114 69.0555 65.2026 68.1737 66.1977 67.3033L64.881 65.7979C63.8774 66.6757 62.8777 67.5651 61.8824 68.466L63.2246 69.9488ZM69.1947 64.7261C70.2128 63.8654 71.2346 63.0163 72.2597 62.1786L70.9942 60.6299C69.9605 61.4746 68.9301 62.3308 67.9035 63.1988L69.1947 64.7261ZM75.3583 59.6891C76.3945 58.8705 77.4338 58.0633 78.4758 57.2673L77.2617 55.678C76.2112 56.4805 75.1633 57.2943 74.1185 58.1197L75.3583 59.6891ZM81.6718 54.8667C82.7397 54.0781 83.8099 53.301 84.8822 52.5352L83.7199 50.9077C82.639 51.6796 81.5602 52.4629 80.4837 53.2579L81.6718 54.8667ZM88.1251 50.2577C89.2237 49.4989 90.324 48.7518 91.4255 48.0161L90.3148 46.3529C89.2047 47.0943 88.0957 47.8473 86.9885 48.612L88.1251 50.2577ZM94.7335 45.8435C95.8532 45.1203 96.9738 44.4088 98.0948 43.7087L97.0354 42.0123C95.9059 42.7177 94.7767 43.4347 93.6484 44.1635L94.7335 45.8435ZM101.485 41.6265C102.617 40.9432 103.749 40.2714 104.88 39.6108L103.871 37.8837C102.732 38.5491 101.592 39.226 100.452 39.9145L101.485 41.6265ZM108.351 37.6183C109.507 36.9658 110.662 36.325 111.816 35.6956L110.858 33.9399C109.696 34.5738 108.532 35.2193 107.368 35.8765L108.351 37.6183ZM115.32 33.8163C116.501 33.1936 117.681 32.5826 118.857 31.9833L117.95 30.2011C116.765 30.8046 115.577 31.4199 114.387 32.0471L115.32 33.8163ZM122.385 30.2178C123.591 29.6243 124.794 29.0429 125.993 28.4734L125.135 26.6668C123.928 27.2402 122.716 27.8256 121.502 28.4232L122.385 30.2178ZM129.579 26.8004C130.796 26.2425 132.008 25.6967 133.215 25.1629L132.406 23.3338C131.191 23.8712 129.971 24.4206 128.745 24.9823L129.579 26.8004ZM136.862 23.5793C138.087 23.0569 139.306 22.5468 140.518 22.0486L139.758 20.1988C138.538 20.7002 137.311 21.2137 136.078 21.7395L136.862 23.5793ZM144.223 20.5541C145.456 20.0663 146.681 19.5908 147.897 19.1274L147.185 17.2585C145.961 17.7249 144.728 18.2034 143.487 18.6945L144.223 20.5541ZM151.658 17.7224C152.902 17.2669 154.135 16.824 155.358 16.3935L154.694 14.507C153.463 14.9402 152.222 15.3859 150.97 15.8444L151.658 17.7224ZM159.161 15.0821C160.419 14.6573 161.664 14.2458 162.895 13.8471L162.279 11.9444C161.04 12.3456 159.787 12.7598 158.521 13.1872L159.161 15.0821ZM166.729 12.6322C167.997 12.2393 169.249 11.8602 170.483 11.4945L169.915 9.57693C168.673 9.94493 167.414 10.3264 166.137 10.7218L166.729 12.6322ZM174.357 10.3737C175.644 10.0101 176.91 9.66148 178.153 9.32727L177.633 7.39589C176.383 7.73224 175.109 8.08308 173.813 8.44897L174.357 10.3737ZM182.031 8.31093C183.348 7.97492 184.635 7.65575 185.891 7.35266L185.422 5.4085C184.158 5.71359 182.862 6.03484 181.537 6.37302L182.031 8.31093ZM189.72 6.45473C191.075 6.14623 192.387 5.85763 193.653 5.58781L193.235 3.63177C191.961 3.90346 190.64 4.19403 189.276 4.50461L189.72 6.45473ZM197.551 4.78509C198.915 4.51446 200.211 4.26796 201.435 4.04378L201.075 2.0765C199.841 2.30241 198.536 2.55076 197.162 2.82336L197.551 4.78509ZM205.337 3.36124C206.808 3.11623 208.13 2.91064 209.291 2.73956L209 0.760939C207.827 0.933778 206.493 1.14128 205.008 1.3884L205.337 3.36124ZM213.178 2.21134C213.809 2.13395 214.29 2.07982 214.612 2.04514C214.773 2.0278 214.894 2.01533 214.975 2.00724C215.015 2.0032 215.045 2.00025 215.065 1.99835C215.075 1.99739 215.082 1.9967 215.087 1.99625C215.089 1.99603 215.091 1.99587 215.092 1.99578C215.092 1.99573 215.093 1.9957 215.093 1.99568C215.093 1.99567 215.093 1.99566 215.093 1.99566C215.093 1.99566 215.093 1.99566 215.093 1.99567C215.093 1.99567 215.093 1.99567 215.093 1.99567C215.093 1.99567 215.093 1.99567 215 1C214.907 0.00432771 214.907 0.00433046 214.907 0.00433344C214.907 0.00433475 214.907 0.00433797 214.907 0.00434059C214.907 0.00434583 214.907 0.00435209 214.907 0.00435925C214.907 0.00437361 214.906 0.00439179 214.906 0.0044139C214.906 0.00445807 214.905 0.00451773 214.904 0.00459296C214.903 0.0047434 214.9 0.00495631 214.897 0.00523245C214.892 0.00578481 214.883 0.00659037 214.872 0.00765669C214.85 0.00978935 214.818 0.0129648 214.775 0.017243C214.69 0.0257992 214.564 0.0387658 214.398 0.0566206C214.066 0.09233 213.575 0.147593 212.934 0.22623L213.178 2.21134Z" fill="#61113F"/>
</svg>
