<svg width="216" height="153" viewBox="0 0 216 153" fill="none" xmlns="http://www.w3.org/2000/svg">
<path id="Vector 335" d="M211.919 152.395C211.701 152.902 211.113 153.137 210.605 152.919L202.336 149.366C201.829 149.148 201.594 148.56 201.812 148.052C202.03 147.545 202.618 147.31 203.126 147.528L210.476 150.686L213.634 143.336C213.852 142.829 214.44 142.594 214.948 142.812C215.455 143.03 215.69 143.618 215.472 144.126L211.919 152.395ZM210.071 152.371C209.822 151.746 209.571 151.124 209.317 150.505L211.169 149.748C211.424 150.372 211.678 151 211.929 151.629L210.071 152.371ZM207.772 146.819C207.249 145.601 206.718 144.393 206.178 143.195L208.002 142.373C208.546 143.582 209.082 144.801 209.61 146.03L207.772 146.819ZM204.531 139.62C203.959 138.406 203.378 137.203 202.79 136.011L204.584 135.126C205.177 136.329 205.763 137.543 206.34 138.767L204.531 139.62ZM201.001 132.465C200.396 131.293 199.784 130.132 199.164 128.981L200.925 128.033C201.551 129.194 202.168 130.366 202.778 131.548L201.001 132.465ZM197.24 125.484C196.587 124.323 195.926 123.172 195.258 122.033L196.984 121.021C197.658 122.171 198.325 123.332 198.983 124.504L197.24 125.484ZM193.231 118.645C192.537 117.51 191.836 116.386 191.128 115.272L192.815 114.199C193.53 115.323 194.238 116.457 194.938 117.603L193.231 118.645ZM188.959 111.93C188.228 110.827 187.49 109.735 186.746 108.653L188.393 107.519C189.144 108.61 189.889 109.713 190.626 110.826L188.959 111.93ZM184.466 105.407C183.69 104.323 182.907 103.249 182.116 102.187L183.721 100.993C184.519 102.065 185.309 103.148 186.093 104.243L184.466 105.407ZM179.726 99.0332C178.915 97.9839 178.098 96.9458 177.274 95.9187L178.835 94.6676C179.666 95.704 180.49 96.7516 181.308 97.8106L179.726 99.0332ZM174.752 92.8311C173.905 91.8131 173.052 90.8064 172.192 89.8108L173.707 88.5041C174.574 89.5088 175.435 90.5246 176.289 91.5518L174.752 92.8311ZM169.575 86.8327C168.686 85.8392 167.792 84.8572 166.891 83.8864L168.357 82.5263C169.266 83.5058 170.169 84.4967 171.066 85.4991L169.575 86.8327ZM164.174 81.008C163.254 80.0509 162.329 79.1051 161.398 78.1706L162.816 76.7597C163.754 77.7024 164.688 78.6566 165.616 79.6222L164.174 81.008ZM158.564 75.3723C157.614 74.451 156.659 73.541 155.7 72.6422L157.067 71.1828C158.035 72.0894 158.998 73.0073 159.956 73.9367L158.564 75.3723ZM152.775 69.9488C151.789 69.0555 150.797 68.1737 149.802 67.3033L151.119 65.7979C152.123 66.6757 153.122 67.5651 154.118 68.466L152.775 69.9488ZM146.805 64.7261C145.787 63.8654 144.765 63.0163 143.74 62.1786L145.006 60.6299C146.04 61.4746 147.07 62.3308 148.097 63.1988L146.805 64.7261ZM140.642 59.6891C139.605 58.8705 138.566 58.0633 137.524 57.2673L138.738 55.678C139.789 56.4805 140.837 57.2943 141.882 58.1197L140.642 59.6891ZM134.328 54.8667C133.26 54.0781 132.19 53.301 131.118 52.5352L132.28 50.9077C133.361 51.6796 134.44 52.4629 135.516 53.2579L134.328 54.8667ZM127.875 50.2577C126.776 49.4989 125.676 48.7518 124.574 48.0161L125.685 46.3529C126.795 47.0943 127.904 47.8473 129.012 48.612L127.875 50.2577ZM121.266 45.8435C120.147 45.1203 119.026 44.4088 117.905 43.7087L118.965 42.0123C120.094 42.7177 121.223 43.4347 122.352 44.1635L121.266 45.8435ZM114.515 41.6265C113.383 40.9432 112.251 40.2714 111.12 39.6108L112.129 37.8837C113.268 38.5491 114.408 39.226 115.548 39.9145L114.515 41.6265ZM107.649 37.6183C106.493 36.9658 105.338 36.325 104.184 35.6956L105.142 33.9399C106.304 34.5738 107.468 35.2193 108.632 35.8765L107.649 37.6183ZM100.68 33.8163C99.4987 33.1936 98.3193 32.5826 97.1425 31.9833L98.0501 30.2011C99.2352 30.8046 100.423 31.4199 101.613 32.0471L100.68 33.8163ZM93.6155 30.2178C92.4091 29.6243 91.2061 29.0429 90.0069 28.4734L90.8648 26.6668C92.0723 27.2402 93.2837 27.8256 94.4984 28.4232L93.6155 30.2178ZM86.4212 26.8004C85.2043 26.2425 83.9919 25.6967 82.7847 25.1629L83.5935 23.3338C84.8088 23.8712 86.0294 24.4206 87.2547 24.9823L86.4212 26.8004ZM79.1379 23.5793C77.9129 23.0569 76.694 22.5468 75.4819 22.0486L76.2421 20.1988C77.4623 20.7002 78.6893 21.2137 79.9224 21.7395L79.1379 23.5793ZM71.7766 20.5541C70.5439 20.0663 69.3191 19.5908 68.1028 19.1274L68.8149 17.2585C70.039 17.7249 71.2718 18.2034 72.5125 18.6945L71.7766 20.5541ZM64.3422 17.7224C63.0984 17.2669 61.8647 16.824 60.6418 16.3935L61.3059 14.507C62.5366 14.9402 63.7783 15.3859 65.03 15.8444L64.3422 17.7224ZM56.8389 15.0821C55.5812 14.6573 54.3363 14.2458 53.1051 13.8471L53.7213 11.9444C54.9603 12.3456 56.2131 12.7598 57.4788 13.1872L56.8389 15.0821ZM49.2706 12.6322C48.0025 12.2393 46.7509 11.8602 45.5167 11.4945L46.0848 9.57693C47.3268 9.94493 48.5865 10.3264 49.8626 10.7218L49.2706 12.6322ZM41.643 10.3737C40.3557 10.0101 39.09 9.66148 37.8472 9.32727L38.3666 7.39589C39.6173 7.73224 40.8911 8.08308 42.1866 8.44897L41.643 10.3737ZM33.9687 8.31093C32.6518 7.97492 31.3647 7.65575 30.109 7.35266L30.5784 5.4085C31.8422 5.71359 33.1377 6.03484 34.4631 6.37302L33.9687 8.31093ZM26.2803 6.45473C24.9249 6.14623 23.6131 5.85763 22.3475 5.58781L22.7645 3.63177C24.0389 3.90346 25.3596 4.19403 26.7241 4.50461L26.2803 6.45473ZM18.4486 4.78509C17.0851 4.51446 15.789 4.26796 14.5648 4.04378L14.925 2.0765C16.1587 2.30241 17.4645 2.55076 18.838 2.82336L18.4486 4.78509ZM10.6631 3.36124C9.19159 3.11623 7.86957 2.91064 6.70882 2.73956L7.00044 0.760939C8.17313 0.933778 9.50745 1.14128 10.9916 1.3884L10.6631 3.36124ZM2.82224 2.21134C2.19144 2.13395 1.71036 2.07982 1.38812 2.04514C1.22701 2.0278 1.10561 2.01533 1.02504 2.00724C0.984756 2.0032 0.954697 2.00025 0.934982 1.99835C0.925125 1.99739 0.917862 1.9967 0.913208 1.99625C0.910873 1.99603 0.909195 1.99587 0.908173 1.99578C0.907654 1.99573 0.907303 1.9957 0.90712 1.99568C0.907028 1.99567 0.906982 1.99566 0.906967 1.99566C0.906967 1.99566 0.906967 1.99566 0.906982 1.99567C0.906998 1.99567 0.907013 1.99567 0.907013 1.99567C0.907028 1.99567 0.907059 1.99567 1 1C1.09293 0.00432771 1.09296 0.00433046 1.09299 0.00433344C1.093 0.00433475 1.09303 0.00433797 1.09306 0.00434059C1.09312 0.00434583 1.09319 0.00435209 1.09326 0.00435925C1.09341 0.00437361 1.09361 0.00439179 1.09384 0.0044139C1.09431 0.00445807 1.09496 0.00451773 1.09575 0.00459296C1.09735 0.0047434 1.09961 0.00495631 1.10251 0.00523245C1.10832 0.00578481 1.11673 0.00659037 1.12775 0.00765669C1.14977 0.00978935 1.18216 0.0129648 1.22479 0.017243C1.31003 0.0257992 1.43619 0.0387658 1.60211 0.0566206C1.93396 0.09233 2.4249 0.147593 3.0658 0.22623L2.82224 2.21134Z" fill="#61113F"/>
</svg>
