<svg width="156" height="348" viewBox="0 0 156 348" fill="none" xmlns="http://www.w3.org/2000/svg">
<path opacity="0.1" d="M48.9003 13.245C28.0073 4.50064 5.6143 0 -17.0001 0V115.537C-9.40179 115.537 -1.87785 117.049 5.14207 119.987C12.162 122.925 18.5405 127.232 23.9133 132.66C29.2862 138.089 33.5481 144.534 36.4559 151.627C39.3637 158.72 40.8603 166.323 40.8603 174C40.8603 181.677 39.3637 189.28 36.4559 196.373C33.5482 203.466 29.2862 209.911 23.9134 215.34C18.5405 220.768 12.1621 225.075 5.14211 228.013C-1.87785 230.951 -9.40179 232.463 -17.0001 232.463V348C5.6143 348 28.0073 343.499 48.9003 334.755C69.7933 326.011 88.7772 313.194 104.768 297.037C120.759 280.879 133.443 261.698 142.098 240.587C150.752 219.476 155.206 196.85 155.206 174C155.206 151.15 150.752 128.524 142.098 107.413C133.443 86.3025 120.759 67.1208 104.768 50.9634C88.7772 34.806 69.7933 21.9893 48.9003 13.245Z" fill="#1E5AFA"/>
</svg>
