<svg width="86" height="57" viewBox="0 0 86 57" fill="none" xmlns="http://www.w3.org/2000/svg">
<path d="M11.0195 11.1106L20.3884 20.6704V1.55078L11.0195 11.1106Z" fill="url(#paint0_linear_2927_815)"/>
<path d="M-0.000976562 21.5186H19.6052L-0.000976562 1.52539V21.5186Z" fill="white"/>
<path d="M19.5561 0.727051H0.842773L10.1994 10.2744L19.5561 0.727051Z" fill="url(#paint1_linear_2927_815)"/>
<path d="M76.9412 55.3697V42.6072H73.4717V38.4453L76.9412 38.4371V33.1709H82.5311V38.4239L86.0007 38.4157V42.6072H82.5311V55.3697H76.9412Z" fill="url(#paint2_linear_2927_815)"/>
<path d="M76.9412 55.3697V42.6072H73.4717V38.4453L76.9412 38.4371V33.1709H82.5311V38.4239L86.0007 38.4157V42.6072H82.5311V55.3697H76.9412Z" stroke="url(#paint3_linear_2927_815)"/>
<path d="M64.1582 55.3693V31.9497H69.7481V55.3693H64.1582Z" fill="url(#paint4_linear_2927_815)"/>
<path d="M64.1582 55.3693V31.9497H69.7481V55.3693H64.1582Z" stroke="url(#paint5_linear_2927_815)"/>
<path d="M52.4858 55.334C51.0081 55.334 49.6909 55.0448 48.5344 54.4666C47.3993 53.8669 46.4998 53.0423 45.8358 51.9929C45.1933 50.9221 44.8721 49.712 44.8721 48.3627L44.9499 38.4155H50.073L49.9952 48.3627C49.9952 48.7911 50.0809 49.1659 50.2522 49.4871C50.4235 49.8084 50.6591 50.0547 50.959 50.226C51.2588 50.3973 52.0789 50.483 52.4858 50.483C53.0855 50.483 53.9563 50.2903 54.3204 49.9047C54.7059 49.5192 54.8987 49.0052 54.8987 48.3627L54.9765 38.4155H60.1774L60.0996 48.3627C60.0996 49.7334 59.7783 50.9435 59.1358 51.9929C58.4933 53.0423 57.5938 53.8669 56.4373 54.4666C55.3022 55.0448 53.985 55.334 52.4858 55.334Z" fill="url(#paint6_linear_2927_815)"/>
<path d="M52.4858 55.334C51.0081 55.334 49.6909 55.0448 48.5344 54.4666C47.3993 53.8669 46.4998 53.0423 45.8358 51.9929C45.1933 50.9221 44.8721 49.712 44.8721 48.3627L44.9499 38.4155H50.073L49.9952 48.3627C49.9952 48.7911 50.0809 49.1659 50.2522 49.4871C50.4235 49.8084 50.6591 50.0547 50.959 50.226C51.2588 50.3973 52.0789 50.483 52.4858 50.483C53.0855 50.483 53.9563 50.2903 54.3204 49.9047C54.7059 49.5192 54.8987 49.0052 54.8987 48.3627L54.9765 38.4155H60.1774L60.0996 48.3627C60.0996 49.7334 59.7783 50.9435 59.1358 51.9929C58.4933 53.0423 57.5938 53.8669 56.4373 54.4666C55.3022 55.0448 53.985 55.334 52.4858 55.334Z" stroke="url(#paint7_linear_2927_815)"/>
<path fill-rule="evenodd" clip-rule="evenodd" d="M35.6627 38.8009V38.4069H41.1077V38.4069H35.6626V38.8009C35.6627 38.8009 35.6627 38.8009 35.6627 38.8009ZM34.8848 55.3581C33.7427 55.8621 32.4796 56.142 31.1511 56.142C26.0388 56.142 21.8945 51.9977 21.8945 46.8854C21.8945 41.7732 26.0388 37.6289 31.1511 37.6289C32.4796 37.6289 33.7427 37.9088 34.8848 38.4128V37.6291H41.8855V56.1421H34.8848V55.3581ZM35.6627 54.97C35.6627 54.97 35.6627 54.97 35.6626 54.97V55.3643L35.6627 55.3643V54.97Z" fill="white"/>
<path d="M38.8404 46.516H37.8505C37.7657 45.0499 37.1798 43.7134 36.2597 42.6812L36.9604 41.9805C37.105 41.8359 37.105 41.604 36.9604 41.4594C36.8183 41.3148 36.5839 41.3148 36.4418 41.4594L35.7386 42.16C34.7064 41.24 33.3724 40.6541 31.9038 40.5693V39.5794C31.9038 39.3775 31.7393 39.2129 31.5348 39.2129C31.3329 39.2129 31.1683 39.3775 31.1683 39.5794V40.5693C29.6997 40.6541 28.3658 41.24 27.3335 42.16L26.6304 41.4594C26.4883 41.3148 26.2539 41.3148 26.1118 41.4594C25.9671 41.604 25.9671 41.8359 26.1118 41.9805L26.8124 42.6812C25.8923 43.7134 25.3039 45.0499 25.2216 46.516H24.2318C24.0298 46.516 23.8652 46.6805 23.8652 46.885C23.8652 47.0869 24.0298 47.2515 24.2318 47.2515H25.2216C25.3039 48.7201 25.8923 50.054 26.8124 51.0888L26.1118 51.7894C25.9671 51.9315 25.9671 52.1659 26.1118 52.308C26.1841 52.3803 26.2763 52.4177 26.3711 52.4177C26.4658 52.4177 26.5606 52.3803 26.6304 52.308L27.3335 51.6074C28.3658 52.5275 29.6997 53.1159 31.1683 53.2007V54.188C31.1683 54.3925 31.3329 54.5571 31.5348 54.5571C31.7393 54.5571 31.9038 54.3925 31.9038 54.188V53.2007C33.3724 53.1159 34.7064 52.5275 35.7386 51.6074L36.4418 52.308C36.5116 52.3803 36.6063 52.4177 36.7011 52.4177C36.7958 52.4177 36.8881 52.3803 36.9604 52.308C37.105 52.1659 37.105 51.9315 36.9604 51.7894L36.2597 51.0888C37.1798 50.054 37.7657 48.7201 37.8505 47.2515H38.8404C39.0423 47.2515 39.2069 47.0869 39.2069 46.885C39.2069 46.6805 39.0423 46.516 38.8404 46.516Z" fill="#CFA467"/>
<path d="M31.5343 51.1239C29.218 51.1239 27.333 49.2389 27.333 46.9201C27.333 44.6038 29.218 42.7163 31.5343 42.7163C33.8532 42.7163 35.7381 44.6038 35.7381 46.9201C35.7381 49.2389 33.8532 51.1239 31.5343 51.1239Z" fill="white"/>
<path d="M31.5343 51.1239C29.218 51.1239 27.333 49.2389 27.333 46.9201C27.333 44.6038 29.218 42.7163 31.5343 42.7163C33.8532 42.7163 35.7381 44.6038 35.7381 46.9201C35.7381 49.2389 33.8532 51.1239 31.5343 51.1239Z" fill="white"/>
<path d="M31.5355 42.0256C31.3335 42.0256 31.1689 41.8585 31.1689 41.6566C31.1689 41.4546 31.3335 41.29 31.5355 41.29C31.7399 41.29 31.9045 41.4546 31.9045 41.6566C31.9045 41.8585 31.7399 42.0256 31.5355 42.0256Z" fill="white"/>
<path d="M31.5355 52.5524C31.3335 52.5524 31.1689 52.3879 31.1689 52.1834C31.1689 51.9815 31.3335 51.8169 31.5355 51.8169C31.7399 51.8169 31.9045 51.9815 31.9045 52.1834C31.9045 52.3879 31.7399 52.5524 31.5355 52.5524Z" fill="white"/>
<path d="M36.4326 46.9202C36.4326 46.7183 36.5972 46.5537 36.8016 46.5537C37.0036 46.5537 37.1682 46.7183 37.1682 46.9202C37.1682 47.1247 37.0036 47.2893 36.8016 47.2893C36.5972 47.2893 36.4326 47.1247 36.4326 46.9202Z" fill="white"/>
<path d="M25.9053 46.9202C25.9053 46.7183 26.0698 46.5537 26.2718 46.5537C26.4763 46.5537 26.6408 46.7183 26.6408 46.9202C26.6408 47.1247 26.4763 47.2893 26.2718 47.2893C26.0698 47.2893 25.9053 47.1247 25.9053 46.9202Z" fill="white"/>
<path d="M34.9991 43.4597C34.8545 43.3151 34.8545 43.0832 34.9991 42.9386C35.1412 42.7965 35.3756 42.7965 35.5202 42.9386C35.6623 43.0832 35.6623 43.3151 35.5202 43.4597C35.3756 43.6019 35.1412 43.6019 34.9991 43.4597Z" fill="white"/>
<path d="M27.5539 50.902C27.4117 50.7599 27.4117 50.5255 27.5539 50.3834C27.6985 50.2387 27.9304 50.2387 28.075 50.3834C28.2196 50.5255 28.2196 50.7599 28.075 50.902C27.9304 51.0466 27.6985 51.0466 27.5539 50.902Z" fill="white"/>
<path d="M34.9991 50.3834C35.1412 50.2387 35.3756 50.2387 35.5202 50.3834C35.6623 50.5255 35.6623 50.7599 35.5202 50.902C35.3756 51.0466 35.1412 51.0466 34.9991 50.902C34.8545 50.7599 34.8545 50.5255 34.9991 50.3834Z" fill="white"/>
<path d="M27.5539 42.9381C27.6985 42.796 27.9304 42.796 28.075 42.9381C28.2196 43.0827 28.2196 43.3146 28.075 43.4592C27.9304 43.6014 27.6985 43.6014 27.5539 43.4592C27.4117 43.3146 27.4117 43.0827 27.5539 42.9381Z" fill="white"/>
<path fill-rule="evenodd" clip-rule="evenodd" d="M34.9983 46.9198C34.9983 48.8297 33.4449 50.3831 31.535 50.3831C29.6276 50.3831 28.0742 48.8297 28.0742 46.9198C28.0742 45.0124 29.6276 43.459 31.535 43.459C33.4449 43.459 34.9983 45.0124 34.9983 46.9198ZM29.3533 48.6103L30.7321 47.2314C30.6424 47.0868 30.5925 46.9198 30.5925 46.7378C30.5925 46.3388 30.8394 45.9997 31.1884 45.8601V44.1796C29.8271 44.3516 28.7724 45.5135 28.7724 46.9198C28.7724 47.5581 28.9893 48.1415 29.3533 48.6103ZM33.2255 49.104L31.7744 47.6503C31.6971 47.6703 31.6173 47.6827 31.535 47.6827C31.4527 47.6827 31.3754 47.6703 31.2981 47.6503L29.847 49.104C30.3133 49.4655 30.8992 49.6849 31.535 49.6849C32.1733 49.6849 32.7593 49.4655 33.2255 49.104ZM34.3001 46.9198C34.3001 45.5135 33.2455 44.3516 31.8841 44.1796V45.8601C32.2332 45.9997 32.48 46.3388 32.48 46.7378C32.48 46.9198 32.4276 47.0868 32.3404 47.2314L33.7192 48.6103C34.0832 48.1415 34.3001 47.5581 34.3001 46.9198Z" fill="#CFA467"/>
<path d="M52.3123 0.727051C49.3402 0.727051 46.7717 2.41187 45.414 4.62085C44.0197 2.11235 41.5246 0.727051 38.4424 0.727051C35.7638 0.727051 33.6724 1.88771 32.4615 3.57252V0.951695H26.1748V21.8559H32.4615V10.499C32.4615 7.76585 34.0026 6.26823 36.3876 6.26823C38.7726 6.26823 40.3137 7.76585 40.3137 10.499V21.8559H46.5515V10.499C46.5515 7.76585 48.0926 6.26823 50.4776 6.26823C52.8627 6.26823 54.4038 7.76585 54.4038 10.499V21.8559H60.6415V9.63787C60.6415 4.02181 57.3759 0.727051 52.3123 0.727051Z" fill="white"/>
<path d="M76.9818 0.95166L72.2729 14.0184L67.5396 0.95166H60.5312L68.8605 21.1445L65.3135 29.2941C67.3601 29.2941 68.9825 29.2941 70.7438 29.2941C71.3879 29.2941 71.7161 29.2941 72.3384 29.2941L73.9363 24.3769L74.768 22.405L83.7578 0.95166H76.9818Z" fill="white"/>
<path d="M9.08144 54.9797L0.503906 32.2026H6.6399L11.7577 46.8651L16.9522 32.2026H22.9597L14.2858 54.9797H9.08144Z" fill="url(#paint8_linear_2927_815)"/>
<path d="M9.08144 54.9797L0.503906 32.2026H6.6399L11.7577 46.8651L16.9522 32.2026H22.9597L14.2858 54.9797H9.08144Z" stroke="url(#paint9_linear_2927_815)"/>
<defs>
<linearGradient id="paint0_linear_2927_815" x1="6.23113" y1="40.2068" x2="-17.2904" y2="-7.43377" gradientUnits="userSpaceOnUse">
<stop stop-color="#BA925C"/>
<stop offset="0.278" stop-color="#927040"/>
<stop offset="0.627" stop-color="#FAC882"/>
<stop offset="1" stop-color="#927040"/>
</linearGradient>
<linearGradient id="paint1_linear_2927_815" x1="23.0867" y1="42.381" x2="-2.02876" y2="-8.48757" gradientUnits="userSpaceOnUse">
<stop stop-color="#BA925C"/>
<stop offset="0.278" stop-color="#927040"/>
<stop offset="0.627" stop-color="#FAC882"/>
<stop offset="1" stop-color="#927040"/>
</linearGradient>
<linearGradient id="paint2_linear_2927_815" x1="79.7362" y1="33.1709" x2="79.7362" y2="55.3697" gradientUnits="userSpaceOnUse">
<stop stop-color="#CFA467"/>
<stop offset="0.565" stop-color="#F0C07C"/>
<stop offset="1" stop-color="#987544"/>
</linearGradient>
<linearGradient id="paint3_linear_2927_815" x1="79.7362" y1="33.1709" x2="79.7362" y2="55.3697" gradientUnits="userSpaceOnUse">
<stop stop-color="#D1A668"/>
<stop offset="0.55" stop-color="#EABB78"/>
<stop offset="0.985" stop-color="#A47F4C"/>
</linearGradient>
<linearGradient id="paint4_linear_2927_815" x1="66.9531" y1="31.9497" x2="66.9531" y2="55.3693" gradientUnits="userSpaceOnUse">
<stop stop-color="#CFA467"/>
<stop offset="0.565" stop-color="#F0C07C"/>
<stop offset="1" stop-color="#987544"/>
</linearGradient>
<linearGradient id="paint5_linear_2927_815" x1="66.9531" y1="31.9497" x2="66.9531" y2="55.3693" gradientUnits="userSpaceOnUse">
<stop stop-color="#D1A668"/>
<stop offset="0.55" stop-color="#EABB78"/>
<stop offset="0.985" stop-color="#A47F4C"/>
</linearGradient>
<linearGradient id="paint6_linear_2927_815" x1="52.4858" y1="39.2712" x2="52.4858" y2="55.334" gradientUnits="userSpaceOnUse">
<stop stop-color="#CFA467"/>
<stop offset="0.565" stop-color="#F0C07C"/>
<stop offset="1" stop-color="#987544"/>
</linearGradient>
<linearGradient id="paint7_linear_2927_815" x1="52.4858" y1="39.2712" x2="52.4858" y2="55.334" gradientUnits="userSpaceOnUse">
<stop stop-color="#D1A668"/>
<stop offset="0.55" stop-color="#EABB78"/>
<stop offset="0.985" stop-color="#A47F4C"/>
</linearGradient>
<linearGradient id="paint8_linear_2927_815" x1="11.7318" y1="32.2026" x2="11.7318" y2="54.9797" gradientUnits="userSpaceOnUse">
<stop stop-color="#CFA467"/>
<stop offset="0.565" stop-color="#F0C07C"/>
<stop offset="1" stop-color="#987544"/>
</linearGradient>
<linearGradient id="paint9_linear_2927_815" x1="11.7318" y1="32.2026" x2="11.7318" y2="54.9797" gradientUnits="userSpaceOnUse">
<stop stop-color="#D1A668"/>
<stop offset="0.55" stop-color="#EABB78"/>
<stop offset="0.985" stop-color="#A47F4C"/>
</linearGradient>
</defs>
</svg>
